<svg width="564px" height="504px" viewBox="0 0 564 504" version="1.1" xmlns="http://www.w3.org/2000/svg" xmlns:xlink="http://www.w3.org/1999/xlink">

<mask id="path-1-inside-1_0_1054" fill="white">
<path fill-rule="evenodd" clip-rule="evenodd" d="M90.9463 195.941C115.92 97.1191 205.436 24 312 24C437.921 24 540 126.079 540 252C540 264.704 545.103 277.455 549.138 287.538L549.144 287.552C549.693 288.923 550.221 290.244 550.715 291.51C555.415 303.56 557.649 311.842 555.823 319.022C553.939 326.432 552.268 336.168 550.509 346.909C550.176 348.942 549.839 351.021 549.494 353.143L549.493 353.149C547.984 362.446 546.339 372.58 544.36 383.298C539.495 409.658 532.748 438.74 521.729 464.914C510.685 491.145 495.763 513.459 475.149 527.443C454.918 541.167 427.861 547.782 390.368 540.236C377.18 537.582 363.483 535.156 350.007 532.769L350.007 532.769C348.396 532.484 346.789 532.199 345.186 531.915C330.095 529.237 315.371 526.577 301.638 523.614C273.472 517.536 251.958 510.635 240.414 501.564C227.53 491.441 200.564 462.573 173.525 430.393C146.551 398.291 121.07 364.755 110.718 345.827C108.401 341.592 103.773 339.157 98.9711 339.647C96.6854 339.88 94.3594 340 92 340C54.4446 340 24 309.555 24 272C24 238.126 48.7801 210.017 81.2005 204.851C85.9382 204.096 89.7709 200.592 90.9463 195.941ZM312 0C196.833 0 99.736 77.2452 69.647 182.737C29.6368 192.728 0 228.893 0 272C0 322.81 41.1898 364 92 364C92.5048 364 93.0088 363.996 93.512 363.988C106.573 385.476 130.857 416.92 155.15 445.833C182.021 477.813 210.47 508.559 225.586 520.436C242.042 533.365 268.837 541.089 296.576 547.074C310.796 550.142 325.923 552.872 340.993 555.546C342.596 555.83 344.199 556.114 345.799 556.398C359.32 558.792 372.733 561.168 385.632 563.764C428.49 572.39 462.307 565.155 488.622 547.304C514.554 529.713 531.85 502.727 543.848 474.227C555.871 445.67 562.989 414.591 567.962 387.655C569.992 376.656 571.687 366.212 573.198 356.904L573.199 356.901C573.539 354.803 573.87 352.763 574.194 350.787C575.984 339.85 577.5 331.161 579.083 324.937C583.038 309.382 577.546 294.254 573.074 282.789C572.513 281.35 571.965 279.959 571.433 278.61C567.181 267.823 564 259.753 564 252C564 112.824 451.176 0 312 0ZM87.45 254.439C85.7347 248.038 79.1547 244.239 72.7531 245.954C66.3515 247.669 62.5525 254.249 64.2678 260.651L72.55 291.561C74.2653 297.962 80.8453 301.761 87.2469 300.046C93.6485 298.331 97.4475 291.751 95.7322 285.349L87.45 254.439Z"/>
</mask>
<path d="M90.9463 195.941L67.6778 190.06L90.9463 195.941ZM549.138 287.538L526.856 296.455C526.862 296.47 526.868 296.484 526.874 296.499L549.138 287.538ZM549.144 287.552L571.426 278.635C571.42 278.62 571.414 278.605 571.408 278.59L549.144 287.552ZM550.715 291.51L528.355 300.23L550.715 291.51ZM555.823 319.022L532.564 313.107V313.107L555.823 319.022ZM550.509 346.909L526.824 343.031V343.031L550.509 346.909ZM549.494 353.143L573.145 357.221C573.159 357.144 573.171 357.067 573.184 356.989L549.494 353.143ZM549.493 353.149L525.842 349.071C525.829 349.148 525.816 349.226 525.803 349.303L549.493 353.149ZM544.36 383.298L520.759 378.942V378.942L544.36 383.298ZM521.729 464.914L499.609 455.602V455.602L521.729 464.914ZM475.149 527.443L461.676 507.582L461.675 507.582L475.149 527.443ZM390.368 540.236L385.632 563.764H385.632L390.368 540.236ZM350.007 532.769L343.414 555.846C344.207 556.073 345.01 556.258 345.822 556.402L350.007 532.769ZM350.007 532.769L356.6 509.693C355.807 509.466 355.003 509.281 354.192 509.137L350.007 532.769ZM345.186 531.915L349.379 508.284H349.379L345.186 531.915ZM301.638 523.614L296.576 547.074H296.576L301.638 523.614ZM240.414 501.564L225.586 520.436H225.586L240.414 501.564ZM173.525 430.393L191.9 414.954V414.954L173.525 430.393ZM110.718 345.827L89.6613 357.343L89.6614 357.343L110.718 345.827ZM98.9711 339.647L101.408 363.523H101.408L98.9711 339.647ZM81.2005 204.851L84.9773 228.552L81.2005 204.851ZM69.647 182.737L75.4615 206.022C83.7891 203.943 90.3723 197.574 92.7266 189.32L69.647 182.737ZM93.512 363.988L114.02 351.522C109.595 344.242 101.643 339.853 93.1248 339.991L93.512 363.988ZM155.15 445.833L173.525 430.393H173.525L155.15 445.833ZM225.586 520.436L240.414 501.564L225.586 520.436ZM296.576 547.074L301.638 523.614L296.576 547.074ZM340.993 555.546L345.186 531.915H345.186L340.993 555.546ZM345.799 556.398L341.614 580.03L341.614 580.03L345.799 556.398ZM385.632 563.764L380.897 587.292H380.897L385.632 563.764ZM488.622 547.304L502.095 567.166L488.622 547.304ZM543.848 474.227L521.729 464.914L521.729 464.914L543.848 474.227ZM567.962 387.655L544.36 383.298L567.962 387.655ZM573.198 356.904L596.888 360.749C596.912 360.599 596.935 360.448 596.957 360.298L573.198 356.904ZM573.199 356.901L549.509 353.056C549.484 353.206 549.461 353.356 549.44 353.507L573.199 356.901ZM574.194 350.787L550.509 346.909L550.509 346.909L574.194 350.787ZM579.083 324.937L555.823 319.022L555.823 319.022L579.083 324.937ZM573.074 282.789L550.715 291.509L550.715 291.51L573.074 282.789ZM571.433 278.61L593.761 269.809L593.761 269.809L571.433 278.61ZM72.7531 245.954L78.9647 269.136H78.9647L72.7531 245.954ZM87.45 254.439L110.632 248.228V248.228L87.45 254.439ZM64.2678 260.651L41.0856 266.863L64.2678 260.651ZM72.55 291.561L49.3678 297.772H49.3678L72.55 291.561ZM87.2469 300.046L93.4586 323.228H93.4586L87.2469 300.046ZM95.7322 285.349L118.914 279.137L118.914 279.137L95.7322 285.349ZM312 0C194.187 0 95.2798 80.8367 67.6778 190.06L114.215 201.821C136.559 113.402 216.684 48 312 48V0ZM564 252C564 112.824 451.176 0 312 0V48C424.666 48 516 139.334 516 252H564ZM571.42 278.62C567.062 267.73 564 259.297 564 252H516C516 270.111 523.144 287.18 526.856 296.455L571.42 278.62ZM571.408 278.59L571.402 278.576L526.874 296.499L526.88 296.514L571.408 278.59ZM573.074 282.789C572.536 281.408 571.966 279.985 571.426 278.635L526.862 296.469C527.419 297.861 527.907 299.081 528.355 300.23L573.074 282.789ZM579.083 324.937C583.05 309.336 577.502 294.14 573.074 282.789L528.355 300.23C530.592 305.965 531.711 309.505 532.206 311.915C532.655 314.107 532.31 314.102 532.564 313.107L579.083 324.937ZM574.194 350.787C575.984 339.855 577.499 331.163 579.083 324.937L532.564 313.107C530.378 321.7 528.552 332.481 526.824 343.031L574.194 350.787ZM573.184 356.989C573.529 354.863 573.864 352.801 574.194 350.787L526.824 343.031C526.489 345.083 526.148 347.178 525.804 349.298L573.184 356.989ZM573.144 357.227L573.145 357.221L525.843 349.066L525.842 349.071L573.144 357.227ZM567.962 387.655C569.994 376.645 571.678 366.266 573.183 356.994L525.803 349.303C524.29 358.626 522.684 368.515 520.759 378.942L567.962 387.655ZM543.848 474.227C555.871 445.669 562.99 414.59 567.962 387.655L520.759 378.942C515.999 404.726 509.625 431.812 499.609 455.602L543.848 474.227ZM488.622 547.304C514.553 529.714 531.849 502.728 543.848 474.227L499.609 455.602C489.522 479.562 476.974 497.204 461.676 507.582L488.622 547.304ZM385.632 563.764C428.497 572.391 462.312 565.152 488.622 547.304L461.675 507.582C447.523 517.182 427.225 523.173 395.103 516.708L385.632 563.764ZM345.822 556.402C359.35 558.797 372.766 561.175 385.632 563.764L395.103 516.708C381.593 513.989 367.617 511.515 354.192 509.137L345.822 556.402ZM343.413 555.846L343.414 555.846L356.6 509.693L356.6 509.693L343.413 555.846ZM340.993 555.546C342.6 555.831 344.211 556.116 345.821 556.402L354.192 509.137C352.581 508.852 350.977 508.568 349.379 508.284L340.993 555.546ZM296.576 547.074C310.796 550.142 325.923 552.872 340.993 555.546L349.379 508.284C334.267 505.603 319.946 503.012 306.7 500.154L296.576 547.074ZM225.586 520.436C234.372 527.339 245.483 532.381 256.866 536.365C268.516 540.441 282.002 543.929 296.576 547.074L306.7 500.154C293.108 497.221 281.754 494.219 272.719 491.058C263.418 487.804 258 484.86 255.242 482.693L225.586 520.436ZM155.15 445.832C182.018 477.809 210.469 508.558 225.586 520.436L255.242 482.693C244.59 474.324 219.11 447.338 191.9 414.954L155.15 445.832ZM89.6614 357.343C101.29 378.604 128.216 413.777 155.15 445.833L191.9 414.954C164.887 382.806 140.851 350.906 131.774 334.31L89.6614 357.343ZM101.408 363.523C96.6059 364.013 91.9776 361.578 89.6613 357.343L131.774 334.31C124.825 321.605 110.94 314.301 96.5342 315.771L101.408 363.523ZM92 364C95.1716 364 98.3109 363.839 101.408 363.523L96.5343 315.771C95.0599 315.922 93.5472 316 92 316V364ZM0 272C0 322.81 41.1898 364 92 364V316C67.6995 316 48 296.301 48 272H0ZM77.4237 181.15C33.53 188.145 0 226.151 0 272H48C48 250.101 64.0302 231.89 84.9773 228.552L77.4237 181.15ZM67.6778 190.06C68.8533 185.409 72.686 181.905 77.4237 181.15L84.9773 228.552C99.1903 226.287 110.689 215.775 114.215 201.821L67.6778 190.06ZM92.7266 189.32C119.954 93.8607 207.837 24 312 24V-24C185.829 -24 79.518 60.6297 46.5675 176.154L92.7266 189.32ZM24 272C24 240.172 45.8801 213.409 75.4615 206.022L63.8326 159.452C13.3934 172.047 -24 217.614 -24 272H24ZM92 340C54.4446 340 24 309.555 24 272H-24C-24 336.065 27.935 388 92 388V340ZM93.1248 339.991C92.7502 339.997 92.3752 340 92 340V388C92.6344 388 93.2675 387.995 93.8991 387.985L93.1248 339.991ZM173.525 430.393C149.379 401.656 126.083 371.367 114.02 351.522L73.0036 376.454C87.0634 399.584 112.335 432.184 136.775 461.272L173.525 430.393ZM240.414 501.564C227.528 491.44 200.56 462.569 173.525 430.393L136.775 461.272C163.483 493.057 193.413 525.679 210.758 539.307L240.414 501.564ZM301.638 523.614C273.5 517.542 251.967 510.642 240.414 501.564L210.758 539.307C232.117 556.089 264.175 564.635 291.514 570.534L301.638 523.614ZM345.186 531.915C330.095 529.237 315.371 526.577 301.638 523.614L291.514 570.534C306.22 573.707 321.751 576.506 336.8 579.177L345.186 531.915ZM349.985 532.766C348.383 532.482 346.785 532.199 345.186 531.915L336.8 579.177C338.407 579.462 340.014 579.747 341.614 580.03L349.985 532.766ZM390.368 540.236C377.146 537.575 363.452 535.151 349.985 532.766L341.614 580.03C355.189 582.434 368.321 584.761 380.897 587.292L390.368 540.236ZM475.149 527.443C454.922 541.164 427.866 547.783 390.368 540.236L380.897 587.292C429.114 596.997 469.692 589.147 502.095 567.166L475.149 527.443ZM521.729 464.914C510.685 491.147 495.762 513.46 475.149 527.443L502.095 567.166C533.345 545.967 553.015 514.306 565.968 483.539L521.729 464.914ZM544.36 383.298C539.495 409.657 532.748 438.74 521.729 464.914L565.968 483.539C578.994 452.6 586.484 419.526 591.563 392.012L544.36 383.298ZM549.508 353.058C547.993 362.391 546.337 372.59 544.36 383.298L591.563 392.012C593.647 380.721 595.381 370.032 596.888 360.749L549.508 353.058ZM549.44 353.507L549.439 353.509L596.957 360.298L596.957 360.295L549.44 353.507ZM550.509 346.909C550.182 348.904 549.849 350.961 549.509 353.056L596.888 360.746C597.23 358.645 597.558 356.621 597.878 354.665L550.509 346.909ZM555.823 319.022C553.938 326.433 552.267 336.174 550.509 346.909L597.878 354.665C599.702 343.526 601.061 335.889 602.343 330.852L555.823 319.022ZM550.715 291.51C555.387 303.489 557.657 311.812 555.823 319.022L602.342 330.852C608.42 306.952 599.706 285.02 595.434 274.068L550.715 291.51ZM549.105 287.411C549.639 288.766 550.172 290.118 550.715 291.509L595.434 274.068C594.855 272.583 594.291 271.152 593.761 269.809L549.105 287.411ZM540 252C540 265.295 545.426 278.077 549.105 287.411L593.761 269.809C588.936 257.569 588 254.211 588 252H540ZM312 24C437.921 24 540 126.079 540 252H588C588 99.5694 464.431 -24 312 -24V24ZM78.9647 269.136C72.5631 270.852 65.9831 267.053 64.2678 260.651L110.632 248.228C105.486 229.023 85.7462 217.626 66.5414 222.772L78.9647 269.136ZM87.45 254.439C89.1653 260.841 85.3663 267.421 78.9647 269.136L66.5414 222.772C47.3366 227.918 35.9397 247.658 41.0856 266.863L87.45 254.439ZM95.7322 285.349L87.45 254.439L41.0856 266.863L49.3678 297.772L95.7322 285.349ZM81.0353 276.864C87.4369 275.148 94.0169 278.947 95.7322 285.349L49.3678 297.772C54.5137 316.977 74.2537 328.374 93.4586 323.228L81.0353 276.864ZM72.55 291.561C70.8347 285.159 74.6337 278.579 81.0353 276.864L93.4586 323.228C112.663 318.082 124.06 298.342 118.914 279.137L72.55 291.561ZM64.2678 260.651L72.55 291.561L118.914 279.137L110.632 248.228L64.2678 260.651Z" fill="black" mask="url(#path-1-inside-1_0_1054)"/>

<path d="M145 10.5001C145 10.5001 153.471 7 164.765 7C176.059 7 187.811 12 208.059 12C228.306 12 241 7 241 7" stroke="black" stroke-width="12" stroke-linecap="round" stroke-linejoin="round"/>
<path d="M103 10.5001C103 10.5001 94.5294 7 83.2353 7C71.9412 7 60.1888 12 39.9412 12C19.6935 12 7 7 7 7" stroke="black" stroke-width="12" stroke-linecap="round" stroke-linejoin="round"/>

<path fill-rule="evenodd" clip-rule="evenodd" d="M177.91 9.62531C181.416 4.96629 198.95 0.77614 218.527 5.85028C238.104 10.9244 305.263 32.0602 305.263 32.0602C305.263 32.0602 274.746 25.8362 249.883 23.223C225.02 20.6098 184.579 23.023 184.579 23.023C184.579 23.023 174.404 14.2843 177.91 9.62531Z" fill="black" stroke="black" stroke-width="4" stroke-linecap="round" stroke-linejoin="round"/>
<path fill-rule="evenodd" clip-rule="evenodd" d="M129.481 9.62531C125.974 4.96629 108.44 0.77614 88.8636 5.85028C69.2867 10.9244 2.12812 32.0602 2.12812 32.0602C2.12812 32.0602 32.6447 25.8362 57.5078 23.223C82.3708 20.6098 122.812 23.023 122.812 23.023C122.812 23.023 132.987 14.2843 129.481 9.62531Z" fill="black" stroke="black" stroke-width="4" stroke-linecap="round" stroke-linejoin="round"/>

    <title>mouth-7</title>
    <g id="All-customizable-items" stroke="none" stroke-width="1" fill="none" fill-rule="evenodd" stroke-linecap="round" stroke-linejoin="round">
        <g id="Mouth/-7" transform="translate(-550.000000, -734.000000)" fill="#000000" stroke="#000000" stroke-width="16">
            <path d="M559.810774,753.60177 C566.691716,738.132743 579.421458,738.132743 598,753.60177 L598.555602,753.14234 C616.832552,738.13429 629.377094,738.287434 636.189226,753.60177 C643.001358,768.916106 630.593059,783.900851 598.96433,798.556005 L598,799 C565.659574,784.20354 552.929833,769.070796 559.810774,753.60177 Z" id="mouth-7"></path>
        </g>
    </g>

    <title>nose-0</title>
    <g id="All-customizable-items" stroke="none" stroke-width="1" fill="none" fill-rule="evenodd" stroke-linecap="round" stroke-linejoin="round">
        <g id="Nose/-0" transform="translate(-629.000000, -587.000000)" stroke="#000000" stroke-width="16">
            <line x1="637" y1="596" x2="661.856189" y2="682.499537" id="nose-0" transform="translate(649.428094, 639.249768) rotate(1.032339) translate(-649.428094, -639.249768) "></line>
        </g>
    </g>

    <title>hair-0</title>
    <path
        d="m32,8c-13.25,0-24,10.75-24,24s10.75,24,24,24,24-10.75,24-24-10.75-24-24-24Zm0,42c-9.94,0-18-8.06-18-18,0-3.89,1.24-7.48,3.34-10.42l25.08,25.08c-2.94,2.09-6.53,3.34-10.42,3.34Zm14.66-7.58l-25.08-25.08c2.94-2.09,6.53-3.34,10.42-3.34,9.94,0,18,8.06,18,18,0,3.89-1.24,7.48-3.34,10.42Z"
        fill="#000" />

    <title>details-4</title>
    <g id="All-customizable-items" stroke="none" stroke-width="1" fill="none" fill-rule="evenodd" stroke-linecap="round" stroke-linejoin="round">
        <g id="Details/-4" transform="translate(-432.000000, -613.000000)" stroke="#000000" stroke-width="12">
            <path d="M438.627052,619 C436.62301,638.948361 439.422618,653.748361 447.025876,663.4 C454.629134,673.051639 462.287175,678.251639 470,679 C472.666667,693.666667 476.666667,705.666667 482,715 C487.333333,724.333333 494,732.333333 502,739" id="details-4"></path>
        </g>
    </g>

    <title>glasses-7</title>
    <g id="All-customizable-items" stroke="none" stroke-width="1" fill="none" fill-rule="evenodd" stroke-linecap="round" stroke-linejoin="round">
        <g id="Glasses/-7" transform="translate(-287.000000, -500.000000)" fill="#000000" stroke="#000000" stroke-width="4">
            <g id="glasses-7" transform="translate(289.000000, 502.000000)">
                <path d="M339.740368,39.6303745 C323.440763,83.0959855 305.148598,104 266.642657,104 C226.661085,104 208.819095,87.634841 206.637074,34.1753215 C206.548706,32.0103005 204.003015,29.8282793 199,27.6292579 L199,6.90005646 C238.696939,1.25810378 267.426885,-0.923917428 285.189838,0.353992852 C297.612079,1.2476793 312.018598,4.36213391 328.409394,9.69735669 C333.107339,11.2265431 340.521032,12.1124607 350.650474,12.3551095 L351.336909,12.3375684 C361.115498,12.0718595 368.30038,11.1917889 372.891553,9.69735669 C389.282349,4.36213391 403.688868,1.2476793 416.11111,0.353992852 C433.874063,-0.923917428 462.604008,1.25810378 502.300947,6.90005646 L502.300947,6.90005646 L502.300947,27.6292579 C497.297933,29.8282793 494.752241,32.0103005 494.663873,34.1753215 C492.481852,87.634841 474.639862,104 434.65829,104 C396.15235,104 377.860184,83.0959855 361.56058,39.6303745 C359.378558,33.8116513 355.741856,30.9022897 350.650474,30.9022897 L350.650474,30.9022897 C345.559091,30.9022897 341.922389,33.8116513 339.740368,39.6303745 Z" id="Combined-Shape"></path>
                <polygon id="Path" points="199 7 4 39 0 48 199 28"></polygon>
            </g>
        </g>
    </g>

</svg>