<svg width="564px" height="504px" viewBox="0 0 564 504" version="1.1" xmlns="http://www.w3.org/2000/svg" xmlns:xlink="http://www.w3.org/1999/xlink">

    <title>face-8</title>
    <g id="All-customizable-items" stroke="none" stroke-width="1" fill="none" fill-rule="evenodd" stroke-linecap="round" stroke-linejoin="round">
        <g id="Face/-8" transform="translate(-220.000000, -367.000000)" stroke="#000000" stroke-width="24">
            <path d="M532,379 C664.54834,379 772,486.45166 772,619 C772,751.54834 724.54834,899 592,899 C492.560218,899 373.476049,816.010833 320.189513,718.584987 C317.498129,718.859681 314.765451,719 312,719 C267.81722,719 232,683.18278 232,639 C232,599.134956 261.158843,566.080325 299.312086,560.00055 C325.599297,455.979213 419.809919,379 532,379 Z M295.858895,624.545187 L304.141105,655.454813" id="face-8"></path>
        </g>
    </g>

    <title>eyes-1</title>
    <g id="All-customizable-items" stroke="none" stroke-width="1" fill="none" fill-rule="evenodd">
        <g id="Eyes/-1" transform="translate(-544.000000, -507.000000)">
            <g id="eyes-1" transform="translate(546.000000, 509.000000)">
                <path d="M24,7 C37.254834,7 48,17.745166 48,31 C48,44.254834 37.254834,55 24,55 C10.745166,55 0,44.254834 0,31 C0,17.745166 10.745166,7 24,7 Z M162,7 C175.254834,7 186,17.745166 186,31 C186,44.254834 175.254834,55 162,55 C148.745166,55 138,44.254834 138,31 C138,17.745166 148.745166,7 162,7 Z" id="Combined-Shape" fill="#000000"></path>
                <g id="Group" stroke="#000000" stroke-linecap="round" stroke-linejoin="round" stroke-width="4">
                    <path d="M0,7 C8,2.33333333 16,0 24,0 C32,0 40,2.33333333 48,7" id="Path"></path>
                    <path d="M138,7 C146,2.33333333 154,0 162,0 C170,0 178,2.33333333 186,7" id="Path"></path>
                </g>
            </g>
        </g>
    </g>

    <title>eyebrows-8</title>
    <g id="All-customizable-items" stroke="none" stroke-width="1" fill="none" fill-rule="evenodd" stroke-linecap="round" stroke-linejoin="round">
        <g id="Eyebrows/-8" transform="translate(-522.000000, -482.000000)" stroke="#000000" stroke-width="16">
            <g id="eyebrows-8" transform="translate(530.000000, 490.000000)">
                <path d="M64,10 C59.1947065,3.33333333 51.1947065,0 40,0 C28.8052935,0 15.4719602,3.33333333 0,10" id="Path"></path>
                <path d="M218,10 C213.194706,3.33333333 205.194706,0 194,0 C182.805294,0 169.47196,3.33333333 154,10" id="Path" transform="translate(186.000000, 5.000000) scale(-1, 1) translate(-186.000000, -5.000000) "></path>
            </g>
        </g>
    </g>

<path fill-rule="evenodd" clip-rule="evenodd" d="M4 18.4316C4 18.4316 41.7253 19.2442 61 16.6443C80.2747 14.0444 101.352 5.18744 110 4.13368C118.648 3.07993 126 8.60177 128 8.60177C130 8.60177 135 3.24007 145 4.13368C155 5.0273 175 18.4316 175 18.4316C175 18.4316 152 25.5805 116 25.5805C49 28.2613 4 18.4316 4 18.4316Z" stroke="black" stroke-width="8" stroke-linecap="round" stroke-linejoin="round"/>
<path fill-rule="evenodd" clip-rule="evenodd" d="M162 22.5616C162 22.5616 153.163 37.2252 144.692 41.8625C136.22 46.4998 126.288 43.3191 119 43.3191C111.712 43.3191 97.8633 48.5036 78.1918 43.2411C58.5203 37.9786 29 21.8723 29 21.8723C29 21.8723 69.9936 25.7269 97.3219 26.0082C124.65 26.2896 162 22.5616 162 22.5616Z" stroke="black" stroke-width="8" stroke-linecap="round" stroke-linejoin="round"/>

    <title>nose-6</title>
    <g id="All-customizable-items" stroke="none" stroke-width="1" fill="none" fill-rule="evenodd" stroke-linecap="round" stroke-linejoin="round">
        <g id="Nose/-6" transform="translate(-617.000000, -560.000000)" stroke="#000000" stroke-width="16">
            <path d="M673,568 C662.55102,590.836147 657.326531,613.414126 657.326531,635.733939 C657.326531,669.213657 685.938776,657.439501 683,683 C681.040816,700.040333 661.707483,708.388498 625,708.044495" id="nose-6"></path>
        </g>
    </g>

<path fill-rule="evenodd" clip-rule="evenodd" d="M315.002 8.99995C392.002 1.99995 428.359 8.22 471.002 43C484.099 37.68 558.002 22 621.002 103C684.002 184 667.755 271.067 656.002 320C653.235 331.516 641.002 279 587.002 238C533.002 197 471.002 169 471.002 169C471.002 169 381.002 242 369.002 306C367.356 314.775 387.002 180 387.002 180C387.002 180 363.473 236.878 359.002 258C350.746 296.997 356.94 303.932 341.002 333C325.064 362.068 287.904 381.544 268.002 405L265.719 400.336L263.832 396.519C255.738 380.231 250.128 370.058 247.002 366C241.545 358.918 222.322 343.08 189.002 347C166.335 349.667 118.002 388 131.002 433C136.838 453.204 150.234 469.023 171.189 480.458C181.349 486.003 207.002 494 207.002 494C207.002 494 196.002 496 188.002 496C180.002 496 170.002 493 170.002 493C170.002 493 121.002 551 65.0017 546C9.00173 541 -3.99827 483 15.0017 446C34.0017 409 109.424 425.247 108.002 420C61.1223 426.624 51.8186 402.4 15.0017 397C56.9927 389.839 70.2653 407.383 108.002 397C107.549 394.903 65.9495 369.737 37.0017 366C69.091 360.029 73.3908 376.95 102.002 369C92.2156 307.783 100.515 242.93 131.002 169C171.002 72 238.002 16 315.002 8.99995Z" fill="black" stroke="black" stroke-width="12" stroke-linecap="round" stroke-linejoin="round"/>

<path fill-rule="evenodd" clip-rule="evenodd" d="M19.7842 6C44.4509 105.333 68.1895 162 91 176L92.9079 177.167C123.534 195.823 128.186 194.826 156.716 178.95C161.244 186.656 167.339 194.429 175.238 202L176.909 203.597C203.91 229.317 216.658 237.363 238.156 239.871L250 212H278L291.871 239.739C321.383 235.576 329.896 221.137 347.53 197C353.248 189.173 357.743 180.58 360.871 171.933L365.567 172.369C380.175 173.765 390.28 175.107 393 176C406.082 180.293 373.784 231 357 249C340.216 267 310.216 287 265 287C219.784 287 132.098 276.714 61.7842 219C14.9086 180.524 -2.42477 109.524 9.78421 6H19.7842Z" fill="black" stroke="black" stroke-width="12" stroke-linecap="round" stroke-linejoin="round"/>
<path fill-rule="evenodd" clip-rule="evenodd" d="M258.276 83.0238C270.49 82.3882 263.298 94.6586 258.276 96.4956C256.833 97.0233 244.815 97.5536 235.174 98.945C211.252 102.398 177.346 107.779 175.914 106.906C173.905 105.681 174.91 103.232 181.94 97.7203C188.971 92.2091 246.062 83.6595 258.276 83.0238Z" fill="black" stroke="black" stroke-width="12" stroke-linecap="round" stroke-linejoin="round"/>
<path fill-rule="evenodd" clip-rule="evenodd" d="M293.724 83.0238C281.51 82.3882 288.702 94.6586 293.724 96.4956C295.167 97.0233 307.185 97.5536 316.826 98.945C340.748 102.398 374.654 107.779 376.086 106.906C378.095 105.681 377.09 103.232 370.06 97.7203C363.029 92.2091 305.938 83.6595 293.724 83.0238Z" fill="black" stroke="black" stroke-width="12" stroke-linecap="round" stroke-linejoin="round"/>

<path fill-rule="evenodd" clip-rule="evenodd" d="M527.209 22.2168C527.813 13.2841 520.652 6 511.699 6H177C168.163 6 161 13.1634 161 22V97.7598C161 102.706 163.26 107.352 167.249 110.275C187.881 125.396 254.959 172 297.94 172C349.244 172 341.761 110.343 388.321 110.343C434.881 110.343 412.97 172 469.116 162.514C513.7 154.982 524.608 60.7171 527.209 22.2168Z" fill="white" stroke="black" stroke-width="12" stroke-linecap="round" stroke-linejoin="round"/>
<path fill-rule="evenodd" clip-rule="evenodd" d="M505.642 31.9945C505.893 27.5088 502.3 23.8467 497.807 23.8467L187 23.8467C182.582 23.8467 179 27.4284 179 31.8467V83.3487C179 85.7589 180.047 88.0083 181.946 89.493C196.566 100.927 262.245 150.47 302.546 150.47C333.607 150.47 325.397 95.489 384.087 90.4907C442.777 85.4924 426.644 145.472 464.954 142.14C497.033 139.35 504.169 58.2882 505.642 31.9945Z" fill="black"/>
<mask id="mask0_0_1158" style="mask-type:alpha" maskUnits="userSpaceOnUse" x="179" y="23" width="327" height="128">
<path fill-rule="evenodd" clip-rule="evenodd" d="M505.642 31.9945C505.893 27.5088 502.3 23.8467 497.807 23.8467L187 23.8467C182.582 23.8467 179 27.4284 179 31.8467V83.3487C179 85.7589 180.047 88.0083 181.946 89.493C196.566 100.927 262.245 150.47 302.546 150.47C333.607 150.47 325.397 95.489 384.087 90.4907C442.777 85.4924 426.644 145.472 464.954 142.14C497.033 139.35 504.169 58.2882 505.642 31.9945Z" fill="white"/>
</mask>
<g mask="url(#mask0_0_1158)">
<path d="M393.808 14.7422L503.264 102.828" stroke="white" stroke-width="16" stroke-linecap="round" stroke-linejoin="round"/>
<path d="M418.436 0.978516L527.892 89.0645" stroke="white" stroke-width="8" stroke-linecap="round" stroke-linejoin="round"/>
</g>
<path fill-rule="evenodd" clip-rule="evenodd" d="M161 14.0361L6 44.9996V88.8749L161 73.9995V14.0361Z" fill="black" stroke="black" stroke-width="12" stroke-linecap="round" stroke-linejoin="round"/>

</svg>