<svg width="564px" height="504px" viewBox="0 0 564 504" version="1.1" xmlns="http://www.w3.org/2000/svg" xmlns:xlink="http://www.w3.org/1999/xlink">

    <title>face-10</title>
    <g id="All-customizable-items" stroke="none" stroke-width="1" fill="none" fill-rule="evenodd" stroke-linecap="round" stroke-linejoin="round">
        <g id="Face/-10" transform="translate(-220.000000, -367.000000)" stroke="#000000" stroke-width="24">
            <path d="M532,379 C664.54834,379 772,486.45166 772,619 C772,751.54834 684.54834,899 592,899 C535.13263,899 351.668898,801.612202 313.752775,718.980575 L313.322946,718.989282 L312,719 C267.81722,719 232,683.18278 232,639 C232,599.134956 261.158843,566.080325 299.312086,560.00055 C325.599297,455.979213 419.809919,379 532,379 Z M295.858895,624.545187 L304.141105,655.454813" id="face-10"></path>
        </g>
    </g>

<path fill-rule="evenodd" clip-rule="evenodd" d="M3 11.1564C3 11.1564 31.5687 37.4381 55.1689 32.9068C78.7692 28.3755 68.8322 3 68.8322 3C68.8322 3 83.7377 29.2817 62.6217 37.4381C41.5057 45.5945 3 11.1564 3 11.1564Z" fill="black" stroke="black" stroke-width="6" stroke-linecap="round" stroke-linejoin="round"/>
<path fill-rule="evenodd" clip-rule="evenodd" d="M141 11.1564C141 11.1564 169.569 37.4381 193.169 32.9068C216.769 28.3755 206.832 3 206.832 3C206.832 3 221.738 29.2817 200.622 37.4381C179.506 45.5945 141 11.1564 141 11.1564Z" fill="black" stroke="black" stroke-width="6" stroke-linecap="round" stroke-linejoin="round"/>

    <title>eyebrows-5</title>
    <g id="All-customizable-items" stroke="none" stroke-width="1" fill="none" fill-rule="evenodd" stroke-linecap="round" stroke-linejoin="round">
        <g id="Eyebrows/-5" transform="translate(-504.000000, -458.000000)" stroke="#000000" stroke-width="24">
            <g id="eyebrows-5" transform="translate(517.000000, 471.000000)">
                <line x1="1" y1="27.4172651" x2="76.8548788" y2="2" id="Path" transform="translate(38.927439, 14.708633) rotate(2.524843) translate(-38.927439, -14.708633) "></line>
                <line x1="166" y1="27.4172651" x2="241.854879" y2="2" id="Path" transform="translate(203.927439, 14.708633) scale(-1, 1) rotate(2.524843) translate(-203.927439, -14.708633) "></line>
            </g>
        </g>
    </g>

<path fill-rule="evenodd" clip-rule="evenodd" d="M33.8702 55.5554C14.1478 43.2093 4.05731 21.766 11.3959 12.019C18.7344 2.2721 59 16.6372 99 16.3186C139 16.0001 179.266 2.2721 186.604 12.019C193.943 21.766 183.852 43.2093 164.13 55.5554C155.101 61.2073 127.818 67.9999 99.4434 67.9999C71.069 67.9999 42.8069 61.1497 33.8702 55.5554Z" stroke="black" stroke-width="16" stroke-linecap="round" stroke-linejoin="round"/>
<path d="M59.3223 58C59.3223 58 79.161 50 98.9997 50C118.838 50 138.677 58 138.677 58" stroke="black" stroke-width="8" stroke-linecap="round" stroke-linejoin="round"/>

<path fill-rule="evenodd" clip-rule="evenodd" d="M7.51613 3C7.51613 3 18.2224 8.69809 26 17C32.6427 24.0906 35.296 34.2946 39 45C42.5781 55.3416 54.5563 64.0699 54 72C51.2903 110.626 3 112.16 3 112.16C3 112.16 55 112 59 71.855C60.0047 61.7714 47.4515 54.9713 43 45C38.1683 34.1771 36 22 28 16C19.8807 9.9105 7.51613 3 7.51613 3Z" fill="black" stroke="black" stroke-width="6" stroke-linecap="round" stroke-linejoin="round"/>

<path fill-rule="evenodd" clip-rule="evenodd" d="M45.115 191.825L82.9983 282C82.9983 282 118.998 156.592 118.998 139C118.998 121.408 65.2941 126.522 88.9983 96C100.662 80.981 189.998 6 189.998 6C189.998 6 126.998 12 63.9983 71C0.998302 130 6.9983 192 6.9983 192L45.115 191.825Z" fill="black" stroke="black" stroke-width="12" stroke-linecap="round" stroke-linejoin="round"/>

<path fill-rule="evenodd" clip-rule="evenodd" d="M19.7842 6C43.1291 87.8164 69.7958 132.483 99.7842 140C144.767 151.275 148.784 93 182.784 74C216.784 55 273.784 77 309.784 77C345.784 77 408.703 62.7072 421.784 67C434.866 71.2928 433.106 199.47 374.784 261C343.941 288.615 331.399 288.571 273.784 289C216.17 289.429 132.098 276.714 61.7842 219C14.9086 180.524 -2.42476 109.524 9.78421 6H19.7842ZM200.784 86C183.514 98.4396 151.515 146.317 168.784 160C186.054 173.683 245.517 158 283.784 158C322.052 158 363.028 166.22 368.784 160C374.541 153.78 371.784 105 355.784 93C339.784 81 306.694 98 288.784 98C270.875 98 218.054 73.5604 200.784 86Z" fill="black"/>
<path d="M19.7842 6L25.5539 4.35371C24.8187 1.77689 22.4639 0 19.7842 0V6ZM99.7842 140L98.3254 145.82L99.7842 140ZM374.784 261L378.786 265.47C378.909 265.361 379.026 265.247 379.139 265.128L374.784 261ZM61.7842 219L57.9775 223.638L61.7842 219ZM9.78421 6V0C6.74234 0 4.18178 2.27633 3.82551 5.29727L9.78421 6ZM288.784 98V92V98ZM14.0145 7.64629C25.7517 48.7815 38.4259 80.9649 52.1412 103.938C65.7662 126.76 81.0137 141.481 98.3254 145.82L101.243 134.18C88.5662 131.002 75.4862 119.631 62.4446 97.7866C49.4932 76.0931 37.1616 45.0349 25.5539 4.35371L14.0145 7.64629ZM98.3254 145.82C110.941 148.982 121.245 147.335 129.948 142.313C138.362 137.457 144.762 129.729 150.318 121.795C153.115 117.8 155.824 113.561 158.477 109.469C161.16 105.33 163.814 101.294 166.629 97.4714C172.274 89.8056 178.294 83.3828 185.711 79.2377L179.857 68.7623C170.275 74.1172 163.043 82.1038 156.966 90.356C153.92 94.4926 151.096 98.7928 148.407 102.942C145.687 107.138 143.129 111.14 140.488 114.912C135.167 122.512 130.002 128.426 123.95 131.92C118.185 135.246 111.119 136.656 101.243 134.18L98.3254 145.82ZM185.711 79.2377C200.806 70.8023 221.717 71.1941 244.726 74.3204C256.139 75.871 267.434 77.9837 278.578 79.7827C289.54 81.5523 300.264 83 309.784 83V71C301.304 71 291.403 69.6977 280.49 67.9361C269.76 66.2038 257.929 64.004 246.342 62.4296C223.352 59.3059 198.762 58.1977 179.857 68.7623L185.711 79.2377ZM309.784 83C328.302 83 353.533 79.3428 375.204 76.3332C386.165 74.8109 396.231 73.4489 404.358 72.728C408.42 72.3677 411.88 72.1788 414.653 72.1971C417.563 72.2162 419.203 72.4676 419.913 72.7009L423.655 61.2991C421.096 60.4592 417.907 60.2182 414.732 60.1973C411.419 60.1755 407.536 60.399 403.298 60.7749C394.823 61.5267 384.457 62.9329 373.553 64.4472C351.495 67.5108 327.266 71 309.784 71V83ZM419.913 72.7009C418.666 72.2917 418.461 71.5293 418.866 72.2253C419.19 72.7839 419.647 73.8555 420.12 75.6091C421.058 79.0819 421.8 84.2219 422.17 90.8076C422.907 103.911 422.124 121.84 419.128 141.638C413.105 181.439 398.347 227.419 370.43 256.872L379.139 265.128C409.543 233.051 424.827 184.177 430.993 143.434C434.092 122.96 434.942 104.194 434.151 90.1342C433.758 83.1382 432.947 77.0793 431.705 72.4804C431.089 70.1982 430.299 68.0157 429.24 66.195C428.262 64.5117 426.537 62.2449 423.655 61.2991L419.913 72.7009ZM370.782 256.53C355.688 270.044 345.712 276.212 332.889 279.369C319.549 282.653 302.868 282.783 273.74 283L273.829 295C302.315 294.788 320.713 294.725 335.758 291.021C351.321 287.189 363.038 279.571 378.786 265.47L370.782 256.53ZM273.74 283C216.901 283.424 134.417 270.856 65.5909 214.362L57.9775 223.638C129.778 282.573 215.438 295.435 273.829 295L273.74 283ZM65.5909 214.362C21.1717 177.902 3.60048 109.662 15.7429 6.70273L3.82551 5.29727C-8.45001 109.385 8.64545 183.145 57.9775 223.638L65.5909 214.362ZM9.78421 12H19.7842V0H9.78421V12ZM197.277 81.1315C187.641 88.073 174.784 104.006 166.52 119.744C162.364 127.658 159.088 136.041 158.118 143.656C157.155 151.221 158.365 159.4 165.058 164.703L172.51 155.297C170.568 153.759 169.303 150.821 170.022 145.172C170.735 139.574 173.3 132.644 177.144 125.323C184.88 110.592 196.658 96.3666 204.291 90.8685L197.277 81.1315ZM165.058 164.703C170.925 169.351 179.516 170.986 188.341 171.452C197.422 171.931 208.047 171.212 219.015 170.101C241.4 167.832 265.046 164 283.784 164V152C264.255 152 239.035 156.01 217.805 158.162C206.965 159.26 197.094 159.897 188.973 159.468C180.596 159.026 175.278 157.49 172.51 155.297L165.058 164.703ZM283.784 164C302.602 164 322.053 166.02 337.991 167.313C345.846 167.95 352.985 168.421 358.575 168.31C361.362 168.255 364.013 168.053 366.294 167.569C368.37 167.129 371.171 166.255 373.188 164.076L364.381 155.924C364.959 155.3 365.22 155.53 363.803 155.83C362.592 156.088 360.798 156.264 358.337 156.313C353.429 156.41 346.852 155.992 338.961 155.352C323.405 154.09 303.234 152 283.784 152V164ZM373.188 164.076C375.045 162.068 375.902 159.28 376.385 157.159C376.93 154.763 377.262 151.937 377.423 148.915C377.747 142.849 377.416 135.411 376.388 127.858C375.361 120.314 373.609 112.426 370.983 105.523C368.417 98.7769 364.734 92.2121 359.384 88.2L352.184 97.8C354.835 99.7879 357.496 103.821 359.767 109.79C361.978 115.603 363.555 122.549 364.498 129.477C365.439 136.396 365.718 143.07 365.44 148.275C365.3 150.888 365.028 152.987 364.684 154.496C364.278 156.28 363.962 156.377 364.381 155.924L373.188 164.076ZM359.384 88.2C354.006 84.1663 347.527 82.8252 341.184 82.7196C334.849 82.6141 328.112 83.7331 321.712 85.1399C315.458 86.5146 308.677 88.3751 303.161 89.6963C297.301 91.0999 292.485 92 288.784 92V104C294.038 104 300.074 102.775 305.956 101.366C312.182 99.8749 318.031 98.2354 324.288 96.8601C330.399 95.5169 336.055 94.6359 340.984 94.7179C345.905 94.7998 349.563 95.8337 352.184 97.8L359.384 88.2ZM288.784 92C285.24 92 279.355 90.7189 271.476 88.5844C264.067 86.5773 254.792 83.7894 246.047 81.5265C237.16 79.2266 227.948 77.2238 219.725 76.642C211.755 76.0782 203.384 76.7328 197.277 81.1315L204.291 90.8685C206.819 89.0474 211.527 88.0921 218.878 88.6121C225.975 89.1142 234.326 90.8887 243.041 93.1438C251.899 95.4359 260.267 97.9804 268.338 100.167C275.94 102.226 283.374 104 288.784 104V92Z" fill="black"/>

    <title>glasses-8</title>
    <g id="All-customizable-items" stroke="none" stroke-width="1" fill="none" fill-rule="evenodd" stroke-linecap="round" stroke-linejoin="round">
        <g id="Glasses/-8" transform="translate(-285.000000, -471.000000)" stroke="#000000">
            <g id="glasses-8" transform="translate(293.000000, 475.000000)">
                <path d="M328.31869,48.9411765 C333.965749,25.4117647 327.377514,0 252.083396,0 C176.789279,0 173.024573,30.1176471 170.201043,48.9411765 C167.377514,67.7647059 157.024573,140.235294 227.612808,143.058824 C298.201043,145.882353 322.671631,72.4705882 328.31869,48.9411765 Z" id="Path" stroke-width="8" fill="#0C0C0C"></path>
                <path d="M523.46091,48.9411765 C529.107969,25.4117647 522.519734,3.63797881e-12 447.225616,3.63797881e-12 C371.931498,3.63797881e-12 368.166792,30.1176471 365.343263,48.9411765 C362.519734,67.7647059 352.166792,140.235294 422.755028,143.058824 C493.343263,145.882353 517.813851,72.4705882 523.46091,48.9411765 Z" id="Path" stroke-width="8" fill="#0C0C0C" transform="translate(444.072807, 71.569037) scale(-1, 1) translate(-444.072807, -71.569037) "></path>
                <line x1="301.965749" y1="7.52941176" x2="391.377514" y2="7.52941176" id="Path" stroke-width="8"></line>
                <path d="M301.965749,35.7647059 C317.212807,34.5098039 332.271631,33.8823529 347.14222,33.8823529 C362.012808,33.8823529 376.757907,34.5098039 391.377514,35.7647059" id="Path" stroke-width="8"></path>
                <line x1="217" y1="40" x2="1.3111035" y2="83.3393577" id="Path" stroke-width="16" transform="translate(109.155552, 61.669679) rotate(1.361411) translate(-109.155552, -61.669679) "></line>
            </g>
        </g>
    </g>

</svg>