<svg width="564px" height="504px" viewBox="0 0 564 504" version="1.1" xmlns="http://www.w3.org/2000/svg" xmlns:xlink="http://www.w3.org/1999/xlink">

<mask id="path-1-inside-1_0_1058" fill="white">
<path fill-rule="evenodd" clip-rule="evenodd" d="M90.9463 195.941C115.92 97.1191 205.436 24 312 24C437.921 24 540 126.079 540 252C540 264.704 545.103 277.455 549.138 287.538L549.144 287.552C549.693 288.923 550.221 290.244 550.715 291.51C555.415 303.56 557.649 311.842 555.823 319.022C553.948 326.393 552.332 335.585 550.654 345.524C550.382 347.136 550.107 348.775 549.828 350.438L549.817 350.506C548.35 359.253 546.768 368.691 544.843 378.652C540.25 402.416 533.836 428.431 523.068 452.55C512.317 476.63 497.433 498.355 476.147 514.076C455.001 529.694 426.718 540 388 540C311.219 540 255.292 515.301 212.009 479.12C168.399 442.666 137.158 394.169 110.718 345.827C108.401 341.592 103.773 339.157 98.9711 339.647C96.6854 339.88 94.3594 340 92 340C54.4446 340 24 309.555 24 272C24 238.126 48.7801 210.017 81.2005 204.851C85.9382 204.096 89.7709 200.592 90.9463 195.941ZM312 0C196.833 0 99.736 77.2452 69.647 182.737C29.6368 192.728 0 228.893 0 272C0 322.81 41.1898 364 92 364C92.443 364 92.8854 363.997 93.3271 363.991C119.507 411.06 151.609 459.912 196.617 497.534C244.075 537.205 305.41 564 388 564C431.282 564 464.697 552.37 490.406 533.381C515.976 514.495 533.104 488.941 544.983 462.334C556.845 435.765 563.677 407.683 568.407 383.205C570.393 372.927 572.031 363.156 573.498 354.409C573.777 352.741 574.051 351.109 574.319 349.519C576.023 339.423 577.49 331.2 579.083 324.937C583.038 309.382 577.546 294.254 573.074 282.789C572.513 281.35 571.965 279.959 571.433 278.61C567.181 267.823 564 259.753 564 252C564 112.824 451.176 0 312 0ZM87.45 254.439C85.7347 248.038 79.1547 244.239 72.7531 245.954C66.3515 247.669 62.5525 254.249 64.2678 260.651L72.55 291.561C74.2653 297.962 80.8453 301.761 87.2469 300.046C93.6485 298.331 97.4475 291.751 95.7322 285.349L87.45 254.439Z"/>
</mask>
<path d="M90.9463 195.941L67.6778 190.06L90.9463 195.941ZM549.138 287.538L526.856 296.455C526.862 296.47 526.868 296.484 526.874 296.499L549.138 287.538ZM549.144 287.552L571.426 278.635C571.42 278.62 571.414 278.605 571.408 278.59L549.144 287.552ZM550.715 291.51L528.355 300.23L550.715 291.51ZM555.823 319.022L579.083 324.937V324.937L555.823 319.022ZM550.654 345.524L526.989 341.53L526.989 341.53L550.654 345.524ZM549.828 350.438L526.159 346.467C526.157 346.477 526.156 346.488 526.154 346.498L549.828 350.438ZM549.817 350.506L573.486 354.475C573.488 354.466 573.49 354.456 573.491 354.447L549.817 350.506ZM544.843 378.652L568.407 383.205V383.205L544.843 378.652ZM523.068 452.55L501.153 442.766L523.068 452.55ZM476.147 514.076L461.889 494.771L476.147 514.076ZM212.009 479.12L196.617 497.534L212.009 479.12ZM110.718 345.827L89.6613 357.343L89.6614 357.343L110.718 345.827ZM98.9711 339.647L101.408 363.523H101.408L98.9711 339.647ZM81.2005 204.851L84.9773 228.552L81.2005 204.851ZM69.647 182.737L75.4615 206.022C83.7891 203.943 90.3723 197.574 92.7266 189.32L69.647 182.737ZM93.3271 363.991L114.301 352.325C110.007 344.605 101.82 339.868 92.9873 339.993L93.3271 363.991ZM196.617 497.534L181.224 515.948H181.224L196.617 497.534ZM490.406 533.381L504.665 552.686L490.406 533.381ZM544.983 462.334L566.898 472.118L544.983 462.334ZM568.407 383.205L591.971 387.759V387.759L568.407 383.205ZM573.498 354.409L597.167 358.378L597.167 358.377L573.498 354.409ZM574.319 349.519L597.984 353.514L597.984 353.513L574.319 349.519ZM579.083 324.937L602.342 330.852L579.083 324.937ZM573.074 282.789L550.715 291.509L550.715 291.51L573.074 282.789ZM571.433 278.61L593.761 269.809L593.761 269.809L571.433 278.61ZM72.7531 245.954L78.9647 269.136H78.9647L72.7531 245.954ZM87.45 254.439L110.632 248.228V248.228L87.45 254.439ZM64.2678 260.651L41.0856 266.863L64.2678 260.651ZM72.55 291.561L49.3678 297.772H49.3678L72.55 291.561ZM87.2469 300.046L93.4586 323.228H93.4586L87.2469 300.046ZM95.7322 285.349L118.914 279.137L118.914 279.137L95.7322 285.349ZM312 0C194.187 0 95.2798 80.8367 67.6778 190.06L114.215 201.821C136.559 113.402 216.684 48 312 48V0ZM564 252C564 112.824 451.176 0 312 0V48C424.666 48 516 139.334 516 252H564ZM571.42 278.62C567.062 267.73 564 259.297 564 252H516C516 270.111 523.144 287.18 526.856 296.455L571.42 278.62ZM571.408 278.59L571.402 278.576L526.874 296.499L526.88 296.514L571.408 278.59ZM573.074 282.789C572.536 281.408 571.966 279.985 571.426 278.635L526.862 296.469C527.419 297.861 527.907 299.081 528.355 300.23L573.074 282.789ZM579.083 324.937C583.05 309.336 577.502 294.14 573.074 282.789L528.355 300.23C530.592 305.965 531.711 309.505 532.206 311.915C532.655 314.107 532.31 314.102 532.564 313.107L579.083 324.937ZM574.319 349.519C576.023 339.427 577.49 331.201 579.083 324.937L532.564 313.107C530.407 321.586 528.641 331.742 526.989 341.53L574.319 349.519ZM573.497 354.409C573.777 352.741 574.05 351.116 574.319 349.518L526.989 341.53C526.714 343.157 526.437 344.809 526.159 346.467L573.497 354.409ZM573.491 354.447L573.503 354.379L526.154 346.498L526.143 346.566L573.491 354.447ZM568.407 383.205C570.396 372.911 572.025 363.192 573.486 354.475L526.147 346.537C524.676 355.315 523.139 364.471 521.279 374.098L568.407 383.205ZM544.983 462.334C556.845 435.764 563.677 407.682 568.407 383.205L521.279 374.098C516.824 397.15 510.827 421.097 501.153 442.766L544.983 462.334ZM490.406 533.381C515.975 514.496 533.104 488.942 544.983 462.334L501.153 442.766C491.53 464.319 478.89 482.214 461.889 494.771L490.406 533.381ZM388 564C431.284 564 464.698 552.369 490.406 533.381L461.889 494.771C445.305 507.02 422.152 516 388 516V564ZM196.617 497.534C244.075 537.205 305.41 564 388 564V516C317.027 516 266.508 493.396 227.402 460.706L196.617 497.534ZM89.6614 357.343C116.506 406.425 149.485 458.136 196.617 497.534L227.402 460.706C187.313 427.196 157.81 381.914 131.774 334.31L89.6614 357.343ZM101.408 363.523C96.6059 364.013 91.9776 361.578 89.6613 357.343L131.774 334.31C124.825 321.605 110.94 314.301 96.5342 315.771L101.408 363.523ZM92 364C95.1716 364 98.3109 363.839 101.408 363.523L96.5343 315.771C95.0599 315.922 93.5472 316 92 316V364ZM0 272C0 322.81 41.1898 364 92 364V316C67.6995 316 48 296.301 48 272H0ZM77.4237 181.15C33.53 188.145 0 226.151 0 272H48C48 250.101 64.0302 231.89 84.9773 228.552L77.4237 181.15ZM67.6778 190.06C68.8533 185.409 72.686 181.905 77.4237 181.15L84.9773 228.552C99.1903 226.287 110.689 215.775 114.215 201.821L67.6778 190.06ZM92.7266 189.32C119.954 93.8607 207.837 24 312 24V-24C185.829 -24 79.518 60.6297 46.5675 176.154L92.7266 189.32ZM24 272C24 240.172 45.8801 213.409 75.4615 206.022L63.8326 159.452C13.3934 172.047 -24 217.614 -24 272H24ZM92 340C54.4446 340 24 309.555 24 272H-24C-24 336.065 27.935 388 92 388V340ZM92.9873 339.993C92.6586 339.998 92.3295 340 92 340V388C92.5565 388 93.1122 387.996 93.667 387.988L92.9873 339.993ZM212.009 479.12C170.385 444.326 139.998 398.526 114.301 352.325L72.3531 375.656C99.016 423.594 132.833 475.497 181.224 515.948L212.009 479.12ZM388 540C311.219 540 255.292 515.301 212.009 479.12L181.224 515.948C232.858 559.109 299.6 588 388 588V540ZM476.147 514.076C455.003 529.694 426.72 540 388 540V588C435.845 588 474.391 575.047 504.665 552.686L476.147 514.076ZM523.068 452.55C512.316 476.632 497.432 498.355 476.147 514.076L504.665 552.686C534.52 530.635 553.892 501.25 566.898 472.118L523.068 452.55ZM544.843 378.652C540.251 402.415 533.836 428.43 523.068 452.55L566.898 472.118C579.853 443.099 587.102 412.952 591.971 387.759L544.843 378.652ZM549.828 350.441C548.357 359.216 546.765 368.707 544.843 378.652L591.971 387.759C594.022 377.147 595.706 367.095 597.167 358.378L549.828 350.441ZM550.654 345.524C550.383 347.13 550.107 348.775 549.828 350.442L597.167 358.377C597.447 356.706 597.719 355.088 597.984 353.514L550.654 345.524ZM555.823 319.022C553.948 326.395 552.331 335.589 550.654 345.524L597.984 353.513C599.716 343.256 601.032 336.004 602.342 330.852L555.823 319.022ZM550.715 291.51C555.387 303.489 557.657 311.812 555.823 319.022L602.342 330.852C608.42 306.952 599.706 285.02 595.434 274.068L550.715 291.51ZM549.105 287.411C549.639 288.766 550.172 290.118 550.715 291.509L595.434 274.068C594.855 272.583 594.291 271.152 593.761 269.809L549.105 287.411ZM540 252C540 265.295 545.426 278.077 549.105 287.411L593.761 269.809C588.936 257.569 588 254.211 588 252H540ZM312 24C437.921 24 540 126.079 540 252H588C588 99.5694 464.431 -24 312 -24V24ZM78.9647 269.136C72.5631 270.852 65.9831 267.053 64.2678 260.651L110.632 248.228C105.486 229.023 85.7462 217.626 66.5414 222.772L78.9647 269.136ZM87.45 254.439C89.1653 260.841 85.3663 267.421 78.9647 269.136L66.5414 222.772C47.3366 227.918 35.9397 247.658 41.0856 266.863L87.45 254.439ZM95.7322 285.349L87.45 254.439L41.0856 266.863L49.3678 297.772L95.7322 285.349ZM81.0353 276.864C87.4369 275.148 94.0169 278.947 95.7322 285.349L49.3678 297.772C54.5137 316.977 74.2537 328.374 93.4586 323.228L81.0353 276.864ZM72.55 291.561C70.8347 285.159 74.6337 278.579 81.0353 276.864L93.4586 323.228C112.663 318.082 124.06 298.342 118.914 279.137L72.55 291.561ZM64.2678 260.651L72.55 291.561L118.914 279.137L110.632 248.228L64.2678 260.651Z" fill="black" mask="url(#path-1-inside-1_0_1058)"/>

    <title>eyes-4</title>
    <g id="All-customizable-items" stroke="none" stroke-width="1" fill="none" fill-rule="evenodd">
        <g id="Eyes/-4" transform="translate(-546.000000, -516.000000)" fill="#000000">
            <path d="M570,516 C583.254834,516 594,526.745166 594,540 C594,553.254834 583.254834,564 570,564 C556.745166,564 546,553.254834 546,540 C546,526.745166 556.745166,516 570,516 Z M708,516 C721.254834,516 732,526.745166 732,540 C732,553.254834 721.254834,564 708,564 C694.745166,564 684,553.254834 684,540 C684,526.745166 694.745166,516 708,516 Z M562,526 C558.686292,526 556,528.686292 556,532 C556,535.313708 558.686292,538 562,538 C565.313708,538 568,535.313708 568,532 C568,528.686292 565.313708,526 562,526 Z M700,526 C696.686292,526 694,528.686292 694,532 C694,535.313708 696.686292,538 700,538 C703.313708,538 706,535.313708 706,532 C706,528.686292 703.313708,526 700,526 Z" id="eyes-4"></path>
        </g>
    </g>

<path fill-rule="evenodd" clip-rule="evenodd" d="M178.391 22.335C181.391 17.335 238.391 -0.664962 258.391 2.33504C278.391 5.33504 307.391 31.335 307.391 31.335C307.391 31.335 280.391 20.335 255.391 20.335C230.391 20.335 195.391 38.335 195.391 38.335C195.391 38.335 175.391 27.335 178.391 22.335Z" fill="black" stroke="black" stroke-width="4" stroke-linecap="round" stroke-linejoin="round"/>
<path fill-rule="evenodd" clip-rule="evenodd" d="M131 22.335C128 17.335 71.0003 -0.664962 51.0003 2.33504C31.0003 5.33504 2.00029 31.335 2.00029 31.335C2.00029 31.335 29.0003 20.335 54.0003 20.335C79.0003 20.335 114 38.335 114 38.335C114 38.335 134 27.335 131 22.335Z" fill="black" stroke="black" stroke-width="4" stroke-linecap="round" stroke-linejoin="round"/>

    <title>mouth-5</title>
    <g id="All-customizable-items" stroke="none" stroke-width="1" fill="none" fill-rule="evenodd" stroke-linecap="round" stroke-linejoin="round">
        <g id="Mouth/-5" transform="translate(-573.000000, -720.000000)" stroke="#000000" stroke-width="16">
            <circle id="mouth-5" cx="621" cy="768" r="40"></circle>
        </g>
    </g>

    <title>nose-6</title>
    <g id="All-customizable-items" stroke="none" stroke-width="1" fill="none" fill-rule="evenodd" stroke-linecap="round" stroke-linejoin="round">
        <g id="Nose/-6" transform="translate(-617.000000, -560.000000)" stroke="#000000" stroke-width="16">
            <path d="M673,568 C662.55102,590.836147 657.326531,613.414126 657.326531,635.733939 C657.326531,669.213657 685.938776,657.439501 683,683 C681.040816,700.040333 661.707483,708.388498 625,708.044495" id="nose-6"></path>
        </g>
    </g>

<path fill-rule="evenodd" clip-rule="evenodd" d="M223.001 30.9999C270.761 1.34638 335.39 -1.59318 416.889 22.1813L418.14 21.6503C438.829 12.9486 471.441 3.05908 518.001 28.9999C588.001 67.9999 595.98 140.101 622.001 144C640.46 146.766 646.56 192.498 663.001 234C669.104 249.404 708.001 259 708.001 259L663.001 278C663.001 278 672.927 288.092 686.001 296C697.33 302.852 717.001 327 717.001 327C717.001 327 674.793 334.748 669.001 347C665.892 353.577 702.405 361.103 713.001 405C727.001 463 680.99 543.03 709.953 560.495C723.072 568.406 757.953 590.495 757.953 590.495C757.953 590.495 705.775 642.051 681.953 635.495C645.135 625.363 597.953 590.495 597.953 590.495C597.953 590.495 609.409 457.557 605.001 382C601.916 329.103 587.184 271.788 573.001 250C538.561 197.091 468.001 144 381.001 144C314.08 144 309.925 182.463 309.925 182.463C306.119 203.727 306.116 226.946 291.001 259C264.775 314.618 172.05 352.505 172.05 381.505C172.05 410.505 181.05 411.505 181.05 427.505C181.05 443.505 169.02 451.862 172.05 473.505C174.07 487.933 185.021 561.095 201.001 582C173.475 609.867 147.808 627.534 124.001 635C100.195 642.466 69.5279 642.466 32.0013 635C41.3071 626.655 47.9738 618.989 52.0013 612L52.393 611.308C56.3305 604.232 60.8666 592.462 66.0013 576C59.6984 582.705 53.365 587.371 47.0013 590C40.6375 592.628 31.6375 594.295 20.0013 595L22.0031 592.564C27.3626 586.017 31.5205 580.735 34.477 576.717L35.4337 575.408C40.2515 568.846 44.6276 563.7 42.0013 553C39.2966 541.981 4.57252 443.372 6.04971 410.505C7.03451 388.593 17.7012 356.259 38.0497 313.505C34.5862 317.378 30.5862 320.378 26.0497 322.505C21.5132 324.631 14.8465 326.631 6.04971 328.505L7.28974 327.4C18.1209 317.712 25.7075 309.746 30.0497 303.505C34.5558 297.027 37.2224 290.027 38.0497 282.505C31.855 284.314 26.855 284.98 23.0497 284.505C19.2445 284.029 13.5778 282.029 6.04971 278.505L7.34467 277.889C15.8635 273.82 22.0986 270.358 26.0497 267.505C30.1984 264.508 35.5318 259.508 42.0497 252.505L43.221 249.969C62.2757 208.815 77.5519 180.661 89.0497 165.505C121.199 123.126 155.722 97.4076 185.05 75.5045C201.26 63.3984 209.717 39.2479 223.001 30.9999Z" fill="black" stroke="black" stroke-width="12" stroke-linecap="round" stroke-linejoin="round"/>

    <title>accessories-9</title>
    <g id="All-customizable-items" stroke="none" stroke-width="1" fill="none" fill-rule="evenodd" stroke-linecap="round" stroke-linejoin="round">
        <g id="Accessories/-9" transform="translate(-256.000000, -689.000000)" stroke="#000000" stroke-width="12">
            <g id="accessories-9" transform="translate(262.000000, 695.000000)">
                <line x1="32" y1="0" x2="32" y2="48" id="Path"></line>
                <circle id="Oval" fill="#FFFFFF" cx="32" cy="72" r="24"></circle>
                <path d="M0,256 L64,256 C59.8709677,149.333333 49.2731183,96 32.2064516,96 C15.1397849,96 4.40430108,149.333333 0,256 Z" id="Path" fill="#FFFFFF"></path>
                <line x1="32" y1="256" x2="32" y2="156" id="Path"></line>
                <line x1="16" y1="256" x2="16" y2="208" id="Path"></line>
                <line x1="48" y1="256" x2="48" y2="208" id="Path"></line>
            </g>
        </g>
    </g>

</svg>