<svg width="564px" height="504px" viewBox="0 0 564 504" version="1.1" xmlns="http://www.w3.org/2000/svg" xmlns:xlink="http://www.w3.org/1999/xlink">

    <title>face-8</title>
    <g id="All-customizable-items" stroke="none" stroke-width="1" fill="none" fill-rule="evenodd" stroke-linecap="round" stroke-linejoin="round">
        <g id="Face/-8" transform="translate(-220.000000, -367.000000)" stroke="#000000" stroke-width="24">
            <path d="M532,379 C664.54834,379 772,486.45166 772,619 C772,751.54834 724.54834,899 592,899 C492.560218,899 373.476049,816.010833 320.189513,718.584987 C317.498129,718.859681 314.765451,719 312,719 C267.81722,719 232,683.18278 232,639 C232,599.134956 261.158843,566.080325 299.312086,560.00055 C325.599297,455.979213 419.809919,379 532,379 Z M295.858895,624.545187 L304.141105,655.454813" id="face-8"></path>
        </g>
    </g>

    <title>eyes-3</title>
    <g id="All-customizable-items" stroke="none" stroke-width="1" fill="none" fill-rule="evenodd" stroke-linecap="round" stroke-linejoin="round">
        <g id="Eyes/-3" transform="translate(-527.000000, -534.000000)" stroke="#000000" stroke-width="12">
            <g id="eyes-3" transform="translate(533.944954, 540.730159)">
                <path d="M146.275229,-1.43884904e-13 C159.958467,9.35202544 170.38232,14.8216846 177.546789,16.4089776 C184.711258,17.9962705 196.232359,17.3885306 212.110092,14.5857578" id="Path" transform="translate(179.192661, 8.634921) scale(-1, 1) translate(-179.192661, -8.634921) "></path>
                <path d="M6.39488462e-14,-1.43884904e-13 C13.6832373,9.35202544 24.1070905,14.8216846 31.2715596,16.4089776 C38.4360288,17.9962705 49.9571297,17.3885306 65.8348624,14.5857578" id="Path"></path>
            </g>
        </g>
    </g>

<path fill-rule="evenodd" clip-rule="evenodd" d="M162 20.3162C162 20.3162 179.641 7.86317 187.392 5.57835C195.144 3.29353 219 4.31622 219 4.31622L236 9.91302C236 9.91302 211.25 9.89746 197.549 12.0803C183.848 14.2632 162 20.3162 162 20.3162Z" fill="black" stroke="black" stroke-width="8" stroke-linecap="round" stroke-linejoin="round"/>
<path fill-rule="evenodd" clip-rule="evenodd" d="M78 20.3162C78 20.3162 60.3594 7.86317 52.6078 5.57835C44.8563 3.29353 21 4.31622 21 4.31622L4 9.91302C4 9.91302 28.7504 9.89746 42.451 12.0803C56.1516 14.2632 78 20.3162 78 20.3162Z" fill="black" stroke="black" stroke-width="8" stroke-linecap="round" stroke-linejoin="round"/>

<path fill-rule="evenodd" clip-rule="evenodd" d="M42.8699 52.5553C23.1475 40.2091 8.39551 19.0189 8.39551 19.0189C8.39551 19.0189 55.9996 8.63705 95.9996 8.31852C136 7.99999 183.604 19.0189 183.604 19.0189C183.604 19.0189 168.852 40.2091 149.129 52.5553C140.101 58.2072 112 61 96.443 60.9998C80.8863 60.9996 51.8065 58.1496 42.8699 52.5553Z" stroke="black" stroke-width="16" stroke-linecap="round" stroke-linejoin="round"/>
<path d="M56.3223 52C56.3223 52 76.161 44 95.9997 44C115.838 44 135.677 52 135.677 52" stroke="black" stroke-width="8" stroke-linecap="round" stroke-linejoin="round"/>

<path fill-rule="evenodd" clip-rule="evenodd" d="M7.51613 3C7.51613 3 23.2224 5.63746 31 11.9771C44.0598 22.6223 52.9064 43.2557 51.7742 55.5802C49.0645 85.0763 3 86.3588 3 86.3588C3 86.3588 59 91.4886 59 55.5802C59 39.2216 48.4333 21.0647 31 10.6947C22.9217 5.88933 7.51613 3 7.51613 3Z" fill="black" stroke="black" stroke-width="6" stroke-linecap="round" stroke-linejoin="round"/>

    <title>hair-3</title>
    <g id="All-customizable-items" stroke="none" stroke-width="1" fill="none" fill-rule="evenodd" stroke-linecap="round" stroke-linejoin="round">
        <g id="Hairstyle/-3" transform="translate(-203.000000, -149.000000)" fill="#000000" stroke="#000000" stroke-width="12">
            <path d="M468,155 C494.413508,155 517.505024,169.223139 530.033478,190.428348 C542.638883,179.566707 559.052573,173 577,173 C607.278861,173 633.192307,191.690562 643.83239,218.163736 C650.523576,216.106563 657.632562,215 665,215 C699.786693,215 728.811394,239.670025 735.533019,272.468992 C768.002006,279.12141 793,314 793,343 C793,372 789.333333,379 782,405 C774.666667,431 761.666667,458.333333 743,487 L742.487847,486.071181 C738.468171,478.85706 732.305556,469.5 724,458 C719.654204,451.982745 713.183929,446.346749 708,441 C703.288148,442.688186 700.961321,443.835284 697.999909,444.579207 C634.162314,458.31332 585.060234,463.786515 550.69367,460.998791 L543.474261,460.399732 L540.29429,460.150618 C513.724479,458.137897 460.670673,455.9739 427,477 C388.41902,501.092406 375.286815,555.63188 372.093734,571.530134 L371.83052,572.876479 L371.66972,573.747986 C369.058511,588.2233 367.192111,614.492798 366.07052,652.556479 L366,655 L328.116663,564.824988 L287.145773,564.824988 L287.123625,564.742696 C285.105011,564.913266 283.062634,565 281,565 C241.235498,565 209,532.764502 209,493 C209,462.831845 227.554139,436.997241 253.873676,426.284928 C238.060403,413.079216 228,393.214474 228,371 C228,331.235498 260.235498,299 300,299 C301.933893,299 303.849978,299.076244 305.745413,299.225891 C302.046294,290.559511 300,281.018724 300,271 C300,231.235498 332.235498,199 372,199 C381.775632,199 391.096237,200.948197 399.594739,204.477513 C409.046897,175.744373 436.100894,155 468,155 Z" id="hair-3"></path>
        </g>
    </g>

    <title>details-4</title>
    <g id="All-customizable-items" stroke="none" stroke-width="1" fill="none" fill-rule="evenodd" stroke-linecap="round" stroke-linejoin="round">
        <g id="Details/-4" transform="translate(-432.000000, -613.000000)" stroke="#000000" stroke-width="12">
            <path d="M438.627052,619 C436.62301,638.948361 439.422618,653.748361 447.025876,663.4 C454.629134,673.051639 462.287175,678.251639 470,679 C472.666667,693.666667 476.666667,705.666667 482,715 C487.333333,724.333333 494,732.333333 502,739" id="details-4"></path>
        </g>
    </g>

    <title>glasses-1</title>
    <g id="All-customizable-items" stroke="none" stroke-width="1" fill="none" fill-rule="evenodd" stroke-linecap="round" stroke-linejoin="round">
        <g id="Glasses/-1" transform="translate(-285.000000, -471.000000)" stroke="#000000" stroke-width="16">
            <g id="glasses-1" transform="translate(293.311103, 479.000000)">
                <circle id="Oval" cx="272.688897" cy="60" r="60"></circle>
                <circle id="Oval" cx="416.688897" cy="60" r="60"></circle>
                <path d="M368.688897,13 C360.688897,7.66666667 352.688897,5 344.688897,5 C336.688897,5 328.688897,7.66666667 320.688897,13" id="Path"></path>
                <line x1="216.688897" y1="36" x2="1" y2="79.3393577" id="Path" transform="translate(108.844448, 57.669679) rotate(1.361411) translate(-108.844448, -57.669679) "></line>
            </g>
        </g>
    </g>

</svg>