<svg width="564px" height="504px" viewBox="0 0 564 504" version="1.1" xmlns="http://www.w3.org/2000/svg" xmlns:xlink="http://www.w3.org/1999/xlink">

    <title>face-0</title>
    <g id="All-customizable-items" stroke="none" stroke-width="1" fill="none" fill-rule="evenodd" stroke-linecap="round" stroke-linejoin="round">
        <g id="Face/-0" transform="translate(-220.000000, -367.000000)" stroke="#000000" stroke-width="24">
            <path d="M532,379 C664.54834,379 772,486.45166 772,619 C772,751.54834 664.54834,859 532,859 C435.13263,859 351.668898,801.612202 313.752775,718.980575 L313.322946,718.989282 L312,719 C267.81722,719 232,683.18278 232,639 C232,599.134956 261.158843,566.080325 299.312086,560.00055 C325.599297,455.979213 419.809919,379 532,379 Z M295.858895,624.545187 L304.141105,655.454813" id="face-0"></path>
        </g>
    </g>

    <title>eyes-4</title>
    <g id="All-customizable-items" stroke="none" stroke-width="1" fill="none" fill-rule="evenodd">
        <g id="Eyes/-4" transform="translate(-546.000000, -516.000000)" fill="#000000">
            <path d="M570,516 C583.254834,516 594,526.745166 594,540 C594,553.254834 583.254834,564 570,564 C556.745166,564 546,553.254834 546,540 C546,526.745166 556.745166,516 570,516 Z M708,516 C721.254834,516 732,526.745166 732,540 C732,553.254834 721.254834,564 708,564 C694.745166,564 684,553.254834 684,540 C684,526.745166 694.745166,516 708,516 Z M562,526 C558.686292,526 556,528.686292 556,532 C556,535.313708 558.686292,538 562,538 C565.313708,538 568,535.313708 568,532 C568,528.686292 565.313708,526 562,526 Z M700,526 C696.686292,526 694,528.686292 694,532 C694,535.313708 696.686292,538 700,538 C703.313708,538 706,535.313708 706,532 C706,528.686292 703.313708,526 700,526 Z" id="eyes-4"></path>
        </g>
    </g>

    <title>eyebrows-6</title>
    <g id="All-customizable-items" stroke="none" stroke-width="1" fill="none" fill-rule="evenodd" stroke-linecap="round" stroke-linejoin="round">
        <g id="Eyebrows/-6" transform="translate(-495.000000, -480.000000)" fill="#000000" stroke="#000000" stroke-width="8">
            <path d="M620,495.140162 C589.850248,491.823271 565.234864,491.823271 546.153846,495.140162 C527.072829,498.457053 511.688213,505.410333 500,516 C517.257672,497.488903 532.642287,487.058984 546.153846,484.710243 C559.665405,482.361502 584.280789,485.838142 620,495.140162 Z M658,495.140162 C693.719211,485.838142 718.334595,482.361502 731.846154,484.710243 C745.357713,487.058984 760.742328,497.488903 778,516 C766.311787,505.410333 750.927171,498.457053 731.846154,495.140162 C712.765136,491.823271 688.149752,491.823271 658,495.140162 Z" id="eyebrows-6"></path>
        </g>
    </g>

<path d="M32 40C32 40 103.931 44.393 127.066 39.8696C150.202 35.3462 191 19 191 19" stroke="black" stroke-width="16" stroke-linecap="round" stroke-linejoin="round"/>
<path d="M172 31C172 31 172 60.0426 142.943 68.3404C113.886 76.6383 59 43.4468 59 43.4468" stroke="black" stroke-width="16" stroke-linecap="round" stroke-linejoin="round"/>
<path d="M9.34763 57.3856C9.34763 57.3856 3.05252 47.5217 7.44585 34.3999C11.8392 21.2782 23.4387 15.2993 23.4387 15.2993" stroke="black" stroke-width="6" stroke-linecap="round" stroke-linejoin="round"/>
<path d="M215.499 22.6676C215.499 22.6676 218.478 18.1281 216.342 12.0527C214.205 5.97736 208.647 3.18167 208.647 3.18167" stroke="black" stroke-width="6" stroke-linecap="round" stroke-linejoin="round"/>

    <title>nose-6</title>
    <g id="All-customizable-items" stroke="none" stroke-width="1" fill="none" fill-rule="evenodd" stroke-linecap="round" stroke-linejoin="round">
        <g id="Nose/-6" transform="translate(-617.000000, -560.000000)" stroke="#000000" stroke-width="16">
            <path d="M673,568 C662.55102,590.836147 657.326531,613.414126 657.326531,635.733939 C657.326531,669.213657 685.938776,657.439501 683,683 C681.040816,700.040333 661.707483,708.388498 625,708.044495" id="nose-6"></path>
        </g>
    </g>

<path fill-rule="evenodd" clip-rule="evenodd" d="M317 6.99512H322.802L324.51 7.00856C353.444 7.29145 432.561 10.9436 503 57.0002C581 108 628 239 628 377C628 515 601 574.334 551 689L554.371 672.476L557.478 657.174C581.826 536.961 594 469.57 594 455C594 384 583 323 538 277C525.022 263.734 505.35 249.069 478.985 233.006C457.277 278.471 432.282 309.802 404 327C330 372 281 342 247 377C241.432 382.732 236.066 388.644 230.9 394.738L231.07 399.058L231.244 403.26C234.124 471.641 239.526 527.553 247.449 571C258.75 632.968 286.934 715.301 332 818L326.701 814.514C301.556 797.937 272.274 769.379 252 755C252 755 261.121 784.937 266 797C268.93 804.244 277 827 277 827C277 827 183.876 738.968 159 696C134.124 653.032 92 613 92 613C86.0136 627.362 83.4286 640.778 72 663C60 686.334 28.6667 692 6 720L7.55424 717.082C32.4784 670.153 52.7335 647.008 58 625C58 625 70 575 58 515C46 455 33 439 29 395C25 351 31.6614 287.698 62 215C92.6513 141.553 127.063 93.4714 188.282 53.3314C232.919 24.0641 279.049 6.99512 317 6.99512Z" fill="black" stroke="black" stroke-width="12" stroke-linecap="round" stroke-linejoin="round"/>

    <title>accessories-4</title>
    <g id="All-customizable-items" stroke="none" stroke-width="1" fill="none" fill-rule="evenodd" stroke-linecap="round" stroke-linejoin="round">
        <g id="Accessories/-4" transform="translate(-244.000000, -685.000000)" fill="#FFFFFF" stroke="#000000" stroke-width="12">
            <g id="Path-2" transform="translate(250.000000, 691.000000)">
                <polygon points="50 1.42219569e-12 -2.45359288e-14 70 50 140 100 70"></polygon>
                <polygon points="50 35 25 70 50 105 75 70"></polygon>
                <line x1="50" y1="35" x2="50" y2="0" id="Path-3"></line>
                <line x1="50" y1="140" x2="50" y2="105" id="Path-3"></line>
                <line x1="75" y1="70" x2="100" y2="70" id="Path-4"></line>
                <line x1="0" y1="70" x2="25" y2="70" id="Path-4"></line>
            </g>
        </g>
    </g>

</svg>