<svg width="564px" height="504px" viewBox="0 0 564 504" version="1.1" xmlns="http://www.w3.org/2000/svg" xmlns:xlink="http://www.w3.org/1999/xlink">

    <title>face-2</title>
    <g id="All-customizable-items" stroke="none" stroke-width="1" fill="none" fill-rule="evenodd" stroke-linecap="round" stroke-linejoin="round">
        <g id="Face/-2" transform="translate(-220.000000, -367.000000)" stroke="#000000" stroke-width="24">
            <path d="M532,379 C664.54834,379 772,486.45166 772,619 C772,751.54834 664.54834,899 532,899 C432.699202,899 347.483933,816.242653 310.982017,718.993409 C267.268677,718.448846 232,682.843144 232,639 C232,599.134956 261.158843,566.080325 299.312086,560.00055 C325.599297,455.979213 419.809919,379 532,379 Z M295.858895,624.545187 L304.141105,655.454813" id="face-2"></path>
        </g>
    </g>

    <title>eyes-10</title>
    <g id="All-customizable-items" stroke="none" stroke-width="1" fill="none" fill-rule="evenodd">
        <g id="Eyes/-10" transform="translate(-514.000000, -506.000000)">
            <g id="eyes-10" transform="translate(520.000000, 512.000000)">
                <g id="Group" transform="translate(140.000000, 0.000000)">
                    <circle id="Oval" fill="#000000" cx="52" cy="28" r="24"></circle>
                    <path d="M1,16 C24.2727273,8 41.7272727,4 53.3636364,4 C65,4 79.5454545,8 97,16" id="Path" stroke="#000000" stroke-width="12" stroke-linecap="round" stroke-linejoin="round" transform="translate(49.000000, 10.000000) rotate(-4.000000) translate(-49.000000, -10.000000) "></path>
                </g>
                <g id="Group">
                    <circle id="Oval" fill="#000000" transform="translate(46.000000, 28.000000) scale(-1, 1) translate(-46.000000, -28.000000) " cx="46" cy="28" r="24"></circle>
                    <path d="M1,16 C24.2727273,8 41.7272727,4 53.3636364,4 C65,4 79.5454545,8 97,16" id="Path" stroke="#000000" stroke-width="12" stroke-linecap="round" stroke-linejoin="round" transform="translate(49.000000, 10.000000) scale(-1, 1) rotate(-4.000000) translate(-49.000000, -10.000000) "></path>
                </g>
            </g>
        </g>
    </g>

<path fill-rule="evenodd" clip-rule="evenodd" d="M162.541 5.00465C162.541 5.00465 208.644 3.21625 221.813 9.14936C234.982 15.0825 233.21 25.4842 233.21 25.4842C233.21 25.4842 226.419 17.9922 217.34 13.3475C208.26 8.70285 162.541 5.00465 162.541 5.00465Z" fill="black" stroke="black" stroke-width="8" stroke-linecap="round" stroke-linejoin="round"/>
<path fill-rule="evenodd" clip-rule="evenodd" d="M75.4591 5.00465C75.4591 5.00465 29.3564 3.21625 16.187 9.14936C3.01764 15.0825 4.78994 25.4842 4.78994 25.4842C4.78994 25.4842 11.5807 17.9922 20.6604 13.3475C29.7401 8.70285 75.4591 5.00465 75.4591 5.00465Z" fill="black" stroke="black" stroke-width="8" stroke-linecap="round" stroke-linejoin="round"/>

    <title>mouth-4</title>
    <g id="All-customizable-items" stroke="none" stroke-width="1" fill="none" fill-rule="evenodd" stroke-linecap="round" stroke-linejoin="round">
        <g id="Mouth/-4" transform="translate(-541.000000, -740.000000)" stroke="#000000" stroke-width="16">
            <path d="M549,778 C580.121822,764.84962 604.121822,756.516287 621,753 C637.878178,749.483713 661.878178,747.817046 693,748" id="mouth-4"></path>
        </g>
    </g>

    <title>nose-1</title>
    <g id="All-customizable-items" stroke="none" stroke-width="1" fill="none" fill-rule="evenodd" stroke-linecap="round" stroke-linejoin="round">
        <g id="Nose/-1" transform="translate(-622.000000, -561.000000)" stroke="#000000" stroke-width="16">
            <path d="M633.532552,569.006852 C651.291821,622.395473 661.086671,652.555363 662.917104,659.486521 C664.747537,666.41768 663.749048,673.591123 659.921638,681.006852" id="nose-1" transform="translate(648.668966, 625.006852) rotate(-3.225647) translate(-648.668966, -625.006852) "></path>
        </g>
    </g>

<path fill-rule="evenodd" clip-rule="evenodd" d="M99.3057 421.521C132.243 441.752 160.511 528.713 160.511 528.713C160.511 528.713 160.252 457.808 188 416C215.749 374.192 255 339 255 339C255 339 248 323 239.44 307.95C230.88 292.9 194.899 265.29 194.899 265.29C194.899 265.29 377.534 322.231 437.612 310.358C497.69 298.484 544.621 276.303 575.515 220.949C606.409 165.596 611.59 69.248 611.59 69.248C611.59 69.248 528.414 122.466 490.832 116.495C453.25 110.523 434.767 94.1804 414.952 63.9083C407.261 52.1589 388.16 18.4703 388.16 18.4703C388.16 18.4703 381.419 41.3661 381.817 48.0791C383.204 71.5016 388.615 75.0591 380.68 70.8931C364.218 62.2505 346.73 53.1412 328.324 43.4075C314.054 35.8615 292.629 6.78372 292.629 6.78372C292.629 6.78372 286.035 26.889 288.648 41.4553C290.292 50.6156 305.821 80.3077 305.821 80.3077C305.821 80.3077 280.652 55.471 237.094 54.9458C211.855 54.6415 175.948 66.8169 128.977 78.6058C121.905 80.3806 106.824 77.9083 106.824 77.9083L149.267 101.388C149.267 101.388 69.5343 127.192 50.7886 153.105C44.4001 161.936 35.4009 173.866 27.7819 190.906C20.4968 207.2 6.51605 256.337 6.51605 256.337C6.51605 256.337 14.7999 233.186 32.879 216.988C50.9581 200.79 90.5337 198.016 90.5337 198.016C90.5337 198.016 36.2167 230.824 27.1093 266.495C18.0019 302.165 46.3352 428.688 46.3352 428.688C46.3352 428.688 66.3681 401.29 99.3057 421.521Z" fill="black" stroke="black" stroke-width="12" stroke-linecap="round" stroke-linejoin="round"/>

<path fill-rule="evenodd" clip-rule="evenodd" d="M18.7842 6H8.78421C8.78421 6 -9.52925 161.286 60.7842 219C131.098 276.714 218.784 287 264 287C309.216 287 339.216 267 356 249C372.784 231 405.082 170.293 392 166C389.172 165.072 378.363 163.658 362.81 162.202C359.947 174.016 354.396 186.233 346.53 197C345.321 198.654 344.156 200.263 343.023 201.826C324.301 227.663 314.637 241 270.229 241C223.135 241 213.884 240 174.238 202C163.752 191.95 156.447 181.544 151.766 171.407C149.067 173.055 146.593 174.617 144.291 176.07C124.74 188.412 117.584 192.929 90 176C55.7842 155 18.7842 6 18.7842 6Z" fill="black"/>
<path d="M8.78421 6V0C5.74234 0 3.18178 2.27633 2.82551 5.29727L8.78421 6ZM18.7842 6L24.6074 4.55398C23.943 1.8785 21.541 0 18.7842 0V6ZM60.7842 219L64.5909 214.362H64.5909L60.7842 219ZM392 166L390.129 171.701L392 166ZM362.81 162.202L363.369 156.228C360.402 155.95 357.681 157.893 356.979 160.789L362.81 162.202ZM346.53 197L351.375 200.539L351.375 200.539L346.53 197ZM343.023 201.826L347.881 205.347H347.881L343.023 201.826ZM174.238 202L170.086 206.332H170.086L174.238 202ZM151.766 171.407L157.214 168.892C156.496 167.338 155.149 166.165 153.511 165.667C151.873 165.169 150.101 165.394 148.64 166.286L151.766 171.407ZM144.291 176.07L141.088 170.997L141.088 170.997L144.291 176.07ZM90 176L93.1385 170.886L90 176ZM8.78421 12H18.7842V0H8.78421V12ZM64.5909 214.362C31.4603 187.168 18.5865 136.171 14.3917 90.3107C12.3167 67.6246 12.4056 46.6843 13.0166 31.4049C13.3218 23.7717 13.7567 17.5673 14.1139 13.2837C14.2924 11.1423 14.4515 9.48199 14.565 8.36439C14.6217 7.80563 14.6671 7.38263 14.6979 7.1031C14.7132 6.96333 14.7249 6.85944 14.7326 6.79239C14.7364 6.75887 14.7392 6.73455 14.741 6.71957C14.7418 6.71208 14.7424 6.70692 14.7428 6.70411C14.7429 6.7027 14.743 6.70236 14.743 6.70165C14.743 6.7019 14.7429 6.70273 8.78421 6C2.82551 5.29727 2.82527 5.29929 2.82496 5.3019C2.82477 5.30356 2.82439 5.30676 2.824 5.31008C2.82323 5.31672 2.82218 5.32571 2.82086 5.33706C2.81823 5.35974 2.81453 5.39182 2.80982 5.43315C2.8004 5.51581 2.78691 5.63554 2.76978 5.79135C2.73551 6.10296 2.68663 6.55898 2.62643 7.15165C2.50602 8.33694 2.34026 10.0692 2.15538 12.2866C1.78568 16.7207 1.33916 23.0989 1.02617 30.9254C0.400714 46.5658 0.305845 68.054 2.44161 91.4037C6.66843 137.614 19.7947 193.118 56.9775 223.638L64.5909 214.362ZM264 281C219.41 281 133.361 270.81 64.5909 214.362L56.9775 223.638C128.834 282.619 218.159 293 264 293V281ZM351.612 244.908C335.755 261.914 307.27 281 264 281V293C311.162 293 342.677 272.086 360.388 253.092L351.612 244.908ZM390.129 171.701C388.838 171.277 388.837 170.156 388.972 171.006C389.132 172.007 389.062 173.932 388.395 176.956C387.09 182.872 383.981 190.945 379.781 199.784C371.358 217.506 359.4 236.556 351.612 244.908L360.388 253.092C369.385 243.444 381.967 223.14 390.619 204.935C394.955 195.811 398.517 186.777 400.113 179.541C400.897 175.989 401.335 172.326 400.822 169.115C400.286 165.754 398.433 161.796 393.871 160.299L390.129 171.701ZM362.251 168.176C369.985 168.9 376.498 169.61 381.402 170.249C386.561 170.921 389.36 171.448 390.129 171.701L393.871 160.299C391.813 159.624 387.793 158.98 382.952 158.349C377.856 157.685 371.188 156.96 363.369 156.228L362.251 168.176ZM351.375 200.539C359.705 189.138 365.592 176.199 368.641 163.615L356.979 160.789C354.303 171.834 349.088 183.328 341.685 193.461L351.375 200.539ZM347.881 205.347C349.015 203.783 350.174 202.183 351.375 200.539L341.685 193.461C340.469 195.126 339.296 196.744 338.164 198.306L347.881 205.347ZM270.229 247C292.975 247 307.806 243.598 319.481 236.163C330.936 228.868 338.689 218.033 347.881 205.347L338.164 198.306C328.635 211.456 322.195 220.208 313.035 226.041C304.096 231.734 291.892 235 270.229 235V247ZM170.086 206.332C189.889 225.312 202.891 235.878 217.309 241.358C231.687 246.823 246.95 247 270.229 247V235C246.414 235 233.505 234.677 221.572 230.141C209.68 225.621 198.233 216.688 178.39 197.668L170.086 206.332ZM146.319 173.923C151.343 184.802 159.11 195.812 170.086 206.332L178.39 197.668C168.394 188.088 161.551 178.286 157.214 168.892L146.319 173.923ZM147.494 181.144C149.799 179.689 152.237 178.15 154.893 176.529L148.64 166.286C145.897 167.961 143.387 169.545 141.088 170.997L147.494 181.144ZM86.8615 181.114C100.808 189.673 110.898 193.698 120.591 192.996C130.08 192.309 138.124 187.059 147.494 181.144L141.088 170.997C130.907 177.424 125.597 180.603 119.725 181.028C114.056 181.438 106.776 179.256 93.1385 170.886L86.8615 181.114ZM18.7842 6C12.9611 7.44602 12.9613 7.44711 12.9617 7.44876C12.9621 7.45007 12.9626 7.4523 12.9633 7.45491C12.9646 7.46014 12.9664 7.46763 12.9689 7.47737C12.9737 7.49683 12.9808 7.52527 12.9901 7.56255C13.0087 7.63711 13.0363 7.74702 13.0725 7.89125C13.1451 8.17969 13.2526 8.60537 13.3938 9.15982C13.6764 10.2687 14.0939 11.8928 14.6369 13.9645C15.7227 18.1075 17.3104 24.0424 19.3223 31.2272C23.3441 45.5897 29.0702 64.9808 35.8792 85.0525C42.678 105.094 50.6056 125.961 59.0484 143.215C63.2689 151.841 67.6783 159.687 72.2113 166.122C76.6857 172.473 81.5672 177.864 86.8615 181.114L93.1385 170.886C89.8789 168.886 86.1194 165.027 82.0212 159.21C77.9817 153.477 73.8869 146.238 69.8271 137.941C61.7092 121.351 53.9713 101.031 47.2431 81.1975C40.5252 61.3942 34.8628 42.2228 30.8778 27.9915C28.8863 20.8795 27.3161 15.0097 26.2449 10.9222C25.7093 8.87866 25.2985 7.28111 25.0223 6.19711C24.8843 5.65513 24.7798 5.24157 24.7103 4.96489C24.6755 4.82655 24.6494 4.72244 24.6322 4.6536C24.6236 4.61918 24.6172 4.59358 24.6131 4.57693C24.611 4.56861 24.6095 4.56253 24.6085 4.5587C24.6081 4.55678 24.6078 4.5556 24.6075 4.55464C24.6074 4.55403 24.6074 4.55398 18.7842 6Z" fill="black"/>
<path fill-rule="evenodd" clip-rule="evenodd" d="M347.059 91.7206C347.059 91.7206 350.033 99.7189 348.086 100.906C346.74 101.726 318 84.8323 265 85.0003C212 85.1683 183.188 101.683 181.914 100.906C179.905 99.6812 182 94.0003 183.94 91.7206C190.033 86.9445 220.31 76.7108 251.246 74.4494C255.205 74.16 259 78.002 265 78.0011C271 78.0003 275.18 74.1009 278.327 74.2867C310.138 76.1646 340.805 86.8183 347.059 91.7206Z" fill="black" stroke="black" stroke-width="12" stroke-linecap="round" stroke-linejoin="round"/>
<path fill-rule="evenodd" clip-rule="evenodd" d="M240 229C240 229 253.444 232 265 232C276.556 232 288 229 288 229L297 252H232L240 229Z" fill="black" stroke="black" stroke-width="12" stroke-linecap="round" stroke-linejoin="round"/>

</svg>