<svg width="564px" height="504px" viewBox="0 0 564 504" version="1.1" xmlns="http://www.w3.org/2000/svg" xmlns:xlink="http://www.w3.org/1999/xlink">

<mask id="path-1-inside-1_0_1046" fill="white">
<path fill-rule="evenodd" clip-rule="evenodd" d="M90.9463 195.941C115.92 97.1191 205.436 24 312 24C437.921 24 540 126.079 540 252C540 264.704 545.103 277.455 549.138 287.538L549.144 287.552C549.693 288.923 550.221 290.244 550.715 291.51C555.415 303.56 557.649 311.842 555.823 319.022C553.939 326.432 552.268 336.168 550.509 346.909C550.176 348.942 549.839 351.021 549.494 353.143L549.493 353.149C547.984 362.446 546.339 372.58 544.36 383.298C539.495 409.658 532.748 438.74 521.729 464.914C510.685 491.145 495.763 513.459 475.149 527.443C454.918 541.167 427.861 547.782 390.368 540.236C342.538 530.609 285.354 505.607 233.493 470.858C181.582 436.076 136.124 392.279 110.718 345.827C108.401 341.592 103.773 339.157 98.9711 339.647C96.6854 339.88 94.3594 340 92 340C54.4446 340 24 309.555 24 272C24 238.126 48.7801 210.017 81.2005 204.851C85.9382 204.096 89.7709 200.592 90.9463 195.941ZM312 0C196.833 0 99.736 77.2452 69.647 182.737C29.6368 192.728 0 228.893 0 272C0 322.81 41.1898 364 92 364C92.477 364 92.9532 363.996 93.4287 363.989C121.806 412.348 168.651 456.301 220.133 490.796C274.013 526.898 334.09 553.391 385.632 563.764C428.49 572.39 462.307 565.155 488.622 547.304C514.554 529.713 531.85 502.727 543.848 474.227C555.871 445.67 562.989 414.591 567.962 387.655C569.992 376.656 571.687 366.212 573.198 356.904L573.199 356.901C573.539 354.803 573.87 352.763 574.194 350.787C575.984 339.85 577.5 331.161 579.083 324.937C583.038 309.382 577.546 294.254 573.074 282.789C572.513 281.35 571.965 279.959 571.433 278.61C567.181 267.823 564 259.753 564 252C564 112.824 451.176 0 312 0ZM87.45 254.439C85.7347 248.038 79.1547 244.239 72.7531 245.954C66.3515 247.669 62.5525 254.249 64.2678 260.651L72.55 291.561C74.2653 297.962 80.8453 301.761 87.2469 300.046C93.6485 298.331 97.4475 291.751 95.7322 285.349L87.45 254.439Z"/>
</mask>
<path d="M90.9463 195.941L67.6778 190.06L90.9463 195.941ZM549.138 287.538L526.856 296.455C526.862 296.47 526.868 296.484 526.874 296.499L549.138 287.538ZM549.144 287.552L571.426 278.635C571.42 278.62 571.414 278.605 571.408 278.59L549.144 287.552ZM550.715 291.51L528.355 300.23L550.715 291.51ZM555.823 319.022L532.564 313.107V313.107L555.823 319.022ZM550.509 346.909L526.824 343.031V343.031L550.509 346.909ZM549.494 353.143L573.145 357.221C573.159 357.144 573.171 357.067 573.184 356.989L549.494 353.143ZM549.493 353.149L525.842 349.071C525.829 349.148 525.816 349.226 525.803 349.303L549.493 353.149ZM544.36 383.298L520.759 378.942V378.942L544.36 383.298ZM521.729 464.914L499.609 455.602V455.602L521.729 464.914ZM475.149 527.443L461.676 507.582L461.675 507.582L475.149 527.443ZM390.368 540.236L385.632 563.764L390.368 540.236ZM233.493 470.858L246.852 450.92L233.493 470.858ZM110.718 345.827L89.6613 357.343L89.6614 357.343L110.718 345.827ZM98.9711 339.647L101.408 363.523H101.408L98.9711 339.647ZM81.2005 204.851L84.9773 228.552L81.2005 204.851ZM69.647 182.737L75.4615 206.022C83.7891 203.943 90.3723 197.574 92.7266 189.32L69.647 182.737ZM93.4287 363.989L114.128 351.842C109.753 344.387 101.706 339.86 93.0622 339.992L93.4287 363.989ZM220.133 490.796L206.774 510.734V510.734L220.133 490.796ZM385.632 563.764L380.897 587.292L385.632 563.764ZM488.622 547.304L502.095 567.166L488.622 547.304ZM543.848 474.227L521.729 464.914L521.729 464.914L543.848 474.227ZM567.962 387.655L544.36 383.298L567.962 387.655ZM573.198 356.904L596.888 360.749C596.912 360.599 596.935 360.448 596.957 360.298L573.198 356.904ZM573.199 356.901L549.509 353.056C549.484 353.206 549.461 353.356 549.44 353.507L573.199 356.901ZM574.194 350.787L550.509 346.909L550.509 346.909L574.194 350.787ZM579.083 324.937L555.823 319.022L555.823 319.022L579.083 324.937ZM573.074 282.789L550.715 291.509L550.715 291.51L573.074 282.789ZM571.433 278.61L593.761 269.809L593.761 269.809L571.433 278.61ZM72.7531 245.954L78.9647 269.136H78.9647L72.7531 245.954ZM87.45 254.439L110.632 248.228V248.228L87.45 254.439ZM64.2678 260.651L41.0856 266.863L64.2678 260.651ZM72.55 291.561L49.3678 297.772H49.3678L72.55 291.561ZM87.2469 300.046L93.4586 323.228H93.4586L87.2469 300.046ZM95.7322 285.349L118.914 279.137L118.914 279.137L95.7322 285.349ZM312 0C194.187 0 95.2798 80.8367 67.6778 190.06L114.215 201.821C136.559 113.402 216.684 48 312 48V0ZM564 252C564 112.824 451.176 0 312 0V48C424.666 48 516 139.334 516 252H564ZM571.42 278.62C567.062 267.73 564 259.297 564 252H516C516 270.111 523.144 287.18 526.856 296.455L571.42 278.62ZM571.408 278.59L571.402 278.576L526.874 296.499L526.88 296.514L571.408 278.59ZM573.074 282.789C572.536 281.408 571.966 279.985 571.426 278.635L526.862 296.469C527.419 297.861 527.907 299.081 528.355 300.23L573.074 282.789ZM579.083 324.937C583.05 309.336 577.502 294.14 573.074 282.789L528.355 300.23C530.592 305.965 531.711 309.505 532.206 311.915C532.655 314.107 532.31 314.102 532.564 313.107L579.083 324.937ZM574.194 350.787C575.984 339.855 577.499 331.163 579.083 324.937L532.564 313.107C530.378 321.7 528.552 332.481 526.824 343.031L574.194 350.787ZM573.184 356.989C573.529 354.863 573.864 352.801 574.194 350.787L526.824 343.031C526.489 345.083 526.148 347.178 525.804 349.298L573.184 356.989ZM573.144 357.227L573.145 357.221L525.843 349.066L525.842 349.071L573.144 357.227ZM567.962 387.655C569.994 376.645 571.678 366.266 573.183 356.994L525.803 349.303C524.29 358.626 522.684 368.515 520.759 378.942L567.962 387.655ZM543.848 474.227C555.871 445.669 562.99 414.59 567.962 387.655L520.759 378.942C515.999 404.726 509.625 431.812 499.609 455.602L543.848 474.227ZM488.622 547.304C514.553 529.714 531.849 502.728 543.848 474.227L499.609 455.602C489.522 479.562 476.974 497.204 461.676 507.582L488.622 547.304ZM385.632 563.764C428.497 572.391 462.312 565.152 488.622 547.304L461.675 507.582C447.523 517.182 427.225 523.173 395.103 516.708L385.632 563.764ZM220.133 490.796C274.013 526.898 334.091 553.391 385.632 563.764L395.103 516.708C350.986 507.828 296.694 484.317 246.852 450.92L220.133 490.796ZM89.6614 357.343C117.541 408.317 166.303 454.727 220.133 490.796L246.852 450.92C196.862 417.425 154.707 376.24 131.774 334.31L89.6614 357.343ZM101.408 363.523C96.6059 364.013 91.9776 361.578 89.6613 357.343L131.774 334.31C124.825 321.605 110.94 314.301 96.5342 315.771L101.408 363.523ZM92 364C95.1716 364 98.3109 363.839 101.408 363.523L96.5343 315.771C95.0599 315.922 93.5472 316 92 316V364ZM0 272C0 322.81 41.1898 364 92 364V316C67.6995 316 48 296.301 48 272H0ZM77.4237 181.15C33.53 188.145 0 226.151 0 272H48C48 250.101 64.0302 231.89 84.9773 228.552L77.4237 181.15ZM67.6778 190.06C68.8533 185.409 72.686 181.905 77.4237 181.15L84.9773 228.552C99.1903 226.287 110.689 215.775 114.215 201.821L67.6778 190.06ZM92.7266 189.32C119.954 93.8607 207.837 24 312 24V-24C185.829 -24 79.518 60.6297 46.5675 176.154L92.7266 189.32ZM24 272C24 240.172 45.8801 213.409 75.4615 206.022L63.8326 159.452C13.3934 172.047 -24 217.614 -24 272H24ZM92 340C54.4446 340 24 309.555 24 272H-24C-24 336.065 27.935 388 92 388V340ZM93.0622 339.992C92.7092 339.997 92.3552 340 92 340V388C92.5988 388 93.1972 387.995 93.7953 387.986L93.0622 339.992ZM233.493 470.858C183.893 437.624 140.099 396.1 114.128 351.842L72.7295 376.136C103.514 428.596 153.41 474.978 206.774 510.734L233.493 470.858ZM390.368 540.236C342.538 530.609 285.354 505.607 233.493 470.858L206.774 510.734C262.672 548.189 325.643 576.172 380.897 587.292L390.368 540.236ZM475.149 527.443C454.922 541.164 427.866 547.783 390.368 540.236L380.897 587.292C429.114 596.997 469.692 589.147 502.095 567.166L475.149 527.443ZM521.729 464.914C510.685 491.147 495.762 513.46 475.149 527.443L502.095 567.166C533.345 545.967 553.015 514.306 565.968 483.539L521.729 464.914ZM544.36 383.298C539.495 409.657 532.748 438.74 521.729 464.914L565.968 483.539C578.994 452.6 586.484 419.526 591.563 392.012L544.36 383.298ZM549.508 353.058C547.993 362.391 546.337 372.59 544.36 383.298L591.563 392.012C593.647 380.721 595.381 370.032 596.888 360.749L549.508 353.058ZM549.44 353.507L549.439 353.509L596.957 360.298L596.957 360.295L549.44 353.507ZM550.509 346.909C550.182 348.904 549.849 350.961 549.509 353.056L596.888 360.746C597.23 358.645 597.558 356.621 597.878 354.665L550.509 346.909ZM555.823 319.022C553.938 326.433 552.267 336.174 550.509 346.909L597.878 354.665C599.702 343.526 601.061 335.889 602.343 330.852L555.823 319.022ZM550.715 291.51C555.387 303.489 557.657 311.812 555.823 319.022L602.342 330.852C608.42 306.952 599.706 285.02 595.434 274.068L550.715 291.51ZM549.105 287.411C549.639 288.766 550.172 290.118 550.715 291.509L595.434 274.068C594.855 272.583 594.291 271.152 593.761 269.809L549.105 287.411ZM540 252C540 265.295 545.426 278.077 549.105 287.411L593.761 269.809C588.936 257.569 588 254.211 588 252H540ZM312 24C437.921 24 540 126.079 540 252H588C588 99.5694 464.431 -24 312 -24V24ZM78.9647 269.136C72.5631 270.852 65.9831 267.053 64.2678 260.651L110.632 248.228C105.486 229.023 85.7462 217.626 66.5414 222.772L78.9647 269.136ZM87.45 254.439C89.1653 260.841 85.3663 267.421 78.9647 269.136L66.5414 222.772C47.3366 227.918 35.9397 247.658 41.0856 266.863L87.45 254.439ZM95.7322 285.349L87.45 254.439L41.0856 266.863L49.3678 297.772L95.7322 285.349ZM81.0353 276.864C87.4369 275.148 94.0169 278.947 95.7322 285.349L49.3678 297.772C54.5137 316.977 74.2537 328.374 93.4586 323.228L81.0353 276.864ZM72.55 291.561C70.8347 285.159 74.6337 278.579 81.0353 276.864L93.4586 323.228C112.663 318.082 124.06 298.342 118.914 279.137L72.55 291.561ZM64.2678 260.651L72.55 291.561L118.914 279.137L110.632 248.228L64.2678 260.651Z" fill="black" mask="url(#path-1-inside-1_0_1046)"/>

    <title>eyes-5</title>
    <g id="All-customizable-items" stroke="none" stroke-width="1" fill="none" fill-rule="evenodd">
        <g id="Eyes/-5" transform="translate(-532.000000, -501.000000)">
            <g id="eyes-5" transform="translate(538.000000, 507.000000)">
                <g id="Group" transform="translate(138.000000, 0.000000)">
                    <circle id="Oval" stroke="#000000" stroke-width="12" stroke-linecap="round" stroke-linejoin="round" cx="32" cy="32" r="32"></circle>
                    <path d="M4,18 C13.3333333,20.6666667 22.6666667,22 32,22 C41.3333333,22 50.6666667,20.6666667 60,18" id="Path" stroke="#000000" stroke-width="12" stroke-linecap="round" stroke-linejoin="round"></path>
                    <circle id="Oval" fill="#000000" cx="32" cy="28" r="10"></circle>
                </g>
                <g id="Group" transform="translate(0.000000, 1.000000)">
                    <circle id="Oval" stroke="#000000" stroke-width="12" stroke-linecap="round" stroke-linejoin="round" cx="32" cy="32" r="32"></circle>
                    <path d="M4,18 C13.3333333,20.6666667 22.6666667,22 32,22 C41.3333333,22 50.6666667,20.6666667 60,18" id="Path" stroke="#000000" stroke-width="12" stroke-linecap="round" stroke-linejoin="round"></path>
                    <circle id="Oval" fill="#000000" cx="32" cy="28" r="10"></circle>
                </g>
            </g>
        </g>
    </g>

    <title>eyebrows-3</title>
    <g id="All-customizable-items" stroke="none" stroke-width="1" fill="none" fill-rule="evenodd" stroke-linecap="round" stroke-linejoin="round">
        <g id="Eyebrows/-3" transform="translate(-500.000000, -472.000000)" stroke="#000000" stroke-width="24">
            <g id="eyebrows-3" transform="translate(512.000000, 484.000000)">
                <path d="M152,14.0251712 C167.712271,3.95186377 182.349308,-0.695225271 195.911111,0.0839040908 C206.159229,0.672661315 219.876442,6.74452014 237.511111,14.0251712 C241.312508,15.5946162 247.475471,17.5862258 256,20" id="Path" transform="translate(204.000000, 10.000000) scale(-1, 1) translate(-204.000000, -10.000000) "></path>
                <path d="M0,14.0251712 C15.7122706,3.95186377 30.3493076,-0.695225271 43.9111111,0.0839040908 C54.1592293,0.672661315 67.8764421,6.74452014 85.5111111,14.0251712 C89.3125078,15.5946162 95.4754707,17.5862258 104,20" id="Path"></path>
            </g>
        </g>
    </g>

    <title>mouth-2</title>
    <g id="All-customizable-items" stroke="none" stroke-width="1" fill="none" fill-rule="evenodd" stroke-linecap="round" stroke-linejoin="round">
        <g id="Mouth/-2" transform="translate(-564.000000, -761.000000)" stroke="#000000" stroke-width="16">
            <path d="M572,769 C585.775809,774.333333 599.109142,777 612,777 C624.890858,777 638.224191,774.333333 652,769" id="mouth-2"></path>
        </g>
    </g>

    <title>nose-7</title>
    <g id="All-customizable-items" stroke="none" stroke-width="1" fill="none" fill-rule="evenodd" stroke-linecap="round" stroke-linejoin="round">
        <g id="Nose/-7" transform="translate(-641.000000, -592.000000)" stroke="#000000" stroke-width="16">
            <path d="M649,600 C669,606.666667 679,620 679,640 C679,660 669,673.333333 649,680" id="nose-7"></path>
        </g>
    </g>

<path fill-rule="evenodd" clip-rule="evenodd" d="M381.002 15.9667C398.497 15.9667 417.058 5.15434 433.002 7.00033C540.999 19.5043 611.662 83.8546 650.002 145.498C667.105 172.998 701.173 213.301 717.002 241C741.892 284.558 750.079 329.611 750.002 396C749.969 424.018 751.695 438.737 750.002 456C748.919 467.04 727.002 498 727.002 498C727.002 498 740.575 495.91 750.002 491C759.428 486.091 775.002 473 775.002 473C775.002 473 761.002 520 750.002 528C739.002 536 722.002 537 732.002 551C742.002 565 761.002 569.588 787.002 565C748.596 598.833 716.929 618.833 692.002 625C667.074 631.168 640.407 634.128 612.002 633.881L613.738 628.642C632.255 572.488 644.343 526.69 650.002 491.247C656.194 452.465 637.616 404.941 633.002 384.633C625.002 349.427 580.002 311 538.002 275C510.002 251 462.002 232.743 394.002 220.228L317.002 231.188C321.668 255.063 307.335 340 290.002 396C264.002 480 205.002 479.291 226.002 509.182C247.002 539.074 203.002 539 203.002 572C203.002 594 228.668 608.667 280.002 616C246.002 638 216.335 647.334 191.002 644C146.766 638.18 119.089 611.816 107.002 616C89.6684 622 89.6684 634.334 107.002 653C73.6684 648.334 48.0017 636 30.0017 616C3.00171 586 5.32585 561.969 7.00171 541C8.67758 520.031 25.9252 524.032 39.0017 503.39C56.2209 476.208 8.71065 438.819 9.00171 413.528C9.29351 388.174 30.205 356.098 42.0017 317.875C50.2183 291.251 49.1598 256.229 54.0017 241.152C78.0017 166.422 121.198 131.332 161.002 103.649C185.916 86.3218 206.002 36.891 262.002 15.9667C318.002 -4.95762 341.946 15.9667 381.002 15.9667Z" fill="black" stroke="black" stroke-width="12" stroke-linecap="round" stroke-linejoin="round"/>

</svg>