<svg width="564px" height="504px" viewBox="0 0 564 504" version="1.1" xmlns="http://www.w3.org/2000/svg" xmlns:xlink="http://www.w3.org/1999/xlink">

<mask id="path-1-inside-1_0_1050" fill="white">
<path fill-rule="evenodd" clip-rule="evenodd" d="M90.9463 195.941C115.92 97.1191 205.436 24 312 24C437.921 24 540 126.079 540 252C540 263.105 542.303 272.693 544.161 280.424C544.528 281.952 544.877 283.407 545.188 284.787C547.115 293.341 548.026 300.358 545.823 309.022C543.939 316.432 542.268 326.168 540.509 336.909C540.176 338.942 539.839 341.021 539.494 343.143L539.493 343.149C537.984 352.446 536.339 362.58 534.36 373.298C529.495 399.658 522.748 428.74 511.729 454.914C500.685 481.145 485.763 503.459 465.149 517.443C444.918 531.167 417.861 537.782 380.368 530.236C351.208 524.367 317.334 517.19 287.344 508.789C256.71 500.206 232.292 490.897 220.414 481.564C207.573 471.475 185.598 447.617 163.659 420.556C141.837 393.64 121.18 364.956 110.718 345.827C108.401 341.592 103.773 339.157 98.9711 339.647C96.6854 339.88 94.3594 340 92 340C54.4446 340 24 309.555 24 272C24 238.126 48.7801 210.017 81.2005 204.851C85.9382 204.096 89.7709 200.592 90.9463 195.941ZM312 0C196.833 0 99.736 77.2452 69.647 182.737C29.6368 192.728 0 228.893 0 272C0 322.81 41.1898 364 92 364C92.486 364 92.9712 363.996 93.4556 363.989C105.577 384.44 125.159 411.178 145.016 435.67C166.987 462.77 190.427 488.525 205.586 500.436C221.708 513.103 250.599 523.419 280.87 531.899C311.785 540.56 346.411 547.883 375.632 553.764C418.49 562.39 452.307 555.155 478.622 537.304C504.554 519.713 521.85 492.727 533.848 464.227C545.871 435.67 552.989 404.591 557.962 377.655C559.992 366.656 561.687 356.212 563.198 346.904L563.199 346.901L563.212 346.819C563.548 344.75 563.874 342.737 564.194 340.787C565.984 329.85 567.5 321.161 569.083 314.937C572.661 300.866 570.846 289.473 568.601 279.512C568.177 277.63 567.752 275.839 567.341 274.107L567.338 274.095C565.534 266.491 564 260.028 564 252C564 112.824 451.176 0 312 0ZM87.45 254.439C85.7347 248.038 79.1547 244.239 72.7531 245.954C66.3515 247.669 62.5525 254.249 64.2678 260.651L72.55 291.561C74.2653 297.962 80.8453 301.761 87.2469 300.046C93.6485 298.331 97.4475 291.751 95.7322 285.349L87.45 254.439Z"/>
</mask>
<path d="M90.9463 195.941L67.6778 190.06L90.9463 195.941ZM544.161 280.424L567.497 274.818V274.818L544.161 280.424ZM545.188 284.787L521.775 290.062L521.775 290.062L545.188 284.787ZM545.823 309.022L569.083 314.937V314.937L545.823 309.022ZM540.509 336.909L516.824 333.031V333.031L540.509 336.909ZM539.494 343.143L563.145 347.221C563.159 347.144 563.171 347.067 563.184 346.989L539.494 343.143ZM539.493 343.149L515.842 339.071C515.829 339.148 515.816 339.226 515.803 339.303L539.493 343.149ZM534.36 373.298L510.759 368.942V368.942L534.36 373.298ZM511.729 454.914L489.609 445.602V445.602L511.729 454.914ZM465.149 517.443L451.676 497.582L451.675 497.582L465.149 517.443ZM380.368 530.236L385.103 506.708L380.368 530.236ZM287.344 508.789L280.87 531.899L287.344 508.789ZM220.414 481.564L235.242 462.693L235.242 462.693L220.414 481.564ZM163.659 420.556L145.016 435.67V435.67L163.659 420.556ZM110.718 345.827L89.6613 357.343L89.6614 357.343L110.718 345.827ZM98.9711 339.647L101.408 363.523H101.408L98.9711 339.647ZM81.2005 204.851L84.9773 228.552L81.2005 204.851ZM69.647 182.737L75.4615 206.022C83.7891 203.943 90.3723 197.574 92.7266 189.32L69.647 182.737ZM93.4556 363.989L114.102 351.752C109.712 344.345 101.691 339.858 93.0822 339.992L93.4556 363.989ZM145.016 435.67L126.373 450.785H126.373L145.016 435.67ZM205.586 500.436L190.758 519.307H190.758L205.586 500.436ZM280.87 531.899L274.396 555.009L280.87 531.899ZM375.632 553.764L370.897 577.292L375.632 553.764ZM478.622 537.304L492.095 557.166H492.095L478.622 537.304ZM533.848 464.227L511.729 454.914L511.729 454.914L533.848 464.227ZM557.962 377.655L534.36 373.298L557.962 377.655ZM563.198 346.904L586.888 350.749C586.912 350.599 586.935 350.448 586.957 350.298L563.198 346.904ZM563.199 346.901L539.508 343.058C539.484 343.207 539.461 343.357 539.44 343.507L563.199 346.901ZM563.212 346.819L539.522 342.973L539.522 342.975L563.212 346.819ZM564.194 340.787L540.509 336.909V336.909L564.194 340.787ZM569.083 314.937L545.823 309.022L545.823 309.022L569.083 314.937ZM568.601 279.512L592.014 274.236L592.014 274.236L568.601 279.512ZM567.341 274.107L590.693 268.567C590.69 268.555 590.688 268.544 590.685 268.533L567.341 274.107ZM567.338 274.095L543.987 279.637C543.989 279.647 543.992 279.658 543.995 279.669L567.338 274.095ZM72.7531 245.954L78.9647 269.136H78.9647L72.7531 245.954ZM87.45 254.439L110.632 248.228V248.228L87.45 254.439ZM64.2678 260.651L41.0856 266.863L64.2678 260.651ZM72.55 291.561L49.3678 297.772H49.3678L72.55 291.561ZM87.2469 300.046L93.4586 323.228H93.4586L87.2469 300.046ZM95.7322 285.349L118.914 279.137L118.914 279.137L95.7322 285.349ZM312 0C194.187 0 95.2798 80.8367 67.6778 190.06L114.215 201.821C136.559 113.402 216.684 48 312 48V0ZM564 252C564 112.824 451.176 0 312 0V48C424.666 48 516 139.334 516 252H564ZM567.497 274.818C565.619 267.002 564 259.936 564 252H516C516 266.274 518.988 278.385 520.824 286.03L567.497 274.818ZM568.601 279.512C568.246 277.935 567.855 276.309 567.497 274.818L520.824 286.03C521.2 287.595 521.508 288.878 521.775 290.062L568.601 279.512ZM569.083 314.937C572.663 300.86 570.843 289.464 568.601 279.512L521.775 290.062C523.387 297.219 523.39 299.856 522.564 303.107L569.083 314.937ZM564.194 340.787C565.984 329.855 567.499 321.163 569.083 314.937L522.564 303.107C520.378 311.7 518.552 322.481 516.824 333.031L564.194 340.787ZM563.184 346.989C563.529 344.863 563.864 342.801 564.194 340.787L516.824 333.031C516.489 335.083 516.148 337.178 515.804 339.298L563.184 346.989ZM563.144 347.227L563.145 347.221L515.843 339.066L515.842 339.071L563.144 347.227ZM557.962 377.655C559.994 366.645 561.678 356.266 563.183 346.994L515.803 339.303C514.29 348.626 512.684 358.515 510.759 368.942L557.962 377.655ZM533.848 464.227C545.871 435.669 552.99 404.59 557.962 377.655L510.759 368.942C505.999 394.726 499.625 421.812 489.609 445.602L533.848 464.227ZM478.622 537.304C504.553 519.714 521.849 492.728 533.848 464.227L489.609 445.602C479.522 469.562 466.974 487.204 451.676 497.582L478.622 537.304ZM375.632 553.764C418.497 562.391 452.312 555.152 478.622 537.304L451.675 497.582C437.523 507.182 417.225 513.173 385.103 506.708L375.632 553.764ZM280.87 531.899C311.785 540.56 346.411 547.883 375.632 553.764L385.103 506.708C356.005 500.851 322.883 493.821 293.819 485.678L280.87 531.899ZM205.586 500.436C214.23 507.227 225.822 512.898 237.933 517.742C250.413 522.733 265.055 527.468 280.87 531.899L293.819 485.678C279 481.527 266.115 477.316 255.758 473.174C245.032 468.884 238.476 465.234 235.242 462.693L205.586 500.436ZM145.016 435.67C166.984 462.766 190.425 488.524 205.586 500.436L235.242 462.693C224.722 454.427 204.212 432.467 182.302 405.441L145.016 435.67ZM89.6614 357.343C101.18 378.403 122.928 408.426 145.016 435.67L182.302 405.441C160.747 378.854 141.181 351.509 131.774 334.31L89.6614 357.343ZM101.408 363.523C96.6059 364.013 91.9776 361.578 89.6613 357.343L131.774 334.31C124.825 321.605 110.94 314.301 96.5342 315.771L101.408 363.523ZM92 364C95.1716 364 98.3109 363.839 101.408 363.523L96.5343 315.771C95.0599 315.922 93.5472 316 92 316V364ZM0 272C0 322.81 41.1898 364 92 364V316C67.6995 316 48 296.301 48 272H0ZM77.4237 181.15C33.53 188.145 0 226.151 0 272H48C48 250.101 64.0302 231.89 84.9773 228.552L77.4237 181.15ZM67.6778 190.06C68.8533 185.409 72.686 181.905 77.4237 181.15L84.9773 228.552C99.1903 226.287 110.689 215.775 114.215 201.821L67.6778 190.06ZM92.7266 189.32C119.954 93.8607 207.837 24 312 24V-24C185.829 -24 79.518 60.6297 46.5675 176.154L92.7266 189.32ZM24 272C24 240.172 45.8801 213.409 75.4615 206.022L63.8326 159.452C13.3934 172.047 -24 217.614 -24 272H24ZM92 340C54.4446 340 24 309.555 24 272H-24C-24 336.065 27.935 388 92 388V340ZM93.0822 339.992C92.7221 339.997 92.3614 340 92 340V388C92.6105 388 93.2202 387.995 93.829 387.986L93.0822 339.992ZM163.659 420.556C144.137 396.476 125.372 370.766 114.102 351.752L72.8096 376.226C85.7833 398.115 106.182 425.879 126.373 450.785L163.659 420.556ZM220.414 481.564C207.572 471.474 185.595 447.613 163.659 420.556L126.373 450.785C148.379 477.927 173.281 505.576 190.758 519.307L220.414 481.564ZM287.344 508.789C256.73 500.212 232.298 490.902 220.414 481.564L190.758 519.307C211.117 535.304 244.468 546.625 274.396 555.009L287.344 508.789ZM380.368 530.236C351.209 524.367 317.334 517.19 287.344 508.789L274.396 555.009C306.236 563.929 341.613 571.398 370.897 577.292L380.368 530.236ZM465.149 517.443C444.922 531.164 417.866 537.783 380.368 530.236L370.897 577.292C419.114 586.997 459.692 579.147 492.095 557.166L465.149 517.443ZM511.729 454.914C500.685 481.147 485.762 503.46 465.149 517.443L492.095 557.166C523.345 535.967 543.015 504.306 555.968 473.539L511.729 454.914ZM534.36 373.298C529.495 399.657 522.748 428.74 511.729 454.914L555.968 473.539C568.994 442.6 576.484 409.526 581.563 382.012L534.36 373.298ZM539.508 343.058C537.993 352.391 536.337 362.59 534.36 373.298L581.563 382.012C583.647 370.721 585.381 360.032 586.888 350.749L539.508 343.058ZM539.44 343.507L539.439 343.509L586.957 350.298L586.957 350.295L539.44 343.507ZM539.522 342.975L539.508 343.058L586.889 350.744L586.902 350.662L539.522 342.975ZM540.509 336.909C540.187 338.878 539.857 340.908 539.522 342.973L586.902 350.664C587.238 348.591 587.562 346.596 587.878 344.665L540.509 336.909ZM545.823 309.022C543.938 316.433 542.267 326.174 540.509 336.909L587.878 344.665C589.702 333.526 591.061 325.889 592.343 320.852L545.823 309.022ZM545.188 284.787C547.114 293.335 548.027 300.354 545.823 309.022L592.342 320.852C597.295 301.377 594.577 285.612 592.014 274.236L545.188 284.787ZM543.989 279.647C544.404 281.396 544.799 283.058 545.188 284.787L592.014 274.236C591.555 272.201 591.1 270.281 590.693 268.567L543.989 279.647ZM543.995 279.669L543.998 279.682L590.685 268.533L590.682 268.52L543.995 279.669ZM540 252C540 263.205 542.229 272.229 543.987 279.637L590.69 268.553C588.838 260.752 588 256.851 588 252H540ZM312 24C437.921 24 540 126.079 540 252H588C588 99.5694 464.431 -24 312 -24V24ZM78.9647 269.136C72.5631 270.852 65.9831 267.053 64.2678 260.651L110.632 248.228C105.486 229.023 85.7462 217.626 66.5414 222.772L78.9647 269.136ZM87.45 254.439C89.1653 260.841 85.3663 267.421 78.9647 269.136L66.5414 222.772C47.3366 227.918 35.9397 247.658 41.0856 266.863L87.45 254.439ZM95.7322 285.349L87.45 254.439L41.0856 266.863L49.3678 297.772L95.7322 285.349ZM81.0353 276.864C87.4369 275.148 94.0169 278.947 95.7322 285.349L49.3678 297.772C54.5137 316.977 74.2537 328.374 93.4586 323.228L81.0353 276.864ZM72.55 291.561C70.8347 285.159 74.6337 278.579 81.0353 276.864L93.4586 323.228C112.663 318.082 124.06 298.342 118.914 279.137L72.55 291.561ZM64.2678 260.651L72.55 291.561L118.914 279.137L110.632 248.228L64.2678 260.651Z" fill="black" mask="url(#path-1-inside-1_0_1050)"/>

    <title>eyes-3</title>
    <g id="All-customizable-items" stroke="none" stroke-width="1" fill="none" fill-rule="evenodd" stroke-linecap="round" stroke-linejoin="round">
        <g id="Eyes/-3" transform="translate(-527.000000, -534.000000)" stroke="#000000" stroke-width="12">
            <g id="eyes-3" transform="translate(533.944954, 540.730159)">
                <path d="M146.275229,-1.43884904e-13 C159.958467,9.35202544 170.38232,14.8216846 177.546789,16.4089776 C184.711258,17.9962705 196.232359,17.3885306 212.110092,14.5857578" id="Path" transform="translate(179.192661, 8.634921) scale(-1, 1) translate(-179.192661, -8.634921) "></path>
                <path d="M6.39488462e-14,-1.43884904e-13 C13.6832373,9.35202544 24.1070905,14.8216846 31.2715596,16.4089776 C38.4360288,17.9962705 49.9571297,17.3885306 65.8348624,14.5857578" id="Path"></path>
            </g>
        </g>
    </g>

<path fill-rule="evenodd" clip-rule="evenodd" d="M122.289 31.1239C122.289 31.1239 122.95 18.5166 119.376 16.6981C115.802 14.8796 58.6832 2.09875 42.1177 3.13368C25.5523 4.16861 2.75229 19.1499 2.75229 19.1499C2.75229 19.1499 26.2598 10.0692 47.1786 12.1669C68.0975 14.2646 122.289 31.1239 122.289 31.1239Z" fill="black" stroke="black" stroke-width="4" stroke-linecap="round" stroke-linejoin="round"/>
<path fill-rule="evenodd" clip-rule="evenodd" d="M154.711 31.1239C154.711 31.1239 154.05 18.5166 157.624 16.6981C161.198 14.8796 218.317 2.09875 234.882 3.13368C251.448 4.16861 274.248 19.1499 274.248 19.1499C274.248 19.1499 250.74 10.0692 229.821 12.1669C208.902 14.2646 154.711 31.1239 154.711 31.1239Z" fill="black" stroke="black" stroke-width="4" stroke-linecap="round" stroke-linejoin="round"/>

<path fill-rule="evenodd" clip-rule="evenodd" d="M33.8702 55.5554C14.1478 43.2093 4.05731 21.766 11.3959 12.019C18.7344 2.2721 59 16.6372 99 16.3186C139 16.0001 179.266 2.2721 186.604 12.019C193.943 21.766 183.852 43.2093 164.13 55.5554C155.101 61.2073 127.818 67.9999 99.4434 67.9999C71.069 67.9999 42.8069 61.1497 33.8702 55.5554Z" stroke="black" stroke-width="16" stroke-linecap="round" stroke-linejoin="round"/>
<path d="M59.3223 58C59.3223 58 79.161 50 98.9997 50C118.838 50 138.677 58 138.677 58" stroke="black" stroke-width="8" stroke-linecap="round" stroke-linejoin="round"/>

    <title>nose-1</title>
    <g id="All-customizable-items" stroke="none" stroke-width="1" fill="none" fill-rule="evenodd" stroke-linecap="round" stroke-linejoin="round">
        <g id="Nose/-1" transform="translate(-622.000000, -561.000000)" stroke="#000000" stroke-width="16">
            <path d="M633.532552,569.006852 C651.291821,622.395473 661.086671,652.555363 662.917104,659.486521 C664.747537,666.41768 663.749048,673.591123 659.921638,681.006852" id="nose-1" transform="translate(648.668966, 625.006852) rotate(-3.225647) translate(-648.668966, -625.006852) "></path>
        </g>
    </g>

<path fill-rule="evenodd" clip-rule="evenodd" d="M356.999 6.99991C266.999 6.99991 130.999 103 77.9994 230C24.9994 357 -17.0674 727.176 20.9994 784C89.9994 887 106.999 737 180.999 784C205.904 799.818 241.108 616.584 228.999 604C202.527 576.489 181.999 535 181.999 535C181.999 535 101.999 521 101.999 455C101.999 389 155.999 382 180.999 382C205.999 382 228.999 427 228.999 427C228.999 427 248.999 408 252.999 364C254.869 343.436 339.999 318 409.999 292C479.999 266 530.999 230 530.999 230C530.999 230 557.324 255.865 577.999 277C622.999 323 633.999 384 633.999 455C633.999 491.67 622.251 585.763 604.999 667C588.849 743.051 566.711 807.067 577.999 824C591.183 843.776 607.429 794.285 667.999 764C707.999 744 693.999 817 722.999 764C751.999 711 718.999 471 698.999 335C678.999 199 620.999 108 542.999 56.9999C464.999 5.99991 376.36 6.99991 356.999 6.99991Z" fill="black" stroke="black" stroke-width="12" stroke-linecap="round" stroke-linejoin="round"/>

    <title>details-1</title>
    <g id="All-customizable-items" stroke="none" stroke-width="1" fill="none" fill-rule="evenodd" stroke-linecap="round" stroke-linejoin="round">
        <g id="Details/-1" transform="translate(-439.000000, -613.000000)" stroke="#000000" stroke-width="12">
            <path d="M485,619 C507.09139,619 525,636.90861 525,659 C525,681.09139 507.09139,699 485,699 C462.90861,699 445,681.09139 445,659 C445,636.90861 462.90861,619 485,619 Z M767.292336,619.274106 C780,619 763.092776,698.242969 759.023679,696.8482 C743.301573,691.459118 732,676.549371 732,659 C732,638.501287 747.390789,619.703385 767.292336,619.274106 Z" id="details-1"></path>
        </g>
    </g>

<path fill-rule="evenodd" clip-rule="evenodd" d="M425.472 4.15757C460.209 -0.810331 502.963 3.53659 509.198 9.74647C515.433 15.9564 515.214 53.3527 496.712 73.8453C485.077 86.7315 421.381 87.5384 394.986 79.9181C386.397 77.4383 379.052 66.3962 372.199 56.0935C365.566 46.1216 359.394 36.8425 353 36.6902C346.575 36.537 340.416 45.8902 333.768 55.9856C326.965 66.3167 319.65 77.425 311.014 79.9181C284.62 87.5384 222.918 88.7248 211.289 75.8453C192.787 55.3527 190.568 15.9564 196.803 9.74647C203.038 3.53659 245.791 -0.810331 280.528 4.15757C315.266 9.12548 330.492 12.9339 337.533 15.0292C341.93 16.3376 352.435 16.8922 352.435 16.8922L353 16.9045L353.566 16.9123C359.104 16.9653 364.071 16.3376 368.468 15.0292C375.509 12.9339 390.735 9.12548 425.472 4.15757ZM211.054 15.7102C191.459 25.4039 207.273 59.0467 215.977 68.7404C224.682 78.4341 301.217 76.1532 311.905 71.0212C322.594 65.8893 337.642 40.6508 329.626 26.3954C321.61 12.14 239.556 5.44632 211.054 15.7102ZM490.023 68.7404C498.728 59.0467 514.542 25.4039 494.947 15.7102C466.444 5.44632 384.391 12.14 376.375 26.3954C368.358 40.6508 383.407 65.8893 394.095 71.0212C404.784 76.1532 481.319 78.4341 490.023 68.7404Z" fill="black"/>
<path d="M425.472 4.15757L425.755 6.13743L425.472 4.15757ZM496.712 73.8453L498.196 75.1856L496.712 73.8453ZM394.986 79.9181L394.431 81.8397L394.986 79.9181ZM372.199 56.0935L370.534 57.2011L372.199 56.0935ZM353 36.6902L353.048 34.6907L353 36.6902ZM333.768 55.9856L332.098 54.8857L333.768 55.9856ZM311.014 79.9181L311.569 81.8397L311.014 79.9181ZM211.289 75.8453L212.773 74.505L211.289 75.8453ZM196.803 9.74647L195.392 8.32942L196.803 9.74647ZM280.528 4.15757L280.245 6.13743L280.528 4.15757ZM337.533 15.0292L338.103 13.1123V13.1123L337.533 15.0292ZM352.435 16.8922L352.33 18.8894C352.35 18.8905 352.371 18.8912 352.391 18.8917L352.435 16.8922ZM353 16.9045L352.957 18.904C352.962 18.9041 352.967 18.9042 352.973 18.9043L353 16.9045ZM353.566 16.9123L353.539 18.9121L353.547 18.9122L353.566 16.9123ZM368.468 15.0292L369.038 16.9461L368.468 15.0292ZM215.977 68.7404L214.489 70.0766H214.489L215.977 68.7404ZM211.054 15.7102L210.376 13.8285C210.305 13.8542 210.235 13.8839 210.167 13.9176L211.054 15.7102ZM329.626 26.3954L327.883 27.3757V27.3757L329.626 26.3954ZM494.947 15.7102L495.833 13.9176C495.765 13.8839 495.696 13.8542 495.624 13.8285L494.947 15.7102ZM490.023 68.7404L491.511 70.0766L490.023 68.7404ZM376.375 26.3954L374.631 25.4151L376.375 26.3954ZM510.609 8.32942C509.526 7.25111 507.856 6.38318 505.951 5.65235C503.994 4.90149 501.574 4.21643 498.803 3.6022C493.257 2.37274 486.145 1.39217 478.18 0.766494C462.252 -0.484751 442.729 -0.330772 425.189 2.17772L425.755 6.13743C442.952 3.67802 462.175 3.5215 477.867 4.75421C485.712 5.37051 492.628 6.33053 497.937 7.5074C500.594 8.09633 502.808 8.73088 504.518 9.38694C506.281 10.063 507.31 10.6894 507.786 11.1635L510.609 8.32942ZM498.196 75.1856C507.821 64.5257 512.599 49.6056 514.216 36.6883C515.027 30.2093 515.054 24.1463 514.465 19.2603C514.17 16.8188 513.716 14.6287 513.107 12.8083C512.51 11.026 511.708 9.42364 510.609 8.32942L507.786 11.1635C508.246 11.6218 508.801 12.5465 509.314 14.0779C509.813 15.5713 510.221 17.4817 510.493 19.7396C511.038 24.2523 511.024 29.9835 510.247 36.1914C508.687 48.6479 504.105 62.6723 495.227 72.505L498.196 75.1856ZM394.431 81.8397C407.926 85.7355 430.693 87.4339 451.467 86.5699C461.876 86.137 471.879 85.0575 480.051 83.2552C484.137 82.3542 487.81 81.2628 490.868 79.9581C493.9 78.6641 496.466 77.1019 498.196 75.1856L495.227 72.505C494.049 73.8102 492.079 75.0921 489.298 76.279C486.542 77.4552 483.124 78.4814 479.19 79.3491C471.322 81.0842 461.569 82.1463 451.301 82.5734C430.719 83.4294 408.441 81.721 395.541 77.9966L394.431 81.8397ZM370.534 57.2011C373.944 62.3274 377.564 67.7755 381.428 72.2471C385.266 76.6881 389.566 80.4349 394.431 81.8397L395.541 77.9966C391.817 76.9215 388.15 73.9073 384.455 69.6316C380.786 65.3866 377.307 60.1622 373.864 54.9858L370.534 57.2011ZM352.953 38.6896C355.234 38.744 357.872 40.4853 361.012 44.0346C364.073 47.4952 367.193 52.1791 370.534 57.2011L373.864 54.9858C370.572 50.036 367.29 45.0944 364.008 41.3844C360.805 37.7632 357.16 34.7887 353.048 34.6907L352.953 38.6896ZM335.438 57.0856C338.788 51.9995 341.906 47.2725 344.964 43.8213C348.107 40.276 350.712 38.6362 352.953 38.6896L353.048 34.6907C348.863 34.591 345.177 37.5512 341.971 41.1681C338.682 44.8791 335.396 49.8764 332.098 54.8857L335.438 57.0856ZM311.569 81.8397C316.461 80.4274 320.765 76.6579 324.596 72.1936C328.453 67.6988 332.053 62.2259 335.438 57.0856L332.098 54.8857C328.679 60.0765 325.221 65.3232 321.561 69.5887C317.874 73.8846 314.204 76.9157 310.46 77.9966L311.569 81.8397ZM209.804 77.1856C211.537 79.1043 214.075 80.6358 217.062 81.8775C220.072 83.1284 223.674 84.1408 227.669 84.9473C235.661 86.5604 245.419 87.3872 255.579 87.5688C275.866 87.9316 298.109 85.7257 311.569 81.8397L310.46 77.9966C297.525 81.7309 275.72 83.9283 255.65 83.5695C245.631 83.3903 236.134 82.5751 228.461 81.0264C224.624 80.252 221.291 79.3035 218.598 78.1839C215.882 77.055 213.948 75.8062 212.773 74.505L209.804 77.1856ZM195.392 8.32942C194.26 9.45624 193.493 11.1318 192.957 12.9683C192.407 14.8514 192.037 17.1243 191.84 19.6575C191.446 24.7284 191.73 31.0349 192.794 37.7527C194.914 51.1423 200.194 66.5409 209.804 77.1856L212.773 74.505C203.882 64.657 198.801 50.1112 196.745 37.1271C195.721 30.6579 195.463 24.6702 195.828 19.9674C196.011 17.6137 196.346 15.6298 196.796 14.0898C197.26 12.5032 197.787 11.5892 198.214 11.1635L195.392 8.32942ZM280.812 2.17772C263.271 -0.330772 243.749 -0.484751 227.821 0.766494C219.856 1.39217 212.744 2.37274 207.198 3.6022C204.427 4.21643 202.007 4.90149 200.049 5.65235C198.145 6.38318 196.474 7.25111 195.392 8.32942L198.214 11.1635C198.69 10.6894 199.72 10.063 201.482 9.38694C203.192 8.73088 205.407 8.09633 208.063 7.5074C213.372 6.33053 220.289 5.37051 228.134 4.75421C243.826 3.5215 263.048 3.67802 280.245 6.13743L280.812 2.17772ZM338.103 13.1123C330.933 10.9786 315.602 7.1532 280.812 2.17772L280.245 6.13743C314.929 11.0978 330.05 14.8891 336.963 16.9461L338.103 13.1123ZM352.435 16.8922C352.54 14.8949 352.541 14.8949 352.541 14.8949C352.541 14.8949 352.54 14.8949 352.54 14.8949C352.54 14.8949 352.54 14.8949 352.539 14.8949C352.538 14.8948 352.537 14.8947 352.534 14.8946C352.53 14.8944 352.523 14.894 352.513 14.8935C352.495 14.8925 352.466 14.8909 352.428 14.8888C352.352 14.8845 352.24 14.8781 352.095 14.8694C351.804 14.8519 351.382 14.8255 350.862 14.7898C349.821 14.7182 348.388 14.6093 346.822 14.4603C343.624 14.156 340.087 13.7027 338.103 13.1123L336.963 16.9461C339.375 17.6641 343.29 18.1422 346.443 18.4423C348.053 18.5955 349.522 18.7071 350.588 18.7804C351.121 18.817 351.554 18.8442 351.855 18.8622C352.006 18.8712 352.123 18.878 352.204 18.8825C352.244 18.8847 352.275 18.8864 352.296 18.8876C352.307 18.8881 352.315 18.8886 352.32 18.8889C352.323 18.889 352.325 18.8892 352.327 18.8892C352.328 18.8893 352.328 18.8893 352.329 18.8893C352.329 18.8893 352.329 18.8894 352.329 18.8894C352.329 18.8894 352.33 18.8894 352.435 16.8922ZM353.044 14.905L352.479 14.8926L352.391 18.8917L352.957 18.904L353.044 14.905ZM353.594 14.9125L353.028 14.9047L352.973 18.9043L353.539 18.9121L353.594 14.9125ZM367.897 13.1123C363.726 14.3534 358.963 14.9638 353.586 14.9124L353.547 18.9122C359.244 18.9667 364.415 18.3218 369.038 16.9461L367.897 13.1123ZM425.189 2.17772C390.399 7.1532 375.067 10.9786 367.897 13.1123L369.038 16.9461C375.95 14.8891 391.071 11.0978 425.755 6.13743L425.189 2.17772ZM217.465 67.4041C213.351 62.8218 207.368 52.2929 204.848 41.7599C203.592 36.5077 203.242 31.4389 204.276 27.1958C205.289 23.0347 207.63 19.6352 211.941 17.5029L210.167 13.9176C204.68 16.6321 201.65 21.0731 200.389 26.2493C199.149 31.3434 199.623 37.1088 200.958 42.6907C203.622 53.8259 209.899 64.9653 214.489 70.0766L217.465 67.4041ZM311.039 69.2183C309.98 69.7269 307.863 70.289 304.735 70.8228C301.673 71.3453 297.83 71.8117 293.454 72.2009C284.706 72.9791 273.925 73.4404 263.197 73.4404C252.462 73.4404 241.836 72.9784 233.383 71.9234C229.152 71.3953 225.522 70.7254 222.718 69.9113C219.81 69.0674 218.149 68.1655 217.465 67.4041L214.489 70.0766C215.982 71.7386 218.616 72.886 221.602 73.7527C224.691 74.6493 228.552 75.3515 232.888 75.8926C241.567 76.9759 252.375 77.4404 263.197 77.4404C274.027 77.4404 284.928 76.9752 293.809 76.1852C298.247 75.7904 302.205 75.3124 305.408 74.7658C308.545 74.2304 311.158 73.5985 312.771 72.8242L311.039 69.2183ZM327.883 27.3757C331.399 33.6294 329.989 42.7095 325.969 51.2803C323.993 55.4927 321.454 59.4258 318.781 62.5996C316.084 65.8013 313.354 68.1069 311.039 69.2183L312.771 72.8242C315.8 71.3696 318.96 68.596 321.84 65.1766C324.744 61.7293 327.47 57.4996 329.591 52.9789C333.763 44.0837 335.869 33.4168 331.369 25.4151L327.883 27.3757ZM211.732 17.5919C218.576 15.1273 228.812 13.6326 240.578 13.0425C252.302 12.4545 265.39 12.7713 277.85 13.8506C290.318 14.9307 302.094 16.7689 311.21 19.2009C315.772 20.4181 319.606 21.7677 322.507 23.2127C325.475 24.6909 327.183 26.131 327.883 27.3757L331.369 25.4151C330.065 23.096 327.455 21.2085 324.29 19.6322C321.059 18.0227 316.944 16.5907 312.241 15.3361C302.827 12.8245 290.804 10.9578 278.195 9.86554C265.577 8.7725 252.306 8.44935 240.378 9.04754C228.492 9.64363 217.784 11.1612 210.376 13.8285L211.732 17.5919ZM494.06 17.5029C498.37 19.6352 500.712 23.0347 501.725 27.1958C502.758 31.4389 502.409 36.5077 501.152 41.7599C498.632 52.2929 492.65 62.8218 488.535 67.4041L491.511 70.0766C496.101 64.9653 502.378 53.8259 505.043 42.6907C506.378 37.1088 506.852 31.3434 505.611 26.2493C504.351 21.0731 501.321 16.6321 495.833 13.9176L494.06 17.5029ZM378.118 27.3757C378.818 26.131 380.526 24.6909 383.494 23.2127C386.395 21.7677 390.228 20.4181 394.791 19.2009C403.907 16.7689 415.682 14.9307 428.151 13.8506C440.611 12.7713 453.698 12.4545 465.422 13.0425C477.189 13.6326 487.425 15.1273 494.269 17.5919L495.624 13.8285C488.217 11.1612 477.508 9.64363 465.623 9.04754C453.695 8.44935 440.424 8.7725 427.806 9.86554C415.196 10.9578 403.174 12.8245 393.76 15.3361C389.057 16.5907 384.942 18.0227 381.71 19.6322C378.545 21.2085 375.935 23.096 374.631 25.4151L378.118 27.3757ZM394.961 69.2183C392.646 68.1069 389.917 65.8013 387.22 62.5996C384.546 59.4258 382.007 55.4927 380.031 51.2803C376.011 42.7095 374.601 33.6294 378.118 27.3757L374.631 25.4151C370.132 33.4168 372.238 44.0837 376.41 52.9789C378.53 57.4996 381.257 61.7293 384.16 65.1766C387.041 68.596 390.2 71.3696 393.23 72.8242L394.961 69.2183ZM488.535 67.4041C487.852 68.1655 486.19 69.0674 483.283 69.9113C480.479 70.7254 476.849 71.3953 472.618 71.9234C464.165 72.9784 453.538 73.4404 442.803 73.4404C432.075 73.4404 421.294 72.9791 412.546 72.2009C408.171 71.8117 404.327 71.3453 401.265 70.8228C398.137 70.289 396.02 69.7269 394.961 69.2183L393.23 72.8242C394.843 73.5985 397.455 74.2304 400.593 74.7658C403.796 75.3124 407.753 75.7904 412.192 76.1852C421.073 76.9752 431.973 77.4404 442.803 77.4404C453.626 77.4404 464.433 76.9759 473.113 75.8926C477.448 75.3515 481.309 74.6493 484.398 73.7527C487.384 72.886 490.019 71.7386 491.511 70.0766L488.535 67.4041Z" fill="black"/>
<path fill-rule="evenodd" clip-rule="evenodd" d="M201 22L6 54L2 63L201 43V22Z" fill="black" stroke="black" stroke-width="4" stroke-linecap="round" stroke-linejoin="round"/>

</svg>