<svg width="564px" height="504px" viewBox="0 0 564 504" version="1.1" xmlns="http://www.w3.org/2000/svg" xmlns:xlink="http://www.w3.org/1999/xlink">

    <title>face-10</title>
    <g id="All-customizable-items" stroke="none" stroke-width="1" fill="none" fill-rule="evenodd" stroke-linecap="round" stroke-linejoin="round">
        <g id="Face/-10" transform="translate(-220.000000, -367.000000)" stroke="#000000" stroke-width="24">
            <path d="M532,379 C664.54834,379 772,486.45166 772,619 C772,751.54834 684.54834,899 592,899 C535.13263,899 351.668898,801.612202 313.752775,718.980575 L313.322946,718.989282 L312,719 C267.81722,719 232,683.18278 232,639 C232,599.134956 261.158843,566.080325 299.312086,560.00055 C325.599297,455.979213 419.809919,379 532,379 Z M295.858895,624.545187 L304.141105,655.454813" id="face-10"></path>
        </g>
    </g>

    <title>eyes-2</title>
    <g id="All-customizable-items" stroke="none" stroke-width="1" fill="none" fill-rule="evenodd">
        <g id="Eyes/-2" transform="translate(-538.000000, -516.000000)" fill="#000000">
            <path d="M570,516 C587.673112,516 602,530.326888 602,548 C602,565.673112 587.673112,580 570,580 C552.326888,580 538,565.673112 538,548 C538,530.326888 552.326888,516 570,516 Z M708,516 C725.673112,516 740,530.326888 740,548 C740,565.673112 725.673112,580 708,580 C690.326888,580 676,565.673112 676,548 C676,530.326888 690.326888,516 708,516 Z" id="eyes-2"></path>
        </g>
    </g>

    <title>eyebrows-0</title>
    <g id="All-customizable-items" stroke="none" stroke-width="1" fill="none" fill-rule="evenodd" stroke-linecap="round" stroke-linejoin="round">
        <g id="Eyebrows/-0" transform="translate(-517.000000, -484.000000)" stroke="#000000" stroke-width="16">
            <g id="eyebrows-0" transform="translate(525.000000, 492.000000)">
                <path d="M0,16 C12.8888889,5.33333333 27.8888889,0 45,0 C62.1111111,0 77.1111111,5.33333333 90,16" id="Path"></path>
                <path d="M138,16 C150.888889,5.33333333 165.888889,0 183,0 C200.111111,0 215.111111,5.33333333 228,16" id="Path"></path>
            </g>
        </g>
    </g>

<path fill-rule="evenodd" clip-rule="evenodd" d="M165 19.0435C165 19.0435 121.693 22.6922 93.6188 21.3913C65.5442 20.0904 13 12 13 12C13 12 36.5138 84 90.2597 84C119.652 84 133.489 72.4405 148.204 50.3478C154.215 41.324 165 19.0435 165 19.0435Z" stroke="black" stroke-width="12" stroke-linecap="round" stroke-linejoin="round"/>
<path d="M177 16.4444C177 16.4444 129.212 24.2222 91.4848 21.1111C53.7576 18 11 11 11 11" stroke="black" stroke-width="12" stroke-linecap="round" stroke-linejoin="round"/>
<path d="M6 16C6 16 8.4375 11.3846 11.6875 9.07692C14.9375 6.76923 19 6 19 6" stroke="black" stroke-width="12" stroke-linecap="round" stroke-linejoin="round"/>
<path d="M38 59C38 59 57.3492 48 94.3651 48C131.381 48 144 57.4286 144 57.4286" stroke="black" stroke-width="12" stroke-linecap="round" stroke-linejoin="round"/>

    <title>nose-3</title>
    <g id="All-customizable-items" stroke="none" stroke-width="1" fill="none" fill-rule="evenodd" stroke-linecap="round" stroke-linejoin="round">
        <g id="Nose/-3" transform="translate(-618.000000, -587.000000)" stroke="#000000" stroke-width="16">
            <path d="M636.843465,595.910607 C654.994141,637.483681 663.279537,666.31686 661.699654,682.410144 C660.11977,698.503428 648.515798,703.474491 626.887739,697.323331" id="nose-3" transform="translate(644.388576, 647.892684) rotate(1.032339) translate(-644.388576, -647.892684) "></path>
        </g>
    </g>

    <title>hair-24</title>
    <g id="All-customizable-items" stroke="none" stroke-width="1" fill="none" fill-rule="evenodd" stroke-linecap="round" stroke-linejoin="round">
        <g id="Hairstyle/-24" transform="translate(-72.000000, -144.000000)" fill="#000000" stroke="#000000" stroke-width="12">
            <path d="M781,289.497769 C798.103709,316.997454 825.17172,336.301089 841,364 C865.890626,407.557684 868.077011,462.61072 868,529 C867.9675,557.017942 882.693139,582.736765 881,600 C876.129956,649.654956 859.837727,658.601446 868,683 C875.333333,704.9207 892,713.587367 918,709 C879.594389,742.832207 847.927723,762.832207 823,769 C798.072277,775.167793 764.738944,778.128143 723,777.88105 C752.333333,741.246882 771.666667,693.702197 781,635.246996 C787.192253,596.464564 768.614679,548.940715 764,528.632681 C756,493.426708 705,479.809303 671,458.884998 C648.333333,444.935462 632.333333,425.339684 623,400.097666 C619.930775,398.204518 609.503486,418.456691 578,448.921044 C556.997676,469.230612 531.664342,481.851621 502,486.784071 C522,461.542053 533.666667,441.282012 537,426.003948 C540.333333,410.725884 536.333333,390.133711 525,364.227429 C527,394.783556 522.333333,421.02197 511,442.942671 C499.666667,464.863371 479.666667,482.466358 451,495.751631 C459.984865,482.167128 463.984865,464.564141 463,442.942671 C462.109292,423.388296 457.109292,400.803332 448,375.187779 C446.738771,415.491033 444.405438,444.386502 441,461.874185 C432.896469,503.487621 336,623.290251 357,653.182115 C371,673.110024 395.666667,683.049319 431,683 C409,700.333333 389,712.333333 371,719 C344,729 285.006413,721.830457 312,729.165808 C321.432212,749.904322 324.306229,752.229245 336.874017,766.032441 C349.254226,779.629619 251,793.931514 185,775 C141,762.378991 111.333333,743.447477 96,718.205458 C119.330285,723.999457 128.663618,723.999457 124,718.205458 C117.31189,709.896266 101.978557,695.282466 78,674.364058 C110.615651,683.475632 131.282317,681.15071 140,667.389289 C157.219175,640.207719 139.708942,582.818574 140,557.52815 C140.291796,532.173599 161.203267,500.097769 173,461.874185 C181.216606,435.25087 180.158048,400.228294 185,385.151734 C209,310.422073 252.196553,275.33175 292,247.649159 C316.914685,230.321438 337,180.890663 393,159.966358 C449,139.042053 472.944616,159.966358 512,159.966358 C529.495144,159.966358 548.056153,149.154015 564,151 C671.997018,163.503936 742.660193,227.854262 781,289.497769 Z" id="hair-24"></path>
        </g>
    </g>

    <title>glasses-4</title>
    <g id="All-customizable-items" stroke="none" stroke-width="1" fill="none" fill-rule="evenodd" stroke-linecap="round" stroke-linejoin="round">
        <g id="Glasses/-4" transform="translate(-287.000000, -477.000000)" fill="#000000" stroke="#000000" stroke-width="4">
            <g id="glasses-4" transform="translate(289.000000, 479.000000)">
                <path d="M229.149255,4.2334278 C247.672154,8.12981325 283.261021,21.6236388 324.690343,35.0615291 L325.464481,35.3078466 C331.11768,37.0729902 339.032765,38.8353007 349.209737,40.594778 L349.209737,57.984989 C344.161954,60.5093754 341.061801,62.8807678 339.909277,65.0991662 C325.535839,92.7654109 298.479956,110.946086 257.050634,101.460516 C200.767297,88.5740028 181.801459,20.8331746 180.110466,9.76667675 C178.419474,-1.29982114 196.205221,-2.69651627 229.149255,4.2334278 Z M519.889534,9.76667675 C518.198541,20.8331746 499.232703,88.5740028 442.949366,101.460516 C401.520044,110.946086 374.464161,92.7654109 360.090723,65.0991662 C358.969348,62.9407245 356.004199,60.637447 351.195275,58.1893337 L350.790263,57.984989 L350.790263,40.594778 L352.195626,40.3492512 C362.16219,38.5895103 369.866867,36.8269363 375.309657,35.0615291 L377.788318,34.2552658 C418.155707,21.0877247 452.698304,8.05188555 470.850745,4.2334278 L472.809163,3.82763387 C504.498419,-2.63678054 521.546707,-1.07849118 519.889534,9.76667675 Z M213.93032,27.1568877 C197.020393,46.9184911 229.149255,89.6035544 261.278116,97.5081958 C293.406978,105.412837 334.836299,80.9084489 327.226832,57.984989 C319.617364,35.0615291 239.295211,8.97621262 213.93032,27.1568877 Z M486.06968,27.1568877 C460.704789,8.97621262 380.382636,35.0615291 372.773168,57.984989 C365.163701,80.9084489 406.593022,105.412837 438.721884,97.5081958 C470.850745,89.6035544 502.979607,46.9184911 486.06968,27.1568877 Z" id="Combined-Shape"></path>
                <polygon id="Path" points="199 30 4 62 0 71 199 51"></polygon>
            </g>
        </g>
    </g>

</svg>