<svg width="564px" height="504px" viewBox="0 0 564 504" version="1.1" xmlns="http://www.w3.org/2000/svg" xmlns:xlink="http://www.w3.org/1999/xlink">

    <title>face-7</title>
    <g id="All-customizable-items" stroke="none" stroke-width="1" fill="none" fill-rule="evenodd" stroke-linecap="round" stroke-linejoin="round">
        <g id="Face/-7" transform="translate(-220.000000, -367.000000)" stroke="#000000" stroke-width="24">
            <path d="M532,379 C664.54834,379 772,486.45166 772,619 C772,751.54834 764.54834,919 572,919 C415.13263,919 351.668898,801.612202 313.752775,718.980575 L313.322946,718.989282 L312,719 C267.81722,719 232,683.18278 232,639 C232,599.134956 261.158843,566.080325 299.312086,560.00055 C325.599297,455.979213 419.809919,379 532,379 Z M295.858895,624.545187 L304.141105,655.454813" id="face-7"></path>
        </g>
    </g>

    <title>eyes-2</title>
    <g id="All-customizable-items" stroke="none" stroke-width="1" fill="none" fill-rule="evenodd">
        <g id="Eyes/-2" transform="translate(-538.000000, -516.000000)" fill="#000000">
            <path d="M570,516 C587.673112,516 602,530.326888 602,548 C602,565.673112 587.673112,580 570,580 C552.326888,580 538,565.673112 538,548 C538,530.326888 552.326888,516 570,516 Z M708,516 C725.673112,516 740,530.326888 740,548 C740,565.673112 725.673112,580 708,580 C690.326888,580 676,565.673112 676,548 C676,530.326888 690.326888,516 708,516 Z" id="eyes-2"></path>
        </g>
    </g>

<path fill-rule="evenodd" clip-rule="evenodd" d="M122.289 31.1239C122.289 31.1239 122.95 18.5166 119.376 16.6981C115.802 14.8796 58.6832 2.09875 42.1177 3.13368C25.5523 4.16861 2.75229 19.1499 2.75229 19.1499C2.75229 19.1499 26.2598 10.0692 47.1786 12.1669C68.0975 14.2646 122.289 31.1239 122.289 31.1239Z" fill="black" stroke="black" stroke-width="4" stroke-linecap="round" stroke-linejoin="round"/>
<path fill-rule="evenodd" clip-rule="evenodd" d="M154.711 31.1239C154.711 31.1239 154.05 18.5166 157.624 16.6981C161.198 14.8796 218.317 2.09875 234.882 3.13368C251.448 4.16861 274.248 19.1499 274.248 19.1499C274.248 19.1499 250.74 10.0692 229.821 12.1669C208.902 14.2646 154.711 31.1239 154.711 31.1239Z" fill="black" stroke="black" stroke-width="4" stroke-linecap="round" stroke-linejoin="round"/>

<path d="M32 40C32 40 103.931 44.393 127.066 39.8696C150.202 35.3462 191 19 191 19" stroke="black" stroke-width="16" stroke-linecap="round" stroke-linejoin="round"/>
<path d="M172 31C172 31 172 60.0426 142.943 68.3404C113.886 76.6383 59 43.4468 59 43.4468" stroke="black" stroke-width="16" stroke-linecap="round" stroke-linejoin="round"/>
<path d="M9.34763 57.3856C9.34763 57.3856 3.05252 47.5217 7.44585 34.3999C11.8392 21.2782 23.4387 15.2993 23.4387 15.2993" stroke="black" stroke-width="6" stroke-linecap="round" stroke-linejoin="round"/>
<path d="M215.499 22.6676C215.499 22.6676 218.478 18.1281 216.342 12.0527C214.205 5.97736 208.647 3.18167 208.647 3.18167" stroke="black" stroke-width="6" stroke-linecap="round" stroke-linejoin="round"/>

    <title>nose-8</title>
    <g id="All-customizable-items" stroke="none" stroke-width="1" fill="none" fill-rule="evenodd" stroke-linecap="round" stroke-linejoin="round">
        <g id="Nose/-8" transform="translate(-641.000000, -592.000000)" stroke="#000000" stroke-width="16">
            <path d="M649,600 C682.333333,613.333333 699,630 699,650 C699,670 682.333333,680 649,680" id="nose-8"></path>
        </g>
    </g>

<path fill-rule="evenodd" clip-rule="evenodd" d="M233 6C264.508 18.4718 299.59 28.322 339.268 39.5531C378.946 50.7842 405.888 71.9695 434 99C486 149 480.942 235.288 473 244C471.601 245.535 455.325 214.054 434 195L432.615 193.77C409.806 173.637 378.02 151.454 376 153C353.677 170.084 361.675 171.273 329 178C295 185 283.626 175.652 237 167C184.977 161.003 151.977 167.003 138 185C114.296 215.522 126.365 250.147 126.365 267.739C126.365 279.233 117.924 323.725 101.044 401.214L100 406L62.1167 315.825H21.1458C5.7805 258.747 2.10619 219.653 10.1229 198.542L10.8704 196.586L11.655 194.563C13.5485 189.724 21.9969 183.536 37 176L36.9379 174.117C36.4124 156.678 37.3884 143.143 39.8658 133.512L40 133C43.0468 121.574 56.5168 80.262 122.884 53.9348L100.282 34.1253C99.8565 33.7516 99.429 33.3765 99 33L100.925 32.9415C126.744 32.2035 145.769 33.5564 158 37C161.172 37.8931 164.481 39.0941 167.927 40.6028C171.049 39.9404 174.248 39.3069 177.525 38.7048L149.064 11.6102L152.214 11.7767C181.35 13.3588 203.109 15.7288 217.49 18.8869L218 19C227.813 21.1947 240.255 25.1406 255.325 30.8378C259.184 30.7309 262.95 30.6788 266.631 30.6781L233 6Z" fill="black" stroke="black" stroke-width="12" stroke-linecap="round" stroke-linejoin="round"/>

<path fill-rule="evenodd" clip-rule="evenodd" d="M145 65L158 89L156.233 90.5956C127.493 116.412 104.416 130.214 87 132C69.5843 133.786 43.3052 128.7 8.16266 116.741L6 116L13 89C37 97 61 99 85 95C108.7 91.05 128.499 81.2491 144.398 65.5972L145 65ZM111 6C105 10 100.916 13.4839 98.7467 16.4516L98.1582 17.2475C95.3164 21.036 93.875 22 89 22C84.4638 22 83.1948 21.1654 80.3248 17.9972L78.9467 16.4516C76.3156 13.4839 72.3333 10 67 6C73.1137 7.33333 80.447 8 89 8C97.553 8 104.886 7.33333 111 6Z" fill="black"/>
<path d="M145 65L150.276 62.1423C149.376 60.4805 147.745 59.34 145.876 59.0642C144.006 58.7885 142.116 59.4097 140.774 60.7408L145 65ZM158 89L162.022 93.4527C164.076 91.5971 164.594 88.5766 163.276 86.1423L158 89ZM156.233 90.5956L160.243 95.0592C160.247 95.0556 160.251 95.052 160.255 95.0483L156.233 90.5956ZM8.16266 116.741L6.21838 122.417L6.22971 122.421L8.16266 116.741ZM6 116L0.192019 114.494C-0.595059 117.53 1.08871 120.66 4.05572 121.676L6 116ZM13 89L14.8974 83.3079C13.3205 82.7823 11.5962 82.9343 10.1356 83.7279C8.67509 84.5214 7.60917 85.8852 7.19202 87.4942L13 89ZM85 95L84.0136 89.0816L85 95ZM144.398 65.5972L148.607 69.8729C148.613 69.8674 148.619 69.8619 148.624 69.8564L144.398 65.5972ZM111 6L114.328 10.9923C116.728 9.39234 117.65 6.3111 116.523 3.65595C115.396 1.00079 112.54 -0.476815 109.722 0.137794L111 6ZM98.7467 16.4516L103.571 20.0187C103.578 20.0097 103.584 20.0008 103.591 19.9919L98.7467 16.4516ZM98.1582 17.2475L102.958 20.8479C102.966 20.8368 102.975 20.8257 102.983 20.8146L98.1582 17.2475ZM80.3248 17.9972L75.8465 21.9903C75.857 22.002 75.8675 22.0137 75.878 22.0254L80.3248 17.9972ZM78.9467 16.4516L74.457 20.432C74.4608 20.4362 74.4646 20.4405 74.4684 20.4447L78.9467 16.4516ZM67 6L68.2785 0.137794C65.5215 -0.463485 62.7181 0.937627 61.544 3.5036C60.3699 6.06958 61.1425 9.10691 63.4 10.8L67 6ZM139.724 67.8577L152.724 91.8577L163.276 86.1423L150.276 62.1423L139.724 67.8577ZM153.978 84.5473L152.212 86.1429L160.255 95.0483L162.022 93.4527L153.978 84.5473ZM152.224 86.1321C138.028 98.8839 125.389 108.522 114.291 115.16C103.14 121.828 93.8816 125.263 86.3878 126.031L87.6122 137.969C97.534 136.951 108.522 132.592 120.45 125.459C132.429 118.295 145.699 108.124 160.243 95.0592L152.224 86.1321ZM86.3878 126.031C70.3543 127.676 45.1354 122.985 10.0956 111.061L6.22971 122.421C41.475 134.415 68.8144 139.897 87.6122 137.969L86.3878 126.031ZM10.1069 111.065L7.94428 110.324L4.05572 121.676L6.21838 122.417L10.1069 111.065ZM11.808 117.506L18.808 90.5058L7.19202 87.4942L0.192019 114.494L11.808 117.506ZM11.1026 94.6921C35.9928 102.989 60.9821 105.086 85.9864 100.918L84.0136 89.0816C61.0179 92.9143 38.0072 91.0112 14.8974 83.3079L11.1026 94.6921ZM85.9864 100.918C110.805 96.7819 131.76 86.4585 148.607 69.8729L140.189 61.3215C125.239 76.0396 106.595 85.3181 84.0136 89.0816L85.9864 100.918ZM148.624 69.8564L149.226 69.2592L140.774 60.7408L140.172 61.338L148.624 69.8564ZM107.672 1.0077C101.538 5.09713 96.7188 9.0577 93.9024 12.9113L103.591 19.9919C105.112 17.91 108.462 14.9029 114.328 10.9923L107.672 1.0077ZM93.9221 12.8846L93.3337 13.6805L102.983 20.8146L103.571 20.0187L93.9221 12.8846ZM93.3585 13.6472C91.965 15.5048 91.563 15.726 91.4935 15.7635C91.4823 15.7695 91.4593 15.7813 91.4081 15.7982C91.3532 15.8164 91.2469 15.8466 91.0658 15.8779C90.6763 15.9452 90.0525 16 89 16V28C91.7099 28 94.5207 27.7648 97.1896 26.3254C99.77 24.9338 101.51 22.7787 102.958 20.8479L93.3585 13.6472ZM89 16C88.0219 16 87.442 15.9527 87.0786 15.8948C86.7598 15.844 86.6686 15.7943 86.6622 15.7912C86.57 15.7463 86.2149 15.5623 84.7715 13.969L75.878 22.0254C77.3047 23.6003 79.0191 25.4177 81.4129 26.5821C83.9031 27.7935 86.4665 28 89 28V16ZM84.8031 14.004L83.4249 12.4585L74.4684 20.4447L75.8465 21.9903L84.8031 14.004ZM83.4363 12.4712C80.4172 9.0659 76.0702 5.30268 70.6 1.2L63.4 10.8C68.5964 14.6973 72.2139 17.9018 74.457 20.432L83.4363 12.4712ZM65.7215 11.8622C72.3763 13.3136 80.1619 14 89 14V2C80.732 2 73.851 1.35311 68.2785 0.137794L65.7215 11.8622ZM89 14C97.8381 14 105.624 13.3136 112.278 11.8622L109.722 0.137794C104.149 1.35311 97.268 2 89 2V14Z" fill="black"/>

<path fill-rule="evenodd" clip-rule="evenodd" d="M37.9664 11.3824C35.663 1.49179 23.9144 3.18816 19.5394 6.98658C4.50601 20.0389 -0.0391464 39.9554 11.4777 54.2418C22.9945 68.5283 43.7248 65.2314 51.7865 56.4398C59.8483 47.6481 61 38.8564 61 38.8564H42.5731C42.5731 38.8564 37.9664 46.5491 29.9046 43.2523C25.3817 41.4026 24.4786 32.2177 27.6012 25.6689C30.7524 19.0603 39.1233 16.3502 37.9664 11.3824Z" fill="white" stroke="black" stroke-width="8" stroke-linecap="round" stroke-linejoin="round"/>
<ellipse cx="14.9999" cy="49.5001" rx="6" ry="7.5" transform="rotate(-30 14.9999 49.5001)" fill="black"/>
<ellipse cx="40.0001" cy="58.4996" rx="6" ry="7.5" transform="rotate(-105 40.0001 58.4996)" fill="black"/>
<ellipse cx="12.0001" cy="22.4999" rx="6" ry="7.5" transform="rotate(-150 12.0001 22.4999)" fill="black"/>

</svg>