<svg width="564px" height="504px" viewBox="0 0 564 504" version="1.1" xmlns="http://www.w3.org/2000/svg" xmlns:xlink="http://www.w3.org/1999/xlink">

    <title>face-8</title>
    <g id="All-customizable-items" stroke="none" stroke-width="1" fill="none" fill-rule="evenodd" stroke-linecap="round" stroke-linejoin="round">
        <g id="Face/-8" transform="translate(-220.000000, -367.000000)" stroke="#000000" stroke-width="24">
            <path d="M532,379 C664.54834,379 772,486.45166 772,619 C772,751.54834 724.54834,899 592,899 C492.560218,899 373.476049,816.010833 320.189513,718.584987 C317.498129,718.859681 314.765451,719 312,719 C267.81722,719 232,683.18278 232,639 C232,599.134956 261.158843,566.080325 299.312086,560.00055 C325.599297,455.979213 419.809919,379 532,379 Z M295.858895,624.545187 L304.141105,655.454813" id="face-8"></path>
        </g>
    </g>

<path fill-rule="evenodd" clip-rule="evenodd" d="M3 11.1564C3 11.1564 31.5687 37.4381 55.1689 32.9068C78.7692 28.3755 68.8322 3 68.8322 3C68.8322 3 83.7377 29.2817 62.6217 37.4381C41.5057 45.5945 3 11.1564 3 11.1564Z" fill="black" stroke="black" stroke-width="6" stroke-linecap="round" stroke-linejoin="round"/>
<path fill-rule="evenodd" clip-rule="evenodd" d="M141 11.1564C141 11.1564 169.569 37.4381 193.169 32.9068C216.769 28.3755 206.832 3 206.832 3C206.832 3 221.738 29.2817 200.622 37.4381C179.506 45.5945 141 11.1564 141 11.1564Z" fill="black" stroke="black" stroke-width="6" stroke-linecap="round" stroke-linejoin="round"/>

<path fill-rule="evenodd" clip-rule="evenodd" d="M178.391 22.335C181.391 17.335 238.391 -0.664962 258.391 2.33504C278.391 5.33504 307.391 31.335 307.391 31.335C307.391 31.335 280.391 20.335 255.391 20.335C230.391 20.335 195.391 38.335 195.391 38.335C195.391 38.335 175.391 27.335 178.391 22.335Z" fill="black" stroke="black" stroke-width="4" stroke-linecap="round" stroke-linejoin="round"/>
<path fill-rule="evenodd" clip-rule="evenodd" d="M131 22.335C128 17.335 71.0003 -0.664962 51.0003 2.33504C31.0003 5.33504 2.00029 31.335 2.00029 31.335C2.00029 31.335 29.0003 20.335 54.0003 20.335C79.0003 20.335 114 38.335 114 38.335C114 38.335 134 27.335 131 22.335Z" fill="black" stroke="black" stroke-width="4" stroke-linecap="round" stroke-linejoin="round"/>

<path fill-rule="evenodd" clip-rule="evenodd" d="M42.8699 52.5553C23.1475 40.2091 8.39551 19.0189 8.39551 19.0189C8.39551 19.0189 55.9996 8.63705 95.9996 8.31852C136 7.99999 183.604 19.0189 183.604 19.0189C183.604 19.0189 168.852 40.2091 149.129 52.5553C140.101 58.2072 112 61 96.443 60.9998C80.8863 60.9996 51.8065 58.1496 42.8699 52.5553Z" stroke="black" stroke-width="16" stroke-linecap="round" stroke-linejoin="round"/>
<path d="M56.3223 52C56.3223 52 76.161 44 95.9997 44C115.838 44 135.677 52 135.677 52" stroke="black" stroke-width="8" stroke-linecap="round" stroke-linejoin="round"/>

    <title>nose-3</title>
    <g id="All-customizable-items" stroke="none" stroke-width="1" fill="none" fill-rule="evenodd" stroke-linecap="round" stroke-linejoin="round">
        <g id="Nose/-3" transform="translate(-618.000000, -587.000000)" stroke="#000000" stroke-width="16">
            <path d="M636.843465,595.910607 C654.994141,637.483681 663.279537,666.31686 661.699654,682.410144 C660.11977,698.503428 648.515798,703.474491 626.887739,697.323331" id="nose-3" transform="translate(644.388576, 647.892684) rotate(1.032339) translate(-644.388576, -647.892684) "></path>
        </g>
    </g>

<path fill-rule="evenodd" clip-rule="evenodd" d="M255 8.00009C334.026 2.97004 377 6.00009 465 65.0001C523.666 104.333 556.666 159 564 229L561.24 224.675C549.832 206.872 540.752 193.647 534 185C527.732 176.974 514.732 167.224 494.999 155.747C494.263 156.741 493.413 157.718 492.451 158.682C510.823 179.929 525.673 199.702 537 218C549.854 238.768 554.187 261.434 550 286C544.666 272 538 259.667 530 249C522 238.333 510.666 230 496 224L497.039 225.752C510.952 249.278 520.216 267.534 524.831 280.521L525 281C529.666 294.333 532.666 319 534 355C524.666 325 513 298 499 274C485 250 450 224.667 394 198C395.278 205.311 399.612 213.311 407 222C414.387 230.69 423.387 239.69 434 249C411.028 239.11 389.941 229.085 370.74 218.924L369 218C349.334 207.523 324.046 190.856 293.135 168L295.287 170.537C312.37 190.615 326.274 205.436 337 215C348.172 224.962 360.838 233.629 375 241C358.109 242.177 340.436 242.218 321.98 241.122L320 241C300.827 239.781 271.981 236.781 233.461 232L235.353 232.848C254.778 241.516 270.145 247.191 281.455 249.873L282 250C293.72 252.71 310.72 256.044 333 260C312.061 264.616 292.842 267.583 275.342 268.902L274 269C256.141 270.266 228.765 268.933 191.869 265L195.951 266.355C217.421 273.442 234.104 278.324 246 281L247.258 281.279C259.793 284.018 276.893 286.592 298.56 289L296.447 289.478C268.785 295.715 247.636 299.555 233 301C218.265 302.455 200.003 302.481 178.214 301.079L177 301L159 376L140.284 321.806L139.918 323.932C136.112 345.838 129.153 380.07 119.041 426.63L117 436L79.1162 345.825H38.1453C10.6981 295.053 0.982856 259.111 8.99952 238C12.5698 228.598 19.8559 219.579 30.8577 210.943C26.0953 173.483 51.8094 144.502 108 124C153.315 50.0201 202.315 11.3534 255 8.00009Z" fill="black" stroke="black" stroke-width="12" stroke-linecap="round" stroke-linejoin="round"/>

<path fill-rule="evenodd" clip-rule="evenodd" d="M78.3066 7.69238C78.3066 7.69238 54.8025 28.737 46.1567 46.5151C37.511 64.2932 32.2009 102.499 32.2009 102.499C32.2009 102.499 41.7649 65.2804 49.827 48.7025C57.8891 32.1246 78.3066 7.69238 78.3066 7.69238Z" fill="black" stroke="black" stroke-width="2" stroke-linecap="round" stroke-linejoin="round"/>
<path fill-rule="evenodd" clip-rule="evenodd" d="M45.1396 14.9678C45.1396 14.9678 35.5867 30.2073 32.775 38.3685C29.9632 46.5297 27.5274 59.1987 29.5545 60.2043C31.5817 61.2099 32.4451 46.8484 34.592 39.0263C36.739 31.2042 45.1396 14.9678 45.1396 14.9678Z" fill="black" stroke="black" stroke-width="2" stroke-linecap="round" stroke-linejoin="round"/>

    <title>glasses-1</title>
    <g id="All-customizable-items" stroke="none" stroke-width="1" fill="none" fill-rule="evenodd" stroke-linecap="round" stroke-linejoin="round">
        <g id="Glasses/-1" transform="translate(-285.000000, -471.000000)" stroke="#000000" stroke-width="16">
            <g id="glasses-1" transform="translate(293.311103, 479.000000)">
                <circle id="Oval" cx="272.688897" cy="60" r="60"></circle>
                <circle id="Oval" cx="416.688897" cy="60" r="60"></circle>
                <path d="M368.688897,13 C360.688897,7.66666667 352.688897,5 344.688897,5 C336.688897,5 328.688897,7.66666667 320.688897,13" id="Path"></path>
                <line x1="216.688897" y1="36" x2="1" y2="79.3393577" id="Path" transform="translate(108.844448, 57.669679) rotate(1.361411) translate(-108.844448, -57.669679) "></line>
            </g>
        </g>
    </g>

</svg>