<svg width="564px" height="504px" viewBox="0 0 564 504" version="1.1" xmlns="http://www.w3.org/2000/svg" xmlns:xlink="http://www.w3.org/1999/xlink">

<mask id="path-1-inside-1_0_1050" fill="white">
<path fill-rule="evenodd" clip-rule="evenodd" d="M90.9463 195.941C115.92 97.1191 205.436 24 312 24C437.921 24 540 126.079 540 252C540 263.105 542.303 272.693 544.161 280.424C544.528 281.952 544.877 283.407 545.188 284.787C547.115 293.341 548.026 300.358 545.823 309.022C543.939 316.432 542.268 326.168 540.509 336.909C540.176 338.942 539.839 341.021 539.494 343.143L539.493 343.149C537.984 352.446 536.339 362.58 534.36 373.298C529.495 399.658 522.748 428.74 511.729 454.914C500.685 481.145 485.763 503.459 465.149 517.443C444.918 531.167 417.861 537.782 380.368 530.236C351.208 524.367 317.334 517.19 287.344 508.789C256.71 500.206 232.292 490.897 220.414 481.564C207.573 471.475 185.598 447.617 163.659 420.556C141.837 393.64 121.18 364.956 110.718 345.827C108.401 341.592 103.773 339.157 98.9711 339.647C96.6854 339.88 94.3594 340 92 340C54.4446 340 24 309.555 24 272C24 238.126 48.7801 210.017 81.2005 204.851C85.9382 204.096 89.7709 200.592 90.9463 195.941ZM312 0C196.833 0 99.736 77.2452 69.647 182.737C29.6368 192.728 0 228.893 0 272C0 322.81 41.1898 364 92 364C92.486 364 92.9712 363.996 93.4556 363.989C105.577 384.44 125.159 411.178 145.016 435.67C166.987 462.77 190.427 488.525 205.586 500.436C221.708 513.103 250.599 523.419 280.87 531.899C311.785 540.56 346.411 547.883 375.632 553.764C418.49 562.39 452.307 555.155 478.622 537.304C504.554 519.713 521.85 492.727 533.848 464.227C545.871 435.67 552.989 404.591 557.962 377.655C559.992 366.656 561.687 356.212 563.198 346.904L563.199 346.901L563.212 346.819C563.548 344.75 563.874 342.737 564.194 340.787C565.984 329.85 567.5 321.161 569.083 314.937C572.661 300.866 570.846 289.473 568.601 279.512C568.177 277.63 567.752 275.839 567.341 274.107L567.338 274.095C565.534 266.491 564 260.028 564 252C564 112.824 451.176 0 312 0ZM87.45 254.439C85.7347 248.038 79.1547 244.239 72.7531 245.954C66.3515 247.669 62.5525 254.249 64.2678 260.651L72.55 291.561C74.2653 297.962 80.8453 301.761 87.2469 300.046C93.6485 298.331 97.4475 291.751 95.7322 285.349L87.45 254.439Z"/>
</mask>
<path d="M90.9463 195.941L67.6778 190.06L90.9463 195.941ZM544.161 280.424L567.497 274.818V274.818L544.161 280.424ZM545.188 284.787L521.775 290.062L521.775 290.062L545.188 284.787ZM545.823 309.022L569.083 314.937V314.937L545.823 309.022ZM540.509 336.909L516.824 333.031V333.031L540.509 336.909ZM539.494 343.143L563.145 347.221C563.159 347.144 563.171 347.067 563.184 346.989L539.494 343.143ZM539.493 343.149L515.842 339.071C515.829 339.148 515.816 339.226 515.803 339.303L539.493 343.149ZM534.36 373.298L510.759 368.942V368.942L534.36 373.298ZM511.729 454.914L489.609 445.602V445.602L511.729 454.914ZM465.149 517.443L451.676 497.582L451.675 497.582L465.149 517.443ZM380.368 530.236L385.103 506.708L380.368 530.236ZM287.344 508.789L280.87 531.899L287.344 508.789ZM220.414 481.564L235.242 462.693L235.242 462.693L220.414 481.564ZM163.659 420.556L145.016 435.67V435.67L163.659 420.556ZM110.718 345.827L89.6613 357.343L89.6614 357.343L110.718 345.827ZM98.9711 339.647L101.408 363.523H101.408L98.9711 339.647ZM81.2005 204.851L84.9773 228.552L81.2005 204.851ZM69.647 182.737L75.4615 206.022C83.7891 203.943 90.3723 197.574 92.7266 189.32L69.647 182.737ZM93.4556 363.989L114.102 351.752C109.712 344.345 101.691 339.858 93.0822 339.992L93.4556 363.989ZM145.016 435.67L126.373 450.785H126.373L145.016 435.67ZM205.586 500.436L190.758 519.307H190.758L205.586 500.436ZM280.87 531.899L274.396 555.009L280.87 531.899ZM375.632 553.764L370.897 577.292L375.632 553.764ZM478.622 537.304L492.095 557.166H492.095L478.622 537.304ZM533.848 464.227L511.729 454.914L511.729 454.914L533.848 464.227ZM557.962 377.655L534.36 373.298L557.962 377.655ZM563.198 346.904L586.888 350.749C586.912 350.599 586.935 350.448 586.957 350.298L563.198 346.904ZM563.199 346.901L539.508 343.058C539.484 343.207 539.461 343.357 539.44 343.507L563.199 346.901ZM563.212 346.819L539.522 342.973L539.522 342.975L563.212 346.819ZM564.194 340.787L540.509 336.909V336.909L564.194 340.787ZM569.083 314.937L545.823 309.022L545.823 309.022L569.083 314.937ZM568.601 279.512L592.014 274.236L592.014 274.236L568.601 279.512ZM567.341 274.107L590.693 268.567C590.69 268.555 590.688 268.544 590.685 268.533L567.341 274.107ZM567.338 274.095L543.987 279.637C543.989 279.647 543.992 279.658 543.995 279.669L567.338 274.095ZM72.7531 245.954L78.9647 269.136H78.9647L72.7531 245.954ZM87.45 254.439L110.632 248.228V248.228L87.45 254.439ZM64.2678 260.651L41.0856 266.863L64.2678 260.651ZM72.55 291.561L49.3678 297.772H49.3678L72.55 291.561ZM87.2469 300.046L93.4586 323.228H93.4586L87.2469 300.046ZM95.7322 285.349L118.914 279.137L118.914 279.137L95.7322 285.349ZM312 0C194.187 0 95.2798 80.8367 67.6778 190.06L114.215 201.821C136.559 113.402 216.684 48 312 48V0ZM564 252C564 112.824 451.176 0 312 0V48C424.666 48 516 139.334 516 252H564ZM567.497 274.818C565.619 267.002 564 259.936 564 252H516C516 266.274 518.988 278.385 520.824 286.03L567.497 274.818ZM568.601 279.512C568.246 277.935 567.855 276.309 567.497 274.818L520.824 286.03C521.2 287.595 521.508 288.878 521.775 290.062L568.601 279.512ZM569.083 314.937C572.663 300.86 570.843 289.464 568.601 279.512L521.775 290.062C523.387 297.219 523.39 299.856 522.564 303.107L569.083 314.937ZM564.194 340.787C565.984 329.855 567.499 321.163 569.083 314.937L522.564 303.107C520.378 311.7 518.552 322.481 516.824 333.031L564.194 340.787ZM563.184 346.989C563.529 344.863 563.864 342.801 564.194 340.787L516.824 333.031C516.489 335.083 516.148 337.178 515.804 339.298L563.184 346.989ZM563.144 347.227L563.145 347.221L515.843 339.066L515.842 339.071L563.144 347.227ZM557.962 377.655C559.994 366.645 561.678 356.266 563.183 346.994L515.803 339.303C514.29 348.626 512.684 358.515 510.759 368.942L557.962 377.655ZM533.848 464.227C545.871 435.669 552.99 404.59 557.962 377.655L510.759 368.942C505.999 394.726 499.625 421.812 489.609 445.602L533.848 464.227ZM478.622 537.304C504.553 519.714 521.849 492.728 533.848 464.227L489.609 445.602C479.522 469.562 466.974 487.204 451.676 497.582L478.622 537.304ZM375.632 553.764C418.497 562.391 452.312 555.152 478.622 537.304L451.675 497.582C437.523 507.182 417.225 513.173 385.103 506.708L375.632 553.764ZM280.87 531.899C311.785 540.56 346.411 547.883 375.632 553.764L385.103 506.708C356.005 500.851 322.883 493.821 293.819 485.678L280.87 531.899ZM205.586 500.436C214.23 507.227 225.822 512.898 237.933 517.742C250.413 522.733 265.055 527.468 280.87 531.899L293.819 485.678C279 481.527 266.115 477.316 255.758 473.174C245.032 468.884 238.476 465.234 235.242 462.693L205.586 500.436ZM145.016 435.67C166.984 462.766 190.425 488.524 205.586 500.436L235.242 462.693C224.722 454.427 204.212 432.467 182.302 405.441L145.016 435.67ZM89.6614 357.343C101.18 378.403 122.928 408.426 145.016 435.67L182.302 405.441C160.747 378.854 141.181 351.509 131.774 334.31L89.6614 357.343ZM101.408 363.523C96.6059 364.013 91.9776 361.578 89.6613 357.343L131.774 334.31C124.825 321.605 110.94 314.301 96.5342 315.771L101.408 363.523ZM92 364C95.1716 364 98.3109 363.839 101.408 363.523L96.5343 315.771C95.0599 315.922 93.5472 316 92 316V364ZM0 272C0 322.81 41.1898 364 92 364V316C67.6995 316 48 296.301 48 272H0ZM77.4237 181.15C33.53 188.145 0 226.151 0 272H48C48 250.101 64.0302 231.89 84.9773 228.552L77.4237 181.15ZM67.6778 190.06C68.8533 185.409 72.686 181.905 77.4237 181.15L84.9773 228.552C99.1903 226.287 110.689 215.775 114.215 201.821L67.6778 190.06ZM92.7266 189.32C119.954 93.8607 207.837 24 312 24V-24C185.829 -24 79.518 60.6297 46.5675 176.154L92.7266 189.32ZM24 272C24 240.172 45.8801 213.409 75.4615 206.022L63.8326 159.452C13.3934 172.047 -24 217.614 -24 272H24ZM92 340C54.4446 340 24 309.555 24 272H-24C-24 336.065 27.935 388 92 388V340ZM93.0822 339.992C92.7221 339.997 92.3614 340 92 340V388C92.6105 388 93.2202 387.995 93.829 387.986L93.0822 339.992ZM163.659 420.556C144.137 396.476 125.372 370.766 114.102 351.752L72.8096 376.226C85.7833 398.115 106.182 425.879 126.373 450.785L163.659 420.556ZM220.414 481.564C207.572 471.474 185.595 447.613 163.659 420.556L126.373 450.785C148.379 477.927 173.281 505.576 190.758 519.307L220.414 481.564ZM287.344 508.789C256.73 500.212 232.298 490.902 220.414 481.564L190.758 519.307C211.117 535.304 244.468 546.625 274.396 555.009L287.344 508.789ZM380.368 530.236C351.209 524.367 317.334 517.19 287.344 508.789L274.396 555.009C306.236 563.929 341.613 571.398 370.897 577.292L380.368 530.236ZM465.149 517.443C444.922 531.164 417.866 537.783 380.368 530.236L370.897 577.292C419.114 586.997 459.692 579.147 492.095 557.166L465.149 517.443ZM511.729 454.914C500.685 481.147 485.762 503.46 465.149 517.443L492.095 557.166C523.345 535.967 543.015 504.306 555.968 473.539L511.729 454.914ZM534.36 373.298C529.495 399.657 522.748 428.74 511.729 454.914L555.968 473.539C568.994 442.6 576.484 409.526 581.563 382.012L534.36 373.298ZM539.508 343.058C537.993 352.391 536.337 362.59 534.36 373.298L581.563 382.012C583.647 370.721 585.381 360.032 586.888 350.749L539.508 343.058ZM539.44 343.507L539.439 343.509L586.957 350.298L586.957 350.295L539.44 343.507ZM539.522 342.975L539.508 343.058L586.889 350.744L586.902 350.662L539.522 342.975ZM540.509 336.909C540.187 338.878 539.857 340.908 539.522 342.973L586.902 350.664C587.238 348.591 587.562 346.596 587.878 344.665L540.509 336.909ZM545.823 309.022C543.938 316.433 542.267 326.174 540.509 336.909L587.878 344.665C589.702 333.526 591.061 325.889 592.343 320.852L545.823 309.022ZM545.188 284.787C547.114 293.335 548.027 300.354 545.823 309.022L592.342 320.852C597.295 301.377 594.577 285.612 592.014 274.236L545.188 284.787ZM543.989 279.647C544.404 281.396 544.799 283.058 545.188 284.787L592.014 274.236C591.555 272.201 591.1 270.281 590.693 268.567L543.989 279.647ZM543.995 279.669L543.998 279.682L590.685 268.533L590.682 268.52L543.995 279.669ZM540 252C540 263.205 542.229 272.229 543.987 279.637L590.69 268.553C588.838 260.752 588 256.851 588 252H540ZM312 24C437.921 24 540 126.079 540 252H588C588 99.5694 464.431 -24 312 -24V24ZM78.9647 269.136C72.5631 270.852 65.9831 267.053 64.2678 260.651L110.632 248.228C105.486 229.023 85.7462 217.626 66.5414 222.772L78.9647 269.136ZM87.45 254.439C89.1653 260.841 85.3663 267.421 78.9647 269.136L66.5414 222.772C47.3366 227.918 35.9397 247.658 41.0856 266.863L87.45 254.439ZM95.7322 285.349L87.45 254.439L41.0856 266.863L49.3678 297.772L95.7322 285.349ZM81.0353 276.864C87.4369 275.148 94.0169 278.947 95.7322 285.349L49.3678 297.772C54.5137 316.977 74.2537 328.374 93.4586 323.228L81.0353 276.864ZM72.55 291.561C70.8347 285.159 74.6337 278.579 81.0353 276.864L93.4586 323.228C112.663 318.082 124.06 298.342 118.914 279.137L72.55 291.561ZM64.2678 260.651L72.55 291.561L118.914 279.137L110.632 248.228L64.2678 260.651Z" fill="black" mask="url(#path-1-inside-1_0_1050)"/>

    <title>eyes-9</title>
    <g id="All-customizable-items" stroke="none" stroke-width="1" fill="none" fill-rule="evenodd">
        <g id="Eyes/-9" transform="translate(-550.000000, -507.000000)" fill="#000000">
            <path d="M570,507 C575.854822,507 581.122051,511.025253 584.779642,517.440484 L578,531 L589.369946,531.000208 C589.781247,533.557105 590,536.237678 590,539 C590,556.673112 581.045695,571 570,571 C558.954305,571 550,556.673112 550,539 C550,521.326888 558.954305,507 570,507 Z M708,507 C713.854822,507 719.122051,511.025253 722.779642,517.440484 L716,531 L727.369946,531.000208 C727.781247,533.557105 728,536.237678 728,539 C728,556.673112 719.045695,571 708,571 C696.954305,571 688,556.673112 688,539 C688,521.326888 696.954305,507 708,507 Z" id="eyes-9"></path>
        </g>
    </g>

    <title>eyebrows-7</title>
    <g id="All-customizable-items" stroke="none" stroke-width="1" fill="none" fill-rule="evenodd" stroke-linecap="round" stroke-linejoin="round">
        <g id="Eyebrows/-7" transform="translate(-518.000000, -476.000000)" stroke="#000000" stroke-width="16">
            <g id="eyebrows-7" transform="translate(528.000000, 485.000000)">
                <path d="M2,31 C13.6420073,23.1142473 23.8820073,17.5142473 32.72,14.2 C41.5579927,10.8857527 52.651326,8.48575274 66,7" id="Path" transform="translate(34.000000, 19.000000) rotate(12.000000) translate(-34.000000, -19.000000) "></path>
                <path d="M156,31 C167.642007,23.1142473 177.882007,17.5142473 186.72,14.2 C195.557993,10.8857527 206.651326,8.48575274 220,7" id="Path" transform="translate(188.000000, 19.000000) scale(-1, 1) rotate(12.000000) translate(-188.000000, -19.000000) "></path>
            </g>
        </g>
    </g>

<path fill-rule="evenodd" clip-rule="evenodd" d="M165 19.0435C165 19.0435 121.693 22.6922 93.6188 21.3913C65.5442 20.0904 13 12 13 12C13 12 36.5138 84 90.2597 84C119.652 84 133.489 72.4405 148.204 50.3478C154.215 41.324 165 19.0435 165 19.0435Z" stroke="black" stroke-width="12" stroke-linecap="round" stroke-linejoin="round"/>
<path d="M177 16.4444C177 16.4444 129.212 24.2222 91.4848 21.1111C53.7576 18 11 11 11 11" stroke="black" stroke-width="12" stroke-linecap="round" stroke-linejoin="round"/>
<path d="M6 16C6 16 8.4375 11.3846 11.6875 9.07692C14.9375 6.76923 19 6 19 6" stroke="black" stroke-width="12" stroke-linecap="round" stroke-linejoin="round"/>
<path d="M38 59C38 59 57.3492 48 94.3651 48C131.381 48 144 57.4286 144 57.4286" stroke="black" stroke-width="12" stroke-linecap="round" stroke-linejoin="round"/>

    <title>nose-4</title>
    <g id="All-customizable-items" stroke="none" stroke-width="1" fill="none" fill-rule="evenodd" stroke-linecap="round" stroke-linejoin="round">
        <g id="Nose/-4" transform="translate(-618.000000, -587.000000)" stroke="#000000" stroke-width="16">
            <path d="M636.843426,596.000252 C661.659687,637.453214 673.277876,666.226337 671.697992,682.319621 C670.118108,698.412905 655.181344,703.444023 626.8877,697.412976" id="nose-4" transform="translate(649.363766, 647.939652) rotate(1.032339) translate(-649.363766, -647.939652) "></path>
        </g>
    </g>

<path fill-rule="evenodd" clip-rule="evenodd" d="M396.002 7.00013C459.002 11.0001 490.359 33.2202 533.002 68.0001C546.098 62.6802 574.002 64.0001 606.002 95.0001C638.002 126 609.533 176.003 599.002 243C533.977 195.473 468.977 195.473 404.002 243C306.539 314.29 314.668 388 268.002 420L265.719 415.336L263.832 411.519C255.738 395.231 250.128 385.058 247.002 381C241.545 373.918 222.322 358.08 189.002 362C166.335 364.667 118.002 403 131.002 448C136.838 468.204 150.234 484.023 171.189 495.459C181.349 501.003 207.002 509 207.002 509C207.002 509 196.002 511 188.002 511C180.002 511 170.002 508 170.002 508C170.002 508 121.002 566 65.0017 561C9.00173 556 -3.99827 498 15.0017 461C34.0017 424 109.424 440.247 108.002 435C61.1223 441.624 51.8186 417.4 15.0017 412C56.9927 404.839 70.2653 422.383 108.002 412C107.549 409.903 65.9495 384.737 37.0017 381C69.091 375.029 73.3908 391.95 102.002 384C92.2156 322.783 86.7159 224.137 131.002 155C203.946 41.1235 333.002 3.00013 396.002 7.00013Z" fill="black" stroke="black" stroke-width="12" stroke-linecap="round" stroke-linejoin="round"/>

    <title>beard-1</title>
    <g id="All-customizable-items" stroke="none" stroke-width="1" fill="none" fill-rule="evenodd" stroke-linecap="round" stroke-linejoin="round">
        <g id="Beard/-1" transform="translate(-359.000000, -648.000000)" stroke="#000000">
            <g id="beard-1" transform="translate(365.000000, 654.000000)">
                <path d="M22,0 C48,64 71,96 91,96 C121,96 115,47 167,47 C219,47 210,72 262,72 C286.700743,72 329,54 353,47 C369,42.3333333 387,41 407,43 C393.666667,175.666667 334.333333,242 229,242 C69.6666667,242 -6.33333333,161.333333 1,0 L22,0 Z M324,85 C308.372818,69.9446471 296.164856,90.0896483 249,90.351705 C201.835144,90.6137616 166.573326,68.2991479 157,93 C147.426674,117.700852 181.981237,140.31964 255.653458,140.351729 C329.325678,140.383517 339.627182,100.055353 324,85 Z" id="Combined-Shape" stroke-width="12" fill="#000000"></path>
                <path d="M184,105 C211.33038,111.666667 234.663714,115 254,115 C273.336286,115 290.002953,111.666667 304,105" id="Path" stroke-width="16"></path>
            </g>
        </g>
    </g>

    <title>details-1</title>
    <g id="All-customizable-items" stroke="none" stroke-width="1" fill="none" fill-rule="evenodd" stroke-linecap="round" stroke-linejoin="round">
        <g id="Details/-1" transform="translate(-439.000000, -613.000000)" stroke="#000000" stroke-width="12">
            <path d="M485,619 C507.09139,619 525,636.90861 525,659 C525,681.09139 507.09139,699 485,699 C462.90861,699 445,681.09139 445,659 C445,636.90861 462.90861,619 485,619 Z M767.292336,619.274106 C780,619 763.092776,698.242969 759.023679,696.8482 C743.301573,691.459118 732,676.549371 732,659 C732,638.501287 747.390789,619.703385 767.292336,619.274106 Z" id="details-1"></path>
        </g>
    </g>

<path fill-rule="evenodd" clip-rule="evenodd" d="M37.9664 11.3824C35.663 1.49179 23.9144 3.18816 19.5394 6.98658C4.50601 20.0389 -0.0391464 39.9554 11.4777 54.2418C22.9945 68.5283 43.7248 65.2314 51.7865 56.4398C59.8483 47.6481 61 38.8564 61 38.8564H42.5731C42.5731 38.8564 37.9664 46.5491 29.9046 43.2523C25.3817 41.4026 24.4786 32.2177 27.6012 25.6689C30.7524 19.0603 39.1233 16.3502 37.9664 11.3824Z" fill="white" stroke="black" stroke-width="8" stroke-linecap="round" stroke-linejoin="round"/>
<ellipse cx="14.9999" cy="49.5001" rx="6" ry="7.5" transform="rotate(-30 14.9999 49.5001)" fill="black"/>
<ellipse cx="40.0001" cy="58.4996" rx="6" ry="7.5" transform="rotate(-105 40.0001 58.4996)" fill="black"/>
<ellipse cx="12.0001" cy="22.4999" rx="6" ry="7.5" transform="rotate(-150 12.0001 22.4999)" fill="black"/>

</svg>