<svg width="564px" height="504px" viewBox="0 0 564 504" version="1.1" xmlns="http://www.w3.org/2000/svg" xmlns:xlink="http://www.w3.org/1999/xlink">

    <title>face-4</title>
    <g id="All-customizable-items" stroke="none" stroke-width="1" fill="none" fill-rule="evenodd" stroke-linecap="round" stroke-linejoin="round">
        <g id="Face/-4" transform="translate(-220.000000, -367.000000)" stroke="#000000" stroke-width="24">
            <path d="M532,379 C664.54834,379 772,486.45166 772,619 C772,751.54834 764.54834,899 592,899 C462.715227,899 358.747776,816.220491 314.739381,718.954345 C313.831676,718.98455 312.917642,719 312,719 C267.81722,719 232,683.18278 232,639 C232,599.134956 261.158843,566.080325 299.312086,560.00055 C325.599297,455.979213 419.809919,379 532,379 Z M295.858895,624.545187 L304.141105,655.454813" id="face-4"></path>
        </g>
    </g>

    <title>eyes-0</title>
    <g id="All-customizable-items" stroke="none" stroke-width="1" fill="none" fill-rule="evenodd">
        <g id="Eyes/-0" transform="translate(-546.000000, -516.000000)" fill="#000000">
            <path d="M570,516 C583.254834,516 594,526.745166 594,540 C594,553.254834 583.254834,564 570,564 C556.745166,564 546,553.254834 546,540 C546,526.745166 556.745166,516 570,516 Z M708,516 C721.254834,516 732,526.745166 732,540 C732,553.254834 721.254834,564 708,564 C694.745166,564 684,553.254834 684,540 C684,526.745166 694.745166,516 708,516 Z" id="eyes-0"></path>
        </g>
    </g>

    <title>eyebrows-10</title>
    <g id="All-customizable-items" stroke="none" stroke-width="1" fill="none" fill-rule="evenodd" stroke-linecap="round" stroke-linejoin="round">
        <g id="Eyebrows/-10" transform="translate(-513.000000, -472.000000)" fill="#000000" stroke="#000000" stroke-width="16">
            <path d="M757,487.2 C757,494.4 735.666667,494.4 717,494.4 C698.333333,494.4 661,498 661,494.4 C661,490.8 694.986112,480 717,480 L720.27013,480.0009 C740.767534,480.018 757,480.36 757,487.2 Z M561,480 C583.013888,480 617,490.8 617,494.4 C617,498 579.666667,494.4 561,494.4 C542.333333,494.4 521,494.4 521,487.2 C521,480.36 537.232466,480.018 557.72987,480.0009 Z" id="eyebrows-10"></path>
        </g>
    </g>

    <title>mouth-3</title>
    <g id="All-customizable-items" stroke="none" stroke-width="1" fill="none" fill-rule="evenodd" stroke-linecap="round" stroke-linejoin="round">
        <g id="Mouth/-3" transform="translate(-467.000000, -721.000000)" stroke="#000000" stroke-width="16">
            <g id="mouth-3" transform="translate(475.000000, 729.000000)">
                <path d="M66,41.0869565 C93.79487,40.6243036 114.628203,38.8851732 128.5,35.8695652 C142.371797,32.8539572 161.538463,25.8974355 186,15" id="Path"></path>
                <path d="M161,25.4347826 C161,49.7826087 153.5,65.4347826 138.5,72.3913043 C123.5,79.3478261 101.833333,68.9130435 73.5,41.0869565" id="Path"></path>
                <path d="M2.14164194,45 C-1.3880481,36.6867754 -0.554714768,27.8534421 4.64164194,18.5 C9.83799864,9.14655793 17.3379986,2.97989127 27.1416419,0" id="Path"></path>
            </g>
        </g>
    </g>

<path fill-rule="evenodd" clip-rule="evenodd" d="M7.51613 3C7.51613 3 18.2224 8.69809 26 17C32.6427 24.0906 35.296 34.2946 39 45C42.5781 55.3416 54.5563 64.0699 54 72C51.2903 110.626 3 112.16 3 112.16C3 112.16 55 112 59 71.855C60.0047 61.7714 47.4515 54.9713 43 45C38.1683 34.1771 36 22 28 16C19.8807 9.9105 7.51613 3 7.51613 3Z" fill="black" stroke="black" stroke-width="6" stroke-linecap="round" stroke-linejoin="round"/>

    <title>hair-21</title>
    <g id="All-customizable-items" stroke="none" stroke-width="1" fill="none" fill-rule="evenodd" stroke-linecap="round" stroke-linejoin="round">
        <g id="Hairstyle/-21" transform="translate(-76.000000, -120.000000)" fill="#000000" stroke="#000000" stroke-width="12">
            <path d="M232,126 C292.220249,126 344.152059,161.487028 368.024158,212.689811 C410.238527,194.447151 459.304239,186 515,186 C629.125983,186 703.747536,236.594939 747,304 C768.389326,337.333333 781.389326,393.666667 786,473 L680,473 L650,408 L650,473 L532,473 L500,392 L503,473 L385,473 C389.666667,493.666667 391,512.333333 389,529 C386,554 361.052092,589.961487 358,586 C352.543445,578.917621 333.32,563.08 300,567 C277.333333,569.666667 249,596 240,625 C216.02868,569.081696 198.509382,476.747877 207.442105,423.998542 C136.28321,412.281762 82,350.480143 82,276 C82,193.157288 149.157288,126 232,126 Z" id="hair-21"></path>
        </g>
    </g>

    <title>glasses-8</title>
    <g id="All-customizable-items" stroke="none" stroke-width="1" fill="none" fill-rule="evenodd" stroke-linecap="round" stroke-linejoin="round">
        <g id="Glasses/-8" transform="translate(-285.000000, -471.000000)" stroke="#000000">
            <g id="glasses-8" transform="translate(293.000000, 475.000000)">
                <path d="M328.31869,48.9411765 C333.965749,25.4117647 327.377514,0 252.083396,0 C176.789279,0 173.024573,30.1176471 170.201043,48.9411765 C167.377514,67.7647059 157.024573,140.235294 227.612808,143.058824 C298.201043,145.882353 322.671631,72.4705882 328.31869,48.9411765 Z" id="Path" stroke-width="8" fill="#0C0C0C"></path>
                <path d="M523.46091,48.9411765 C529.107969,25.4117647 522.519734,3.63797881e-12 447.225616,3.63797881e-12 C371.931498,3.63797881e-12 368.166792,30.1176471 365.343263,48.9411765 C362.519734,67.7647059 352.166792,140.235294 422.755028,143.058824 C493.343263,145.882353 517.813851,72.4705882 523.46091,48.9411765 Z" id="Path" stroke-width="8" fill="#0C0C0C" transform="translate(444.072807, 71.569037) scale(-1, 1) translate(-444.072807, -71.569037) "></path>
                <line x1="301.965749" y1="7.52941176" x2="391.377514" y2="7.52941176" id="Path" stroke-width="8"></line>
                <path d="M301.965749,35.7647059 C317.212807,34.5098039 332.271631,33.8823529 347.14222,33.8823529 C362.012808,33.8823529 376.757907,34.5098039 391.377514,35.7647059" id="Path" stroke-width="8"></path>
                <line x1="217" y1="40" x2="1.3111035" y2="83.3393577" id="Path" stroke-width="16" transform="translate(109.155552, 61.669679) rotate(1.361411) translate(-109.155552, -61.669679) "></line>
            </g>
        </g>
    </g>

</svg>