<svg width="564px" height="504px" viewBox="0 0 564 504" version="1.1" xmlns="http://www.w3.org/2000/svg" xmlns:xlink="http://www.w3.org/1999/xlink">

    <title>face-2</title>
    <g id="All-customizable-items" stroke="none" stroke-width="1" fill="none" fill-rule="evenodd" stroke-linecap="round" stroke-linejoin="round">
        <g id="Face/-2" transform="translate(-220.000000, -367.000000)" stroke="#000000" stroke-width="24">
            <path d="M532,379 C664.54834,379 772,486.45166 772,619 C772,751.54834 664.54834,899 532,899 C432.699202,899 347.483933,816.242653 310.982017,718.993409 C267.268677,718.448846 232,682.843144 232,639 C232,599.134956 261.158843,566.080325 299.312086,560.00055 C325.599297,455.979213 419.809919,379 532,379 Z M295.858895,624.545187 L304.141105,655.454813" id="face-2"></path>
        </g>
    </g>

    <title>eyes-10</title>
    <g id="All-customizable-items" stroke="none" stroke-width="1" fill="none" fill-rule="evenodd">
        <g id="Eyes/-10" transform="translate(-514.000000, -506.000000)">
            <g id="eyes-10" transform="translate(520.000000, 512.000000)">
                <g id="Group" transform="translate(140.000000, 0.000000)">
                    <circle id="Oval" fill="#000000" cx="52" cy="28" r="24"></circle>
                    <path d="M1,16 C24.2727273,8 41.7272727,4 53.3636364,4 C65,4 79.5454545,8 97,16" id="Path" stroke="#000000" stroke-width="12" stroke-linecap="round" stroke-linejoin="round" transform="translate(49.000000, 10.000000) rotate(-4.000000) translate(-49.000000, -10.000000) "></path>
                </g>
                <g id="Group">
                    <circle id="Oval" fill="#000000" transform="translate(46.000000, 28.000000) scale(-1, 1) translate(-46.000000, -28.000000) " cx="46" cy="28" r="24"></circle>
                    <path d="M1,16 C24.2727273,8 41.7272727,4 53.3636364,4 C65,4 79.5454545,8 97,16" id="Path" stroke="#000000" stroke-width="12" stroke-linecap="round" stroke-linejoin="round" transform="translate(49.000000, 10.000000) scale(-1, 1) rotate(-4.000000) translate(-49.000000, -10.000000) "></path>
                </g>
            </g>
        </g>
    </g>

    <title>eyebrows-6</title>
    <g id="All-customizable-items" stroke="none" stroke-width="1" fill="none" fill-rule="evenodd" stroke-linecap="round" stroke-linejoin="round">
        <g id="Eyebrows/-6" transform="translate(-495.000000, -480.000000)" fill="#000000" stroke="#000000" stroke-width="8">
            <path d="M620,495.140162 C589.850248,491.823271 565.234864,491.823271 546.153846,495.140162 C527.072829,498.457053 511.688213,505.410333 500,516 C517.257672,497.488903 532.642287,487.058984 546.153846,484.710243 C559.665405,482.361502 584.280789,485.838142 620,495.140162 Z M658,495.140162 C693.719211,485.838142 718.334595,482.361502 731.846154,484.710243 C745.357713,487.058984 760.742328,497.488903 778,516 C766.311787,505.410333 750.927171,498.457053 731.846154,495.140162 C712.765136,491.823271 688.149752,491.823271 658,495.140162 Z" id="eyebrows-6"></path>
        </g>
    </g>

    <title>mouth-3</title>
    <g id="All-customizable-items" stroke="none" stroke-width="1" fill="none" fill-rule="evenodd" stroke-linecap="round" stroke-linejoin="round">
        <g id="Mouth/-3" transform="translate(-467.000000, -721.000000)" stroke="#000000" stroke-width="16">
            <g id="mouth-3" transform="translate(475.000000, 729.000000)">
                <path d="M66,41.0869565 C93.79487,40.6243036 114.628203,38.8851732 128.5,35.8695652 C142.371797,32.8539572 161.538463,25.8974355 186,15" id="Path"></path>
                <path d="M161,25.4347826 C161,49.7826087 153.5,65.4347826 138.5,72.3913043 C123.5,79.3478261 101.833333,68.9130435 73.5,41.0869565" id="Path"></path>
                <path d="M2.14164194,45 C-1.3880481,36.6867754 -0.554714768,27.8534421 4.64164194,18.5 C9.83799864,9.14655793 17.3379986,2.97989127 27.1416419,0" id="Path"></path>
            </g>
        </g>
    </g>

    <title>nose-3</title>
    <g id="All-customizable-items" stroke="none" stroke-width="1" fill="none" fill-rule="evenodd" stroke-linecap="round" stroke-linejoin="round">
        <g id="Nose/-3" transform="translate(-618.000000, -587.000000)" stroke="#000000" stroke-width="16">
            <path d="M636.843465,595.910607 C654.994141,637.483681 663.279537,666.31686 661.699654,682.410144 C660.11977,698.503428 648.515798,703.474491 626.887739,697.323331" id="nose-3" transform="translate(644.388576, 647.892684) rotate(1.032339) translate(-644.388576, -647.892684) "></path>
        </g>
    </g>

<path fill-rule="evenodd" clip-rule="evenodd" d="M373 14.3077C401.43 23.4461 430 35 438 73C444.842 105.499 445 115 423 183C416.333 167.667 383.333 159 324 157C295.16 156.028 262.044 140.964 229 143C204.467 144.511 165.899 157.685 113.296 182.522L114.068 185.707C122.266 219.685 126.365 242.363 126.365 253.739C126.365 264.77 118.591 306.192 103.044 378.005L100 392L62.1167 301.825H21.1458C5.7805 244.747 2.10619 205.653 10.1229 184.542C18.1395 163.431 30.0986 148.251 46 139C65 104 204.357 65.3296 228.118 61.2382C229.772 60.9534 231.385 60.709 232.959 60.505L234.461 59.6243C242.552 54.8382 247.95 50.9855 253.924 47.1865C226.292 50.1584 185.984 63.1331 133.002 86.1105C180.763 54.8585 224.246 38.8283 263.453 38.02C265.82 37.9712 268.136 37.9732 270.402 38.0261C272.424 37.0545 274.611 36.049 277 35C282.899 32.4103 290.081 30.3794 298.106 28.9402C270.526 26.8385 226.546 34.6985 166.166 52.5213C217.379 27.3228 262.492 16.7114 301.505 20.6871C311.797 21.7361 321.013 23.6307 329.151 26.3712C352.568 26.3597 378.007 30.2633 398.64 38.5888C391.176 31.8443 382.63 26.7505 373 23.3077C347.258 14.1047 300.925 12.1047 234 17.3077C289.333 3.30769 335.667 2.30769 373 14.3077Z" fill="black" stroke="black" stroke-width="12" stroke-linecap="round" stroke-linejoin="round"/>

    <title>details-1</title>
    <g id="All-customizable-items" stroke="none" stroke-width="1" fill="none" fill-rule="evenodd" stroke-linecap="round" stroke-linejoin="round">
        <g id="Details/-1" transform="translate(-439.000000, -613.000000)" stroke="#000000" stroke-width="12">
            <path d="M485,619 C507.09139,619 525,636.90861 525,659 C525,681.09139 507.09139,699 485,699 C462.90861,699 445,681.09139 445,659 C445,636.90861 462.90861,619 485,619 Z M767.292336,619.274106 C780,619 763.092776,698.242969 759.023679,696.8482 C743.301573,691.459118 732,676.549371 732,659 C732,638.501287 747.390789,619.703385 767.292336,619.274106 Z" id="details-1"></path>
        </g>
    </g>

</svg>