<svg width="564px" height="504px" viewBox="0 0 564 504" version="1.1" xmlns="http://www.w3.org/2000/svg" xmlns:xlink="http://www.w3.org/1999/xlink">

    <title>face-4</title>
    <g id="All-customizable-items" stroke="none" stroke-width="1" fill="none" fill-rule="evenodd" stroke-linecap="round" stroke-linejoin="round">
        <g id="Face/-4" transform="translate(-220.000000, -367.000000)" stroke="#000000" stroke-width="24">
            <path d="M532,379 C664.54834,379 772,486.45166 772,619 C772,751.54834 764.54834,899 592,899 C462.715227,899 358.747776,816.220491 314.739381,718.954345 C313.831676,718.98455 312.917642,719 312,719 C267.81722,719 232,683.18278 232,639 C232,599.134956 261.158843,566.080325 299.312086,560.00055 C325.599297,455.979213 419.809919,379 532,379 Z M295.858895,624.545187 L304.141105,655.454813" id="face-4"></path>
        </g>
    </g>

    <title>eyes-7</title>
    <g id="All-customizable-items" stroke="none" stroke-width="1" fill="none" fill-rule="evenodd">
        <g id="Eyes/-7" transform="translate(-554.000000, -516.000000)" fill="#000000">
            <path d="M570,516 C578.836556,516 586,526.745166 586,540 C586,553.254834 578.836556,564 570,564 C561.163444,564 554,553.254834 554,540 C554,526.745166 561.163444,516 570,516 Z M708,516 C716.836556,516 724,526.745166 724,540 C724,553.254834 716.836556,564 708,564 C699.163444,564 692,553.254834 692,540 C692,526.745166 699.163444,516 708,516 Z M568,527 C564.686292,527 562,529.686292 562,533 C562,536.313708 564.686292,539 568,539 C571.313708,539 574,536.313708 574,533 C574,529.686292 571.313708,527 568,527 Z M706,527 C702.686292,527 700,529.686292 700,533 C700,536.313708 702.686292,539 706,539 C709.313708,539 712,536.313708 712,533 C712,529.686292 709.313708,527 706,527 Z" id="eyes-7"></path>
        </g>
    </g>

    <title>eyebrows-3</title>
    <g id="All-customizable-items" stroke="none" stroke-width="1" fill="none" fill-rule="evenodd" stroke-linecap="round" stroke-linejoin="round">
        <g id="Eyebrows/-3" transform="translate(-500.000000, -472.000000)" stroke="#000000" stroke-width="24">
            <g id="eyebrows-3" transform="translate(512.000000, 484.000000)">
                <path d="M152,14.0251712 C167.712271,3.95186377 182.349308,-0.695225271 195.911111,0.0839040908 C206.159229,0.672661315 219.876442,6.74452014 237.511111,14.0251712 C241.312508,15.5946162 247.475471,17.5862258 256,20" id="Path" transform="translate(204.000000, 10.000000) scale(-1, 1) translate(-204.000000, -10.000000) "></path>
                <path d="M0,14.0251712 C15.7122706,3.95186377 30.3493076,-0.695225271 43.9111111,0.0839040908 C54.1592293,0.672661315 67.8764421,6.74452014 85.5111111,14.0251712 C89.3125078,15.5946162 95.4754707,17.5862258 104,20" id="Path"></path>
            </g>
        </g>
    </g>

    <title>mouth-8</title>
    <g id="All-customizable-items" stroke="none" stroke-width="1" fill="none" fill-rule="evenodd" stroke-linecap="round" stroke-linejoin="round">
        <g id="Mouth/-8" transform="translate(-510.000000, -720.000000)" stroke="#000000" stroke-width="16">
            <g id="mouth-8" transform="translate(518.000000, 729.000000)">
                <path d="M-3.69482223e-13,40.2906038 C11.1513858,37.2521964 19.1513858,34.588032 24,32.2981106 C28.8486142,30.0081891 35.9892516,25.8365332 45.4219123,19.7831427 C62.4309568,8.98264352 73.6236526,2.98203532 79,1.78131814 C84.3763474,0.580600965 91.3763474,2.51817509 100,7.59404051 C112,-1.12504304 123,-2.33602686 133,3.96108903 C143,10.2582049 145.333333,20.4304691 140,34.4778814 C145.333333,41.2593909 144.666667,48.0409003 138,54.8224097 C128,64.9946738 107,72.2605768 79,69.3542156 C66.6893996,68.0763924 52.3996983,62.8419921 34,54.8224097 C27.6667209,52.0620246 16.3333876,47.2180893 -3.69482223e-13,40.2906038 Z" id="Path"></path>
                <path d="M12,43 C54.2826578,36.3890991 82.9493244,32.7224324 98,32 C113.050676,31.2775676 126.050676,32.9442342 137,37" id="Path"></path>
            </g>
        </g>
    </g>

    <title>nose-3</title>
    <g id="All-customizable-items" stroke="none" stroke-width="1" fill="none" fill-rule="evenodd" stroke-linecap="round" stroke-linejoin="round">
        <g id="Nose/-3" transform="translate(-618.000000, -587.000000)" stroke="#000000" stroke-width="16">
            <path d="M636.843465,595.910607 C654.994141,637.483681 663.279537,666.31686 661.699654,682.410144 C660.11977,698.503428 648.515798,703.474491 626.887739,697.323331" id="nose-3" transform="translate(644.388576, 647.892684) rotate(1.032339) translate(-644.388576, -647.892684) "></path>
        </g>
    </g>

    <title>hair-6</title>
    <g id="All-customizable-items" stroke="none" stroke-width="1" fill="none" fill-rule="evenodd" stroke-linecap="round" stroke-linejoin="round">
        <g id="Hairstyle/-6" transform="translate(-197.000000, -216.000000)" fill="#000000" stroke="#000000" stroke-width="12">
            <path d="M279,719 L312,727 L361,805 C345.104968,795.793015 330.104968,783.793015 316,769 C301.895032,754.206985 289.561699,737.540318 279,719 Z M343,303 C367,222.333333 442.666667,202.333333 570,243 C761,304 782,471 782,496 C782,512.666667 778.333333,533.666667 771,559 L769.377742,556.788495 C742.968282,520.931086 720.842368,498.001587 703,488 C652.173973,459.509334 588.817434,464 549,464 C509.182566,464 428.104379,430.95793 412,428 C409.688334,427.575411 401.590927,431.429106 429,448 L430.116018,448.665115 C436.887544,452.645909 447.182205,457.757538 461,464 C447.596463,464.038164 432.312171,461.806007 415.147123,457.303529 L412.503541,456.598811 C395.711977,452.076418 384.642719,448.384272 379.295767,445.522372 L380.06813,448.7074 C388.26572,482.685415 392.364515,505.362636 392.364515,516.739062 C392.364515,528.232771 383.924355,572.72458 367.044035,650.214489 L366,655 C350.666667,619.666667 338.333333,596 329,584 C315,566 300.202254,555.429256 288,559 L287.245493,559.229979 C278.745889,561.917334 258.53666,571.367129 244,589 C238.749387,595.368958 233.08272,607.368958 227,625 L226.065502,623.594497 C212.50066,603.100798 205.145493,587.902633 204,578 C200.118123,544.441696 214.597053,517.355586 214,510 C210.524124,467.177849 188,403 244,358 L246.2348,356.214 C282.6516,327.271333 314.906667,309.533333 343,303 Z" id="hair-6"></path>
        </g>
    </g>

<path fill-rule="evenodd" clip-rule="evenodd" d="M145 65L158 89L156.233 90.5956C127.493 116.412 104.416 130.214 87 132C69.5843 133.786 43.3052 128.7 8.16266 116.741L6 116L13 89C37 97 61 99 85 95C108.7 91.05 128.499 81.2491 144.398 65.5972L145 65ZM111 6C105 10 100.916 13.4839 98.7467 16.4516L98.1582 17.2475C95.3164 21.036 93.875 22 89 22C84.4638 22 83.1948 21.1654 80.3248 17.9972L78.9467 16.4516C76.3156 13.4839 72.3333 10 67 6C73.1137 7.33333 80.447 8 89 8C97.553 8 104.886 7.33333 111 6Z" fill="black"/>
<path d="M145 65L150.276 62.1423C149.376 60.4805 147.745 59.34 145.876 59.0642C144.006 58.7885 142.116 59.4097 140.774 60.7408L145 65ZM158 89L162.022 93.4527C164.076 91.5971 164.594 88.5766 163.276 86.1423L158 89ZM156.233 90.5956L160.243 95.0592C160.247 95.0556 160.251 95.052 160.255 95.0483L156.233 90.5956ZM8.16266 116.741L6.21838 122.417L6.22971 122.421L8.16266 116.741ZM6 116L0.192019 114.494C-0.595059 117.53 1.08871 120.66 4.05572 121.676L6 116ZM13 89L14.8974 83.3079C13.3205 82.7823 11.5962 82.9343 10.1356 83.7279C8.67509 84.5214 7.60917 85.8852 7.19202 87.4942L13 89ZM85 95L84.0136 89.0816L85 95ZM144.398 65.5972L148.607 69.8729C148.613 69.8674 148.619 69.8619 148.624 69.8564L144.398 65.5972ZM111 6L114.328 10.9923C116.728 9.39234 117.65 6.3111 116.523 3.65595C115.396 1.00079 112.54 -0.476815 109.722 0.137794L111 6ZM98.7467 16.4516L103.571 20.0187C103.578 20.0097 103.584 20.0008 103.591 19.9919L98.7467 16.4516ZM98.1582 17.2475L102.958 20.8479C102.966 20.8368 102.975 20.8257 102.983 20.8146L98.1582 17.2475ZM80.3248 17.9972L75.8465 21.9903C75.857 22.002 75.8675 22.0137 75.878 22.0254L80.3248 17.9972ZM78.9467 16.4516L74.457 20.432C74.4608 20.4362 74.4646 20.4405 74.4684 20.4447L78.9467 16.4516ZM67 6L68.2785 0.137794C65.5215 -0.463485 62.7181 0.937627 61.544 3.5036C60.3699 6.06958 61.1425 9.10691 63.4 10.8L67 6ZM139.724 67.8577L152.724 91.8577L163.276 86.1423L150.276 62.1423L139.724 67.8577ZM153.978 84.5473L152.212 86.1429L160.255 95.0483L162.022 93.4527L153.978 84.5473ZM152.224 86.1321C138.028 98.8839 125.389 108.522 114.291 115.16C103.14 121.828 93.8816 125.263 86.3878 126.031L87.6122 137.969C97.534 136.951 108.522 132.592 120.45 125.459C132.429 118.295 145.699 108.124 160.243 95.0592L152.224 86.1321ZM86.3878 126.031C70.3543 127.676 45.1354 122.985 10.0956 111.061L6.22971 122.421C41.475 134.415 68.8144 139.897 87.6122 137.969L86.3878 126.031ZM10.1069 111.065L7.94428 110.324L4.05572 121.676L6.21838 122.417L10.1069 111.065ZM11.808 117.506L18.808 90.5058L7.19202 87.4942L0.192019 114.494L11.808 117.506ZM11.1026 94.6921C35.9928 102.989 60.9821 105.086 85.9864 100.918L84.0136 89.0816C61.0179 92.9143 38.0072 91.0112 14.8974 83.3079L11.1026 94.6921ZM85.9864 100.918C110.805 96.7819 131.76 86.4585 148.607 69.8729L140.189 61.3215C125.239 76.0396 106.595 85.3181 84.0136 89.0816L85.9864 100.918ZM148.624 69.8564L149.226 69.2592L140.774 60.7408L140.172 61.338L148.624 69.8564ZM107.672 1.0077C101.538 5.09713 96.7188 9.0577 93.9024 12.9113L103.591 19.9919C105.112 17.91 108.462 14.9029 114.328 10.9923L107.672 1.0077ZM93.9221 12.8846L93.3337 13.6805L102.983 20.8146L103.571 20.0187L93.9221 12.8846ZM93.3585 13.6472C91.965 15.5048 91.563 15.726 91.4935 15.7635C91.4823 15.7695 91.4593 15.7813 91.4081 15.7982C91.3532 15.8164 91.2469 15.8466 91.0658 15.8779C90.6763 15.9452 90.0525 16 89 16V28C91.7099 28 94.5207 27.7648 97.1896 26.3254C99.77 24.9338 101.51 22.7787 102.958 20.8479L93.3585 13.6472ZM89 16C88.0219 16 87.442 15.9527 87.0786 15.8948C86.7598 15.844 86.6686 15.7943 86.6622 15.7912C86.57 15.7463 86.2149 15.5623 84.7715 13.969L75.878 22.0254C77.3047 23.6003 79.0191 25.4177 81.4129 26.5821C83.9031 27.7935 86.4665 28 89 28V16ZM84.8031 14.004L83.4249 12.4585L74.4684 20.4447L75.8465 21.9903L84.8031 14.004ZM83.4363 12.4712C80.4172 9.0659 76.0702 5.30268 70.6 1.2L63.4 10.8C68.5964 14.6973 72.2139 17.9018 74.457 20.432L83.4363 12.4712ZM65.7215 11.8622C72.3763 13.3136 80.1619 14 89 14V2C80.732 2 73.851 1.35311 68.2785 0.137794L65.7215 11.8622ZM89 14C97.8381 14 105.624 13.3136 112.278 11.8622L109.722 0.137794C104.149 1.35311 97.268 2 89 2V14Z" fill="black"/>

    <title>details-10</title>
    <g id="All-customizable-items" stroke="none" stroke-width="1" fill="none" fill-rule="evenodd" stroke-linecap="round" stroke-linejoin="round">
        <g id="Details/-10" transform="translate(-452.000000, -608.000000)" stroke="#000000" stroke-width="4">
            <path d="M454,610 C468.243551,638.003262 476.910218,659.669928 480,675 C483.089782,690.330072 483.089782,711.663405 480,739" id="details-10"></path>
        </g>
    </g>

<path fill-rule="evenodd" clip-rule="evenodd" d="M527.209 22.2168C527.813 13.2841 520.652 6 511.699 6H177C168.163 6 161 13.1634 161 22V97.7598C161 102.706 163.26 107.352 167.249 110.275C187.881 125.396 254.959 172 297.94 172C349.244 172 341.761 110.343 388.321 110.343C434.881 110.343 412.97 172 469.116 162.514C513.7 154.982 524.608 60.7171 527.209 22.2168Z" fill="white" stroke="black" stroke-width="12" stroke-linecap="round" stroke-linejoin="round"/>
<path fill-rule="evenodd" clip-rule="evenodd" d="M505.642 31.9945C505.893 27.5088 502.3 23.8467 497.807 23.8467L187 23.8467C182.582 23.8467 179 27.4284 179 31.8467V83.3487C179 85.7589 180.047 88.0083 181.946 89.493C196.566 100.927 262.245 150.47 302.546 150.47C333.607 150.47 325.397 95.489 384.087 90.4907C442.777 85.4924 426.644 145.472 464.954 142.14C497.033 139.35 504.169 58.2882 505.642 31.9945Z" fill="black"/>
<mask id="mask0_0_1158" style="mask-type:alpha" maskUnits="userSpaceOnUse" x="179" y="23" width="327" height="128">
<path fill-rule="evenodd" clip-rule="evenodd" d="M505.642 31.9945C505.893 27.5088 502.3 23.8467 497.807 23.8467L187 23.8467C182.582 23.8467 179 27.4284 179 31.8467V83.3487C179 85.7589 180.047 88.0083 181.946 89.493C196.566 100.927 262.245 150.47 302.546 150.47C333.607 150.47 325.397 95.489 384.087 90.4907C442.777 85.4924 426.644 145.472 464.954 142.14C497.033 139.35 504.169 58.2882 505.642 31.9945Z" fill="white"/>
</mask>
<g mask="url(#mask0_0_1158)">
<path d="M393.808 14.7422L503.264 102.828" stroke="white" stroke-width="16" stroke-linecap="round" stroke-linejoin="round"/>
<path d="M418.436 0.978516L527.892 89.0645" stroke="white" stroke-width="8" stroke-linecap="round" stroke-linejoin="round"/>
</g>
<path fill-rule="evenodd" clip-rule="evenodd" d="M161 14.0361L6 44.9996V88.8749L161 73.9995V14.0361Z" fill="black" stroke="black" stroke-width="12" stroke-linecap="round" stroke-linejoin="round"/>

</svg>