<svg width="564px" height="504px" viewBox="0 0 564 504" version="1.1" xmlns="http://www.w3.org/2000/svg" xmlns:xlink="http://www.w3.org/1999/xlink">

    <title>face-2</title>
    <g id="All-customizable-items" stroke="none" stroke-width="1" fill="none" fill-rule="evenodd" stroke-linecap="round" stroke-linejoin="round">
        <g id="Face/-2" transform="translate(-220.000000, -367.000000)" stroke="#000000" stroke-width="24">
            <path d="M532,379 C664.54834,379 772,486.45166 772,619 C772,751.54834 664.54834,899 532,899 C432.699202,899 347.483933,816.242653 310.982017,718.993409 C267.268677,718.448846 232,682.843144 232,639 C232,599.134956 261.158843,566.080325 299.312086,560.00055 C325.599297,455.979213 419.809919,379 532,379 Z M295.858895,624.545187 L304.141105,655.454813" id="face-2"></path>
        </g>
    </g>

    <title>eyes-5</title>
    <g id="All-customizable-items" stroke="none" stroke-width="1" fill="none" fill-rule="evenodd">
        <g id="Eyes/-5" transform="translate(-532.000000, -501.000000)">
            <g id="eyes-5" transform="translate(538.000000, 507.000000)">
                <g id="Group" transform="translate(138.000000, 0.000000)">
                    <circle id="Oval" stroke="#000000" stroke-width="12" stroke-linecap="round" stroke-linejoin="round" cx="32" cy="32" r="32"></circle>
                    <path d="M4,18 C13.3333333,20.6666667 22.6666667,22 32,22 C41.3333333,22 50.6666667,20.6666667 60,18" id="Path" stroke="#000000" stroke-width="12" stroke-linecap="round" stroke-linejoin="round"></path>
                    <circle id="Oval" fill="#000000" cx="32" cy="28" r="10"></circle>
                </g>
                <g id="Group" transform="translate(0.000000, 1.000000)">
                    <circle id="Oval" stroke="#000000" stroke-width="12" stroke-linecap="round" stroke-linejoin="round" cx="32" cy="32" r="32"></circle>
                    <path d="M4,18 C13.3333333,20.6666667 22.6666667,22 32,22 C41.3333333,22 50.6666667,20.6666667 60,18" id="Path" stroke="#000000" stroke-width="12" stroke-linecap="round" stroke-linejoin="round"></path>
                    <circle id="Oval" fill="#000000" cx="32" cy="28" r="10"></circle>
                </g>
            </g>
        </g>
    </g>

    <title>eyebrows-4</title>
    <g id="All-customizable-items" stroke="none" stroke-width="1" fill="none" fill-rule="evenodd" stroke-linecap="round" stroke-linejoin="round">
        <g id="Eyebrows/-4" transform="translate(-519.000000, -498.000000)" stroke="#000000" stroke-width="12">
            <g id="eyebrows-4" transform="translate(525.000000, 504.000000)">
                <path d="M0,12 C12.8888889,4 27.8888889,0 45,0 C62.1111111,0 77.1111111,4 90,12" id="Path"></path>
                <path d="M138,12 C150.888889,4 165.888889,0 183,0 C200.111111,0 215.111111,4 228,12" id="Path"></path>
            </g>
        </g>
    </g>

    <title>mouth-5</title>
    <g id="All-customizable-items" stroke="none" stroke-width="1" fill="none" fill-rule="evenodd" stroke-linecap="round" stroke-linejoin="round">
        <g id="Mouth/-5" transform="translate(-573.000000, -720.000000)" stroke="#000000" stroke-width="16">
            <circle id="mouth-5" cx="621" cy="768" r="40"></circle>
        </g>
    </g>

    <title>nose-7</title>
    <g id="All-customizable-items" stroke="none" stroke-width="1" fill="none" fill-rule="evenodd" stroke-linecap="round" stroke-linejoin="round">
        <g id="Nose/-7" transform="translate(-641.000000, -592.000000)" stroke="#000000" stroke-width="16">
            <path d="M649,600 C669,606.666667 679,620 679,640 C679,660 669,673.333333 649,680" id="nose-7"></path>
        </g>
    </g>

<path fill-rule="evenodd" clip-rule="evenodd" d="M233 6C264.508 18.4718 299.59 28.322 339.268 39.5531C378.946 50.7842 405.888 71.9695 434 99C486 149 480.942 235.288 473 244C471.601 245.535 455.325 214.054 434 195L432.615 193.77C409.806 173.637 378.02 151.454 376 153C353.677 170.084 361.675 171.273 329 178C295 185 283.626 175.652 237 167C184.977 161.003 151.977 167.003 138 185C114.296 215.522 126.365 250.147 126.365 267.739C126.365 279.233 117.924 323.725 101.044 401.214L100 406L62.1167 315.825H21.1458C5.7805 258.747 2.10619 219.653 10.1229 198.542L10.8704 196.586L11.655 194.563C13.5485 189.724 21.9969 183.536 37 176L36.9379 174.117C36.4124 156.678 37.3884 143.143 39.8658 133.512L40 133C43.0468 121.574 56.5168 80.262 122.884 53.9348L100.282 34.1253C99.8565 33.7516 99.429 33.3765 99 33L100.925 32.9415C126.744 32.2035 145.769 33.5564 158 37C161.172 37.8931 164.481 39.0941 167.927 40.6028C171.049 39.9404 174.248 39.3069 177.525 38.7048L149.064 11.6102L152.214 11.7767C181.35 13.3588 203.109 15.7288 217.49 18.8869L218 19C227.813 21.1947 240.255 25.1406 255.325 30.8378C259.184 30.7309 262.95 30.6788 266.631 30.6781L233 6Z" fill="black" stroke="black" stroke-width="12" stroke-linecap="round" stroke-linejoin="round"/>

<path fill-rule="evenodd" clip-rule="evenodd" d="M37.9664 11.3824C35.663 1.49179 23.9144 3.18816 19.5394 6.98658C4.50601 20.0389 -0.0391464 39.9554 11.4777 54.2418C22.9945 68.5283 43.7248 65.2314 51.7865 56.4398C59.8483 47.6481 61 38.8564 61 38.8564H42.5731C42.5731 38.8564 37.9664 46.5491 29.9046 43.2523C25.3817 41.4026 24.4786 32.2177 27.6012 25.6689C30.7524 19.0603 39.1233 16.3502 37.9664 11.3824Z" fill="white" stroke="black" stroke-width="8" stroke-linecap="round" stroke-linejoin="round"/>
<ellipse cx="14.9999" cy="49.5001" rx="6" ry="7.5" transform="rotate(-30 14.9999 49.5001)" fill="black"/>
<ellipse cx="40.0001" cy="58.4996" rx="6" ry="7.5" transform="rotate(-105 40.0001 58.4996)" fill="black"/>
<ellipse cx="12.0001" cy="22.4999" rx="6" ry="7.5" transform="rotate(-150 12.0001 22.4999)" fill="black"/>

</svg>