<svg width="564px" height="504px" viewBox="0 0 564 504" version="1.1" xmlns="http://www.w3.org/2000/svg" xmlns:xlink="http://www.w3.org/1999/xlink">

    <title>face-3</title>
    <g id="All-customizable-items" stroke="none" stroke-width="1" fill="none" fill-rule="evenodd" stroke-linecap="round" stroke-linejoin="round">
        <g id="Face/-3" transform="translate(-220.000000, -367.000000)" stroke="#000000" stroke-width="24">
            <path d="M532,379 C664.54834,379 772,486.45166 772,619 C772,751.54834 704.54834,899 532,899 C402.610491,899 332.317998,816.086314 305.249034,718.717925 C264.225797,715.291578 232,680.909158 232,639 C232,599.134956 261.158843,566.080325 299.312086,560.00055 C325.599297,455.979213 419.809919,379 532,379 Z M295.858895,624.545187 L304.141105,655.454813" id="face-3"></path>
        </g>
    </g>

    <title>eyes-8</title>
    <g id="All-customizable-items" stroke="none" stroke-width="1" fill="none" fill-rule="evenodd">
        <g id="Eyes/-8" transform="translate(-554.000000, -516.000000)" fill="#000000">
            <path d="M570,516 C578.836556,516 586,526.745166 586,540 C586,553.254834 578.836556,564 570,564 C561.163444,564 554,553.254834 554,540 C554,526.745166 561.163444,516 570,516 Z M708,516 C716.836556,516 724,526.745166 724,540 C724,553.254834 716.836556,564 708,564 C699.163444,564 692,553.254834 692,540 C692,526.745166 699.163444,516 708,516 Z" id="eyes-8"></path>
        </g>
    </g>

    <title>eyebrows-8</title>
    <g id="All-customizable-items" stroke="none" stroke-width="1" fill="none" fill-rule="evenodd" stroke-linecap="round" stroke-linejoin="round">
        <g id="Eyebrows/-8" transform="translate(-522.000000, -482.000000)" stroke="#000000" stroke-width="16">
            <g id="eyebrows-8" transform="translate(530.000000, 490.000000)">
                <path d="M64,10 C59.1947065,3.33333333 51.1947065,0 40,0 C28.8052935,0 15.4719602,3.33333333 0,10" id="Path"></path>
                <path d="M218,10 C213.194706,3.33333333 205.194706,0 194,0 C182.805294,0 169.47196,3.33333333 154,10" id="Path" transform="translate(186.000000, 5.000000) scale(-1, 1) translate(-186.000000, -5.000000) "></path>
            </g>
        </g>
    </g>

    <title>mouth-7</title>
    <g id="All-customizable-items" stroke="none" stroke-width="1" fill="none" fill-rule="evenodd" stroke-linecap="round" stroke-linejoin="round">
        <g id="Mouth/-7" transform="translate(-550.000000, -734.000000)" fill="#000000" stroke="#000000" stroke-width="16">
            <path d="M559.810774,753.60177 C566.691716,738.132743 579.421458,738.132743 598,753.60177 L598.555602,753.14234 C616.832552,738.13429 629.377094,738.287434 636.189226,753.60177 C643.001358,768.916106 630.593059,783.900851 598.96433,798.556005 L598,799 C565.659574,784.20354 552.929833,769.070796 559.810774,753.60177 Z" id="mouth-7"></path>
        </g>
    </g>

    <title>nose-4</title>
    <g id="All-customizable-items" stroke="none" stroke-width="1" fill="none" fill-rule="evenodd" stroke-linecap="round" stroke-linejoin="round">
        <g id="Nose/-4" transform="translate(-618.000000, -587.000000)" stroke="#000000" stroke-width="16">
            <path d="M636.843426,596.000252 C661.659687,637.453214 673.277876,666.226337 671.697992,682.319621 C670.118108,698.412905 655.181344,703.444023 626.8877,697.412976" id="nose-4" transform="translate(649.363766, 647.939652) rotate(1.032339) translate(-649.363766, -647.939652) "></path>
        </g>
    </g>

<path fill-rule="evenodd" clip-rule="evenodd" d="M373 14.3077C401.43 23.4461 430 35 438 73C444.842 105.499 445 115 423 183C416.333 167.667 383.333 159 324 157C295.16 156.028 262.044 140.964 229 143C204.467 144.511 165.899 157.685 113.296 182.522L114.068 185.707C122.266 219.685 126.365 242.363 126.365 253.739C126.365 264.77 118.591 306.192 103.044 378.005L100 392L62.1167 301.825H21.1458C5.7805 244.747 2.10619 205.653 10.1229 184.542C18.1395 163.431 30.0986 148.251 46 139C65 104 204.357 65.3296 228.118 61.2382C229.772 60.9534 231.385 60.709 232.959 60.505L234.461 59.6243C242.552 54.8382 247.95 50.9855 253.924 47.1865C226.292 50.1584 185.984 63.1331 133.002 86.1105C180.763 54.8585 224.246 38.8283 263.453 38.02C265.82 37.9712 268.136 37.9732 270.402 38.0261C272.424 37.0545 274.611 36.049 277 35C282.899 32.4103 290.081 30.3794 298.106 28.9402C270.526 26.8385 226.546 34.6985 166.166 52.5213C217.379 27.3228 262.492 16.7114 301.505 20.6871C311.797 21.7361 321.013 23.6307 329.151 26.3712C352.568 26.3597 378.007 30.2633 398.64 38.5888C391.176 31.8443 382.63 26.7505 373 23.3077C347.258 14.1047 300.925 12.1047 234 17.3077C289.333 3.30769 335.667 2.30769 373 14.3077Z" fill="black" stroke="black" stroke-width="12" stroke-linecap="round" stroke-linejoin="round"/>

    <title>details-8</title>
    <g id="All-customizable-items" stroke="none" stroke-width="1" fill="none" fill-rule="evenodd" stroke-linecap="round" stroke-linejoin="round">
        <g id="Details/-8" transform="translate(-519.000000, -617.000000)" stroke="#000000" stroke-width="4">
            <g id="Path" transform="translate(521.813827, 619.000000)">
                <path d="M10.1861726,0 C5.29024008,26.7511905 2.29024008,46.7511905 1.18617262,60 C0.0821051592,73.2488095 -0.251228174,93.2488095 0.186172617,120"></path>
                <path d="M232.372345,1.42108547e-14 C227.476413,26.7511905 224.476413,46.7511905 223.372345,60 C222.55548,69.8023858 222.160519,83.3004165 222.187463,100.494092" transform="translate(227.279259, 50.247046) scale(-1, 1) translate(-227.279259, -50.247046) "></path>
            </g>
        </g>
    </g>

</svg>