<svg width="564px" height="504px" viewBox="0 0 564 504" version="1.1" xmlns="http://www.w3.org/2000/svg" xmlns:xlink="http://www.w3.org/1999/xlink">

    <title>face-10</title>
    <g id="All-customizable-items" stroke="none" stroke-width="1" fill="none" fill-rule="evenodd" stroke-linecap="round" stroke-linejoin="round">
        <g id="Face/-10" transform="translate(-220.000000, -367.000000)" stroke="#000000" stroke-width="24">
            <path d="M532,379 C664.54834,379 772,486.45166 772,619 C772,751.54834 684.54834,899 592,899 C535.13263,899 351.668898,801.612202 313.752775,718.980575 L313.322946,718.989282 L312,719 C267.81722,719 232,683.18278 232,639 C232,599.134956 261.158843,566.080325 299.312086,560.00055 C325.599297,455.979213 419.809919,379 532,379 Z M295.858895,624.545187 L304.141105,655.454813" id="face-10"></path>
        </g>
    </g>

<path d="M145 10.5001C145 10.5001 153.471 7 164.765 7C176.059 7 187.811 12 208.059 12C228.306 12 241 7 241 7" stroke="black" stroke-width="12" stroke-linecap="round" stroke-linejoin="round"/>
<path d="M103 10.5001C103 10.5001 94.5294 7 83.2353 7C71.9412 7 60.1888 12 39.9412 12C19.6935 12 7 7 7 7" stroke="black" stroke-width="12" stroke-linecap="round" stroke-linejoin="round"/>

    <title>eyebrows-9</title>
    <g id="All-customizable-items" stroke="none" stroke-width="1" fill="none" fill-rule="evenodd" stroke-linecap="round" stroke-linejoin="round">
        <g id="Eyebrows/-9" transform="translate(-490.000000, -450.000000)" stroke="#000000" stroke-width="24">
            <g id="eyebrows-9" transform="translate(502.000000, 462.000000)">
                <path d="M0,0 C0,0 23.2233275,2.61265093 76,22 C79.9624314,23.4555871 87.2957648,28.1222537 98,36" id="Path"></path>
                <path d="M176,0 C176,0 199.223328,2.61265093 252,22 C255.962431,23.4555871 263.295765,28.1222537 274,36" id="Path" transform="translate(225.000000, 18.000000) scale(-1, 1) translate(-225.000000, -18.000000) "></path>
            </g>
        </g>
    </g>

    <title>mouth-8</title>
    <g id="All-customizable-items" stroke="none" stroke-width="1" fill="none" fill-rule="evenodd" stroke-linecap="round" stroke-linejoin="round">
        <g id="Mouth/-8" transform="translate(-510.000000, -720.000000)" stroke="#000000" stroke-width="16">
            <g id="mouth-8" transform="translate(518.000000, 729.000000)">
                <path d="M-3.69482223e-13,40.2906038 C11.1513858,37.2521964 19.1513858,34.588032 24,32.2981106 C28.8486142,30.0081891 35.9892516,25.8365332 45.4219123,19.7831427 C62.4309568,8.98264352 73.6236526,2.98203532 79,1.78131814 C84.3763474,0.580600965 91.3763474,2.51817509 100,7.59404051 C112,-1.12504304 123,-2.33602686 133,3.96108903 C143,10.2582049 145.333333,20.4304691 140,34.4778814 C145.333333,41.2593909 144.666667,48.0409003 138,54.8224097 C128,64.9946738 107,72.2605768 79,69.3542156 C66.6893996,68.0763924 52.3996983,62.8419921 34,54.8224097 C27.6667209,52.0620246 16.3333876,47.2180893 -3.69482223e-13,40.2906038 Z" id="Path"></path>
                <path d="M12,43 C54.2826578,36.3890991 82.9493244,32.7224324 98,32 C113.050676,31.2775676 126.050676,32.9442342 137,37" id="Path"></path>
            </g>
        </g>
    </g>

    <title>nose-3</title>
    <g id="All-customizable-items" stroke="none" stroke-width="1" fill="none" fill-rule="evenodd" stroke-linecap="round" stroke-linejoin="round">
        <g id="Nose/-3" transform="translate(-618.000000, -587.000000)" stroke="#000000" stroke-width="16">
            <path d="M636.843465,595.910607 C654.994141,637.483681 663.279537,666.31686 661.699654,682.410144 C660.11977,698.503428 648.515798,703.474491 626.887739,697.323331" id="nose-3" transform="translate(644.388576, 647.892684) rotate(1.032339) translate(-644.388576, -647.892684) "></path>
        </g>
    </g>

    <title>hair-12</title>
    <g id="All-customizable-items" stroke="none" stroke-width="1" fill="none" fill-rule="evenodd" stroke-linecap="round" stroke-linejoin="round">
        <g id="Hairstyle/-12" transform="translate(-266.000000, -311.000000)" fill="#000000" stroke="#000000" stroke-width="12">
            <path d="M287.145773,564.824988 L328.116663,564.824988 L366,655 C383.576343,574.554316 392.364515,528.467337 392.364515,516.739062 C392.364515,499.14665 355.591535,476.044745 379.295767,445.522372 C403,415 437.22161,410.877439 476,418 C525,427 543,431 583,429 C609.666667,427.666667 645.666667,418.666667 691,402 C642.333333,341.333333 575,313.333333 489,318 C360,325 288.147856,415.875901 276.122857,447.542242 C268.106191,468.653136 271.780496,507.747385 287.145773,564.824988 Z" id="hair-12"></path>
        </g>
    </g>

    <title>beard-10</title>
    <g id="All-customizable-items" stroke="none" stroke-width="1" fill="none" fill-rule="evenodd" stroke-linecap="round" stroke-linejoin="round">
        <g id="Beard/-10" transform="translate(-359.000000, -645.000000)" fill="#000000" stroke="#000000" stroke-width="12">
            <path d="M385,651 C400.949347,693.922506 417.682633,729.624512 435.19986,758.106018 L435.257961,757.93037 L435.257961,757.93037 L435.382991,757.590097 C436.332315,755.121854 438.453635,752.057725 441.746952,748.397709 C445.047182,758.655798 447.875609,766.669675 450.232233,772.43934 C452.097947,777.007122 454.998032,783.424708 458.932488,791.692099 C462.241449,795.708652 465.576333,799.483371 468.937098,803.019711 C468.747704,801.751066 468.712602,800.556378 468.831416,799.433013 C469.109564,796.803169 470.365547,793.29441 472.599365,788.906733 C478.442132,797.961124 483.248326,804.969884 487.017949,809.933013 C490.647638,814.711903 496.463455,821.737819 504.465401,831.01076 C508.572484,833.217447 512.714195,835.101048 516.89077,836.663537 C516.545049,836.110965 516.247867,835.5577 516,835 C514.925962,832.583415 514.259295,828.916748 514,824 C523.58718,828.919949 531.253846,832.586615 537,835 C541.622781,836.941568 548.351518,839.478546 557.186211,842.610933 C564.771431,840.895593 570.683251,839.438661 574.924158,838.240012 C580.921598,836.544896 588.977973,833.839892 599.093282,830.124999 C598.568821,833.09366 597.949892,835.578556 597.236495,837.579687 C601.020483,836.642061 604.801869,835.576414 608.580373,834.382534 C617.277979,828.42916 623.771313,823.79084 628.061261,820.465325 C632.986989,816.64696 639.443418,811.120953 647.430546,803.887303 C648.452634,808.703627 648.757686,812.417901 648.345704,815.030125 C648.225732,815.790817 648.028088,816.565012 647.752769,817.352712 C669.261883,805.436827 690.678134,789.318484 712,769 C710.645087,779.947888 705.645087,789.947888 697,799 C655.842569,842.095192 585,869 525,865 C455.659793,860.37732 402.32646,789.043986 365,651 L385,651 Z M500.454782,828.750915 C500.081029,828.529966 499.707569,828.306327 499.3344,828.08 Z" id="beard-10"></path>
        </g>
    </g>

<path fill-rule="evenodd" clip-rule="evenodd" d="M527.209 22.2168C527.813 13.2841 520.652 6 511.699 6H177C168.163 6 161 13.1634 161 22V97.7598C161 102.706 163.26 107.352 167.249 110.275C187.881 125.396 254.959 172 297.94 172C349.244 172 341.761 110.343 388.321 110.343C434.881 110.343 412.97 172 469.116 162.514C513.7 154.982 524.608 60.7171 527.209 22.2168Z" fill="white" stroke="black" stroke-width="12" stroke-linecap="round" stroke-linejoin="round"/>
<path fill-rule="evenodd" clip-rule="evenodd" d="M505.642 31.9945C505.893 27.5088 502.3 23.8467 497.807 23.8467L187 23.8467C182.582 23.8467 179 27.4284 179 31.8467V83.3487C179 85.7589 180.047 88.0083 181.946 89.493C196.566 100.927 262.245 150.47 302.546 150.47C333.607 150.47 325.397 95.489 384.087 90.4907C442.777 85.4924 426.644 145.472 464.954 142.14C497.033 139.35 504.169 58.2882 505.642 31.9945Z" fill="black"/>
<mask id="mask0_0_1158" style="mask-type:alpha" maskUnits="userSpaceOnUse" x="179" y="23" width="327" height="128">
<path fill-rule="evenodd" clip-rule="evenodd" d="M505.642 31.9945C505.893 27.5088 502.3 23.8467 497.807 23.8467L187 23.8467C182.582 23.8467 179 27.4284 179 31.8467V83.3487C179 85.7589 180.047 88.0083 181.946 89.493C196.566 100.927 262.245 150.47 302.546 150.47C333.607 150.47 325.397 95.489 384.087 90.4907C442.777 85.4924 426.644 145.472 464.954 142.14C497.033 139.35 504.169 58.2882 505.642 31.9945Z" fill="white"/>
</mask>
<g mask="url(#mask0_0_1158)">
<path d="M393.808 14.7422L503.264 102.828" stroke="white" stroke-width="16" stroke-linecap="round" stroke-linejoin="round"/>
<path d="M418.436 0.978516L527.892 89.0645" stroke="white" stroke-width="8" stroke-linecap="round" stroke-linejoin="round"/>
</g>
<path fill-rule="evenodd" clip-rule="evenodd" d="M161 14.0361L6 44.9996V88.8749L161 73.9995V14.0361Z" fill="black" stroke="black" stroke-width="12" stroke-linecap="round" stroke-linejoin="round"/>

</svg>