<svg width="564px" height="504px" viewBox="0 0 564 504" version="1.1" xmlns="http://www.w3.org/2000/svg" xmlns:xlink="http://www.w3.org/1999/xlink">

    <title>face-4</title>
    <g id="All-customizable-items" stroke="none" stroke-width="1" fill="none" fill-rule="evenodd" stroke-linecap="round" stroke-linejoin="round">
        <g id="Face/-4" transform="translate(-220.000000, -367.000000)" stroke="#000000" stroke-width="24">
            <path d="M532,379 C664.54834,379 772,486.45166 772,619 C772,751.54834 764.54834,899 592,899 C462.715227,899 358.747776,816.220491 314.739381,718.954345 C313.831676,718.98455 312.917642,719 312,719 C267.81722,719 232,683.18278 232,639 C232,599.134956 261.158843,566.080325 299.312086,560.00055 C325.599297,455.979213 419.809919,379 532,379 Z M295.858895,624.545187 L304.141105,655.454813" id="face-4"></path>
        </g>
    </g>

<path fill-rule="evenodd" clip-rule="evenodd" d="M3 11.1564C3 11.1564 31.5687 37.4381 55.1689 32.9068C78.7692 28.3755 68.8322 3 68.8322 3C68.8322 3 83.7377 29.2817 62.6217 37.4381C41.5057 45.5945 3 11.1564 3 11.1564Z" fill="black" stroke="black" stroke-width="6" stroke-linecap="round" stroke-linejoin="round"/>
<path fill-rule="evenodd" clip-rule="evenodd" d="M141 11.1564C141 11.1564 169.569 37.4381 193.169 32.9068C216.769 28.3755 206.832 3 206.832 3C206.832 3 221.738 29.2817 200.622 37.4381C179.506 45.5945 141 11.1564 141 11.1564Z" fill="black" stroke="black" stroke-width="6" stroke-linecap="round" stroke-linejoin="round"/>

    <title>eyebrows-10</title>
    <g id="All-customizable-items" stroke="none" stroke-width="1" fill="none" fill-rule="evenodd" stroke-linecap="round" stroke-linejoin="round">
        <g id="Eyebrows/-10" transform="translate(-513.000000, -472.000000)" fill="#000000" stroke="#000000" stroke-width="16">
            <path d="M757,487.2 C757,494.4 735.666667,494.4 717,494.4 C698.333333,494.4 661,498 661,494.4 C661,490.8 694.986112,480 717,480 L720.27013,480.0009 C740.767534,480.018 757,480.36 757,487.2 Z M561,480 C583.013888,480 617,490.8 617,494.4 C617,498 579.666667,494.4 561,494.4 C542.333333,494.4 521,494.4 521,487.2 C521,480.36 537.232466,480.018 557.72987,480.0009 Z" id="eyebrows-10"></path>
        </g>
    </g>

    <title>mouth-0</title>
    <g id="All-customizable-items" stroke="none" stroke-width="1" fill="none" fill-rule="evenodd" stroke-linecap="round" stroke-linejoin="round">
        <g id="Mouth/-0" transform="translate(-541.000000, -751.000000)" stroke="#000000" stroke-width="16">
            <path d="M549,759 C576.33038,765.666667 599.663714,769 619,769 C638.336286,769 655.002953,765.666667 669,759" id="mouth-0"></path>
        </g>
    </g>

    <title>nose-10</title>
    <g id="All-customizable-items" stroke="none" stroke-width="1" fill="none" fill-rule="evenodd" stroke-linecap="round" stroke-linejoin="round">
        <g id="Nose/-10" transform="translate(-623.000000, -571.000000)" stroke="#000000" stroke-width="16">
            <path d="M631,694.380659 C660.333333,687.46022 678,677.333333 684,664 C693,644 637.033407,606.392531 660.161467,579" id="nose-10"></path>
        </g>
    </g>

<path fill-rule="evenodd" clip-rule="evenodd" d="M317 6.99512H322.802L324.51 7.00856C353.444 7.29145 432.561 10.9436 503 57.0002C581 108 628 239 628 377C628 515 601 574.334 551 689L554.371 672.476L557.478 657.174C581.826 536.961 594 469.57 594 455C594 384 583 323 538 277C525.022 263.734 505.35 249.069 478.985 233.006C457.277 278.471 432.282 309.802 404 327C330 372 281 342 247 377C241.432 382.732 236.066 388.644 230.9 394.738L231.07 399.058L231.244 403.26C234.124 471.641 239.526 527.553 247.449 571C258.75 632.968 286.934 715.301 332 818L326.701 814.514C301.556 797.937 272.274 769.379 252 755C252 755 261.121 784.937 266 797C268.93 804.244 277 827 277 827C277 827 183.876 738.968 159 696C134.124 653.032 92 613 92 613C86.0136 627.362 83.4286 640.778 72 663C60 686.334 28.6667 692 6 720L7.55424 717.082C32.4784 670.153 52.7335 647.008 58 625C58 625 70 575 58 515C46 455 33 439 29 395C25 351 31.6614 287.698 62 215C92.6513 141.553 127.063 93.4714 188.282 53.3314C232.919 24.0641 279.049 6.99512 317 6.99512Z" fill="black" stroke="black" stroke-width="12" stroke-linecap="round" stroke-linejoin="round"/>

</svg>