<svg width="564px" height="504px" viewBox="0 0 564 504" version="1.1" xmlns="http://www.w3.org/2000/svg" xmlns:xlink="http://www.w3.org/1999/xlink">

    <title>face-5</title>
    <g id="All-customizable-items" stroke="none" stroke-width="1" fill="none" fill-rule="evenodd" stroke-linecap="round" stroke-linejoin="round">
        <g id="Face/-5" transform="translate(-220.000000, -367.000000)" stroke="#000000" stroke-width="24">
            <path d="M532,379 C664.54834,379 772,486.45166 772,619 C772,751.54834 704.54834,859 532,859 C405.842528,859 335.866563,801.559592 307.358668,718.866959 C265.336704,716.464588 232,681.625396 232,639 C232,599.134956 261.158843,566.080325 299.312086,560.00055 C325.599297,455.979213 419.809919,379 532,379 Z M295.858895,624.545187 L304.141105,655.454813" id="face-5"></path>
        </g>
    </g>

    <title>eyes-4</title>
    <g id="All-customizable-items" stroke="none" stroke-width="1" fill="none" fill-rule="evenodd">
        <g id="Eyes/-4" transform="translate(-546.000000, -516.000000)" fill="#000000">
            <path d="M570,516 C583.254834,516 594,526.745166 594,540 C594,553.254834 583.254834,564 570,564 C556.745166,564 546,553.254834 546,540 C546,526.745166 556.745166,516 570,516 Z M708,516 C721.254834,516 732,526.745166 732,540 C732,553.254834 721.254834,564 708,564 C694.745166,564 684,553.254834 684,540 C684,526.745166 694.745166,516 708,516 Z M562,526 C558.686292,526 556,528.686292 556,532 C556,535.313708 558.686292,538 562,538 C565.313708,538 568,535.313708 568,532 C568,528.686292 565.313708,526 562,526 Z M700,526 C696.686292,526 694,528.686292 694,532 C694,535.313708 696.686292,538 700,538 C703.313708,538 706,535.313708 706,532 C706,528.686292 703.313708,526 700,526 Z" id="eyes-4"></path>
        </g>
    </g>

<path fill-rule="evenodd" clip-rule="evenodd" d="M162.541 5.00465C162.541 5.00465 208.644 3.21625 221.813 9.14936C234.982 15.0825 233.21 25.4842 233.21 25.4842C233.21 25.4842 226.419 17.9922 217.34 13.3475C208.26 8.70285 162.541 5.00465 162.541 5.00465Z" fill="black" stroke="black" stroke-width="8" stroke-linecap="round" stroke-linejoin="round"/>
<path fill-rule="evenodd" clip-rule="evenodd" d="M75.4591 5.00465C75.4591 5.00465 29.3564 3.21625 16.187 9.14936C3.01764 15.0825 4.78994 25.4842 4.78994 25.4842C4.78994 25.4842 11.5807 17.9922 20.6604 13.3475C29.7401 8.70285 75.4591 5.00465 75.4591 5.00465Z" fill="black" stroke="black" stroke-width="8" stroke-linecap="round" stroke-linejoin="round"/>

<path fill-rule="evenodd" clip-rule="evenodd" d="M24 21.7884C24 21.7884 54.8862 22.6687 70.6667 19.8524C86.4471 17.036 103.704 7.44136 110.784 6.29985C117.863 5.15833 123.883 11.14 125.52 11.14C127.158 11.14 131.251 5.33181 139.439 6.29985C147.626 7.26788 164 21.7884 164 21.7884C164 21.7884 145.17 29.5327 115.696 29.5327C60.8421 32.4368 24 21.7884 24 21.7884Z" stroke="black" stroke-width="12" stroke-linecap="round" stroke-linejoin="round"/>
<path d="M160 25C160 25 145 57 116 57C87 57 34 23 34 23L6 20" stroke="black" stroke-width="12" stroke-linecap="round" stroke-linejoin="round"/>

<path fill-rule="evenodd" clip-rule="evenodd" d="M7.51613 3C7.51613 3 23.2224 5.63746 31 11.9771C44.0598 22.6223 52.9064 43.2557 51.7742 55.5802C49.0645 85.0763 3 86.3588 3 86.3588C3 86.3588 59 91.4886 59 55.5802C59 39.2216 48.4333 21.0647 31 10.6947C22.9217 5.88933 7.51613 3 7.51613 3Z" fill="black" stroke="black" stroke-width="6" stroke-linecap="round" stroke-linejoin="round"/>

    <title>hair-2</title>
    <g id="All-customizable-items" stroke="none" stroke-width="1" fill="none" fill-rule="evenodd" stroke-linecap="round" stroke-linejoin="round">
        <g id="Hairstyle/-2" transform="translate(-247.000000, -192.000000)" fill="#000000" stroke="#000000" stroke-width="12">
            <path d="M636.531474,228.13477 C670.857169,243.665431 725.166891,296.973952 803.404132,362.491755 C816.410437,373.383557 842.942393,382.552972 883,390 C833,450 743,477.333333 613,472 C597.305444,471.356121 543.630254,458.087156 492.399654,439.221249 C490.674088,440.747431 489.403098,442.447013 488.585977,444.319039 C481.862828,459.721787 473.793564,504.295236 452,523 C430.206436,541.704764 398.15684,567.305201 392,580 C387.89544,588.463199 384.89544,616.463199 383,664 C365.62738,629.354885 351.294047,603.688218 340,587 C328.705953,570.311782 314.039287,563.645115 296,567 C252.289371,507.327044 242.173623,447.90566 265.652755,388.735849 C283.709479,343.23106 309.577414,319.996228 343.256562,319.031353 C343.002974,315.496838 343.314634,311.930931 344.17011,308.217487 C349.553099,284.851055 396,239 433,221 C470,203 527.562365,178.831697 636.531474,228.13477 Z" id="hair-2"></path>
        </g>
    </g>

    <title>beard-6</title>
    <g id="All-customizable-items" stroke="none" stroke-width="1" fill="none" fill-rule="evenodd" stroke-linecap="round" stroke-linejoin="round">
        <g id="Beard/-6" transform="translate(-556.000000, -703.000000)" fill="#000000" stroke="#000000" stroke-width="12">
            <path d="M671.118678,718.2216 C669.299174,707.737669 688.858843,708.193492 698.41124,710.016784 C704.779504,711.232312 724.642424,716.246366 758,725.058946 C701.292121,727.490002 672.331681,725.210887 671.118678,718.2216 Z M648.881322,718.2216 C647.668319,725.210887 618.707879,727.490002 562,725.058946 C595.357576,716.246366 615.220496,711.232312 621.58876,710.016784 C631.141157,708.193492 650.700826,707.737669 648.881322,718.2216 Z" id="beard-6"></path>
        </g>
    </g>

<path d="M36.9999 4.00035C36.9999 4.00035 24.5982 20.7645 20.4752 40.7114C16.3522 60.6583 20.5943 74.0122 20.5943 74.0122" stroke="black" stroke-width="8" stroke-linecap="round" stroke-linejoin="round"/>
<path d="M4.45484 64.0772C4.45484 64.0772 2.75625 73.2389 5.81597 81.9079C8.87569 90.5768 14.27 94.9106 14.27 94.9106" stroke="black" stroke-width="6" stroke-linecap="round" stroke-linejoin="round"/>

</svg>