<svg width="564px" height="504px" viewBox="0 0 564 504" version="1.1" xmlns="http://www.w3.org/2000/svg" xmlns:xlink="http://www.w3.org/1999/xlink">

<mask id="path-1-inside-1_0_1046" fill="white">
<path fill-rule="evenodd" clip-rule="evenodd" d="M90.9463 195.941C115.92 97.1191 205.436 24 312 24C437.921 24 540 126.079 540 252C540 264.704 545.103 277.455 549.138 287.538L549.144 287.552C549.693 288.923 550.221 290.244 550.715 291.51C555.415 303.56 557.649 311.842 555.823 319.022C553.939 326.432 552.268 336.168 550.509 346.909C550.176 348.942 549.839 351.021 549.494 353.143L549.493 353.149C547.984 362.446 546.339 372.58 544.36 383.298C539.495 409.658 532.748 438.74 521.729 464.914C510.685 491.145 495.763 513.459 475.149 527.443C454.918 541.167 427.861 547.782 390.368 540.236C342.538 530.609 285.354 505.607 233.493 470.858C181.582 436.076 136.124 392.279 110.718 345.827C108.401 341.592 103.773 339.157 98.9711 339.647C96.6854 339.88 94.3594 340 92 340C54.4446 340 24 309.555 24 272C24 238.126 48.7801 210.017 81.2005 204.851C85.9382 204.096 89.7709 200.592 90.9463 195.941ZM312 0C196.833 0 99.736 77.2452 69.647 182.737C29.6368 192.728 0 228.893 0 272C0 322.81 41.1898 364 92 364C92.477 364 92.9532 363.996 93.4287 363.989C121.806 412.348 168.651 456.301 220.133 490.796C274.013 526.898 334.09 553.391 385.632 563.764C428.49 572.39 462.307 565.155 488.622 547.304C514.554 529.713 531.85 502.727 543.848 474.227C555.871 445.67 562.989 414.591 567.962 387.655C569.992 376.656 571.687 366.212 573.198 356.904L573.199 356.901C573.539 354.803 573.87 352.763 574.194 350.787C575.984 339.85 577.5 331.161 579.083 324.937C583.038 309.382 577.546 294.254 573.074 282.789C572.513 281.35 571.965 279.959 571.433 278.61C567.181 267.823 564 259.753 564 252C564 112.824 451.176 0 312 0ZM87.45 254.439C85.7347 248.038 79.1547 244.239 72.7531 245.954C66.3515 247.669 62.5525 254.249 64.2678 260.651L72.55 291.561C74.2653 297.962 80.8453 301.761 87.2469 300.046C93.6485 298.331 97.4475 291.751 95.7322 285.349L87.45 254.439Z"/>
</mask>
<path d="M90.9463 195.941L67.6778 190.06L90.9463 195.941ZM549.138 287.538L526.856 296.455C526.862 296.47 526.868 296.484 526.874 296.499L549.138 287.538ZM549.144 287.552L571.426 278.635C571.42 278.62 571.414 278.605 571.408 278.59L549.144 287.552ZM550.715 291.51L528.355 300.23L550.715 291.51ZM555.823 319.022L532.564 313.107V313.107L555.823 319.022ZM550.509 346.909L526.824 343.031V343.031L550.509 346.909ZM549.494 353.143L573.145 357.221C573.159 357.144 573.171 357.067 573.184 356.989L549.494 353.143ZM549.493 353.149L525.842 349.071C525.829 349.148 525.816 349.226 525.803 349.303L549.493 353.149ZM544.36 383.298L520.759 378.942V378.942L544.36 383.298ZM521.729 464.914L499.609 455.602V455.602L521.729 464.914ZM475.149 527.443L461.676 507.582L461.675 507.582L475.149 527.443ZM390.368 540.236L385.632 563.764L390.368 540.236ZM233.493 470.858L246.852 450.92L233.493 470.858ZM110.718 345.827L89.6613 357.343L89.6614 357.343L110.718 345.827ZM98.9711 339.647L101.408 363.523H101.408L98.9711 339.647ZM81.2005 204.851L84.9773 228.552L81.2005 204.851ZM69.647 182.737L75.4615 206.022C83.7891 203.943 90.3723 197.574 92.7266 189.32L69.647 182.737ZM93.4287 363.989L114.128 351.842C109.753 344.387 101.706 339.86 93.0622 339.992L93.4287 363.989ZM220.133 490.796L206.774 510.734V510.734L220.133 490.796ZM385.632 563.764L380.897 587.292L385.632 563.764ZM488.622 547.304L502.095 567.166L488.622 547.304ZM543.848 474.227L521.729 464.914L521.729 464.914L543.848 474.227ZM567.962 387.655L544.36 383.298L567.962 387.655ZM573.198 356.904L596.888 360.749C596.912 360.599 596.935 360.448 596.957 360.298L573.198 356.904ZM573.199 356.901L549.509 353.056C549.484 353.206 549.461 353.356 549.44 353.507L573.199 356.901ZM574.194 350.787L550.509 346.909L550.509 346.909L574.194 350.787ZM579.083 324.937L555.823 319.022L555.823 319.022L579.083 324.937ZM573.074 282.789L550.715 291.509L550.715 291.51L573.074 282.789ZM571.433 278.61L593.761 269.809L593.761 269.809L571.433 278.61ZM72.7531 245.954L78.9647 269.136H78.9647L72.7531 245.954ZM87.45 254.439L110.632 248.228V248.228L87.45 254.439ZM64.2678 260.651L41.0856 266.863L64.2678 260.651ZM72.55 291.561L49.3678 297.772H49.3678L72.55 291.561ZM87.2469 300.046L93.4586 323.228H93.4586L87.2469 300.046ZM95.7322 285.349L118.914 279.137L118.914 279.137L95.7322 285.349ZM312 0C194.187 0 95.2798 80.8367 67.6778 190.06L114.215 201.821C136.559 113.402 216.684 48 312 48V0ZM564 252C564 112.824 451.176 0 312 0V48C424.666 48 516 139.334 516 252H564ZM571.42 278.62C567.062 267.73 564 259.297 564 252H516C516 270.111 523.144 287.18 526.856 296.455L571.42 278.62ZM571.408 278.59L571.402 278.576L526.874 296.499L526.88 296.514L571.408 278.59ZM573.074 282.789C572.536 281.408 571.966 279.985 571.426 278.635L526.862 296.469C527.419 297.861 527.907 299.081 528.355 300.23L573.074 282.789ZM579.083 324.937C583.05 309.336 577.502 294.14 573.074 282.789L528.355 300.23C530.592 305.965 531.711 309.505 532.206 311.915C532.655 314.107 532.31 314.102 532.564 313.107L579.083 324.937ZM574.194 350.787C575.984 339.855 577.499 331.163 579.083 324.937L532.564 313.107C530.378 321.7 528.552 332.481 526.824 343.031L574.194 350.787ZM573.184 356.989C573.529 354.863 573.864 352.801 574.194 350.787L526.824 343.031C526.489 345.083 526.148 347.178 525.804 349.298L573.184 356.989ZM573.144 357.227L573.145 357.221L525.843 349.066L525.842 349.071L573.144 357.227ZM567.962 387.655C569.994 376.645 571.678 366.266 573.183 356.994L525.803 349.303C524.29 358.626 522.684 368.515 520.759 378.942L567.962 387.655ZM543.848 474.227C555.871 445.669 562.99 414.59 567.962 387.655L520.759 378.942C515.999 404.726 509.625 431.812 499.609 455.602L543.848 474.227ZM488.622 547.304C514.553 529.714 531.849 502.728 543.848 474.227L499.609 455.602C489.522 479.562 476.974 497.204 461.676 507.582L488.622 547.304ZM385.632 563.764C428.497 572.391 462.312 565.152 488.622 547.304L461.675 507.582C447.523 517.182 427.225 523.173 395.103 516.708L385.632 563.764ZM220.133 490.796C274.013 526.898 334.091 553.391 385.632 563.764L395.103 516.708C350.986 507.828 296.694 484.317 246.852 450.92L220.133 490.796ZM89.6614 357.343C117.541 408.317 166.303 454.727 220.133 490.796L246.852 450.92C196.862 417.425 154.707 376.24 131.774 334.31L89.6614 357.343ZM101.408 363.523C96.6059 364.013 91.9776 361.578 89.6613 357.343L131.774 334.31C124.825 321.605 110.94 314.301 96.5342 315.771L101.408 363.523ZM92 364C95.1716 364 98.3109 363.839 101.408 363.523L96.5343 315.771C95.0599 315.922 93.5472 316 92 316V364ZM0 272C0 322.81 41.1898 364 92 364V316C67.6995 316 48 296.301 48 272H0ZM77.4237 181.15C33.53 188.145 0 226.151 0 272H48C48 250.101 64.0302 231.89 84.9773 228.552L77.4237 181.15ZM67.6778 190.06C68.8533 185.409 72.686 181.905 77.4237 181.15L84.9773 228.552C99.1903 226.287 110.689 215.775 114.215 201.821L67.6778 190.06ZM92.7266 189.32C119.954 93.8607 207.837 24 312 24V-24C185.829 -24 79.518 60.6297 46.5675 176.154L92.7266 189.32ZM24 272C24 240.172 45.8801 213.409 75.4615 206.022L63.8326 159.452C13.3934 172.047 -24 217.614 -24 272H24ZM92 340C54.4446 340 24 309.555 24 272H-24C-24 336.065 27.935 388 92 388V340ZM93.0622 339.992C92.7092 339.997 92.3552 340 92 340V388C92.5988 388 93.1972 387.995 93.7953 387.986L93.0622 339.992ZM233.493 470.858C183.893 437.624 140.099 396.1 114.128 351.842L72.7295 376.136C103.514 428.596 153.41 474.978 206.774 510.734L233.493 470.858ZM390.368 540.236C342.538 530.609 285.354 505.607 233.493 470.858L206.774 510.734C262.672 548.189 325.643 576.172 380.897 587.292L390.368 540.236ZM475.149 527.443C454.922 541.164 427.866 547.783 390.368 540.236L380.897 587.292C429.114 596.997 469.692 589.147 502.095 567.166L475.149 527.443ZM521.729 464.914C510.685 491.147 495.762 513.46 475.149 527.443L502.095 567.166C533.345 545.967 553.015 514.306 565.968 483.539L521.729 464.914ZM544.36 383.298C539.495 409.657 532.748 438.74 521.729 464.914L565.968 483.539C578.994 452.6 586.484 419.526 591.563 392.012L544.36 383.298ZM549.508 353.058C547.993 362.391 546.337 372.59 544.36 383.298L591.563 392.012C593.647 380.721 595.381 370.032 596.888 360.749L549.508 353.058ZM549.44 353.507L549.439 353.509L596.957 360.298L596.957 360.295L549.44 353.507ZM550.509 346.909C550.182 348.904 549.849 350.961 549.509 353.056L596.888 360.746C597.23 358.645 597.558 356.621 597.878 354.665L550.509 346.909ZM555.823 319.022C553.938 326.433 552.267 336.174 550.509 346.909L597.878 354.665C599.702 343.526 601.061 335.889 602.343 330.852L555.823 319.022ZM550.715 291.51C555.387 303.489 557.657 311.812 555.823 319.022L602.342 330.852C608.42 306.952 599.706 285.02 595.434 274.068L550.715 291.51ZM549.105 287.411C549.639 288.766 550.172 290.118 550.715 291.509L595.434 274.068C594.855 272.583 594.291 271.152 593.761 269.809L549.105 287.411ZM540 252C540 265.295 545.426 278.077 549.105 287.411L593.761 269.809C588.936 257.569 588 254.211 588 252H540ZM312 24C437.921 24 540 126.079 540 252H588C588 99.5694 464.431 -24 312 -24V24ZM78.9647 269.136C72.5631 270.852 65.9831 267.053 64.2678 260.651L110.632 248.228C105.486 229.023 85.7462 217.626 66.5414 222.772L78.9647 269.136ZM87.45 254.439C89.1653 260.841 85.3663 267.421 78.9647 269.136L66.5414 222.772C47.3366 227.918 35.9397 247.658 41.0856 266.863L87.45 254.439ZM95.7322 285.349L87.45 254.439L41.0856 266.863L49.3678 297.772L95.7322 285.349ZM81.0353 276.864C87.4369 275.148 94.0169 278.947 95.7322 285.349L49.3678 297.772C54.5137 316.977 74.2537 328.374 93.4586 323.228L81.0353 276.864ZM72.55 291.561C70.8347 285.159 74.6337 278.579 81.0353 276.864L93.4586 323.228C112.663 318.082 124.06 298.342 118.914 279.137L72.55 291.561ZM64.2678 260.651L72.55 291.561L118.914 279.137L110.632 248.228L64.2678 260.651Z" fill="black" mask="url(#path-1-inside-1_0_1046)"/>

    <title>eyes-7</title>
    <g id="All-customizable-items" stroke="none" stroke-width="1" fill="none" fill-rule="evenodd">
        <g id="Eyes/-7" transform="translate(-554.000000, -516.000000)" fill="#000000">
            <path d="M570,516 C578.836556,516 586,526.745166 586,540 C586,553.254834 578.836556,564 570,564 C561.163444,564 554,553.254834 554,540 C554,526.745166 561.163444,516 570,516 Z M708,516 C716.836556,516 724,526.745166 724,540 C724,553.254834 716.836556,564 708,564 C699.163444,564 692,553.254834 692,540 C692,526.745166 699.163444,516 708,516 Z M568,527 C564.686292,527 562,529.686292 562,533 C562,536.313708 564.686292,539 568,539 C571.313708,539 574,536.313708 574,533 C574,529.686292 571.313708,527 568,527 Z M706,527 C702.686292,527 700,529.686292 700,533 C700,536.313708 702.686292,539 706,539 C709.313708,539 712,536.313708 712,533 C712,529.686292 709.313708,527 706,527 Z" id="eyes-7"></path>
        </g>
    </g>

    <title>eyebrows-8</title>
    <g id="All-customizable-items" stroke="none" stroke-width="1" fill="none" fill-rule="evenodd" stroke-linecap="round" stroke-linejoin="round">
        <g id="Eyebrows/-8" transform="translate(-522.000000, -482.000000)" stroke="#000000" stroke-width="16">
            <g id="eyebrows-8" transform="translate(530.000000, 490.000000)">
                <path d="M64,10 C59.1947065,3.33333333 51.1947065,0 40,0 C28.8052935,0 15.4719602,3.33333333 0,10" id="Path"></path>
                <path d="M218,10 C213.194706,3.33333333 205.194706,0 194,0 C182.805294,0 169.47196,3.33333333 154,10" id="Path" transform="translate(186.000000, 5.000000) scale(-1, 1) translate(-186.000000, -5.000000) "></path>
            </g>
        </g>
    </g>

    <title>mouth-10</title>
    <g id="All-customizable-items" stroke="none" stroke-width="1" fill="none" fill-rule="evenodd" stroke-linecap="round" stroke-linejoin="round">
        <g id="Mouth/-10" transform="translate(-541.000000, -751.000000)" stroke="#000000" stroke-width="16">
            <path d="M549,759 C576.33038,765.666667 599.663714,769 619,769 C638.336286,769 655.002953,765.666667 669,759 C656.33038,792.333333 632.997047,809 599,809 C565.002953,809 548.336286,792.333333 549,759 Z" id="mouth-10"></path>
        </g>
    </g>

<path fill-rule="evenodd" clip-rule="evenodd" d="M7.51613 3C7.51613 3 23.2224 5.63746 31 11.9771C44.0598 22.6223 52.9064 43.2557 51.7742 55.5802C49.0645 85.0763 3 86.3588 3 86.3588C3 86.3588 59 91.4886 59 55.5802C59 39.2216 48.4333 21.0647 31 10.6947C22.9217 5.88933 7.51613 3 7.51613 3Z" fill="black" stroke="black" stroke-width="6" stroke-linecap="round" stroke-linejoin="round"/>

    <title>hair-17</title>
    <g id="All-customizable-items" stroke="none" stroke-width="1" fill="none" fill-rule="evenodd" stroke-linecap="round" stroke-linejoin="round">
        <g id="Hairstyle/-17" transform="translate(-350.000000, -284.000000)" fill="#000000" stroke="#000000" stroke-width="12">
            <path d="M689,291 C695,322.333333 698,353.666667 698,385 C698,416.333333 693.333333,434.666667 684,440 C640.666667,406 587.666667,389 525,389 C431,389 374.714286,443.632653 361,458 C356.333333,428 353.666667,417.666667 361,399 C375.510786,362.063453 397,357 425,344 C445.058836,334.686969 505.097784,322.392379 561,306 C598.268144,295.071747 640.93481,290.071747 689,291 Z" id="hair-17"></path>
        </g>
    </g>

<path d="M170.512 10.3241L165 26.4196" stroke="black" stroke-width="20" stroke-linecap="round" stroke-linejoin="round"/>
<path d="M141 10.3241L135.487 26.4196" stroke="black" stroke-width="20" stroke-linecap="round" stroke-linejoin="round"/>
<path d="M111.487 18.6962L105.974 34.7917" stroke="black" stroke-width="20" stroke-linecap="round" stroke-linejoin="round"/>
<path d="M81.9746 26.2316L75.3593 45.5463" stroke="black" stroke-width="20" stroke-linecap="round" stroke-linejoin="round"/>
<path d="M194.488 10.3241L200 26.4196" stroke="black" stroke-width="20" stroke-linecap="round" stroke-linejoin="round"/>
<path d="M224 10.3241L229.513 26.4196" stroke="black" stroke-width="20" stroke-linecap="round" stroke-linejoin="round"/>
<path d="M253.513 18.6962L259.026 34.7917" stroke="black" stroke-width="20" stroke-linecap="round" stroke-linejoin="round"/>
<path fill-rule="evenodd" clip-rule="evenodd" d="M141 86C141 86 154.517 88.0645 167.347 88.0645C180.176 88.0645 193 86 193 86C193 86 183 93 179.747 97.4516C176.493 101.903 172.2 105 167 105C161.8 105 158.893 101.903 154.947 97.4516C151 93 141 86 141 86Z" fill="black" stroke="black" stroke-width="12" stroke-linecap="round" stroke-linejoin="round"/>
<path fill-rule="evenodd" clip-rule="evenodd" d="M6 124C6 124 16.3128 138.31 20.8686 143C31.8385 154.293 39.3662 158.334 41.0474 160C40.8463 158.731 30.8152 121.294 33.1876 116.907C33.1876 116.907 44.7137 133.238 48.5008 137.933L49.2674 138.876C53.1537 143.618 59.0748 150.33 67.0308 159.011C71.3927 161.217 75.7914 163.101 80.2271 164.664C79.8599 164.111 79.5443 163.558 79.281 163C78.1403 160.583 77.4323 156.917 77.1569 152L79.5934 153.172C88.3797 157.379 95.5434 160.589 101.085 162.802L102.423 163.329C107.294 165.225 114.161 167.653 123.023 170.611L125.311 170.12C132.277 168.616 137.793 167.323 141.861 166.24L142.913 165.956C149.162 164.25 157.368 161.639 167.53 158.125C166.973 161.094 166.315 163.579 165.558 165.58C169.576 164.642 173.593 163.576 177.605 162.383L180.88 160.263C188.49 155.317 194.294 151.385 198.295 148.465L199.158 147.831C204.272 144.045 210.842 138.73 218.866 131.887C219.952 136.704 220.825 150.212 220.533 151C243.376 139.084 274.355 116.318 297 96C296.027 103.405 277.708 161.71 218.409 193C190.032 207.973 153.175 210 102.646 210C8.28544 210 6 124 6 124Z" fill="black" stroke="black" stroke-width="12" stroke-linecap="round" stroke-linejoin="round"/>

    <title>glasses-4</title>
    <g id="All-customizable-items" stroke="none" stroke-width="1" fill="none" fill-rule="evenodd" stroke-linecap="round" stroke-linejoin="round">
        <g id="Glasses/-4" transform="translate(-287.000000, -477.000000)" fill="#000000" stroke="#000000" stroke-width="4">
            <g id="glasses-4" transform="translate(289.000000, 479.000000)">
                <path d="M229.149255,4.2334278 C247.672154,8.12981325 283.261021,21.6236388 324.690343,35.0615291 L325.464481,35.3078466 C331.11768,37.0729902 339.032765,38.8353007 349.209737,40.594778 L349.209737,57.984989 C344.161954,60.5093754 341.061801,62.8807678 339.909277,65.0991662 C325.535839,92.7654109 298.479956,110.946086 257.050634,101.460516 C200.767297,88.5740028 181.801459,20.8331746 180.110466,9.76667675 C178.419474,-1.29982114 196.205221,-2.69651627 229.149255,4.2334278 Z M519.889534,9.76667675 C518.198541,20.8331746 499.232703,88.5740028 442.949366,101.460516 C401.520044,110.946086 374.464161,92.7654109 360.090723,65.0991662 C358.969348,62.9407245 356.004199,60.637447 351.195275,58.1893337 L350.790263,57.984989 L350.790263,40.594778 L352.195626,40.3492512 C362.16219,38.5895103 369.866867,36.8269363 375.309657,35.0615291 L377.788318,34.2552658 C418.155707,21.0877247 452.698304,8.05188555 470.850745,4.2334278 L472.809163,3.82763387 C504.498419,-2.63678054 521.546707,-1.07849118 519.889534,9.76667675 Z M213.93032,27.1568877 C197.020393,46.9184911 229.149255,89.6035544 261.278116,97.5081958 C293.406978,105.412837 334.836299,80.9084489 327.226832,57.984989 C319.617364,35.0615291 239.295211,8.97621262 213.93032,27.1568877 Z M486.06968,27.1568877 C460.704789,8.97621262 380.382636,35.0615291 372.773168,57.984989 C365.163701,80.9084489 406.593022,105.412837 438.721884,97.5081958 C470.850745,89.6035544 502.979607,46.9184911 486.06968,27.1568877 Z" id="Combined-Shape"></path>
                <polygon id="Path" points="199 30 4 62 0 71 199 51"></polygon>
            </g>
        </g>
    </g>

    <title>accessories-4</title>
    <g id="All-customizable-items" stroke="none" stroke-width="1" fill="none" fill-rule="evenodd" stroke-linecap="round" stroke-linejoin="round">
        <g id="Accessories/-4" transform="translate(-244.000000, -685.000000)" fill="#FFFFFF" stroke="#000000" stroke-width="12">
            <g id="Path-2" transform="translate(250.000000, 691.000000)">
                <polygon points="50 1.42219569e-12 -2.45359288e-14 70 50 140 100 70"></polygon>
                <polygon points="50 35 25 70 50 105 75 70"></polygon>
                <line x1="50" y1="35" x2="50" y2="0" id="Path-3"></line>
                <line x1="50" y1="140" x2="50" y2="105" id="Path-3"></line>
                <line x1="75" y1="70" x2="100" y2="70" id="Path-4"></line>
                <line x1="0" y1="70" x2="25" y2="70" id="Path-4"></line>
            </g>
        </g>
    </g>

</svg>