<svg width="564px" height="504px" viewBox="0 0 564 504" version="1.1" xmlns="http://www.w3.org/2000/svg" xmlns:xlink="http://www.w3.org/1999/xlink">

<mask id="path-1-inside-1_0_1054" fill="white">
<path fill-rule="evenodd" clip-rule="evenodd" d="M90.9463 195.941C115.92 97.1191 205.436 24 312 24C437.921 24 540 126.079 540 252C540 264.704 545.103 277.455 549.138 287.538L549.144 287.552C549.693 288.923 550.221 290.244 550.715 291.51C555.415 303.56 557.649 311.842 555.823 319.022C553.939 326.432 552.268 336.168 550.509 346.909C550.176 348.942 549.839 351.021 549.494 353.143L549.493 353.149C547.984 362.446 546.339 372.58 544.36 383.298C539.495 409.658 532.748 438.74 521.729 464.914C510.685 491.145 495.763 513.459 475.149 527.443C454.918 541.167 427.861 547.782 390.368 540.236C377.18 537.582 363.483 535.156 350.007 532.769L350.007 532.769C348.396 532.484 346.789 532.199 345.186 531.915C330.095 529.237 315.371 526.577 301.638 523.614C273.472 517.536 251.958 510.635 240.414 501.564C227.53 491.441 200.564 462.573 173.525 430.393C146.551 398.291 121.07 364.755 110.718 345.827C108.401 341.592 103.773 339.157 98.9711 339.647C96.6854 339.88 94.3594 340 92 340C54.4446 340 24 309.555 24 272C24 238.126 48.7801 210.017 81.2005 204.851C85.9382 204.096 89.7709 200.592 90.9463 195.941ZM312 0C196.833 0 99.736 77.2452 69.647 182.737C29.6368 192.728 0 228.893 0 272C0 322.81 41.1898 364 92 364C92.5048 364 93.0088 363.996 93.512 363.988C106.573 385.476 130.857 416.92 155.15 445.833C182.021 477.813 210.47 508.559 225.586 520.436C242.042 533.365 268.837 541.089 296.576 547.074C310.796 550.142 325.923 552.872 340.993 555.546C342.596 555.83 344.199 556.114 345.799 556.398C359.32 558.792 372.733 561.168 385.632 563.764C428.49 572.39 462.307 565.155 488.622 547.304C514.554 529.713 531.85 502.727 543.848 474.227C555.871 445.67 562.989 414.591 567.962 387.655C569.992 376.656 571.687 366.212 573.198 356.904L573.199 356.901C573.539 354.803 573.87 352.763 574.194 350.787C575.984 339.85 577.5 331.161 579.083 324.937C583.038 309.382 577.546 294.254 573.074 282.789C572.513 281.35 571.965 279.959 571.433 278.61C567.181 267.823 564 259.753 564 252C564 112.824 451.176 0 312 0ZM87.45 254.439C85.7347 248.038 79.1547 244.239 72.7531 245.954C66.3515 247.669 62.5525 254.249 64.2678 260.651L72.55 291.561C74.2653 297.962 80.8453 301.761 87.2469 300.046C93.6485 298.331 97.4475 291.751 95.7322 285.349L87.45 254.439Z"/>
</mask>
<path d="M90.9463 195.941L67.6778 190.06L90.9463 195.941ZM549.138 287.538L526.856 296.455C526.862 296.47 526.868 296.484 526.874 296.499L549.138 287.538ZM549.144 287.552L571.426 278.635C571.42 278.62 571.414 278.605 571.408 278.59L549.144 287.552ZM550.715 291.51L528.355 300.23L550.715 291.51ZM555.823 319.022L532.564 313.107V313.107L555.823 319.022ZM550.509 346.909L526.824 343.031V343.031L550.509 346.909ZM549.494 353.143L573.145 357.221C573.159 357.144 573.171 357.067 573.184 356.989L549.494 353.143ZM549.493 353.149L525.842 349.071C525.829 349.148 525.816 349.226 525.803 349.303L549.493 353.149ZM544.36 383.298L520.759 378.942V378.942L544.36 383.298ZM521.729 464.914L499.609 455.602V455.602L521.729 464.914ZM475.149 527.443L461.676 507.582L461.675 507.582L475.149 527.443ZM390.368 540.236L385.632 563.764H385.632L390.368 540.236ZM350.007 532.769L343.414 555.846C344.207 556.073 345.01 556.258 345.822 556.402L350.007 532.769ZM350.007 532.769L356.6 509.693C355.807 509.466 355.003 509.281 354.192 509.137L350.007 532.769ZM345.186 531.915L349.379 508.284H349.379L345.186 531.915ZM301.638 523.614L296.576 547.074H296.576L301.638 523.614ZM240.414 501.564L225.586 520.436H225.586L240.414 501.564ZM173.525 430.393L191.9 414.954V414.954L173.525 430.393ZM110.718 345.827L89.6613 357.343L89.6614 357.343L110.718 345.827ZM98.9711 339.647L101.408 363.523H101.408L98.9711 339.647ZM81.2005 204.851L84.9773 228.552L81.2005 204.851ZM69.647 182.737L75.4615 206.022C83.7891 203.943 90.3723 197.574 92.7266 189.32L69.647 182.737ZM93.512 363.988L114.02 351.522C109.595 344.242 101.643 339.853 93.1248 339.991L93.512 363.988ZM155.15 445.833L173.525 430.393H173.525L155.15 445.833ZM225.586 520.436L240.414 501.564L225.586 520.436ZM296.576 547.074L301.638 523.614L296.576 547.074ZM340.993 555.546L345.186 531.915H345.186L340.993 555.546ZM345.799 556.398L341.614 580.03L341.614 580.03L345.799 556.398ZM385.632 563.764L380.897 587.292H380.897L385.632 563.764ZM488.622 547.304L502.095 567.166L488.622 547.304ZM543.848 474.227L521.729 464.914L521.729 464.914L543.848 474.227ZM567.962 387.655L544.36 383.298L567.962 387.655ZM573.198 356.904L596.888 360.749C596.912 360.599 596.935 360.448 596.957 360.298L573.198 356.904ZM573.199 356.901L549.509 353.056C549.484 353.206 549.461 353.356 549.44 353.507L573.199 356.901ZM574.194 350.787L550.509 346.909L550.509 346.909L574.194 350.787ZM579.083 324.937L555.823 319.022L555.823 319.022L579.083 324.937ZM573.074 282.789L550.715 291.509L550.715 291.51L573.074 282.789ZM571.433 278.61L593.761 269.809L593.761 269.809L571.433 278.61ZM72.7531 245.954L78.9647 269.136H78.9647L72.7531 245.954ZM87.45 254.439L110.632 248.228V248.228L87.45 254.439ZM64.2678 260.651L41.0856 266.863L64.2678 260.651ZM72.55 291.561L49.3678 297.772H49.3678L72.55 291.561ZM87.2469 300.046L93.4586 323.228H93.4586L87.2469 300.046ZM95.7322 285.349L118.914 279.137L118.914 279.137L95.7322 285.349ZM312 0C194.187 0 95.2798 80.8367 67.6778 190.06L114.215 201.821C136.559 113.402 216.684 48 312 48V0ZM564 252C564 112.824 451.176 0 312 0V48C424.666 48 516 139.334 516 252H564ZM571.42 278.62C567.062 267.73 564 259.297 564 252H516C516 270.111 523.144 287.18 526.856 296.455L571.42 278.62ZM571.408 278.59L571.402 278.576L526.874 296.499L526.88 296.514L571.408 278.59ZM573.074 282.789C572.536 281.408 571.966 279.985 571.426 278.635L526.862 296.469C527.419 297.861 527.907 299.081 528.355 300.23L573.074 282.789ZM579.083 324.937C583.05 309.336 577.502 294.14 573.074 282.789L528.355 300.23C530.592 305.965 531.711 309.505 532.206 311.915C532.655 314.107 532.31 314.102 532.564 313.107L579.083 324.937ZM574.194 350.787C575.984 339.855 577.499 331.163 579.083 324.937L532.564 313.107C530.378 321.7 528.552 332.481 526.824 343.031L574.194 350.787ZM573.184 356.989C573.529 354.863 573.864 352.801 574.194 350.787L526.824 343.031C526.489 345.083 526.148 347.178 525.804 349.298L573.184 356.989ZM573.144 357.227L573.145 357.221L525.843 349.066L525.842 349.071L573.144 357.227ZM567.962 387.655C569.994 376.645 571.678 366.266 573.183 356.994L525.803 349.303C524.29 358.626 522.684 368.515 520.759 378.942L567.962 387.655ZM543.848 474.227C555.871 445.669 562.99 414.59 567.962 387.655L520.759 378.942C515.999 404.726 509.625 431.812 499.609 455.602L543.848 474.227ZM488.622 547.304C514.553 529.714 531.849 502.728 543.848 474.227L499.609 455.602C489.522 479.562 476.974 497.204 461.676 507.582L488.622 547.304ZM385.632 563.764C428.497 572.391 462.312 565.152 488.622 547.304L461.675 507.582C447.523 517.182 427.225 523.173 395.103 516.708L385.632 563.764ZM345.822 556.402C359.35 558.797 372.766 561.175 385.632 563.764L395.103 516.708C381.593 513.989 367.617 511.515 354.192 509.137L345.822 556.402ZM343.413 555.846L343.414 555.846L356.6 509.693L356.6 509.693L343.413 555.846ZM340.993 555.546C342.6 555.831 344.211 556.116 345.821 556.402L354.192 509.137C352.581 508.852 350.977 508.568 349.379 508.284L340.993 555.546ZM296.576 547.074C310.796 550.142 325.923 552.872 340.993 555.546L349.379 508.284C334.267 505.603 319.946 503.012 306.7 500.154L296.576 547.074ZM225.586 520.436C234.372 527.339 245.483 532.381 256.866 536.365C268.516 540.441 282.002 543.929 296.576 547.074L306.7 500.154C293.108 497.221 281.754 494.219 272.719 491.058C263.418 487.804 258 484.86 255.242 482.693L225.586 520.436ZM155.15 445.832C182.018 477.809 210.469 508.558 225.586 520.436L255.242 482.693C244.59 474.324 219.11 447.338 191.9 414.954L155.15 445.832ZM89.6614 357.343C101.29 378.604 128.216 413.777 155.15 445.833L191.9 414.954C164.887 382.806 140.851 350.906 131.774 334.31L89.6614 357.343ZM101.408 363.523C96.6059 364.013 91.9776 361.578 89.6613 357.343L131.774 334.31C124.825 321.605 110.94 314.301 96.5342 315.771L101.408 363.523ZM92 364C95.1716 364 98.3109 363.839 101.408 363.523L96.5343 315.771C95.0599 315.922 93.5472 316 92 316V364ZM0 272C0 322.81 41.1898 364 92 364V316C67.6995 316 48 296.301 48 272H0ZM77.4237 181.15C33.53 188.145 0 226.151 0 272H48C48 250.101 64.0302 231.89 84.9773 228.552L77.4237 181.15ZM67.6778 190.06C68.8533 185.409 72.686 181.905 77.4237 181.15L84.9773 228.552C99.1903 226.287 110.689 215.775 114.215 201.821L67.6778 190.06ZM92.7266 189.32C119.954 93.8607 207.837 24 312 24V-24C185.829 -24 79.518 60.6297 46.5675 176.154L92.7266 189.32ZM24 272C24 240.172 45.8801 213.409 75.4615 206.022L63.8326 159.452C13.3934 172.047 -24 217.614 -24 272H24ZM92 340C54.4446 340 24 309.555 24 272H-24C-24 336.065 27.935 388 92 388V340ZM93.1248 339.991C92.7502 339.997 92.3752 340 92 340V388C92.6344 388 93.2675 387.995 93.8991 387.985L93.1248 339.991ZM173.525 430.393C149.379 401.656 126.083 371.367 114.02 351.522L73.0036 376.454C87.0634 399.584 112.335 432.184 136.775 461.272L173.525 430.393ZM240.414 501.564C227.528 491.44 200.56 462.569 173.525 430.393L136.775 461.272C163.483 493.057 193.413 525.679 210.758 539.307L240.414 501.564ZM301.638 523.614C273.5 517.542 251.967 510.642 240.414 501.564L210.758 539.307C232.117 556.089 264.175 564.635 291.514 570.534L301.638 523.614ZM345.186 531.915C330.095 529.237 315.371 526.577 301.638 523.614L291.514 570.534C306.22 573.707 321.751 576.506 336.8 579.177L345.186 531.915ZM349.985 532.766C348.383 532.482 346.785 532.199 345.186 531.915L336.8 579.177C338.407 579.462 340.014 579.747 341.614 580.03L349.985 532.766ZM390.368 540.236C377.146 537.575 363.452 535.151 349.985 532.766L341.614 580.03C355.189 582.434 368.321 584.761 380.897 587.292L390.368 540.236ZM475.149 527.443C454.922 541.164 427.866 547.783 390.368 540.236L380.897 587.292C429.114 596.997 469.692 589.147 502.095 567.166L475.149 527.443ZM521.729 464.914C510.685 491.147 495.762 513.46 475.149 527.443L502.095 567.166C533.345 545.967 553.015 514.306 565.968 483.539L521.729 464.914ZM544.36 383.298C539.495 409.657 532.748 438.74 521.729 464.914L565.968 483.539C578.994 452.6 586.484 419.526 591.563 392.012L544.36 383.298ZM549.508 353.058C547.993 362.391 546.337 372.59 544.36 383.298L591.563 392.012C593.647 380.721 595.381 370.032 596.888 360.749L549.508 353.058ZM549.44 353.507L549.439 353.509L596.957 360.298L596.957 360.295L549.44 353.507ZM550.509 346.909C550.182 348.904 549.849 350.961 549.509 353.056L596.888 360.746C597.23 358.645 597.558 356.621 597.878 354.665L550.509 346.909ZM555.823 319.022C553.938 326.433 552.267 336.174 550.509 346.909L597.878 354.665C599.702 343.526 601.061 335.889 602.343 330.852L555.823 319.022ZM550.715 291.51C555.387 303.489 557.657 311.812 555.823 319.022L602.342 330.852C608.42 306.952 599.706 285.02 595.434 274.068L550.715 291.51ZM549.105 287.411C549.639 288.766 550.172 290.118 550.715 291.509L595.434 274.068C594.855 272.583 594.291 271.152 593.761 269.809L549.105 287.411ZM540 252C540 265.295 545.426 278.077 549.105 287.411L593.761 269.809C588.936 257.569 588 254.211 588 252H540ZM312 24C437.921 24 540 126.079 540 252H588C588 99.5694 464.431 -24 312 -24V24ZM78.9647 269.136C72.5631 270.852 65.9831 267.053 64.2678 260.651L110.632 248.228C105.486 229.023 85.7462 217.626 66.5414 222.772L78.9647 269.136ZM87.45 254.439C89.1653 260.841 85.3663 267.421 78.9647 269.136L66.5414 222.772C47.3366 227.918 35.9397 247.658 41.0856 266.863L87.45 254.439ZM95.7322 285.349L87.45 254.439L41.0856 266.863L49.3678 297.772L95.7322 285.349ZM81.0353 276.864C87.4369 275.148 94.0169 278.947 95.7322 285.349L49.3678 297.772C54.5137 316.977 74.2537 328.374 93.4586 323.228L81.0353 276.864ZM72.55 291.561C70.8347 285.159 74.6337 278.579 81.0353 276.864L93.4586 323.228C112.663 318.082 124.06 298.342 118.914 279.137L72.55 291.561ZM64.2678 260.651L72.55 291.561L118.914 279.137L110.632 248.228L64.2678 260.651Z" fill="black" mask="url(#path-1-inside-1_0_1054)"/>

    <title>eyes-1</title>
    <g id="All-customizable-items" stroke="none" stroke-width="1" fill="none" fill-rule="evenodd">
        <g id="Eyes/-1" transform="translate(-544.000000, -507.000000)">
            <g id="eyes-1" transform="translate(546.000000, 509.000000)">
                <path d="M24,7 C37.254834,7 48,17.745166 48,31 C48,44.254834 37.254834,55 24,55 C10.745166,55 0,44.254834 0,31 C0,17.745166 10.745166,7 24,7 Z M162,7 C175.254834,7 186,17.745166 186,31 C186,44.254834 175.254834,55 162,55 C148.745166,55 138,44.254834 138,31 C138,17.745166 148.745166,7 162,7 Z" id="Combined-Shape" fill="#000000"></path>
                <g id="Group" stroke="#000000" stroke-linecap="round" stroke-linejoin="round" stroke-width="4">
                    <path d="M0,7 C8,2.33333333 16,0 24,0 C32,0 40,2.33333333 48,7" id="Path"></path>
                    <path d="M138,7 C146,2.33333333 154,0 162,0 C170,0 178,2.33333333 186,7" id="Path"></path>
                </g>
            </g>
        </g>
    </g>

<path fill-rule="evenodd" clip-rule="evenodd" d="M122.289 31.1239C122.289 31.1239 122.95 18.5166 119.376 16.6981C115.802 14.8796 58.6832 2.09875 42.1177 3.13368C25.5523 4.16861 2.75229 19.1499 2.75229 19.1499C2.75229 19.1499 26.2598 10.0692 47.1786 12.1669C68.0975 14.2646 122.289 31.1239 122.289 31.1239Z" fill="black" stroke="black" stroke-width="4" stroke-linecap="round" stroke-linejoin="round"/>
<path fill-rule="evenodd" clip-rule="evenodd" d="M154.711 31.1239C154.711 31.1239 154.05 18.5166 157.624 16.6981C161.198 14.8796 218.317 2.09875 234.882 3.13368C251.448 4.16861 274.248 19.1499 274.248 19.1499C274.248 19.1499 250.74 10.0692 229.821 12.1669C208.902 14.2646 154.711 31.1239 154.711 31.1239Z" fill="black" stroke="black" stroke-width="4" stroke-linecap="round" stroke-linejoin="round"/>

<path d="M32 40C32 40 103.931 44.393 127.066 39.8696C150.202 35.3462 191 19 191 19" stroke="black" stroke-width="16" stroke-linecap="round" stroke-linejoin="round"/>
<path d="M172 31C172 31 172 60.0426 142.943 68.3404C113.886 76.6383 59 43.4468 59 43.4468" stroke="black" stroke-width="16" stroke-linecap="round" stroke-linejoin="round"/>
<path d="M9.34763 57.3856C9.34763 57.3856 3.05252 47.5217 7.44585 34.3999C11.8392 21.2782 23.4387 15.2993 23.4387 15.2993" stroke="black" stroke-width="6" stroke-linecap="round" stroke-linejoin="round"/>
<path d="M215.499 22.6676C215.499 22.6676 218.478 18.1281 216.342 12.0527C214.205 5.97736 208.647 3.18167 208.647 3.18167" stroke="black" stroke-width="6" stroke-linecap="round" stroke-linejoin="round"/>

    <title>nose-7</title>
    <g id="All-customizable-items" stroke="none" stroke-width="1" fill="none" fill-rule="evenodd" stroke-linecap="round" stroke-linejoin="round">
        <g id="Nose/-7" transform="translate(-641.000000, -592.000000)" stroke="#000000" stroke-width="16">
            <path d="M649,600 C669,606.666667 679,620 679,640 C679,660 669,673.333333 649,680" id="nose-7"></path>
        </g>
    </g>

<path fill-rule="evenodd" clip-rule="evenodd" d="M223.001 30.9999C270.761 1.34638 335.39 -1.59318 416.889 22.1813L418.14 21.6503C438.829 12.9486 471.441 3.05908 518.001 28.9999C588.001 67.9999 595.98 140.101 622.001 144C640.46 146.766 646.56 192.498 663.001 234C669.104 249.404 708.001 259 708.001 259L663.001 278C663.001 278 672.927 288.092 686.001 296C697.33 302.852 717.001 327 717.001 327C717.001 327 674.793 334.748 669.001 347C665.892 353.577 702.405 361.103 713.001 405C727.001 463 680.99 543.03 709.953 560.495C723.072 568.406 757.953 590.495 757.953 590.495C757.953 590.495 705.775 642.051 681.953 635.495C645.135 625.363 597.953 590.495 597.953 590.495C597.953 590.495 609.409 457.557 605.001 382C601.916 329.103 587.184 271.788 573.001 250C538.561 197.091 468.001 144 381.001 144C314.08 144 309.925 182.463 309.925 182.463C306.119 203.727 306.116 226.946 291.001 259C264.775 314.618 172.05 352.505 172.05 381.505C172.05 410.505 181.05 411.505 181.05 427.505C181.05 443.505 169.02 451.862 172.05 473.505C174.07 487.933 185.021 561.095 201.001 582C173.475 609.867 147.808 627.534 124.001 635C100.195 642.466 69.5279 642.466 32.0013 635C41.3071 626.655 47.9738 618.989 52.0013 612L52.393 611.308C56.3305 604.232 60.8666 592.462 66.0013 576C59.6984 582.705 53.365 587.371 47.0013 590C40.6375 592.628 31.6375 594.295 20.0013 595L22.0031 592.564C27.3626 586.017 31.5205 580.735 34.477 576.717L35.4337 575.408C40.2515 568.846 44.6276 563.7 42.0013 553C39.2966 541.981 4.57252 443.372 6.04971 410.505C7.03451 388.593 17.7012 356.259 38.0497 313.505C34.5862 317.378 30.5862 320.378 26.0497 322.505C21.5132 324.631 14.8465 326.631 6.04971 328.505L7.28974 327.4C18.1209 317.712 25.7075 309.746 30.0497 303.505C34.5558 297.027 37.2224 290.027 38.0497 282.505C31.855 284.314 26.855 284.98 23.0497 284.505C19.2445 284.029 13.5778 282.029 6.04971 278.505L7.34467 277.889C15.8635 273.82 22.0986 270.358 26.0497 267.505C30.1984 264.508 35.5318 259.508 42.0497 252.505L43.221 249.969C62.2757 208.815 77.5519 180.661 89.0497 165.505C121.199 123.126 155.722 97.4076 185.05 75.5045C201.26 63.3984 209.717 39.2479 223.001 30.9999Z" fill="black" stroke="black" stroke-width="12" stroke-linecap="round" stroke-linejoin="round"/>

    <title>glasses-0</title>
    <path
        d="m32,8c-13.25,0-24,10.75-24,24s10.75,24,24,24,24-10.75,24-24-10.75-24-24-24Zm0,42c-9.94,0-18-8.06-18-18,0-3.89,1.24-7.48,3.34-10.42l25.08,25.08c-2.94,2.09-6.53,3.34-10.42,3.34Zm14.66-7.58l-25.08-25.08c2.94-2.09,6.53-3.34,10.42-3.34,9.94,0,18,8.06,18,18,0,3.89-1.24,7.48-3.34,10.42Z"
        fill="#000" />

</svg>