<svg width="564px" height="504px" viewBox="0 0 564 504" version="1.1" xmlns="http://www.w3.org/2000/svg" xmlns:xlink="http://www.w3.org/1999/xlink">

    <title>face-8</title>
    <g id="All-customizable-items" stroke="none" stroke-width="1" fill="none" fill-rule="evenodd" stroke-linecap="round" stroke-linejoin="round">
        <g id="Face/-8" transform="translate(-220.000000, -367.000000)" stroke="#000000" stroke-width="24">
            <path d="M532,379 C664.54834,379 772,486.45166 772,619 C772,751.54834 724.54834,899 592,899 C492.560218,899 373.476049,816.010833 320.189513,718.584987 C317.498129,718.859681 314.765451,719 312,719 C267.81722,719 232,683.18278 232,639 C232,599.134956 261.158843,566.080325 299.312086,560.00055 C325.599297,455.979213 419.809919,379 532,379 Z M295.858895,624.545187 L304.141105,655.454813" id="face-8"></path>
        </g>
    </g>

    <title>eyes-4</title>
    <g id="All-customizable-items" stroke="none" stroke-width="1" fill="none" fill-rule="evenodd">
        <g id="Eyes/-4" transform="translate(-546.000000, -516.000000)" fill="#000000">
            <path d="M570,516 C583.254834,516 594,526.745166 594,540 C594,553.254834 583.254834,564 570,564 C556.745166,564 546,553.254834 546,540 C546,526.745166 556.745166,516 570,516 Z M708,516 C721.254834,516 732,526.745166 732,540 C732,553.254834 721.254834,564 708,564 C694.745166,564 684,553.254834 684,540 C684,526.745166 694.745166,516 708,516 Z M562,526 C558.686292,526 556,528.686292 556,532 C556,535.313708 558.686292,538 562,538 C565.313708,538 568,535.313708 568,532 C568,528.686292 565.313708,526 562,526 Z M700,526 C696.686292,526 694,528.686292 694,532 C694,535.313708 696.686292,538 700,538 C703.313708,538 706,535.313708 706,532 C706,528.686292 703.313708,526 700,526 Z" id="eyes-4"></path>
        </g>
    </g>

    <title>eyebrows-5</title>
    <g id="All-customizable-items" stroke="none" stroke-width="1" fill="none" fill-rule="evenodd" stroke-linecap="round" stroke-linejoin="round">
        <g id="Eyebrows/-5" transform="translate(-504.000000, -458.000000)" stroke="#000000" stroke-width="24">
            <g id="eyebrows-5" transform="translate(517.000000, 471.000000)">
                <line x1="1" y1="27.4172651" x2="76.8548788" y2="2" id="Path" transform="translate(38.927439, 14.708633) rotate(2.524843) translate(-38.927439, -14.708633) "></line>
                <line x1="166" y1="27.4172651" x2="241.854879" y2="2" id="Path" transform="translate(203.927439, 14.708633) scale(-1, 1) rotate(2.524843) translate(-203.927439, -14.708633) "></line>
            </g>
        </g>
    </g>

    <title>mouth-0</title>
    <g id="All-customizable-items" stroke="none" stroke-width="1" fill="none" fill-rule="evenodd" stroke-linecap="round" stroke-linejoin="round">
        <g id="Mouth/-0" transform="translate(-541.000000, -751.000000)" stroke="#000000" stroke-width="16">
            <path d="M549,759 C576.33038,765.666667 599.663714,769 619,769 C638.336286,769 655.002953,765.666667 669,759" id="mouth-0"></path>
        </g>
    </g>

    <title>nose-5</title>
    <g id="All-customizable-items" stroke="none" stroke-width="1" fill="none" fill-rule="evenodd" stroke-linecap="round" stroke-linejoin="round">
        <g id="Nose/-5" transform="translate(-617.000000, -560.000000)" stroke="#000000" stroke-width="16">
            <path d="M673,568 C662.55102,590.836147 657.326531,613.414126 657.326531,635.733939 C657.326531,669.213657 673,686.992054 670.061224,702.552554 C668.102041,712.92622 653.081633,714.756867 625,708.044495" id="nose-5"></path>
        </g>
    </g>

<path fill-rule="evenodd" clip-rule="evenodd" d="M255 8.00009C334.026 2.97004 377 6.00009 465 65.0001C523.666 104.333 556.666 159 564 229L561.24 224.675C549.832 206.872 540.752 193.647 534 185C527.732 176.974 514.732 167.224 494.999 155.747C494.263 156.741 493.413 157.718 492.451 158.682C510.823 179.929 525.673 199.702 537 218C549.854 238.768 554.187 261.434 550 286C544.666 272 538 259.667 530 249C522 238.333 510.666 230 496 224L497.039 225.752C510.952 249.278 520.216 267.534 524.831 280.521L525 281C529.666 294.333 532.666 319 534 355C524.666 325 513 298 499 274C485 250 450 224.667 394 198C395.278 205.311 399.612 213.311 407 222C414.387 230.69 423.387 239.69 434 249C411.028 239.11 389.941 229.085 370.74 218.924L369 218C349.334 207.523 324.046 190.856 293.135 168L295.287 170.537C312.37 190.615 326.274 205.436 337 215C348.172 224.962 360.838 233.629 375 241C358.109 242.177 340.436 242.218 321.98 241.122L320 241C300.827 239.781 271.981 236.781 233.461 232L235.353 232.848C254.778 241.516 270.145 247.191 281.455 249.873L282 250C293.72 252.71 310.72 256.044 333 260C312.061 264.616 292.842 267.583 275.342 268.902L274 269C256.141 270.266 228.765 268.933 191.869 265L195.951 266.355C217.421 273.442 234.104 278.324 246 281L247.258 281.279C259.793 284.018 276.893 286.592 298.56 289L296.447 289.478C268.785 295.715 247.636 299.555 233 301C218.265 302.455 200.003 302.481 178.214 301.079L177 301L159 376L140.284 321.806L139.918 323.932C136.112 345.838 129.153 380.07 119.041 426.63L117 436L79.1162 345.825H38.1453C10.6981 295.053 0.982856 259.111 8.99952 238C12.5698 228.598 19.8559 219.579 30.8577 210.943C26.0953 173.483 51.8094 144.502 108 124C153.315 50.0201 202.315 11.3534 255 8.00009Z" fill="black" stroke="black" stroke-width="12" stroke-linecap="round" stroke-linejoin="round"/>

</svg>