<svg width="564px" height="504px" viewBox="0 0 564 504" version="1.1" xmlns="http://www.w3.org/2000/svg" xmlns:xlink="http://www.w3.org/1999/xlink">

    <title>face-3</title>
    <g id="All-customizable-items" stroke="none" stroke-width="1" fill="none" fill-rule="evenodd" stroke-linecap="round" stroke-linejoin="round">
        <g id="Face/-3" transform="translate(-220.000000, -367.000000)" stroke="#000000" stroke-width="24">
            <path d="M532,379 C664.54834,379 772,486.45166 772,619 C772,751.54834 704.54834,899 532,899 C402.610491,899 332.317998,816.086314 305.249034,718.717925 C264.225797,715.291578 232,680.909158 232,639 C232,599.134956 261.158843,566.080325 299.312086,560.00055 C325.599297,455.979213 419.809919,379 532,379 Z M295.858895,624.545187 L304.141105,655.454813" id="face-3"></path>
        </g>
    </g>

    <title>eyes-5</title>
    <g id="All-customizable-items" stroke="none" stroke-width="1" fill="none" fill-rule="evenodd">
        <g id="Eyes/-5" transform="translate(-532.000000, -501.000000)">
            <g id="eyes-5" transform="translate(538.000000, 507.000000)">
                <g id="Group" transform="translate(138.000000, 0.000000)">
                    <circle id="Oval" stroke="#000000" stroke-width="12" stroke-linecap="round" stroke-linejoin="round" cx="32" cy="32" r="32"></circle>
                    <path d="M4,18 C13.3333333,20.6666667 22.6666667,22 32,22 C41.3333333,22 50.6666667,20.6666667 60,18" id="Path" stroke="#000000" stroke-width="12" stroke-linecap="round" stroke-linejoin="round"></path>
                    <circle id="Oval" fill="#000000" cx="32" cy="28" r="10"></circle>
                </g>
                <g id="Group" transform="translate(0.000000, 1.000000)">
                    <circle id="Oval" stroke="#000000" stroke-width="12" stroke-linecap="round" stroke-linejoin="round" cx="32" cy="32" r="32"></circle>
                    <path d="M4,18 C13.3333333,20.6666667 22.6666667,22 32,22 C41.3333333,22 50.6666667,20.6666667 60,18" id="Path" stroke="#000000" stroke-width="12" stroke-linecap="round" stroke-linejoin="round"></path>
                    <circle id="Oval" fill="#000000" cx="32" cy="28" r="10"></circle>
                </g>
            </g>
        </g>
    </g>

    <title>eyebrows-4</title>
    <g id="All-customizable-items" stroke="none" stroke-width="1" fill="none" fill-rule="evenodd" stroke-linecap="round" stroke-linejoin="round">
        <g id="Eyebrows/-4" transform="translate(-519.000000, -498.000000)" stroke="#000000" stroke-width="12">
            <g id="eyebrows-4" transform="translate(525.000000, 504.000000)">
                <path d="M0,12 C12.8888889,4 27.8888889,0 45,0 C62.1111111,0 77.1111111,4 90,12" id="Path"></path>
                <path d="M138,12 C150.888889,4 165.888889,0 183,0 C200.111111,0 215.111111,4 228,12" id="Path"></path>
            </g>
        </g>
    </g>

<path d="M9.34763 45.3856C9.34763 45.3856 3.05252 35.5217 7.44585 22.3999C11.8392 9.27823 23.4387 3.2993 23.4387 3.2993" stroke="black" stroke-width="6" stroke-linecap="round" stroke-linejoin="round"/>
<path fill-rule="evenodd" clip-rule="evenodd" d="M49.6132 29.3948L119.22 15.181L147.717 14.8304L168.424 9.1395L192.54 11.8457C192.54 11.8457 175.891 18.2978 143.869 22.2296C111.847 26.1614 49.6132 29.3948 49.6132 29.3948Z" stroke="black" stroke-width="12" stroke-linecap="round" stroke-linejoin="round"/>
<path d="M115 66C115 66 130.338 67.0353 138 66C145.662 64.9647 152 61 152 61" stroke="black" stroke-width="6" stroke-linecap="round" stroke-linejoin="round"/>

    <title>nose-7</title>
    <g id="All-customizable-items" stroke="none" stroke-width="1" fill="none" fill-rule="evenodd" stroke-linecap="round" stroke-linejoin="round">
        <g id="Nose/-7" transform="translate(-641.000000, -592.000000)" stroke="#000000" stroke-width="16">
            <path d="M649,600 C669,606.666667 679,620 679,640 C679,660 669,673.333333 649,680" id="nose-7"></path>
        </g>
    </g>

<path fill-rule="evenodd" clip-rule="evenodd" d="M353 22.0002C452 55.0002 481 146.139 481 178C481 204.483 430 196 430 196C430 196 370.089 155.832 320 147C252.631 135.121 215 181 193 183C171 185 156 196 147 222C138 248 165 299 165 299L130 414H114L76.1171 323.825H35.1462C13.1309 276.303 -6.9996 172 17.0004 138C41.0004 104 75.0004 104 75.0004 104C75.0004 104 84.0004 82.0002 121 49.0002C158 16.0002 254 -10.9998 353 22.0002Z" fill="black" stroke="black" stroke-width="12" stroke-linecap="round" stroke-linejoin="round"/>

    <title>glasses-3</title>
    <g id="All-customizable-items" stroke="none" stroke-width="1" fill="none" fill-rule="evenodd" stroke-linecap="round" stroke-linejoin="round">
        <g id="Glasses/-3" transform="translate(-289.000000, -483.000000)" stroke="#000000" stroke-width="8">
            <g id="glasses-3" transform="translate(293.000000, 488.000000)">
                <path d="M197.493245,10.4280671 C174.636102,27.3582996 188.604356,103.544346 244.477372,103.544346 C300.350388,103.544346 337.149222,42.6997481 325.747213,20.1024857 C314.345204,-2.49477675 220.350388,-6.50216547 197.493245,10.4280671 Z" id="Path"></path>
                <path d="M376.540864,10.4280671 C353.683721,27.3582996 367.651975,103.544346 423.524991,103.544346 C479.398007,103.544346 516.196841,42.6997481 504.794832,20.1024857 C493.392823,-2.49477675 399.398007,-6.50216547 376.540864,10.4280671 Z" id="Path" transform="translate(436.458153, 51.772173) scale(-1, 1) translate(-436.458153, -51.772173) "></path>
                <line x1="301.285714" y1="5.44186047" x2="392.714286" y2="5.44186047" id="Path"></line>
                <line x1="326.68254" y1="21.1627907" x2="367.31746" y2="21.1627907" id="Path"></line>
                <line x1="186.554557" y1="30.8015819" x2="1.25992802" y2="69.9860126" id="Path" transform="translate(94.259928, 50.646655) rotate(1.361411) translate(-94.259928, -50.646655) "></line>
            </g>
        </g>
    </g>

    <title>accessories-10</title>
    <g id="All-customizable-items" stroke="none" stroke-width="1" fill="none" fill-rule="evenodd" stroke-linecap="round" stroke-linejoin="round">
        <g id="Accessories/-10" transform="translate(-325.000000, -396.000000)" stroke="#000000">
            <g id="accessories-10" transform="translate(331.000000, 402.000000)">
                <path d="M282,125 C279,98 272,73 209,73 C146,73 135.024573,103.117647 132.201043,121.941176 C129.377514,140.764706 155,196 204,196 C253,196 285,152 282,125 Z" id="Path" stroke-width="8" fill="#0C0C0C"></path>
                <path d="M0,348 C77.1868597,283.810541 138.18686,225.810541 183,174 C227.81314,122.189459 267.146474,64.189459 301,0" id="Path" stroke-width="12"></path>
            </g>
        </g>
    </g>

</svg>