<svg width="564px" height="504px" viewBox="0 0 564 504" version="1.1" xmlns="http://www.w3.org/2000/svg" xmlns:xlink="http://www.w3.org/1999/xlink">

<mask id="path-1-inside-1_0_1050" fill="white">
<path fill-rule="evenodd" clip-rule="evenodd" d="M90.9463 195.941C115.92 97.1191 205.436 24 312 24C437.921 24 540 126.079 540 252C540 263.105 542.303 272.693 544.161 280.424C544.528 281.952 544.877 283.407 545.188 284.787C547.115 293.341 548.026 300.358 545.823 309.022C543.939 316.432 542.268 326.168 540.509 336.909C540.176 338.942 539.839 341.021 539.494 343.143L539.493 343.149C537.984 352.446 536.339 362.58 534.36 373.298C529.495 399.658 522.748 428.74 511.729 454.914C500.685 481.145 485.763 503.459 465.149 517.443C444.918 531.167 417.861 537.782 380.368 530.236C351.208 524.367 317.334 517.19 287.344 508.789C256.71 500.206 232.292 490.897 220.414 481.564C207.573 471.475 185.598 447.617 163.659 420.556C141.837 393.64 121.18 364.956 110.718 345.827C108.401 341.592 103.773 339.157 98.9711 339.647C96.6854 339.88 94.3594 340 92 340C54.4446 340 24 309.555 24 272C24 238.126 48.7801 210.017 81.2005 204.851C85.9382 204.096 89.7709 200.592 90.9463 195.941ZM312 0C196.833 0 99.736 77.2452 69.647 182.737C29.6368 192.728 0 228.893 0 272C0 322.81 41.1898 364 92 364C92.486 364 92.9712 363.996 93.4556 363.989C105.577 384.44 125.159 411.178 145.016 435.67C166.987 462.77 190.427 488.525 205.586 500.436C221.708 513.103 250.599 523.419 280.87 531.899C311.785 540.56 346.411 547.883 375.632 553.764C418.49 562.39 452.307 555.155 478.622 537.304C504.554 519.713 521.85 492.727 533.848 464.227C545.871 435.67 552.989 404.591 557.962 377.655C559.992 366.656 561.687 356.212 563.198 346.904L563.199 346.901L563.212 346.819C563.548 344.75 563.874 342.737 564.194 340.787C565.984 329.85 567.5 321.161 569.083 314.937C572.661 300.866 570.846 289.473 568.601 279.512C568.177 277.63 567.752 275.839 567.341 274.107L567.338 274.095C565.534 266.491 564 260.028 564 252C564 112.824 451.176 0 312 0ZM87.45 254.439C85.7347 248.038 79.1547 244.239 72.7531 245.954C66.3515 247.669 62.5525 254.249 64.2678 260.651L72.55 291.561C74.2653 297.962 80.8453 301.761 87.2469 300.046C93.6485 298.331 97.4475 291.751 95.7322 285.349L87.45 254.439Z"/>
</mask>
<path d="M90.9463 195.941L67.6778 190.06L90.9463 195.941ZM544.161 280.424L567.497 274.818V274.818L544.161 280.424ZM545.188 284.787L521.775 290.062L521.775 290.062L545.188 284.787ZM545.823 309.022L569.083 314.937V314.937L545.823 309.022ZM540.509 336.909L516.824 333.031V333.031L540.509 336.909ZM539.494 343.143L563.145 347.221C563.159 347.144 563.171 347.067 563.184 346.989L539.494 343.143ZM539.493 343.149L515.842 339.071C515.829 339.148 515.816 339.226 515.803 339.303L539.493 343.149ZM534.36 373.298L510.759 368.942V368.942L534.36 373.298ZM511.729 454.914L489.609 445.602V445.602L511.729 454.914ZM465.149 517.443L451.676 497.582L451.675 497.582L465.149 517.443ZM380.368 530.236L385.103 506.708L380.368 530.236ZM287.344 508.789L280.87 531.899L287.344 508.789ZM220.414 481.564L235.242 462.693L235.242 462.693L220.414 481.564ZM163.659 420.556L145.016 435.67V435.67L163.659 420.556ZM110.718 345.827L89.6613 357.343L89.6614 357.343L110.718 345.827ZM98.9711 339.647L101.408 363.523H101.408L98.9711 339.647ZM81.2005 204.851L84.9773 228.552L81.2005 204.851ZM69.647 182.737L75.4615 206.022C83.7891 203.943 90.3723 197.574 92.7266 189.32L69.647 182.737ZM93.4556 363.989L114.102 351.752C109.712 344.345 101.691 339.858 93.0822 339.992L93.4556 363.989ZM145.016 435.67L126.373 450.785H126.373L145.016 435.67ZM205.586 500.436L190.758 519.307H190.758L205.586 500.436ZM280.87 531.899L274.396 555.009L280.87 531.899ZM375.632 553.764L370.897 577.292L375.632 553.764ZM478.622 537.304L492.095 557.166H492.095L478.622 537.304ZM533.848 464.227L511.729 454.914L511.729 454.914L533.848 464.227ZM557.962 377.655L534.36 373.298L557.962 377.655ZM563.198 346.904L586.888 350.749C586.912 350.599 586.935 350.448 586.957 350.298L563.198 346.904ZM563.199 346.901L539.508 343.058C539.484 343.207 539.461 343.357 539.44 343.507L563.199 346.901ZM563.212 346.819L539.522 342.973L539.522 342.975L563.212 346.819ZM564.194 340.787L540.509 336.909V336.909L564.194 340.787ZM569.083 314.937L545.823 309.022L545.823 309.022L569.083 314.937ZM568.601 279.512L592.014 274.236L592.014 274.236L568.601 279.512ZM567.341 274.107L590.693 268.567C590.69 268.555 590.688 268.544 590.685 268.533L567.341 274.107ZM567.338 274.095L543.987 279.637C543.989 279.647 543.992 279.658 543.995 279.669L567.338 274.095ZM72.7531 245.954L78.9647 269.136H78.9647L72.7531 245.954ZM87.45 254.439L110.632 248.228V248.228L87.45 254.439ZM64.2678 260.651L41.0856 266.863L64.2678 260.651ZM72.55 291.561L49.3678 297.772H49.3678L72.55 291.561ZM87.2469 300.046L93.4586 323.228H93.4586L87.2469 300.046ZM95.7322 285.349L118.914 279.137L118.914 279.137L95.7322 285.349ZM312 0C194.187 0 95.2798 80.8367 67.6778 190.06L114.215 201.821C136.559 113.402 216.684 48 312 48V0ZM564 252C564 112.824 451.176 0 312 0V48C424.666 48 516 139.334 516 252H564ZM567.497 274.818C565.619 267.002 564 259.936 564 252H516C516 266.274 518.988 278.385 520.824 286.03L567.497 274.818ZM568.601 279.512C568.246 277.935 567.855 276.309 567.497 274.818L520.824 286.03C521.2 287.595 521.508 288.878 521.775 290.062L568.601 279.512ZM569.083 314.937C572.663 300.86 570.843 289.464 568.601 279.512L521.775 290.062C523.387 297.219 523.39 299.856 522.564 303.107L569.083 314.937ZM564.194 340.787C565.984 329.855 567.499 321.163 569.083 314.937L522.564 303.107C520.378 311.7 518.552 322.481 516.824 333.031L564.194 340.787ZM563.184 346.989C563.529 344.863 563.864 342.801 564.194 340.787L516.824 333.031C516.489 335.083 516.148 337.178 515.804 339.298L563.184 346.989ZM563.144 347.227L563.145 347.221L515.843 339.066L515.842 339.071L563.144 347.227ZM557.962 377.655C559.994 366.645 561.678 356.266 563.183 346.994L515.803 339.303C514.29 348.626 512.684 358.515 510.759 368.942L557.962 377.655ZM533.848 464.227C545.871 435.669 552.99 404.59 557.962 377.655L510.759 368.942C505.999 394.726 499.625 421.812 489.609 445.602L533.848 464.227ZM478.622 537.304C504.553 519.714 521.849 492.728 533.848 464.227L489.609 445.602C479.522 469.562 466.974 487.204 451.676 497.582L478.622 537.304ZM375.632 553.764C418.497 562.391 452.312 555.152 478.622 537.304L451.675 497.582C437.523 507.182 417.225 513.173 385.103 506.708L375.632 553.764ZM280.87 531.899C311.785 540.56 346.411 547.883 375.632 553.764L385.103 506.708C356.005 500.851 322.883 493.821 293.819 485.678L280.87 531.899ZM205.586 500.436C214.23 507.227 225.822 512.898 237.933 517.742C250.413 522.733 265.055 527.468 280.87 531.899L293.819 485.678C279 481.527 266.115 477.316 255.758 473.174C245.032 468.884 238.476 465.234 235.242 462.693L205.586 500.436ZM145.016 435.67C166.984 462.766 190.425 488.524 205.586 500.436L235.242 462.693C224.722 454.427 204.212 432.467 182.302 405.441L145.016 435.67ZM89.6614 357.343C101.18 378.403 122.928 408.426 145.016 435.67L182.302 405.441C160.747 378.854 141.181 351.509 131.774 334.31L89.6614 357.343ZM101.408 363.523C96.6059 364.013 91.9776 361.578 89.6613 357.343L131.774 334.31C124.825 321.605 110.94 314.301 96.5342 315.771L101.408 363.523ZM92 364C95.1716 364 98.3109 363.839 101.408 363.523L96.5343 315.771C95.0599 315.922 93.5472 316 92 316V364ZM0 272C0 322.81 41.1898 364 92 364V316C67.6995 316 48 296.301 48 272H0ZM77.4237 181.15C33.53 188.145 0 226.151 0 272H48C48 250.101 64.0302 231.89 84.9773 228.552L77.4237 181.15ZM67.6778 190.06C68.8533 185.409 72.686 181.905 77.4237 181.15L84.9773 228.552C99.1903 226.287 110.689 215.775 114.215 201.821L67.6778 190.06ZM92.7266 189.32C119.954 93.8607 207.837 24 312 24V-24C185.829 -24 79.518 60.6297 46.5675 176.154L92.7266 189.32ZM24 272C24 240.172 45.8801 213.409 75.4615 206.022L63.8326 159.452C13.3934 172.047 -24 217.614 -24 272H24ZM92 340C54.4446 340 24 309.555 24 272H-24C-24 336.065 27.935 388 92 388V340ZM93.0822 339.992C92.7221 339.997 92.3614 340 92 340V388C92.6105 388 93.2202 387.995 93.829 387.986L93.0822 339.992ZM163.659 420.556C144.137 396.476 125.372 370.766 114.102 351.752L72.8096 376.226C85.7833 398.115 106.182 425.879 126.373 450.785L163.659 420.556ZM220.414 481.564C207.572 471.474 185.595 447.613 163.659 420.556L126.373 450.785C148.379 477.927 173.281 505.576 190.758 519.307L220.414 481.564ZM287.344 508.789C256.73 500.212 232.298 490.902 220.414 481.564L190.758 519.307C211.117 535.304 244.468 546.625 274.396 555.009L287.344 508.789ZM380.368 530.236C351.209 524.367 317.334 517.19 287.344 508.789L274.396 555.009C306.236 563.929 341.613 571.398 370.897 577.292L380.368 530.236ZM465.149 517.443C444.922 531.164 417.866 537.783 380.368 530.236L370.897 577.292C419.114 586.997 459.692 579.147 492.095 557.166L465.149 517.443ZM511.729 454.914C500.685 481.147 485.762 503.46 465.149 517.443L492.095 557.166C523.345 535.967 543.015 504.306 555.968 473.539L511.729 454.914ZM534.36 373.298C529.495 399.657 522.748 428.74 511.729 454.914L555.968 473.539C568.994 442.6 576.484 409.526 581.563 382.012L534.36 373.298ZM539.508 343.058C537.993 352.391 536.337 362.59 534.36 373.298L581.563 382.012C583.647 370.721 585.381 360.032 586.888 350.749L539.508 343.058ZM539.44 343.507L539.439 343.509L586.957 350.298L586.957 350.295L539.44 343.507ZM539.522 342.975L539.508 343.058L586.889 350.744L586.902 350.662L539.522 342.975ZM540.509 336.909C540.187 338.878 539.857 340.908 539.522 342.973L586.902 350.664C587.238 348.591 587.562 346.596 587.878 344.665L540.509 336.909ZM545.823 309.022C543.938 316.433 542.267 326.174 540.509 336.909L587.878 344.665C589.702 333.526 591.061 325.889 592.343 320.852L545.823 309.022ZM545.188 284.787C547.114 293.335 548.027 300.354 545.823 309.022L592.342 320.852C597.295 301.377 594.577 285.612 592.014 274.236L545.188 284.787ZM543.989 279.647C544.404 281.396 544.799 283.058 545.188 284.787L592.014 274.236C591.555 272.201 591.1 270.281 590.693 268.567L543.989 279.647ZM543.995 279.669L543.998 279.682L590.685 268.533L590.682 268.52L543.995 279.669ZM540 252C540 263.205 542.229 272.229 543.987 279.637L590.69 268.553C588.838 260.752 588 256.851 588 252H540ZM312 24C437.921 24 540 126.079 540 252H588C588 99.5694 464.431 -24 312 -24V24ZM78.9647 269.136C72.5631 270.852 65.9831 267.053 64.2678 260.651L110.632 248.228C105.486 229.023 85.7462 217.626 66.5414 222.772L78.9647 269.136ZM87.45 254.439C89.1653 260.841 85.3663 267.421 78.9647 269.136L66.5414 222.772C47.3366 227.918 35.9397 247.658 41.0856 266.863L87.45 254.439ZM95.7322 285.349L87.45 254.439L41.0856 266.863L49.3678 297.772L95.7322 285.349ZM81.0353 276.864C87.4369 275.148 94.0169 278.947 95.7322 285.349L49.3678 297.772C54.5137 316.977 74.2537 328.374 93.4586 323.228L81.0353 276.864ZM72.55 291.561C70.8347 285.159 74.6337 278.579 81.0353 276.864L93.4586 323.228C112.663 318.082 124.06 298.342 118.914 279.137L72.55 291.561ZM64.2678 260.651L72.55 291.561L118.914 279.137L110.632 248.228L64.2678 260.651Z" fill="black" mask="url(#path-1-inside-1_0_1050)"/>

    <title>eyes-7</title>
    <g id="All-customizable-items" stroke="none" stroke-width="1" fill="none" fill-rule="evenodd">
        <g id="Eyes/-7" transform="translate(-554.000000, -516.000000)" fill="#000000">
            <path d="M570,516 C578.836556,516 586,526.745166 586,540 C586,553.254834 578.836556,564 570,564 C561.163444,564 554,553.254834 554,540 C554,526.745166 561.163444,516 570,516 Z M708,516 C716.836556,516 724,526.745166 724,540 C724,553.254834 716.836556,564 708,564 C699.163444,564 692,553.254834 692,540 C692,526.745166 699.163444,516 708,516 Z M568,527 C564.686292,527 562,529.686292 562,533 C562,536.313708 564.686292,539 568,539 C571.313708,539 574,536.313708 574,533 C574,529.686292 571.313708,527 568,527 Z M706,527 C702.686292,527 700,529.686292 700,533 C700,536.313708 702.686292,539 706,539 C709.313708,539 712,536.313708 712,533 C712,529.686292 709.313708,527 706,527 Z" id="eyes-7"></path>
        </g>
    </g>

    <title>eyebrows-8</title>
    <g id="All-customizable-items" stroke="none" stroke-width="1" fill="none" fill-rule="evenodd" stroke-linecap="round" stroke-linejoin="round">
        <g id="Eyebrows/-8" transform="translate(-522.000000, -482.000000)" stroke="#000000" stroke-width="16">
            <g id="eyebrows-8" transform="translate(530.000000, 490.000000)">
                <path d="M64,10 C59.1947065,3.33333333 51.1947065,0 40,0 C28.8052935,0 15.4719602,3.33333333 0,10" id="Path"></path>
                <path d="M218,10 C213.194706,3.33333333 205.194706,0 194,0 C182.805294,0 169.47196,3.33333333 154,10" id="Path" transform="translate(186.000000, 5.000000) scale(-1, 1) translate(-186.000000, -5.000000) "></path>
            </g>
        </g>
    </g>

<path fill-rule="evenodd" clip-rule="evenodd" d="M4 13.2745C4 13.2745 32.2388 13.788 46.6667 12.1451C61.0945 10.5022 76.872 4.90539 83.345 4.23951C89.818 3.57362 95.3216 7.06295 96.8187 7.06295C98.3158 7.06295 102.058 3.67482 109.544 4.23951C117.029 4.80419 132 13.2745 132 13.2745C132 13.2745 114.784 17.792 87.8363 17.792C37.6842 19.4861 4 13.2745 4 13.2745Z" stroke="black" stroke-width="8" stroke-linecap="round" stroke-linejoin="round"/>
<path d="M129 14C129 14 122.538 19.6073 119 22C113.765 25.5402 108.978 28.8944 98 29C89.5042 29.0817 71.0273 23.9841 60 22C47.1477 19.6876 10 14 10 14" stroke="black" stroke-width="8" stroke-linecap="round" stroke-linejoin="round"/>

    <title>nose-5</title>
    <g id="All-customizable-items" stroke="none" stroke-width="1" fill="none" fill-rule="evenodd" stroke-linecap="round" stroke-linejoin="round">
        <g id="Nose/-5" transform="translate(-617.000000, -560.000000)" stroke="#000000" stroke-width="16">
            <path d="M673,568 C662.55102,590.836147 657.326531,613.414126 657.326531,635.733939 C657.326531,669.213657 673,686.992054 670.061224,702.552554 C668.102041,712.92622 653.081633,714.756867 625,708.044495" id="nose-5"></path>
        </g>
    </g>

<path fill-rule="evenodd" clip-rule="evenodd" d="M317 6.99512H322.802L324.51 7.00856C353.444 7.29145 432.561 10.9436 503 57.0002C581 108 628 239 628 377C628 515 601 574.334 551 689L554.371 672.476L557.478 657.174C581.826 536.961 594 469.57 594 455C594 384 583 323 538 277C525.022 263.734 505.35 249.069 478.985 233.006C457.277 278.471 432.282 309.802 404 327C330 372 281 342 247 377C241.432 382.732 236.066 388.644 230.9 394.738L231.07 399.058L231.244 403.26C234.124 471.641 239.526 527.553 247.449 571C258.75 632.968 286.934 715.301 332 818L326.701 814.514C301.556 797.937 272.274 769.379 252 755C252 755 261.121 784.937 266 797C268.93 804.244 277 827 277 827C277 827 183.876 738.968 159 696C134.124 653.032 92 613 92 613C86.0136 627.362 83.4286 640.778 72 663C60 686.334 28.6667 692 6 720L7.55424 717.082C32.4784 670.153 52.7335 647.008 58 625C58 625 70 575 58 515C46 455 33 439 29 395C25 351 31.6614 287.698 62 215C92.6513 141.553 127.063 93.4714 188.282 53.3314C232.919 24.0641 279.049 6.99512 317 6.99512Z" fill="black" stroke="black" stroke-width="12" stroke-linecap="round" stroke-linejoin="round"/>

<path d="M36.9999 4.00035C36.9999 4.00035 24.5982 20.7645 20.4752 40.7114C16.3522 60.6583 20.5943 74.0122 20.5943 74.0122" stroke="black" stroke-width="8" stroke-linecap="round" stroke-linejoin="round"/>
<path d="M4.45484 64.0772C4.45484 64.0772 2.75625 73.2389 5.81597 81.9079C8.87569 90.5768 14.27 94.9106 14.27 94.9106" stroke="black" stroke-width="6" stroke-linecap="round" stroke-linejoin="round"/>

    <title>glasses-8</title>
    <g id="All-customizable-items" stroke="none" stroke-width="1" fill="none" fill-rule="evenodd" stroke-linecap="round" stroke-linejoin="round">
        <g id="Glasses/-8" transform="translate(-285.000000, -471.000000)" stroke="#000000">
            <g id="glasses-8" transform="translate(293.000000, 475.000000)">
                <path d="M328.31869,48.9411765 C333.965749,25.4117647 327.377514,0 252.083396,0 C176.789279,0 173.024573,30.1176471 170.201043,48.9411765 C167.377514,67.7647059 157.024573,140.235294 227.612808,143.058824 C298.201043,145.882353 322.671631,72.4705882 328.31869,48.9411765 Z" id="Path" stroke-width="8" fill="#0C0C0C"></path>
                <path d="M523.46091,48.9411765 C529.107969,25.4117647 522.519734,3.63797881e-12 447.225616,3.63797881e-12 C371.931498,3.63797881e-12 368.166792,30.1176471 365.343263,48.9411765 C362.519734,67.7647059 352.166792,140.235294 422.755028,143.058824 C493.343263,145.882353 517.813851,72.4705882 523.46091,48.9411765 Z" id="Path" stroke-width="8" fill="#0C0C0C" transform="translate(444.072807, 71.569037) scale(-1, 1) translate(-444.072807, -71.569037) "></path>
                <line x1="301.965749" y1="7.52941176" x2="391.377514" y2="7.52941176" id="Path" stroke-width="8"></line>
                <path d="M301.965749,35.7647059 C317.212807,34.5098039 332.271631,33.8823529 347.14222,33.8823529 C362.012808,33.8823529 376.757907,34.5098039 391.377514,35.7647059" id="Path" stroke-width="8"></path>
                <line x1="217" y1="40" x2="1.3111035" y2="83.3393577" id="Path" stroke-width="16" transform="translate(109.155552, 61.669679) rotate(1.361411) translate(-109.155552, -61.669679) "></line>
            </g>
        </g>
    </g>

</svg>