<svg width="564px" height="504px" viewBox="0 0 564 504" version="1.1" xmlns="http://www.w3.org/2000/svg" xmlns:xlink="http://www.w3.org/1999/xlink">

    <title>face-10</title>
    <g id="All-customizable-items" stroke="none" stroke-width="1" fill="none" fill-rule="evenodd" stroke-linecap="round" stroke-linejoin="round">
        <g id="Face/-10" transform="translate(-220.000000, -367.000000)" stroke="#000000" stroke-width="24">
            <path d="M532,379 C664.54834,379 772,486.45166 772,619 C772,751.54834 684.54834,899 592,899 C535.13263,899 351.668898,801.612202 313.752775,718.980575 L313.322946,718.989282 L312,719 C267.81722,719 232,683.18278 232,639 C232,599.134956 261.158843,566.080325 299.312086,560.00055 C325.599297,455.979213 419.809919,379 532,379 Z M295.858895,624.545187 L304.141105,655.454813" id="face-10"></path>
        </g>
    </g>

<path fill-rule="evenodd" clip-rule="evenodd" d="M3 11.1564C3 11.1564 31.5687 37.4381 55.1689 32.9068C78.7692 28.3755 68.8322 3 68.8322 3C68.8322 3 83.7377 29.2817 62.6217 37.4381C41.5057 45.5945 3 11.1564 3 11.1564Z" fill="black" stroke="black" stroke-width="6" stroke-linecap="round" stroke-linejoin="round"/>
<path fill-rule="evenodd" clip-rule="evenodd" d="M141 11.1564C141 11.1564 169.569 37.4381 193.169 32.9068C216.769 28.3755 206.832 3 206.832 3C206.832 3 221.738 29.2817 200.622 37.4381C179.506 45.5945 141 11.1564 141 11.1564Z" fill="black" stroke="black" stroke-width="6" stroke-linecap="round" stroke-linejoin="round"/>

<path fill-rule="evenodd" clip-rule="evenodd" d="M162 20.3162C162 20.3162 179.641 7.86317 187.392 5.57835C195.144 3.29353 219 4.31622 219 4.31622L236 9.91302C236 9.91302 211.25 9.89746 197.549 12.0803C183.848 14.2632 162 20.3162 162 20.3162Z" fill="black" stroke="black" stroke-width="8" stroke-linecap="round" stroke-linejoin="round"/>
<path fill-rule="evenodd" clip-rule="evenodd" d="M78 20.3162C78 20.3162 60.3594 7.86317 52.6078 5.57835C44.8563 3.29353 21 4.31622 21 4.31622L4 9.91302C4 9.91302 28.7504 9.89746 42.451 12.0803C56.1516 14.2632 78 20.3162 78 20.3162Z" fill="black" stroke="black" stroke-width="8" stroke-linecap="round" stroke-linejoin="round"/>

    <title>mouth-0</title>
    <g id="All-customizable-items" stroke="none" stroke-width="1" fill="none" fill-rule="evenodd" stroke-linecap="round" stroke-linejoin="round">
        <g id="Mouth/-0" transform="translate(-541.000000, -751.000000)" stroke="#000000" stroke-width="16">
            <path d="M549,759 C576.33038,765.666667 599.663714,769 619,769 C638.336286,769 655.002953,765.666667 669,759" id="mouth-0"></path>
        </g>
    </g>

    <title>nose-1</title>
    <g id="All-customizable-items" stroke="none" stroke-width="1" fill="none" fill-rule="evenodd" stroke-linecap="round" stroke-linejoin="round">
        <g id="Nose/-1" transform="translate(-622.000000, -561.000000)" stroke="#000000" stroke-width="16">
            <path d="M633.532552,569.006852 C651.291821,622.395473 661.086671,652.555363 662.917104,659.486521 C664.747537,666.41768 663.749048,673.591123 659.921638,681.006852" id="nose-1" transform="translate(648.668966, 625.006852) rotate(-3.225647) translate(-648.668966, -625.006852) "></path>
        </g>
    </g>

<path fill-rule="evenodd" clip-rule="evenodd" d="M278 6L262.944 24.1672C302.315 9.38905 335 16 377 44C440 86 435 114 454 139C466.667 155.667 480.667 168.333 496 177C496 177 442.001 171.452 428.769 168.145L428.288 168.024C414.115 164.421 397.105 154.882 377.257 139.407L381.113 143.676C392.226 155.896 401.201 165.043 408.038 171.118C415.648 177.88 447.55 191.841 461 199C461 199 405 195 379.285 180.18C353.571 165.36 328.198 145.866 308 141C304.218 140.089 299.105 139.179 293.065 138.407L294.454 140.861C304.848 159.356 317.419 184.126 339 198C357.667 210 376.667 217.333 396 220C354.448 214.431 323.115 196.765 302 167C294.977 157.101 287.193 147.101 278.647 137.002C251.805 135.135 216.078 136.605 192.704 148.632L189.959 150.071C156.61 167.405 122.806 177.43 113.296 198.522C98.0323 232.374 113 251.408 113 269L112.995 269.737L112.98 270.53L112.957 271.382C112.513 285.298 108.679 326.294 101.453 394.371L100 408L62.1167 317.825H21.1458C5.7805 260.747 2.10619 221.653 10.1229 200.542C14.0741 190.137 24.4847 173.339 41.2597 155.225C38.179 142.659 37.2817 131.973 38.5688 123.165C40.7974 107.915 51.5976 84.4549 70.9696 52.7838V79.0802C99.1503 51.5827 127.771 33.2783 156.832 24.1672C185.892 15.056 226.282 9.00026 278 6Z" fill="black" stroke="black" stroke-width="12" stroke-linecap="round" stroke-linejoin="round"/>

    <title>beard-0</title>
    <path
        d="m32,8c-13.25,0-24,10.75-24,24s10.75,24,24,24,24-10.75,24-24-10.75-24-24-24Zm0,42c-9.94,0-18-8.06-18-18,0-3.89,1.24-7.48,3.34-10.42l25.08,25.08c-2.94,2.09-6.53,3.34-10.42,3.34Zm14.66-7.58l-25.08-25.08c2.94-2.09,6.53-3.34,10.42-3.34,9.94,0,18,8.06,18,18,0,3.89-1.24,7.48-3.34,10.42Z"
        fill="#000" />

    <title>details-7</title>
    <g id="All-customizable-items" stroke="none" stroke-width="1" fill="none" fill-rule="evenodd" stroke-linecap="round" stroke-linejoin="round">
        <g id="Details/-7" transform="translate(-553.000000, -431.000000)" stroke="#000000" stroke-width="2">
            <g id="Path" transform="translate(554.000000, 432.000000)">
                <path d="M0,8 C24,2.66666667 48,0 72,0 C96,0 120,2.66666667 144,8"></path>
                <path d="M24,16 C40,13.3333333 56,12 72,12 C88,12 104,13.3333333 120,16"></path>
            </g>
        </g>
    </g>

</svg>