<svg width="564px" height="504px" viewBox="0 0 564 504" version="1.1" xmlns="http://www.w3.org/2000/svg" xmlns:xlink="http://www.w3.org/1999/xlink">

    <title>face-10</title>
    <g id="All-customizable-items" stroke="none" stroke-width="1" fill="none" fill-rule="evenodd" stroke-linecap="round" stroke-linejoin="round">
        <g id="Face/-10" transform="translate(-220.000000, -367.000000)" stroke="#000000" stroke-width="24">
            <path d="M532,379 C664.54834,379 772,486.45166 772,619 C772,751.54834 684.54834,899 592,899 C535.13263,899 351.668898,801.612202 313.752775,718.980575 L313.322946,718.989282 L312,719 C267.81722,719 232,683.18278 232,639 C232,599.134956 261.158843,566.080325 299.312086,560.00055 C325.599297,455.979213 419.809919,379 532,379 Z M295.858895,624.545187 L304.141105,655.454813" id="face-10"></path>
        </g>
    </g>

    <title>eyes-3</title>
    <g id="All-customizable-items" stroke="none" stroke-width="1" fill="none" fill-rule="evenodd" stroke-linecap="round" stroke-linejoin="round">
        <g id="Eyes/-3" transform="translate(-527.000000, -534.000000)" stroke="#000000" stroke-width="12">
            <g id="eyes-3" transform="translate(533.944954, 540.730159)">
                <path d="M146.275229,-1.43884904e-13 C159.958467,9.35202544 170.38232,14.8216846 177.546789,16.4089776 C184.711258,17.9962705 196.232359,17.3885306 212.110092,14.5857578" id="Path" transform="translate(179.192661, 8.634921) scale(-1, 1) translate(-179.192661, -8.634921) "></path>
                <path d="M6.39488462e-14,-1.43884904e-13 C13.6832373,9.35202544 24.1070905,14.8216846 31.2715596,16.4089776 C38.4360288,17.9962705 49.9571297,17.3885306 65.8348624,14.5857578" id="Path"></path>
            </g>
        </g>
    </g>

    <title>eyebrows-1</title>
    <g id="All-customizable-items" stroke="none" stroke-width="1" fill="none" fill-rule="evenodd" stroke-linecap="square" stroke-linejoin="round">
        <g id="Eyebrows/-1" transform="translate(-506.000000, -480.000000)" stroke="#000000" stroke-width="20">
            <g id="eyebrows-1" transform="translate(521.000000, 490.000000)">
                <path d="M0,16 C12.8888889,5.33333333 27.8888889,0 45,0 C62.1111111,0 77.1111111,5.33333333 90,16" id="Path"></path>
                <path d="M146,16 C158.888889,5.33333333 173.888889,0 191,0 C208.111111,0 223.111111,5.33333333 236,16" id="Path"></path>
            </g>
        </g>
    </g>

    <title>mouth-0</title>
    <g id="All-customizable-items" stroke="none" stroke-width="1" fill="none" fill-rule="evenodd" stroke-linecap="round" stroke-linejoin="round">
        <g id="Mouth/-0" transform="translate(-541.000000, -751.000000)" stroke="#000000" stroke-width="16">
            <path d="M549,759 C576.33038,765.666667 599.663714,769 619,769 C638.336286,769 655.002953,765.666667 669,759" id="mouth-0"></path>
        </g>
    </g>

    <title>nose-9</title>
    <g id="All-customizable-items" stroke="none" stroke-width="1" fill="none" fill-rule="evenodd" stroke-linecap="round" stroke-linejoin="round">
        <g id="Nose/-9" transform="translate(-623.000000, -571.000000)" stroke="#000000" stroke-width="16">
            <path d="M631,694.380659 C663.848549,704.811956 684.630284,697.576454 693.345205,672.674154 C706.417587,635.320703 637.033407,606.392531 660.161467,579" id="nose-9"></path>
        </g>
    </g>

<path fill-rule="evenodd" clip-rule="evenodd" d="M223.001 30.9999C270.761 1.34638 335.39 -1.59318 416.889 22.1813L418.14 21.6503C438.829 12.9486 471.441 3.05908 518.001 28.9999C588.001 67.9999 595.98 140.101 622.001 144C640.46 146.766 646.56 192.498 663.001 234C669.104 249.404 708.001 259 708.001 259L663.001 278C663.001 278 672.927 288.092 686.001 296C697.33 302.852 717.001 327 717.001 327C717.001 327 674.793 334.748 669.001 347C665.892 353.577 702.405 361.103 713.001 405C727.001 463 680.99 543.03 709.953 560.495C723.072 568.406 757.953 590.495 757.953 590.495C757.953 590.495 705.775 642.051 681.953 635.495C645.135 625.363 597.953 590.495 597.953 590.495C597.953 590.495 609.409 457.557 605.001 382C601.916 329.103 587.184 271.788 573.001 250C538.561 197.091 468.001 144 381.001 144C314.08 144 309.925 182.463 309.925 182.463C306.119 203.727 306.116 226.946 291.001 259C264.775 314.618 172.05 352.505 172.05 381.505C172.05 410.505 181.05 411.505 181.05 427.505C181.05 443.505 169.02 451.862 172.05 473.505C174.07 487.933 185.021 561.095 201.001 582C173.475 609.867 147.808 627.534 124.001 635C100.195 642.466 69.5279 642.466 32.0013 635C41.3071 626.655 47.9738 618.989 52.0013 612L52.393 611.308C56.3305 604.232 60.8666 592.462 66.0013 576C59.6984 582.705 53.365 587.371 47.0013 590C40.6375 592.628 31.6375 594.295 20.0013 595L22.0031 592.564C27.3626 586.017 31.5205 580.735 34.477 576.717L35.4337 575.408C40.2515 568.846 44.6276 563.7 42.0013 553C39.2966 541.981 4.57252 443.372 6.04971 410.505C7.03451 388.593 17.7012 356.259 38.0497 313.505C34.5862 317.378 30.5862 320.378 26.0497 322.505C21.5132 324.631 14.8465 326.631 6.04971 328.505L7.28974 327.4C18.1209 317.712 25.7075 309.746 30.0497 303.505C34.5558 297.027 37.2224 290.027 38.0497 282.505C31.855 284.314 26.855 284.98 23.0497 284.505C19.2445 284.029 13.5778 282.029 6.04971 278.505L7.34467 277.889C15.8635 273.82 22.0986 270.358 26.0497 267.505C30.1984 264.508 35.5318 259.508 42.0497 252.505L43.221 249.969C62.2757 208.815 77.5519 180.661 89.0497 165.505C121.199 123.126 155.722 97.4076 185.05 75.5045C201.26 63.3984 209.717 39.2479 223.001 30.9999Z" fill="black" stroke="black" stroke-width="12" stroke-linecap="round" stroke-linejoin="round"/>

    <title>glasses-7</title>
    <g id="All-customizable-items" stroke="none" stroke-width="1" fill="none" fill-rule="evenodd" stroke-linecap="round" stroke-linejoin="round">
        <g id="Glasses/-7" transform="translate(-287.000000, -500.000000)" fill="#000000" stroke="#000000" stroke-width="4">
            <g id="glasses-7" transform="translate(289.000000, 502.000000)">
                <path d="M339.740368,39.6303745 C323.440763,83.0959855 305.148598,104 266.642657,104 C226.661085,104 208.819095,87.634841 206.637074,34.1753215 C206.548706,32.0103005 204.003015,29.8282793 199,27.6292579 L199,6.90005646 C238.696939,1.25810378 267.426885,-0.923917428 285.189838,0.353992852 C297.612079,1.2476793 312.018598,4.36213391 328.409394,9.69735669 C333.107339,11.2265431 340.521032,12.1124607 350.650474,12.3551095 L351.336909,12.3375684 C361.115498,12.0718595 368.30038,11.1917889 372.891553,9.69735669 C389.282349,4.36213391 403.688868,1.2476793 416.11111,0.353992852 C433.874063,-0.923917428 462.604008,1.25810378 502.300947,6.90005646 L502.300947,6.90005646 L502.300947,27.6292579 C497.297933,29.8282793 494.752241,32.0103005 494.663873,34.1753215 C492.481852,87.634841 474.639862,104 434.65829,104 C396.15235,104 377.860184,83.0959855 361.56058,39.6303745 C359.378558,33.8116513 355.741856,30.9022897 350.650474,30.9022897 L350.650474,30.9022897 C345.559091,30.9022897 341.922389,33.8116513 339.740368,39.6303745 Z" id="Combined-Shape"></path>
                <polygon id="Path" points="199 7 4 39 0 48 199 28"></polygon>
            </g>
        </g>
    </g>

<path fill-rule="evenodd" clip-rule="evenodd" d="M37.9664 11.3824C35.663 1.49179 23.9144 3.18816 19.5394 6.98658C4.50601 20.0389 -0.0391464 39.9554 11.4777 54.2418C22.9945 68.5283 43.7248 65.2314 51.7865 56.4398C59.8483 47.6481 61 38.8564 61 38.8564H42.5731C42.5731 38.8564 37.9664 46.5491 29.9046 43.2523C25.3817 41.4026 24.4786 32.2177 27.6012 25.6689C30.7524 19.0603 39.1233 16.3502 37.9664 11.3824Z" fill="white" stroke="black" stroke-width="8" stroke-linecap="round" stroke-linejoin="round"/>
<ellipse cx="14.9999" cy="49.5001" rx="6" ry="7.5" transform="rotate(-30 14.9999 49.5001)" fill="black"/>
<ellipse cx="40.0001" cy="58.4996" rx="6" ry="7.5" transform="rotate(-105 40.0001 58.4996)" fill="black"/>
<ellipse cx="12.0001" cy="22.4999" rx="6" ry="7.5" transform="rotate(-150 12.0001 22.4999)" fill="black"/>

</svg>