<svg width="564px" height="504px" viewBox="0 0 564 504" version="1.1" xmlns="http://www.w3.org/2000/svg" xmlns:xlink="http://www.w3.org/1999/xlink">

    <title>face-4</title>
    <g id="All-customizable-items" stroke="none" stroke-width="1" fill="none" fill-rule="evenodd" stroke-linecap="round" stroke-linejoin="round">
        <g id="Face/-4" transform="translate(-220.000000, -367.000000)" stroke="#000000" stroke-width="24">
            <path d="M532,379 C664.54834,379 772,486.45166 772,619 C772,751.54834 764.54834,899 592,899 C462.715227,899 358.747776,816.220491 314.739381,718.954345 C313.831676,718.98455 312.917642,719 312,719 C267.81722,719 232,683.18278 232,639 C232,599.134956 261.158843,566.080325 299.312086,560.00055 C325.599297,455.979213 419.809919,379 532,379 Z M295.858895,624.545187 L304.141105,655.454813" id="face-4"></path>
        </g>
    </g>

<path fill-rule="evenodd" clip-rule="evenodd" d="M3 11.1564C3 11.1564 31.5687 37.4381 55.1689 32.9068C78.7692 28.3755 68.8322 3 68.8322 3C68.8322 3 83.7377 29.2817 62.6217 37.4381C41.5057 45.5945 3 11.1564 3 11.1564Z" fill="black" stroke="black" stroke-width="6" stroke-linecap="round" stroke-linejoin="round"/>
<path fill-rule="evenodd" clip-rule="evenodd" d="M141 11.1564C141 11.1564 169.569 37.4381 193.169 32.9068C216.769 28.3755 206.832 3 206.832 3C206.832 3 221.738 29.2817 200.622 37.4381C179.506 45.5945 141 11.1564 141 11.1564Z" fill="black" stroke="black" stroke-width="6" stroke-linecap="round" stroke-linejoin="round"/>

    <title>eyebrows-5</title>
    <g id="All-customizable-items" stroke="none" stroke-width="1" fill="none" fill-rule="evenodd" stroke-linecap="round" stroke-linejoin="round">
        <g id="Eyebrows/-5" transform="translate(-504.000000, -458.000000)" stroke="#000000" stroke-width="24">
            <g id="eyebrows-5" transform="translate(517.000000, 471.000000)">
                <line x1="1" y1="27.4172651" x2="76.8548788" y2="2" id="Path" transform="translate(38.927439, 14.708633) rotate(2.524843) translate(-38.927439, -14.708633) "></line>
                <line x1="166" y1="27.4172651" x2="241.854879" y2="2" id="Path" transform="translate(203.927439, 14.708633) scale(-1, 1) rotate(2.524843) translate(-203.927439, -14.708633) "></line>
            </g>
        </g>
    </g>

<path fill-rule="evenodd" clip-rule="evenodd" d="M165 19.0435C165 19.0435 121.693 22.6922 93.6188 21.3913C65.5442 20.0904 13 12 13 12C13 12 36.5138 84 90.2597 84C119.652 84 133.489 72.4405 148.204 50.3478C154.215 41.324 165 19.0435 165 19.0435Z" stroke="black" stroke-width="12" stroke-linecap="round" stroke-linejoin="round"/>
<path d="M177 16.4444C177 16.4444 129.212 24.2222 91.4848 21.1111C53.7576 18 11 11 11 11" stroke="black" stroke-width="12" stroke-linecap="round" stroke-linejoin="round"/>
<path d="M6 16C6 16 8.4375 11.3846 11.6875 9.07692C14.9375 6.76923 19 6 19 6" stroke="black" stroke-width="12" stroke-linecap="round" stroke-linejoin="round"/>
<path d="M38 59C38 59 57.3492 48 94.3651 48C131.381 48 144 57.4286 144 57.4286" stroke="black" stroke-width="12" stroke-linecap="round" stroke-linejoin="round"/>

    <title>nose-6</title>
    <g id="All-customizable-items" stroke="none" stroke-width="1" fill="none" fill-rule="evenodd" stroke-linecap="round" stroke-linejoin="round">
        <g id="Nose/-6" transform="translate(-617.000000, -560.000000)" stroke="#000000" stroke-width="16">
            <path d="M673,568 C662.55102,590.836147 657.326531,613.414126 657.326531,635.733939 C657.326531,669.213657 685.938776,657.439501 683,683 C681.040816,700.040333 661.707483,708.388498 625,708.044495" id="nose-6"></path>
        </g>
    </g>

<path fill-rule="evenodd" clip-rule="evenodd" d="M356.999 6.99991C266.999 6.99991 130.999 103 77.9994 230C24.9994 357 -17.0674 727.176 20.9994 784C89.9994 887 106.999 737 180.999 784C205.904 799.818 241.108 616.584 228.999 604C202.527 576.489 181.999 535 181.999 535C181.999 535 101.999 521 101.999 455C101.999 389 155.999 382 180.999 382C205.999 382 228.999 427 228.999 427C228.999 427 248.999 408 252.999 364C254.869 343.436 339.999 318 409.999 292C479.999 266 530.999 230 530.999 230C530.999 230 557.324 255.865 577.999 277C622.999 323 633.999 384 633.999 455C633.999 491.67 622.251 585.763 604.999 667C588.849 743.051 566.711 807.067 577.999 824C591.183 843.776 607.429 794.285 667.999 764C707.999 744 693.999 817 722.999 764C751.999 711 718.999 471 698.999 335C678.999 199 620.999 108 542.999 56.9999C464.999 5.99991 376.36 6.99991 356.999 6.99991Z" fill="black" stroke="black" stroke-width="12" stroke-linecap="round" stroke-linejoin="round"/>

<path fill-rule="evenodd" clip-rule="evenodd" d="M19.7842 6C44.4509 105.333 68.1895 162 91 176L92.9079 177.167C123.534 195.823 128.186 194.826 156.716 178.95C161.244 186.656 167.339 194.429 175.238 202L176.909 203.597C203.91 229.317 216.658 237.363 238.156 239.871L250 212H278L291.871 239.739C321.383 235.576 329.896 221.137 347.53 197C353.248 189.173 357.743 180.58 360.871 171.933L365.567 172.369C380.175 173.765 390.28 175.107 393 176C406.082 180.293 373.784 231 357 249C340.216 267 310.216 287 265 287C219.784 287 132.098 276.714 61.7842 219C14.9086 180.524 -2.42477 109.524 9.78421 6H19.7842Z" fill="black" stroke="black" stroke-width="12" stroke-linecap="round" stroke-linejoin="round"/>
<path fill-rule="evenodd" clip-rule="evenodd" d="M258.276 83.0238C270.49 82.3882 263.298 94.6586 258.276 96.4956C256.833 97.0233 244.815 97.5536 235.174 98.945C211.252 102.398 177.346 107.779 175.914 106.906C173.905 105.681 174.91 103.232 181.94 97.7203C188.971 92.2091 246.062 83.6595 258.276 83.0238Z" fill="black" stroke="black" stroke-width="12" stroke-linecap="round" stroke-linejoin="round"/>
<path fill-rule="evenodd" clip-rule="evenodd" d="M293.724 83.0238C281.51 82.3882 288.702 94.6586 293.724 96.4956C295.167 97.0233 307.185 97.5536 316.826 98.945C340.748 102.398 374.654 107.779 376.086 106.906C378.095 105.681 377.09 103.232 370.06 97.7203C363.029 92.2091 305.938 83.6595 293.724 83.0238Z" fill="black" stroke="black" stroke-width="12" stroke-linecap="round" stroke-linejoin="round"/>

    <title>glasses-5</title>
    <g id="All-customizable-items" stroke="none" stroke-width="1" fill="none" fill-rule="evenodd" stroke-linecap="round" stroke-linejoin="round">
        <g id="Glasses/-5" transform="translate(-287.000000, -498.000000)" stroke="#000000">
            <g id="glasses-5" transform="translate(289.000000, 500.000000)">
                <path d="M339.818182,40.2109589 C338.074175,42.9080712 336.862054,47.8943725 336.181818,55.169863 L327.454545,55.169863 C324.545455,28.1013699 305.393939,14.0922374 270,13.1424658 C240.424242,11.2429224 222.727273,23.1150685 216.909091,48.7589041 L205.272727,48.7589041 L190,33.8 L190,10.2931507 C222.484848,2.22009132 249.151515,-1.10410959 270,0.320547945 C285.225486,1.36096427 303.25963,5.13798521 324.62746,9.93254373 L332.545455,11.7178082 C336.214681,12.54746 342.032863,13.4972317 350,14.5671233 L352.073632,14.2846662 C358.984501,13.3293325 364.111473,12.4737132 367.454545,11.7178082 L376.341511,9.71531602 C397.286215,5.02415827 415.005203,1.34520038 430,0.320547945 C450.64,-1.08986301 476.9824,2.15408219 509.0272,10.0523836 L510,10.2931507 L510,33.8 L494.727273,48.7589041 L483.090909,48.7589041 C477.272727,23.1150685 459.575758,11.2429224 430,13.1424658 C394.96,14.0827397 375.8392,27.8224932 372.6376,54.361726 L372.545455,55.169863 L363.818182,55.169863 L363.730382,54.2723496 C363.036013,47.4828217 361.853158,42.7956915 360.181818,40.2109589 C358.482529,37.5830034 355.216835,35.4868176 350.384736,33.9224017 L350,33.8 C344.956128,35.3768603 341.562189,37.5138466 339.818182,40.2109589 Z" id="Path" stroke-width="4" fill="#000000"></path>
                <path d="M216.909091,48.4383562 C216.909091,85.4794521 234.606061,104 270,104 C305.393939,104 324.545455,87.6164384 327.454545,54.8493151" id="Path" stroke-width="6"></path>
                <path d="M372.545455,48.4383562 C372.545455,85.4794521 390.242424,104 425.636364,104 C461.030303,104 480.181818,87.6164384 483.090909,54.8493151" id="Path" stroke-width="6" transform="translate(427.818182, 76.219178) scale(-1, 1) translate(-427.818182, -76.219178) "></path>
                <polygon id="Path" stroke-width="4" fill="#000000" points="199 9 4 41 0 50 199 30"></polygon>
            </g>
        </g>
    </g>

    <title>accessories-8</title>
    <g id="All-customizable-items" stroke="none" stroke-width="1" fill="none" fill-rule="evenodd" stroke-linecap="round" stroke-linejoin="round">
        <g id="Accessories/-8" transform="translate(-240.000000, -689.000000)" stroke="#000000" stroke-width="12">
            <g id="Path" transform="translate(246.000000, 695.000000)">
                <line x1="48" y1="0" x2="48" y2="48"></line>
                <circle id="Oval" fill="#FFFFFF" fill-rule="evenodd" cx="48" cy="60" r="12"></circle>
                <circle id="Oval" fill="#FFFFFF" fill-rule="evenodd" cx="48" cy="120" r="48"></circle>
                <circle id="Oval" cx="48" cy="84" r="12"></circle>
                <circle id="Oval" cx="48" cy="96" r="24"></circle>
            </g>
        </g>
    </g>

</svg>