<svg width="564px" height="504px" viewBox="0 0 564 504" version="1.1" xmlns="http://www.w3.org/2000/svg" xmlns:xlink="http://www.w3.org/1999/xlink">

    <title>face-8</title>
    <g id="All-customizable-items" stroke="none" stroke-width="1" fill="none" fill-rule="evenodd" stroke-linecap="round" stroke-linejoin="round">
        <g id="Face/-8" transform="translate(-220.000000, -367.000000)" stroke="#000000" stroke-width="24">
            <path d="M532,379 C664.54834,379 772,486.45166 772,619 C772,751.54834 724.54834,899 592,899 C492.560218,899 373.476049,816.010833 320.189513,718.584987 C317.498129,718.859681 314.765451,719 312,719 C267.81722,719 232,683.18278 232,639 C232,599.134956 261.158843,566.080325 299.312086,560.00055 C325.599297,455.979213 419.809919,379 532,379 Z M295.858895,624.545187 L304.141105,655.454813" id="face-8"></path>
        </g>
    </g>

    <title>eyes-1</title>
    <g id="All-customizable-items" stroke="none" stroke-width="1" fill="none" fill-rule="evenodd">
        <g id="Eyes/-1" transform="translate(-544.000000, -507.000000)">
            <g id="eyes-1" transform="translate(546.000000, 509.000000)">
                <path d="M24,7 C37.254834,7 48,17.745166 48,31 C48,44.254834 37.254834,55 24,55 C10.745166,55 0,44.254834 0,31 C0,17.745166 10.745166,7 24,7 Z M162,7 C175.254834,7 186,17.745166 186,31 C186,44.254834 175.254834,55 162,55 C148.745166,55 138,44.254834 138,31 C138,17.745166 148.745166,7 162,7 Z" id="Combined-Shape" fill="#000000"></path>
                <g id="Group" stroke="#000000" stroke-linecap="round" stroke-linejoin="round" stroke-width="4">
                    <path d="M0,7 C8,2.33333333 16,0 24,0 C32,0 40,2.33333333 48,7" id="Path"></path>
                    <path d="M138,7 C146,2.33333333 154,0 162,0 C170,0 178,2.33333333 186,7" id="Path"></path>
                </g>
            </g>
        </g>
    </g>

    <title>eyebrows-6</title>
    <g id="All-customizable-items" stroke="none" stroke-width="1" fill="none" fill-rule="evenodd" stroke-linecap="round" stroke-linejoin="round">
        <g id="Eyebrows/-6" transform="translate(-495.000000, -480.000000)" fill="#000000" stroke="#000000" stroke-width="8">
            <path d="M620,495.140162 C589.850248,491.823271 565.234864,491.823271 546.153846,495.140162 C527.072829,498.457053 511.688213,505.410333 500,516 C517.257672,497.488903 532.642287,487.058984 546.153846,484.710243 C559.665405,482.361502 584.280789,485.838142 620,495.140162 Z M658,495.140162 C693.719211,485.838142 718.334595,482.361502 731.846154,484.710243 C745.357713,487.058984 760.742328,497.488903 778,516 C766.311787,505.410333 750.927171,498.457053 731.846154,495.140162 C712.765136,491.823271 688.149752,491.823271 658,495.140162 Z" id="eyebrows-6"></path>
        </g>
    </g>

<path fill-rule="evenodd" clip-rule="evenodd" d="M24 21.7884C24 21.7884 54.8862 22.6687 70.6667 19.8524C86.4471 17.036 103.704 7.44136 110.784 6.29985C117.863 5.15833 123.883 11.14 125.52 11.14C127.158 11.14 131.251 5.33181 139.439 6.29985C147.626 7.26788 164 21.7884 164 21.7884C164 21.7884 145.17 29.5327 115.696 29.5327C60.8421 32.4368 24 21.7884 24 21.7884Z" stroke="black" stroke-width="12" stroke-linecap="round" stroke-linejoin="round"/>
<path d="M160 25C160 25 145 57 116 57C87 57 34 23 34 23L6 20" stroke="black" stroke-width="12" stroke-linecap="round" stroke-linejoin="round"/>

    <title>nose-7</title>
    <g id="All-customizable-items" stroke="none" stroke-width="1" fill="none" fill-rule="evenodd" stroke-linecap="round" stroke-linejoin="round">
        <g id="Nose/-7" transform="translate(-641.000000, -592.000000)" stroke="#000000" stroke-width="16">
            <path d="M649,600 C669,606.666667 679,620 679,640 C679,660 669,673.333333 649,680" id="nose-7"></path>
        </g>
    </g>

    <title>hair-17</title>
    <g id="All-customizable-items" stroke="none" stroke-width="1" fill="none" fill-rule="evenodd" stroke-linecap="round" stroke-linejoin="round">
        <g id="Hairstyle/-17" transform="translate(-350.000000, -284.000000)" fill="#000000" stroke="#000000" stroke-width="12">
            <path d="M689,291 C695,322.333333 698,353.666667 698,385 C698,416.333333 693.333333,434.666667 684,440 C640.666667,406 587.666667,389 525,389 C431,389 374.714286,443.632653 361,458 C356.333333,428 353.666667,417.666667 361,399 C375.510786,362.063453 397,357 425,344 C445.058836,334.686969 505.097784,322.392379 561,306 C598.268144,295.071747 640.93481,290.071747 689,291 Z" id="hair-17"></path>
        </g>
    </g>

    <title>beard-10</title>
    <g id="All-customizable-items" stroke="none" stroke-width="1" fill="none" fill-rule="evenodd" stroke-linecap="round" stroke-linejoin="round">
        <g id="Beard/-10" transform="translate(-359.000000, -645.000000)" fill="#000000" stroke="#000000" stroke-width="12">
            <path d="M385,651 C400.949347,693.922506 417.682633,729.624512 435.19986,758.106018 L435.257961,757.93037 L435.257961,757.93037 L435.382991,757.590097 C436.332315,755.121854 438.453635,752.057725 441.746952,748.397709 C445.047182,758.655798 447.875609,766.669675 450.232233,772.43934 C452.097947,777.007122 454.998032,783.424708 458.932488,791.692099 C462.241449,795.708652 465.576333,799.483371 468.937098,803.019711 C468.747704,801.751066 468.712602,800.556378 468.831416,799.433013 C469.109564,796.803169 470.365547,793.29441 472.599365,788.906733 C478.442132,797.961124 483.248326,804.969884 487.017949,809.933013 C490.647638,814.711903 496.463455,821.737819 504.465401,831.01076 C508.572484,833.217447 512.714195,835.101048 516.89077,836.663537 C516.545049,836.110965 516.247867,835.5577 516,835 C514.925962,832.583415 514.259295,828.916748 514,824 C523.58718,828.919949 531.253846,832.586615 537,835 C541.622781,836.941568 548.351518,839.478546 557.186211,842.610933 C564.771431,840.895593 570.683251,839.438661 574.924158,838.240012 C580.921598,836.544896 588.977973,833.839892 599.093282,830.124999 C598.568821,833.09366 597.949892,835.578556 597.236495,837.579687 C601.020483,836.642061 604.801869,835.576414 608.580373,834.382534 C617.277979,828.42916 623.771313,823.79084 628.061261,820.465325 C632.986989,816.64696 639.443418,811.120953 647.430546,803.887303 C648.452634,808.703627 648.757686,812.417901 648.345704,815.030125 C648.225732,815.790817 648.028088,816.565012 647.752769,817.352712 C669.261883,805.436827 690.678134,789.318484 712,769 C710.645087,779.947888 705.645087,789.947888 697,799 C655.842569,842.095192 585,869 525,865 C455.659793,860.37732 402.32646,789.043986 365,651 L385,651 Z M500.454782,828.750915 C500.081029,828.529966 499.707569,828.306327 499.3344,828.08 Z" id="beard-10"></path>
        </g>
    </g>

</svg>