<svg width="564px" height="504px" viewBox="0 0 564 504" version="1.1" xmlns="http://www.w3.org/2000/svg" xmlns:xlink="http://www.w3.org/1999/xlink">

    <title>face-2</title>
    <g id="All-customizable-items" stroke="none" stroke-width="1" fill="none" fill-rule="evenodd" stroke-linecap="round" stroke-linejoin="round">
        <g id="Face/-2" transform="translate(-220.000000, -367.000000)" stroke="#000000" stroke-width="24">
            <path d="M532,379 C664.54834,379 772,486.45166 772,619 C772,751.54834 664.54834,899 532,899 C432.699202,899 347.483933,816.242653 310.982017,718.993409 C267.268677,718.448846 232,682.843144 232,639 C232,599.134956 261.158843,566.080325 299.312086,560.00055 C325.599297,455.979213 419.809919,379 532,379 Z M295.858895,624.545187 L304.141105,655.454813" id="face-2"></path>
        </g>
    </g>

<path fill-rule="evenodd" clip-rule="evenodd" d="M3 7.53133C3 7.53133 31.5687 22.1323 55.1689 19.6149C78.7692 17.0975 68.8322 3 68.8322 3C68.8322 3 83.7377 17.601 62.6217 22.1323C41.5057 26.6636 3 7.53133 3 7.53133Z" fill="black" stroke="black" stroke-width="6" stroke-linecap="round" stroke-linejoin="round"/>
<path d="M9 12L5 20" stroke="black" stroke-width="4" stroke-linecap="round" stroke-linejoin="round"/>
<path d="M23 17L20 26" stroke="black" stroke-width="4" stroke-linecap="round" stroke-linejoin="round"/>
<path d="M37 20L35 30" stroke="black" stroke-width="4" stroke-linecap="round" stroke-linejoin="round"/>
<path d="M51 22L50 32" stroke="black" stroke-width="4" stroke-linecap="round" stroke-linejoin="round"/>
<path d="M63 21L65 30" stroke="black" stroke-width="4" stroke-linecap="round" stroke-linejoin="round"/>
<path d="M73 17L77 23" stroke="black" stroke-width="4" stroke-linecap="round" stroke-linejoin="round"/>
<path fill-rule="evenodd" clip-rule="evenodd" d="M141 7.53133C141 7.53133 169.569 22.1323 193.169 19.6149C216.769 17.0975 206.832 3 206.832 3C206.832 3 221.738 17.601 200.622 22.1323C179.506 26.6636 141 7.53133 141 7.53133Z" fill="black" stroke="black" stroke-width="6" stroke-linecap="round" stroke-linejoin="round"/>
<path d="M147 12L143 20" stroke="black" stroke-width="4" stroke-linecap="round" stroke-linejoin="round"/>
<path d="M161 17L158 26" stroke="black" stroke-width="4" stroke-linecap="round" stroke-linejoin="round"/>
<path d="M175 20L173 30" stroke="black" stroke-width="4" stroke-linecap="round" stroke-linejoin="round"/>
<path d="M189 22L188 32" stroke="black" stroke-width="4" stroke-linecap="round" stroke-linejoin="round"/>
<path d="M201 21L203 30" stroke="black" stroke-width="4" stroke-linecap="round" stroke-linejoin="round"/>
<path d="M211 17L215 23" stroke="black" stroke-width="4" stroke-linecap="round" stroke-linejoin="round"/>

<path fill-rule="evenodd" clip-rule="evenodd" d="M178.391 22.335C181.391 17.335 238.391 -0.664962 258.391 2.33504C278.391 5.33504 307.391 31.335 307.391 31.335C307.391 31.335 280.391 20.335 255.391 20.335C230.391 20.335 195.391 38.335 195.391 38.335C195.391 38.335 175.391 27.335 178.391 22.335Z" fill="black" stroke="black" stroke-width="4" stroke-linecap="round" stroke-linejoin="round"/>
<path fill-rule="evenodd" clip-rule="evenodd" d="M131 22.335C128 17.335 71.0003 -0.664962 51.0003 2.33504C31.0003 5.33504 2.00029 31.335 2.00029 31.335C2.00029 31.335 29.0003 20.335 54.0003 20.335C79.0003 20.335 114 38.335 114 38.335C114 38.335 134 27.335 131 22.335Z" fill="black" stroke="black" stroke-width="4" stroke-linecap="round" stroke-linejoin="round"/>

<path fill-rule="evenodd" clip-rule="evenodd" d="M165 19.0435C165 19.0435 121.693 22.6922 93.6188 21.3913C65.5442 20.0904 13 12 13 12C13 12 36.5138 84 90.2597 84C119.652 84 133.489 72.4405 148.204 50.3478C154.215 41.324 165 19.0435 165 19.0435Z" stroke="black" stroke-width="12" stroke-linecap="round" stroke-linejoin="round"/>
<path d="M177 16.4444C177 16.4444 129.212 24.2222 91.4848 21.1111C53.7576 18 11 11 11 11" stroke="black" stroke-width="12" stroke-linecap="round" stroke-linejoin="round"/>
<path d="M6 16C6 16 8.4375 11.3846 11.6875 9.07692C14.9375 6.76923 19 6 19 6" stroke="black" stroke-width="12" stroke-linecap="round" stroke-linejoin="round"/>
<path d="M38 59C38 59 57.3492 48 94.3651 48C131.381 48 144 57.4286 144 57.4286" stroke="black" stroke-width="12" stroke-linecap="round" stroke-linejoin="round"/>

    <title>nose-7</title>
    <g id="All-customizable-items" stroke="none" stroke-width="1" fill="none" fill-rule="evenodd" stroke-linecap="round" stroke-linejoin="round">
        <g id="Nose/-7" transform="translate(-641.000000, -592.000000)" stroke="#000000" stroke-width="16">
            <path d="M649,600 C669,606.666667 679,620 679,640 C679,660 669,673.333333 649,680" id="nose-7"></path>
        </g>
    </g>

    <title>hair-5</title>
    <g id="All-customizable-items" stroke="none" stroke-width="1" fill="none" fill-rule="evenodd" stroke-linecap="round" stroke-linejoin="round">
        <g id="Hairstyle/-5" transform="translate(-259.000000, -232.000000)" fill="#000000" stroke="#000000" stroke-width="12">
            <path d="M623,264 C701.810134,298.151058 736.674249,344.123631 741,379 C743.95879,402.855244 738.292123,428.188578 724,455 C666,448.333333 620.333333,452 587,466 C520.819135,493.795963 452.819135,492.129296 383,461 C391.19759,494.978015 399,522 395,559 C392.333333,583.666667 384.333333,621.333333 371,672 C346.672242,617.194008 331.338909,585.527342 325,577 C318.661091,568.472658 305.994424,562.472658 287,559 C271.634723,501.922397 259,475 269,431 C279,387 315.912503,338.292045 358,325 C362.714614,323.511034 356.047947,314.177701 338,297 C388.266605,282.037882 424.375148,273.411755 446.325628,271.121621 C454.054785,270.315224 451.279576,260.274684 438,241 C508.793244,233.565961 570.459911,241.232628 623,264 Z" id="hair-5"></path>
        </g>
    </g>

    <title>details-5</title>
    <g id="All-customizable-items" stroke="none" stroke-width="1" fill="none" fill-rule="evenodd" stroke-linecap="round" stroke-linejoin="round">
        <g id="Details/-5" transform="translate(-447.000000, -653.000000)" stroke="#000000" stroke-width="12">
            <g id="details-5" transform="translate(453.000000, 659.000000)">
                <path d="M0,0 C12,6.66666667 24,10 36,10 C48,10 60,6.66666667 72,0" id="Path"></path>
                <path d="M289,-3.37685435e-12 C299.916502,5.03026124 308.103878,8.02711078 313.562129,8.9905486" id="Path"></path>
            </g>
        </g>
    </g>

    <title>accessories-3</title>
    <g id="All-customizable-items" stroke="none" stroke-width="1" fill="none" fill-rule="evenodd" stroke-linecap="round" stroke-linejoin="round">
        <g id="Accessories/-3" transform="translate(-238.000000, -703.000000)" fill="#FFFFFF" stroke="#000000" stroke-width="12">
            <g id="accessories-3" transform="translate(244.000000, 709.000000)">
                <path d="M60,0 C93.137085,0 120,26.862915 120,60 C120,93.137085 93.137085,120 60,120 C26.862915,120 0,93.137085 0,60 C0,26.862915 26.862915,0 60,0 Z M60,20 C37.90861,20 20,37.90861 20,60 C20,82.09139 37.90861,100 60,100 C82.09139,100 100,82.09139 100,60 C100,37.90861 82.09139,20 60,20 Z" id="Combined-Shape"></path>
            </g>
        </g>
    </g>

</svg>