<svg width="564px" height="504px" viewBox="0 0 564 504" version="1.1" xmlns="http://www.w3.org/2000/svg" xmlns:xlink="http://www.w3.org/1999/xlink">

<mask id="path-1-inside-1_0_1058" fill="white">
<path fill-rule="evenodd" clip-rule="evenodd" d="M90.9463 195.941C115.92 97.1191 205.436 24 312 24C437.921 24 540 126.079 540 252C540 264.704 545.103 277.455 549.138 287.538L549.144 287.552C549.693 288.923 550.221 290.244 550.715 291.51C555.415 303.56 557.649 311.842 555.823 319.022C553.948 326.393 552.332 335.585 550.654 345.524C550.382 347.136 550.107 348.775 549.828 350.438L549.817 350.506C548.35 359.253 546.768 368.691 544.843 378.652C540.25 402.416 533.836 428.431 523.068 452.55C512.317 476.63 497.433 498.355 476.147 514.076C455.001 529.694 426.718 540 388 540C311.219 540 255.292 515.301 212.009 479.12C168.399 442.666 137.158 394.169 110.718 345.827C108.401 341.592 103.773 339.157 98.9711 339.647C96.6854 339.88 94.3594 340 92 340C54.4446 340 24 309.555 24 272C24 238.126 48.7801 210.017 81.2005 204.851C85.9382 204.096 89.7709 200.592 90.9463 195.941ZM312 0C196.833 0 99.736 77.2452 69.647 182.737C29.6368 192.728 0 228.893 0 272C0 322.81 41.1898 364 92 364C92.443 364 92.8854 363.997 93.3271 363.991C119.507 411.06 151.609 459.912 196.617 497.534C244.075 537.205 305.41 564 388 564C431.282 564 464.697 552.37 490.406 533.381C515.976 514.495 533.104 488.941 544.983 462.334C556.845 435.765 563.677 407.683 568.407 383.205C570.393 372.927 572.031 363.156 573.498 354.409C573.777 352.741 574.051 351.109 574.319 349.519C576.023 339.423 577.49 331.2 579.083 324.937C583.038 309.382 577.546 294.254 573.074 282.789C572.513 281.35 571.965 279.959 571.433 278.61C567.181 267.823 564 259.753 564 252C564 112.824 451.176 0 312 0ZM87.45 254.439C85.7347 248.038 79.1547 244.239 72.7531 245.954C66.3515 247.669 62.5525 254.249 64.2678 260.651L72.55 291.561C74.2653 297.962 80.8453 301.761 87.2469 300.046C93.6485 298.331 97.4475 291.751 95.7322 285.349L87.45 254.439Z"/>
</mask>
<path d="M90.9463 195.941L67.6778 190.06L90.9463 195.941ZM549.138 287.538L526.856 296.455C526.862 296.47 526.868 296.484 526.874 296.499L549.138 287.538ZM549.144 287.552L571.426 278.635C571.42 278.62 571.414 278.605 571.408 278.59L549.144 287.552ZM550.715 291.51L528.355 300.23L550.715 291.51ZM555.823 319.022L579.083 324.937V324.937L555.823 319.022ZM550.654 345.524L526.989 341.53L526.989 341.53L550.654 345.524ZM549.828 350.438L526.159 346.467C526.157 346.477 526.156 346.488 526.154 346.498L549.828 350.438ZM549.817 350.506L573.486 354.475C573.488 354.466 573.49 354.456 573.491 354.447L549.817 350.506ZM544.843 378.652L568.407 383.205V383.205L544.843 378.652ZM523.068 452.55L501.153 442.766L523.068 452.55ZM476.147 514.076L461.889 494.771L476.147 514.076ZM212.009 479.12L196.617 497.534L212.009 479.12ZM110.718 345.827L89.6613 357.343L89.6614 357.343L110.718 345.827ZM98.9711 339.647L101.408 363.523H101.408L98.9711 339.647ZM81.2005 204.851L84.9773 228.552L81.2005 204.851ZM69.647 182.737L75.4615 206.022C83.7891 203.943 90.3723 197.574 92.7266 189.32L69.647 182.737ZM93.3271 363.991L114.301 352.325C110.007 344.605 101.82 339.868 92.9873 339.993L93.3271 363.991ZM196.617 497.534L181.224 515.948H181.224L196.617 497.534ZM490.406 533.381L504.665 552.686L490.406 533.381ZM544.983 462.334L566.898 472.118L544.983 462.334ZM568.407 383.205L591.971 387.759V387.759L568.407 383.205ZM573.498 354.409L597.167 358.378L597.167 358.377L573.498 354.409ZM574.319 349.519L597.984 353.514L597.984 353.513L574.319 349.519ZM579.083 324.937L602.342 330.852L579.083 324.937ZM573.074 282.789L550.715 291.509L550.715 291.51L573.074 282.789ZM571.433 278.61L593.761 269.809L593.761 269.809L571.433 278.61ZM72.7531 245.954L78.9647 269.136H78.9647L72.7531 245.954ZM87.45 254.439L110.632 248.228V248.228L87.45 254.439ZM64.2678 260.651L41.0856 266.863L64.2678 260.651ZM72.55 291.561L49.3678 297.772H49.3678L72.55 291.561ZM87.2469 300.046L93.4586 323.228H93.4586L87.2469 300.046ZM95.7322 285.349L118.914 279.137L118.914 279.137L95.7322 285.349ZM312 0C194.187 0 95.2798 80.8367 67.6778 190.06L114.215 201.821C136.559 113.402 216.684 48 312 48V0ZM564 252C564 112.824 451.176 0 312 0V48C424.666 48 516 139.334 516 252H564ZM571.42 278.62C567.062 267.73 564 259.297 564 252H516C516 270.111 523.144 287.18 526.856 296.455L571.42 278.62ZM571.408 278.59L571.402 278.576L526.874 296.499L526.88 296.514L571.408 278.59ZM573.074 282.789C572.536 281.408 571.966 279.985 571.426 278.635L526.862 296.469C527.419 297.861 527.907 299.081 528.355 300.23L573.074 282.789ZM579.083 324.937C583.05 309.336 577.502 294.14 573.074 282.789L528.355 300.23C530.592 305.965 531.711 309.505 532.206 311.915C532.655 314.107 532.31 314.102 532.564 313.107L579.083 324.937ZM574.319 349.519C576.023 339.427 577.49 331.201 579.083 324.937L532.564 313.107C530.407 321.586 528.641 331.742 526.989 341.53L574.319 349.519ZM573.497 354.409C573.777 352.741 574.05 351.116 574.319 349.518L526.989 341.53C526.714 343.157 526.437 344.809 526.159 346.467L573.497 354.409ZM573.491 354.447L573.503 354.379L526.154 346.498L526.143 346.566L573.491 354.447ZM568.407 383.205C570.396 372.911 572.025 363.192 573.486 354.475L526.147 346.537C524.676 355.315 523.139 364.471 521.279 374.098L568.407 383.205ZM544.983 462.334C556.845 435.764 563.677 407.682 568.407 383.205L521.279 374.098C516.824 397.15 510.827 421.097 501.153 442.766L544.983 462.334ZM490.406 533.381C515.975 514.496 533.104 488.942 544.983 462.334L501.153 442.766C491.53 464.319 478.89 482.214 461.889 494.771L490.406 533.381ZM388 564C431.284 564 464.698 552.369 490.406 533.381L461.889 494.771C445.305 507.02 422.152 516 388 516V564ZM196.617 497.534C244.075 537.205 305.41 564 388 564V516C317.027 516 266.508 493.396 227.402 460.706L196.617 497.534ZM89.6614 357.343C116.506 406.425 149.485 458.136 196.617 497.534L227.402 460.706C187.313 427.196 157.81 381.914 131.774 334.31L89.6614 357.343ZM101.408 363.523C96.6059 364.013 91.9776 361.578 89.6613 357.343L131.774 334.31C124.825 321.605 110.94 314.301 96.5342 315.771L101.408 363.523ZM92 364C95.1716 364 98.3109 363.839 101.408 363.523L96.5343 315.771C95.0599 315.922 93.5472 316 92 316V364ZM0 272C0 322.81 41.1898 364 92 364V316C67.6995 316 48 296.301 48 272H0ZM77.4237 181.15C33.53 188.145 0 226.151 0 272H48C48 250.101 64.0302 231.89 84.9773 228.552L77.4237 181.15ZM67.6778 190.06C68.8533 185.409 72.686 181.905 77.4237 181.15L84.9773 228.552C99.1903 226.287 110.689 215.775 114.215 201.821L67.6778 190.06ZM92.7266 189.32C119.954 93.8607 207.837 24 312 24V-24C185.829 -24 79.518 60.6297 46.5675 176.154L92.7266 189.32ZM24 272C24 240.172 45.8801 213.409 75.4615 206.022L63.8326 159.452C13.3934 172.047 -24 217.614 -24 272H24ZM92 340C54.4446 340 24 309.555 24 272H-24C-24 336.065 27.935 388 92 388V340ZM92.9873 339.993C92.6586 339.998 92.3295 340 92 340V388C92.5565 388 93.1122 387.996 93.667 387.988L92.9873 339.993ZM212.009 479.12C170.385 444.326 139.998 398.526 114.301 352.325L72.3531 375.656C99.016 423.594 132.833 475.497 181.224 515.948L212.009 479.12ZM388 540C311.219 540 255.292 515.301 212.009 479.12L181.224 515.948C232.858 559.109 299.6 588 388 588V540ZM476.147 514.076C455.003 529.694 426.72 540 388 540V588C435.845 588 474.391 575.047 504.665 552.686L476.147 514.076ZM523.068 452.55C512.316 476.632 497.432 498.355 476.147 514.076L504.665 552.686C534.52 530.635 553.892 501.25 566.898 472.118L523.068 452.55ZM544.843 378.652C540.251 402.415 533.836 428.43 523.068 452.55L566.898 472.118C579.853 443.099 587.102 412.952 591.971 387.759L544.843 378.652ZM549.828 350.441C548.357 359.216 546.765 368.707 544.843 378.652L591.971 387.759C594.022 377.147 595.706 367.095 597.167 358.378L549.828 350.441ZM550.654 345.524C550.383 347.13 550.107 348.775 549.828 350.442L597.167 358.377C597.447 356.706 597.719 355.088 597.984 353.514L550.654 345.524ZM555.823 319.022C553.948 326.395 552.331 335.589 550.654 345.524L597.984 353.513C599.716 343.256 601.032 336.004 602.342 330.852L555.823 319.022ZM550.715 291.51C555.387 303.489 557.657 311.812 555.823 319.022L602.342 330.852C608.42 306.952 599.706 285.02 595.434 274.068L550.715 291.51ZM549.105 287.411C549.639 288.766 550.172 290.118 550.715 291.509L595.434 274.068C594.855 272.583 594.291 271.152 593.761 269.809L549.105 287.411ZM540 252C540 265.295 545.426 278.077 549.105 287.411L593.761 269.809C588.936 257.569 588 254.211 588 252H540ZM312 24C437.921 24 540 126.079 540 252H588C588 99.5694 464.431 -24 312 -24V24ZM78.9647 269.136C72.5631 270.852 65.9831 267.053 64.2678 260.651L110.632 248.228C105.486 229.023 85.7462 217.626 66.5414 222.772L78.9647 269.136ZM87.45 254.439C89.1653 260.841 85.3663 267.421 78.9647 269.136L66.5414 222.772C47.3366 227.918 35.9397 247.658 41.0856 266.863L87.45 254.439ZM95.7322 285.349L87.45 254.439L41.0856 266.863L49.3678 297.772L95.7322 285.349ZM81.0353 276.864C87.4369 275.148 94.0169 278.947 95.7322 285.349L49.3678 297.772C54.5137 316.977 74.2537 328.374 93.4586 323.228L81.0353 276.864ZM72.55 291.561C70.8347 285.159 74.6337 278.579 81.0353 276.864L93.4586 323.228C112.663 318.082 124.06 298.342 118.914 279.137L72.55 291.561ZM64.2678 260.651L72.55 291.561L118.914 279.137L110.632 248.228L64.2678 260.651Z" fill="black" mask="url(#path-1-inside-1_0_1058)"/>

    <title>eyes-1</title>
    <g id="All-customizable-items" stroke="none" stroke-width="1" fill="none" fill-rule="evenodd">
        <g id="Eyes/-1" transform="translate(-544.000000, -507.000000)">
            <g id="eyes-1" transform="translate(546.000000, 509.000000)">
                <path d="M24,7 C37.254834,7 48,17.745166 48,31 C48,44.254834 37.254834,55 24,55 C10.745166,55 0,44.254834 0,31 C0,17.745166 10.745166,7 24,7 Z M162,7 C175.254834,7 186,17.745166 186,31 C186,44.254834 175.254834,55 162,55 C148.745166,55 138,44.254834 138,31 C138,17.745166 148.745166,7 162,7 Z" id="Combined-Shape" fill="#000000"></path>
                <g id="Group" stroke="#000000" stroke-linecap="round" stroke-linejoin="round" stroke-width="4">
                    <path d="M0,7 C8,2.33333333 16,0 24,0 C32,0 40,2.33333333 48,7" id="Path"></path>
                    <path d="M138,7 C146,2.33333333 154,0 162,0 C170,0 178,2.33333333 186,7" id="Path"></path>
                </g>
            </g>
        </g>
    </g>

    <title>eyebrows-7</title>
    <g id="All-customizable-items" stroke="none" stroke-width="1" fill="none" fill-rule="evenodd" stroke-linecap="round" stroke-linejoin="round">
        <g id="Eyebrows/-7" transform="translate(-518.000000, -476.000000)" stroke="#000000" stroke-width="16">
            <g id="eyebrows-7" transform="translate(528.000000, 485.000000)">
                <path d="M2,31 C13.6420073,23.1142473 23.8820073,17.5142473 32.72,14.2 C41.5579927,10.8857527 52.651326,8.48575274 66,7" id="Path" transform="translate(34.000000, 19.000000) rotate(12.000000) translate(-34.000000, -19.000000) "></path>
                <path d="M156,31 C167.642007,23.1142473 177.882007,17.5142473 186.72,14.2 C195.557993,10.8857527 206.651326,8.48575274 220,7" id="Path" transform="translate(188.000000, 19.000000) scale(-1, 1) rotate(12.000000) translate(-188.000000, -19.000000) "></path>
            </g>
        </g>
    </g>

<path d="M32 40C32 40 103.931 44.393 127.066 39.8696C150.202 35.3462 191 19 191 19" stroke="black" stroke-width="16" stroke-linecap="round" stroke-linejoin="round"/>
<path d="M172 31C172 31 172 60.0426 142.943 68.3404C113.886 76.6383 59 43.4468 59 43.4468" stroke="black" stroke-width="16" stroke-linecap="round" stroke-linejoin="round"/>
<path d="M9.34763 57.3856C9.34763 57.3856 3.05252 47.5217 7.44585 34.3999C11.8392 21.2782 23.4387 15.2993 23.4387 15.2993" stroke="black" stroke-width="6" stroke-linecap="round" stroke-linejoin="round"/>
<path d="M215.499 22.6676C215.499 22.6676 218.478 18.1281 216.342 12.0527C214.205 5.97736 208.647 3.18167 208.647 3.18167" stroke="black" stroke-width="6" stroke-linecap="round" stroke-linejoin="round"/>

    <title>nose-5</title>
    <g id="All-customizable-items" stroke="none" stroke-width="1" fill="none" fill-rule="evenodd" stroke-linecap="round" stroke-linejoin="round">
        <g id="Nose/-5" transform="translate(-617.000000, -560.000000)" stroke="#000000" stroke-width="16">
            <path d="M673,568 C662.55102,590.836147 657.326531,613.414126 657.326531,635.733939 C657.326531,669.213657 673,686.992054 670.061224,702.552554 C668.102041,712.92622 653.081633,714.756867 625,708.044495" id="nose-5"></path>
        </g>
    </g>

    <title>hair-29</title>
    <g id="All-customizable-items" stroke="none" stroke-width="1" fill="none" fill-rule="evenodd" stroke-linecap="round" stroke-linejoin="round">
        <g id="Hairstyle/-29" transform="translate(-175.000000, -170.000000)" fill="#000000" stroke="#000000" stroke-width="12">
            <path d="M761,317 C805,388 820.125983,447 820.004537,556 C819.946997,603.166783 803.945484,729.83345 772,936 C756.845538,916.396149 746.221312,902.652622 740.127322,894.769421 C737.275241,891.079962 737.232801,867.490155 740,824 C726.582863,853.713368 718.718644,867.0751 716.407344,864.085196 C709.177716,854.73293 694.041934,839.371198 671,818 C713,782 740.333333,749 753,719 C781.211752,652.182692 778,605 766,552 C758,516.666667 680.53461,482.720366 649,454 C627.976927,434.85309 601.643593,412.186423 570,386 C535.260269,430.221458 508.926936,459.888125 491,475 C470.948368,491.902931 404,536 392,552 C380,568 366,596 381,696 C387.274253,737.828352 404.607586,817.828352 433,936 C405.41871,913.8889 385.815206,898.168716 374.189489,888.839449 C372.222584,887.26107 369.492755,870.647921 366,839 C357.880478,860.509922 352.880478,870.509922 351,869 C327.79041,850.363952 315.029602,841.316058 301,830 C297.231922,826.960727 294.231922,792.29406 292,726 C283.11512,783.588053 276.448453,810.588053 272,807 C256.702243,794.661068 234.702243,772.327735 206,740 C159.063506,523.42859 185.063506,407.761923 232,317 C278.467129,227.145696 379,176 515,176 C651,176 717,246 761,317 Z" id="hair-29"></path>
        </g>
    </g>

<path fill-rule="evenodd" clip-rule="evenodd" d="M19.7842 6C43.1291 87.8164 69.7958 132.483 99.7842 140C144.767 151.275 148.784 93 182.784 74C216.784 55 273.784 77 309.784 77C345.784 77 408.703 62.7072 421.784 67C434.866 71.2928 433.106 199.47 374.784 261C343.941 288.615 331.399 288.571 273.784 289C216.17 289.429 132.098 276.714 61.7842 219C14.9086 180.524 -2.42476 109.524 9.78421 6H19.7842ZM200.784 86C183.514 98.4396 151.515 146.317 168.784 160C186.054 173.683 245.517 158 283.784 158C322.052 158 363.028 166.22 368.784 160C374.541 153.78 371.784 105 355.784 93C339.784 81 306.694 98 288.784 98C270.875 98 218.054 73.5604 200.784 86Z" fill="black"/>
<path d="M19.7842 6L25.5539 4.35371C24.8187 1.77689 22.4639 0 19.7842 0V6ZM99.7842 140L98.3254 145.82L99.7842 140ZM374.784 261L378.786 265.47C378.909 265.361 379.026 265.247 379.139 265.128L374.784 261ZM61.7842 219L57.9775 223.638L61.7842 219ZM9.78421 6V0C6.74234 0 4.18178 2.27633 3.82551 5.29727L9.78421 6ZM288.784 98V92V98ZM14.0145 7.64629C25.7517 48.7815 38.4259 80.9649 52.1412 103.938C65.7662 126.76 81.0137 141.481 98.3254 145.82L101.243 134.18C88.5662 131.002 75.4862 119.631 62.4446 97.7866C49.4932 76.0931 37.1616 45.0349 25.5539 4.35371L14.0145 7.64629ZM98.3254 145.82C110.941 148.982 121.245 147.335 129.948 142.313C138.362 137.457 144.762 129.729 150.318 121.795C153.115 117.8 155.824 113.561 158.477 109.469C161.16 105.33 163.814 101.294 166.629 97.4714C172.274 89.8056 178.294 83.3828 185.711 79.2377L179.857 68.7623C170.275 74.1172 163.043 82.1038 156.966 90.356C153.92 94.4926 151.096 98.7928 148.407 102.942C145.687 107.138 143.129 111.14 140.488 114.912C135.167 122.512 130.002 128.426 123.95 131.92C118.185 135.246 111.119 136.656 101.243 134.18L98.3254 145.82ZM185.711 79.2377C200.806 70.8023 221.717 71.1941 244.726 74.3204C256.139 75.871 267.434 77.9837 278.578 79.7827C289.54 81.5523 300.264 83 309.784 83V71C301.304 71 291.403 69.6977 280.49 67.9361C269.76 66.2038 257.929 64.004 246.342 62.4296C223.352 59.3059 198.762 58.1977 179.857 68.7623L185.711 79.2377ZM309.784 83C328.302 83 353.533 79.3428 375.204 76.3332C386.165 74.8109 396.231 73.4489 404.358 72.728C408.42 72.3677 411.88 72.1788 414.653 72.1971C417.563 72.2162 419.203 72.4676 419.913 72.7009L423.655 61.2991C421.096 60.4592 417.907 60.2182 414.732 60.1973C411.419 60.1755 407.536 60.399 403.298 60.7749C394.823 61.5267 384.457 62.9329 373.553 64.4472C351.495 67.5108 327.266 71 309.784 71V83ZM419.913 72.7009C418.666 72.2917 418.461 71.5293 418.866 72.2253C419.19 72.7839 419.647 73.8555 420.12 75.6091C421.058 79.0819 421.8 84.2219 422.17 90.8076C422.907 103.911 422.124 121.84 419.128 141.638C413.105 181.439 398.347 227.419 370.43 256.872L379.139 265.128C409.543 233.051 424.827 184.177 430.993 143.434C434.092 122.96 434.942 104.194 434.151 90.1342C433.758 83.1382 432.947 77.0793 431.705 72.4804C431.089 70.1982 430.299 68.0157 429.24 66.195C428.262 64.5117 426.537 62.2449 423.655 61.2991L419.913 72.7009ZM370.782 256.53C355.688 270.044 345.712 276.212 332.889 279.369C319.549 282.653 302.868 282.783 273.74 283L273.829 295C302.315 294.788 320.713 294.725 335.758 291.021C351.321 287.189 363.038 279.571 378.786 265.47L370.782 256.53ZM273.74 283C216.901 283.424 134.417 270.856 65.5909 214.362L57.9775 223.638C129.778 282.573 215.438 295.435 273.829 295L273.74 283ZM65.5909 214.362C21.1717 177.902 3.60048 109.662 15.7429 6.70273L3.82551 5.29727C-8.45001 109.385 8.64545 183.145 57.9775 223.638L65.5909 214.362ZM9.78421 12H19.7842V0H9.78421V12ZM197.277 81.1315C187.641 88.073 174.784 104.006 166.52 119.744C162.364 127.658 159.088 136.041 158.118 143.656C157.155 151.221 158.365 159.4 165.058 164.703L172.51 155.297C170.568 153.759 169.303 150.821 170.022 145.172C170.735 139.574 173.3 132.644 177.144 125.323C184.88 110.592 196.658 96.3666 204.291 90.8685L197.277 81.1315ZM165.058 164.703C170.925 169.351 179.516 170.986 188.341 171.452C197.422 171.931 208.047 171.212 219.015 170.101C241.4 167.832 265.046 164 283.784 164V152C264.255 152 239.035 156.01 217.805 158.162C206.965 159.26 197.094 159.897 188.973 159.468C180.596 159.026 175.278 157.49 172.51 155.297L165.058 164.703ZM283.784 164C302.602 164 322.053 166.02 337.991 167.313C345.846 167.95 352.985 168.421 358.575 168.31C361.362 168.255 364.013 168.053 366.294 167.569C368.37 167.129 371.171 166.255 373.188 164.076L364.381 155.924C364.959 155.3 365.22 155.53 363.803 155.83C362.592 156.088 360.798 156.264 358.337 156.313C353.429 156.41 346.852 155.992 338.961 155.352C323.405 154.09 303.234 152 283.784 152V164ZM373.188 164.076C375.045 162.068 375.902 159.28 376.385 157.159C376.93 154.763 377.262 151.937 377.423 148.915C377.747 142.849 377.416 135.411 376.388 127.858C375.361 120.314 373.609 112.426 370.983 105.523C368.417 98.7769 364.734 92.2121 359.384 88.2L352.184 97.8C354.835 99.7879 357.496 103.821 359.767 109.79C361.978 115.603 363.555 122.549 364.498 129.477C365.439 136.396 365.718 143.07 365.44 148.275C365.3 150.888 365.028 152.987 364.684 154.496C364.278 156.28 363.962 156.377 364.381 155.924L373.188 164.076ZM359.384 88.2C354.006 84.1663 347.527 82.8252 341.184 82.7196C334.849 82.6141 328.112 83.7331 321.712 85.1399C315.458 86.5146 308.677 88.3751 303.161 89.6963C297.301 91.0999 292.485 92 288.784 92V104C294.038 104 300.074 102.775 305.956 101.366C312.182 99.8749 318.031 98.2354 324.288 96.8601C330.399 95.5169 336.055 94.6359 340.984 94.7179C345.905 94.7998 349.563 95.8337 352.184 97.8L359.384 88.2ZM288.784 92C285.24 92 279.355 90.7189 271.476 88.5844C264.067 86.5773 254.792 83.7894 246.047 81.5265C237.16 79.2266 227.948 77.2238 219.725 76.642C211.755 76.0782 203.384 76.7328 197.277 81.1315L204.291 90.8685C206.819 89.0474 211.527 88.0921 218.878 88.6121C225.975 89.1142 234.326 90.8887 243.041 93.1438C251.899 95.4359 260.267 97.9804 268.338 100.167C275.94 102.226 283.374 104 288.784 104V92Z" fill="black"/>

<path fill-rule="evenodd" clip-rule="evenodd" d="M194 27L6 60L2 69L194 40V27Z" fill="black" stroke="black" stroke-width="4" stroke-linecap="round" stroke-linejoin="round"/>
<path fill-rule="evenodd" clip-rule="evenodd" d="M187 25.6503L220.276 19.8347C220.276 19.8347 239.938 2 272.08 2C304.221 2 337.497 31.466 337.497 31.466H353H368.503C368.503 31.466 401.779 2 433.92 2C466.061 2 485.724 19.8347 485.724 19.8347L519 25.6503V44.2604L507.656 50.076C507.656 50.076 503.875 112.497 481.187 131.107C458.499 149.717 422.88 149.544 397.241 131.107C371.603 112.671 363.588 50.076 363.588 50.076H353H342.412C342.412 50.076 334.397 112.671 308.759 131.107C283.12 149.544 247.501 149.717 224.813 131.107C202.125 112.497 198.344 50.076 198.344 50.076L187 44.2604V25.6503ZM220.685 31.1167C217.389 33.9109 215.191 36.4865 214.219 38.3739C213.749 39.2851 213.131 41.4876 212.556 44.7072C211.986 47.903 211.468 52.0447 211.178 56.7914C210.598 66.2874 210.931 78.179 213.56 89.7445C216.189 101.313 221.107 112.517 229.669 120.686C238.217 128.843 250.443 134.018 267.787 133.459L267.791 133.459C284.028 133.086 296.045 127.636 304.886 119.564C313.736 111.483 319.431 100.748 322.964 89.7693C326.497 78.7921 327.859 67.5977 328.061 58.6326C328.162 54.1508 327.973 50.2332 327.622 47.1855C327.447 45.6614 327.232 44.3601 326.994 43.3175C326.754 42.2663 326.498 41.5083 326.253 41.0512C321.888 32.917 306.331 14.6839 274.12 13.5505C258.01 12.9837 244.02 17.2588 233.553 22.6561C228.319 25.3547 223.972 28.3311 220.685 31.1167ZM233.095 21.7673C243.688 16.3047 257.847 11.9774 274.155 12.5512C306.778 13.699 322.629 32.1831 327.134 40.5784C327.443 41.1545 327.723 42.0164 327.969 43.0952C328.217 44.1827 328.438 45.5216 328.616 47.0712C328.972 50.1709 329.163 54.1348 329.061 58.6552C328.857 67.6946 327.484 78.9878 323.916 90.0756C320.348 101.162 314.577 112.069 305.56 120.302C296.535 128.543 284.284 134.079 267.817 134.458C250.239 135.025 237.743 129.773 228.978 121.41C220.226 113.058 215.24 101.647 212.585 89.9662C209.929 78.2827 209.596 66.2913 210.18 56.7305C210.472 51.9487 210.994 47.7685 211.572 44.5315C212.145 41.3183 212.783 38.9769 213.33 37.9159C214.39 35.8587 216.701 33.1827 220.039 30.3539C223.386 27.5166 227.798 24.4987 233.095 21.7673ZM485.315 31.1167C488.611 33.9109 490.809 36.4865 491.781 38.3739C492.251 39.2851 492.869 41.4876 493.444 44.7072C494.014 47.903 494.532 52.0447 494.822 56.7914C495.402 66.2874 495.069 78.179 492.44 89.7445C489.811 101.313 484.893 112.517 476.331 120.686C467.783 128.843 455.557 134.018 438.213 133.459L438.209 133.459C421.972 133.086 409.955 127.636 401.114 119.564C392.264 111.483 386.569 100.748 383.036 89.7693C379.503 78.7921 378.141 67.5977 377.939 58.6326C377.838 54.1508 378.027 50.2332 378.378 47.1855C378.553 45.6614 378.768 44.3601 379.006 43.3175C379.246 42.2663 379.502 41.5083 379.747 41.0512C384.112 32.917 399.669 14.6839 431.88 13.5505C447.99 12.9837 461.98 17.2588 472.447 22.6561C477.681 25.3547 482.028 28.3311 485.315 31.1167ZM472.905 21.7673C462.312 16.3047 448.153 11.9774 431.845 12.5512C399.222 13.699 383.371 32.1831 378.866 40.5784C378.557 41.1545 378.277 42.0164 378.031 43.0952C377.783 44.1827 377.562 45.5216 377.384 47.0712C377.028 50.1709 376.837 54.1348 376.939 58.6552C377.143 67.6946 378.516 78.9878 382.084 90.0756C385.652 101.162 391.423 112.069 400.44 120.302C409.465 128.543 421.716 134.079 438.183 134.458C455.761 135.025 468.257 129.773 477.022 121.41C485.774 113.058 490.76 101.647 493.415 89.9662C496.071 78.2827 496.404 66.2913 495.82 56.7305C495.528 51.9487 495.006 47.7685 494.428 44.5315C493.855 41.3183 493.217 38.9769 492.67 37.9159C491.61 35.8587 489.299 33.1827 485.961 30.3539C482.614 27.5166 478.202 24.4987 472.905 21.7673Z" fill="black"/>
<path d="M220.276 19.8347L220.62 21.8048C220.993 21.7397 221.339 21.5702 221.619 21.3161L220.276 19.8347ZM187 25.6503L186.656 23.6802C185.698 23.8475 185 24.6786 185 25.6503H187ZM337.497 31.466L336.171 32.9633C336.536 33.2871 337.008 33.466 337.497 33.466V31.466ZM368.503 31.466V33.466C368.992 33.466 369.464 33.2871 369.829 32.9633L368.503 31.466ZM485.724 19.8347L484.381 21.3161C484.661 21.5702 485.007 21.7397 485.38 21.8048L485.724 19.8347ZM519 25.6503H521C521 24.6786 520.302 23.8475 519.344 23.6802L519 25.6503ZM519 44.2604L519.912 46.0401C520.58 45.6978 521 45.0107 521 44.2604H519ZM507.656 50.076L506.744 48.2963C506.115 48.6188 505.702 49.2494 505.66 49.9551L507.656 50.076ZM397.241 131.107L398.409 129.484L397.241 131.107ZM363.588 50.076L365.571 49.822C365.444 48.8238 364.594 48.076 363.588 48.076V50.076ZM342.412 50.076V48.076C341.406 48.076 340.556 48.8238 340.429 49.822L342.412 50.076ZM308.759 131.107L307.591 129.484L308.759 131.107ZM198.344 50.076L200.34 49.9551C200.298 49.2494 199.885 48.6188 199.256 48.2963L198.344 50.076ZM187 44.2604H185C185 45.0107 185.42 45.6978 186.088 46.0401L187 44.2604ZM214.219 38.3739L215.997 39.29L214.219 38.3739ZM220.685 31.1167L219.392 29.5911L220.685 31.1167ZM212.556 44.7072L214.525 45.0585L214.525 45.0585L212.556 44.7072ZM211.178 56.7914L213.175 56.9134L211.178 56.7914ZM213.56 89.7445L215.51 89.3012L213.56 89.7445ZM229.669 120.686L231.049 119.239H231.049L229.669 120.686ZM267.787 133.459L267.734 131.459L267.722 131.46L267.787 133.459ZM267.791 133.459L267.745 131.459L267.739 131.459L267.791 133.459ZM304.886 119.564L303.537 118.087L304.886 119.564ZM322.964 89.7693L324.868 90.3819L322.964 89.7693ZM328.061 58.6326L326.062 58.5876V58.5876L328.061 58.6326ZM327.622 47.1855L329.609 46.9569V46.9569L327.622 47.1855ZM326.994 43.3175L328.944 42.8728L326.994 43.3175ZM326.253 41.0512L324.491 41.9968V41.9968L326.253 41.0512ZM274.12 13.5505L274.19 11.5518L274.12 13.5505ZM233.553 22.6561L234.469 24.4337L233.553 22.6561ZM274.155 12.5512L274.085 14.5499L274.155 12.5512ZM233.095 21.7673L232.178 19.9897L233.095 21.7673ZM327.134 40.5784L325.372 41.524L325.372 41.5241L327.134 40.5784ZM327.969 43.0952L326.019 43.5399L326.019 43.5399L327.969 43.0952ZM328.616 47.0712L326.629 47.2998V47.2998L328.616 47.0712ZM329.061 58.6552L327.061 58.6101L329.061 58.6552ZM323.916 90.0756L322.012 89.4629L323.916 90.0756ZM305.56 120.302L304.212 118.825H304.212L305.56 120.302ZM267.817 134.458L267.771 132.459C267.764 132.459 267.758 132.459 267.752 132.459L267.817 134.458ZM228.978 121.41L230.359 119.963L228.978 121.41ZM212.585 89.9662L214.535 89.5229L212.585 89.9662ZM210.18 56.7305L208.184 56.6085V56.6085L210.18 56.7305ZM211.572 44.5315L209.603 44.1802L211.572 44.5315ZM213.33 37.9159L215.108 38.8319L213.33 37.9159ZM220.039 30.3539L218.746 28.8282L220.039 30.3539ZM491.781 38.3739L493.559 37.4578V37.4578L491.781 38.3739ZM485.315 31.1167L486.608 29.5911V29.5911L485.315 31.1167ZM493.444 44.7072L495.413 44.3559V44.3559L493.444 44.7072ZM494.822 56.7914L496.818 56.6695V56.6695L494.822 56.7914ZM492.44 89.7445L494.39 90.1878V90.1878L492.44 89.7445ZM476.331 120.686L474.951 119.239L476.331 120.686ZM438.213 133.459L438.278 131.46L438.266 131.459L438.213 133.459ZM438.209 133.459L438.261 131.459L438.255 131.459L438.209 133.459ZM401.114 119.564L402.463 118.087L401.114 119.564ZM383.036 89.7693L381.132 90.3819L383.036 89.7693ZM377.939 58.6326L379.938 58.5876V58.5876L377.939 58.6326ZM378.378 47.1855L376.391 46.9569V46.9569L378.378 47.1855ZM379.006 43.3175L377.056 42.8728L379.006 43.3175ZM379.747 41.0512L381.509 41.9968V41.9968L379.747 41.0512ZM431.88 13.5505L431.81 11.5518L431.88 13.5505ZM472.447 22.6561L471.531 24.4337V24.4337L472.447 22.6561ZM431.845 12.5512L431.915 14.5499L431.845 12.5512ZM472.905 21.7673L473.822 19.9897V19.9897L472.905 21.7673ZM378.866 40.5784L380.628 41.5241L380.628 41.524L378.866 40.5784ZM378.031 43.0952L379.981 43.5399L379.981 43.5399L378.031 43.0952ZM377.384 47.0712L379.371 47.2998V47.2998L377.384 47.0712ZM376.939 58.6552L378.939 58.6101L376.939 58.6552ZM382.084 90.0756L383.988 89.4629L382.084 90.0756ZM400.44 120.302L399.091 121.779L400.44 120.302ZM438.183 134.458L438.248 132.459C438.242 132.459 438.236 132.459 438.229 132.459L438.183 134.458ZM477.022 121.41L478.402 122.857L477.022 121.41ZM493.415 89.9662L491.465 89.5229L493.415 89.9662ZM495.82 56.7305L497.816 56.6085V56.6085L495.82 56.7305ZM494.428 44.5315L492.459 44.8829V44.8829L494.428 44.5315ZM492.67 37.9159L494.448 36.9998V36.9998L492.67 37.9159ZM485.961 30.3539L487.254 28.8282L487.254 28.8282L485.961 30.3539ZM219.931 17.8645L186.656 23.6802L187.344 27.6204L220.62 21.8048L219.931 17.8645ZM272.08 0C255.633 0 242.376 4.56359 233.232 9.12783C228.659 11.4102 225.107 13.6959 222.689 15.4194C221.48 16.2814 220.553 17.0037 219.922 17.5159C219.607 17.772 219.366 17.9756 219.2 18.1181C219.117 18.1893 219.053 18.2453 219.009 18.2848C218.986 18.3046 218.969 18.3203 218.956 18.3317C218.949 18.3375 218.944 18.3421 218.94 18.3457C218.938 18.3475 218.937 18.349 218.935 18.3503C218.935 18.3509 218.934 18.3517 218.933 18.352C218.933 18.3526 218.932 18.3532 220.276 19.8347C221.619 21.3161 221.619 21.3165 221.618 21.3169C221.618 21.317 221.618 21.3173 221.618 21.3174C221.618 21.3176 221.618 21.3175 221.618 21.3171C221.619 21.3164 221.621 21.3146 221.624 21.3117C221.631 21.306 221.642 21.2961 221.657 21.2821C221.689 21.2542 221.739 21.21 221.809 21.1506C221.947 21.0318 222.159 20.8523 222.444 20.6208C223.014 20.1576 223.875 19.4865 225.011 18.6766C227.284 17.0561 230.657 14.8831 235.018 12.7068C243.74 8.35374 256.385 4 272.08 4V0ZM337.497 31.466C338.822 29.9686 338.822 29.9682 338.821 29.9677C338.821 29.9673 338.82 29.9667 338.82 29.966C338.818 29.9647 338.816 29.963 338.814 29.9608C338.809 29.9564 338.802 29.9502 338.793 29.9423C338.775 29.9264 338.748 29.9036 338.715 29.874C338.647 29.8148 338.547 29.7286 338.417 29.6171C338.157 29.3941 337.775 29.0702 337.28 28.6596C336.289 27.8386 334.842 26.6708 333.008 25.2717C329.341 22.4749 324.114 18.7464 317.866 15.0158C305.431 7.59004 288.696 0 272.08 0V4C287.605 4 303.578 11.1429 315.816 18.4501C321.905 22.086 327.005 25.724 330.582 28.4521C332.37 29.8155 333.774 30.9496 334.728 31.74C335.205 32.1352 335.57 32.4443 335.813 32.653C335.934 32.7573 336.026 32.8366 336.086 32.8889C336.116 32.915 336.138 32.9345 336.152 32.9469C336.159 32.9532 336.164 32.9577 336.167 32.9604C336.169 32.9618 336.17 32.9627 336.171 32.9632C336.171 32.9634 336.171 32.9634 336.171 32.9636C336.171 32.9635 336.171 32.9633 337.497 31.466ZM353 29.466H337.497V33.466H353V29.466ZM353 33.466H368.503V29.466H353V33.466ZM368.503 31.466C369.829 32.9633 369.829 32.9635 369.829 32.9636C369.829 32.9634 369.829 32.9634 369.829 32.9632C369.83 32.9627 369.831 32.9618 369.833 32.9604C369.836 32.9577 369.841 32.9532 369.848 32.9469C369.862 32.9345 369.884 32.915 369.914 32.8889C369.974 32.8366 370.066 32.7573 370.187 32.653C370.43 32.4443 370.795 32.1352 371.272 31.74C372.226 30.9496 373.63 29.8155 375.418 28.4521C378.995 25.724 384.095 22.086 390.184 18.4501C402.422 11.1429 418.395 4 433.92 4V0C417.304 0 400.569 7.59004 388.134 15.0158C381.886 18.7464 376.659 22.4749 372.992 25.2717C371.158 26.6708 369.711 27.8386 368.72 28.6596C368.225 29.0702 367.843 29.3941 367.583 29.6171C367.453 29.7286 367.353 29.8148 367.285 29.874C367.252 29.9036 367.225 29.9264 367.207 29.9423C367.198 29.9502 367.191 29.9564 367.186 29.9608C367.184 29.963 367.182 29.9647 367.18 29.966C367.18 29.9667 367.179 29.9673 367.179 29.9677C367.178 29.9682 367.178 29.9686 368.503 31.466ZM433.92 4C449.615 4 462.26 8.35374 470.982 12.7068C475.343 14.8831 478.716 17.0561 480.989 18.6766C482.125 19.4865 482.986 20.1576 483.556 20.6208C483.841 20.8523 484.053 21.0318 484.191 21.1506C484.261 21.21 484.311 21.2542 484.343 21.2821C484.358 21.2961 484.369 21.306 484.376 21.3117C484.379 21.3146 484.381 21.3164 484.382 21.3171C484.382 21.3175 484.382 21.3176 484.382 21.3174C484.382 21.3173 484.382 21.317 484.382 21.3169C484.381 21.3165 484.381 21.3161 485.724 19.8347C487.068 18.3532 487.067 18.3526 487.067 18.352C487.066 18.3517 487.065 18.3509 487.065 18.3503C487.063 18.349 487.062 18.3475 487.06 18.3457C487.056 18.3421 487.051 18.3375 487.044 18.3317C487.031 18.3203 487.014 18.3046 486.991 18.2848C486.947 18.2453 486.883 18.1893 486.8 18.1181C486.634 17.9756 486.393 17.772 486.078 17.5159C485.447 17.0037 484.52 16.2814 483.311 15.4194C480.893 13.6959 477.341 11.4102 472.768 9.12783C463.624 4.56359 450.367 0 433.92 0V4ZM485.38 21.8048L518.656 27.6204L519.344 23.6802L486.069 17.8645L485.38 21.8048ZM517 25.6503V44.2604H521V25.6503H517ZM518.088 42.4806L506.744 48.2963L508.568 51.8558L519.912 46.0401L518.088 42.4806ZM507.656 50.076C505.66 49.9551 505.66 49.955 505.66 49.9551C505.66 49.9555 505.66 49.9559 505.66 49.9566C505.66 49.958 505.659 49.9604 505.659 49.9638C505.659 49.9704 505.658 49.9808 505.657 49.995C505.655 50.0232 505.653 50.0662 505.649 50.1237C505.641 50.2386 505.63 50.4111 505.613 50.638C505.581 51.0918 505.529 51.763 505.456 52.6257C505.31 54.3512 505.076 56.842 504.724 59.8908C504.02 65.9918 502.847 74.3118 500.972 83.2002C499.096 92.0972 496.528 101.512 493.049 109.823C489.556 118.168 485.222 125.21 479.918 129.561L482.455 132.654C488.495 127.699 493.142 119.96 496.739 111.367C500.35 102.74 502.981 93.0603 504.886 84.0256C506.793 74.9825 507.984 66.5341 508.698 60.3494C509.055 57.2555 509.293 54.7242 509.442 52.9634C509.517 52.0829 509.569 51.3948 509.603 50.9252C509.62 50.6903 509.632 50.5101 509.64 50.3876C509.644 50.3264 509.647 50.2796 509.649 50.2477C509.65 50.2318 509.651 50.2195 509.652 50.211C509.652 50.2068 509.652 50.2035 509.652 50.2012C509.652 50.2 509.652 50.1989 509.652 50.1983C509.652 50.1975 509.652 50.197 507.656 50.076ZM479.918 129.561C458.016 147.527 423.404 147.458 398.409 129.484L396.074 132.731C422.355 151.63 458.982 151.908 482.455 132.654L479.918 129.561ZM398.409 129.484C392.366 125.138 387.236 118.085 382.945 109.753C378.668 101.446 375.305 92.0258 372.721 83.1207C370.14 74.2232 368.35 65.8891 367.207 59.7766C366.635 56.722 366.225 54.2262 365.959 52.4971C365.826 51.6327 365.728 50.9601 365.665 50.5056C365.633 50.2783 365.609 50.1055 365.594 49.9905C365.586 49.933 365.58 49.8899 365.577 49.8617C365.575 49.8476 365.573 49.8372 365.573 49.8305C365.572 49.8272 365.572 49.8249 365.572 49.8234C365.572 49.8227 365.572 49.8224 365.571 49.822C365.571 49.8219 365.571 49.822 363.588 50.076C361.604 50.3301 361.604 50.3306 361.604 50.3315C361.604 50.3321 361.604 50.3331 361.604 50.3343C361.605 50.3367 361.605 50.34 361.606 50.3443C361.607 50.3529 361.608 50.3652 361.611 50.3812C361.615 50.4133 361.621 50.4603 361.629 50.5218C361.646 50.6448 361.67 50.8258 361.703 51.0614C361.77 51.5328 361.869 52.223 362.006 53.1062C362.278 54.8723 362.694 57.4107 363.275 60.5124C364.435 66.7126 366.252 75.1794 368.879 84.2352C371.504 93.2833 374.952 102.968 379.389 111.584C383.812 120.174 389.298 127.858 396.074 132.731L398.409 129.484ZM363.588 48.076H353V52.076H363.588V48.076ZM342.412 52.076H353V48.076H342.412V52.076ZM309.926 132.731C316.702 127.858 322.188 120.174 326.611 111.584C331.048 102.968 334.496 93.2833 337.121 84.2352C339.748 75.1794 341.565 66.7126 342.725 60.5124C343.306 57.4107 343.722 54.8723 343.994 53.1062C344.131 52.223 344.23 51.5328 344.297 51.0614C344.33 50.8258 344.354 50.6448 344.371 50.5218C344.379 50.4603 344.385 50.4133 344.389 50.3812C344.392 50.3652 344.393 50.3529 344.394 50.3443C344.395 50.34 344.395 50.3367 344.396 50.3343C344.396 50.3331 344.396 50.3321 344.396 50.3315C344.396 50.3306 344.396 50.3301 342.412 50.076C340.429 49.822 340.429 49.8219 340.429 49.822C340.428 49.8224 340.428 49.8227 340.428 49.8234C340.428 49.8249 340.428 49.8272 340.427 49.8305C340.427 49.8372 340.425 49.8476 340.423 49.8617C340.42 49.8899 340.414 49.933 340.406 49.9905C340.391 50.1055 340.367 50.2783 340.335 50.5056C340.272 50.9601 340.174 51.6327 340.041 52.4971C339.775 54.2262 339.365 56.722 338.793 59.7766C337.65 65.8891 335.86 74.2232 333.279 83.1207C330.695 92.0258 327.332 101.446 323.055 109.753C318.764 118.085 313.634 125.138 307.591 129.484L309.926 132.731ZM223.545 132.654C247.018 151.908 283.645 151.63 309.926 132.731L307.591 129.484C282.596 147.458 247.984 147.527 226.082 129.561L223.545 132.654ZM198.344 50.076C196.348 50.197 196.348 50.1975 196.348 50.1983C196.348 50.1989 196.348 50.2 196.348 50.2012C196.348 50.2035 196.348 50.2068 196.348 50.211C196.349 50.2195 196.35 50.2318 196.351 50.2477C196.353 50.2796 196.356 50.3264 196.36 50.3876C196.368 50.5101 196.38 50.6903 196.397 50.9252C196.431 51.3948 196.483 52.0829 196.558 52.9634C196.707 54.7242 196.945 57.2555 197.302 60.3494C198.016 66.5341 199.207 74.9825 201.114 84.0256C203.019 93.0603 205.65 102.74 209.261 111.367C212.858 119.96 217.505 127.699 223.545 132.654L226.082 129.561C220.778 125.21 216.444 118.168 212.951 109.823C209.472 101.512 206.904 92.0972 205.028 83.2002C203.153 74.3118 201.98 65.9918 201.276 59.8908C200.924 56.842 200.69 54.3512 200.544 52.6257C200.471 51.763 200.419 51.0918 200.387 50.638C200.37 50.4111 200.359 50.2386 200.351 50.1237C200.347 50.0662 200.345 50.0232 200.343 49.995C200.342 49.9808 200.341 49.9704 200.341 49.9638C200.341 49.9604 200.34 49.958 200.34 49.9566C200.34 49.9559 200.34 49.9555 200.34 49.9551C200.34 49.955 200.34 49.9551 198.344 50.076ZM186.088 46.0401L197.432 51.8558L199.256 48.2963L187.912 42.4806L186.088 46.0401ZM185 25.6503V44.2604H189V25.6503H185ZM215.997 39.29C216.794 37.7422 218.764 35.3673 221.979 32.6424L219.392 29.5911C216.014 32.4545 213.588 35.2308 212.441 37.4578L215.997 39.29ZM214.525 45.0585C215.102 41.8258 215.682 39.9014 215.997 39.29L212.441 37.4578C211.817 38.6689 211.159 41.1494 210.587 44.3559L214.525 45.0585ZM213.175 56.9134C213.46 52.2368 213.969 48.172 214.525 45.0585L210.587 44.3559C210.002 47.634 209.476 51.8527 209.182 56.6695L213.175 56.9134ZM215.51 89.3012C212.935 77.9716 212.603 66.2797 213.175 56.9134L209.182 56.6695C208.594 66.2952 208.927 78.3864 211.61 90.1878L215.51 89.3012ZM231.049 119.239C222.871 111.435 218.088 100.644 215.51 89.3012L211.61 90.1878C214.29 101.981 219.344 113.599 228.288 122.133L231.049 119.239ZM267.722 131.46C250.848 132.004 239.164 126.982 231.049 119.239L228.288 122.133C237.27 130.704 250.038 136.033 267.851 135.458L267.722 131.46ZM267.739 131.459L267.734 131.459L267.839 135.458L267.844 135.458L267.739 131.459ZM303.537 118.087C295.066 125.822 283.517 131.097 267.745 131.459L267.837 135.458C284.539 135.074 297.024 129.451 306.234 121.041L303.537 118.087ZM321.06 89.1566C317.597 99.9181 312.054 110.311 303.537 118.087L306.234 121.041C315.418 112.655 321.265 101.577 324.868 90.3819L321.06 89.1566ZM326.062 58.5876C325.863 67.4038 324.522 78.4007 321.06 89.1566L324.868 90.3819C328.472 79.1835 329.855 67.7916 330.061 58.6777L326.062 58.5876ZM325.635 47.4141C325.974 50.3578 326.161 54.1828 326.062 58.5876L330.061 58.6777C330.163 54.1188 329.972 50.1087 329.609 46.9569L325.635 47.4141ZM325.044 43.7623C325.261 44.715 325.466 45.941 325.635 47.4141L329.609 46.9569C329.428 45.3818 329.202 44.0052 328.944 42.8728L325.044 43.7623ZM324.491 41.9968C324.608 42.2156 324.817 42.7658 325.044 43.7623L328.944 42.8728C328.692 41.7668 328.388 40.8009 328.015 40.1056L324.491 41.9968ZM274.049 15.5493C305.438 16.6538 320.406 34.385 324.491 41.9968L328.015 40.1056C323.37 31.449 307.224 12.7141 274.19 11.5518L274.049 15.5493ZM234.469 24.4337C244.683 19.1672 258.335 14.9964 274.049 15.5493L274.19 11.5518C257.685 10.971 243.357 15.3505 232.636 20.8785L234.469 24.4337ZM221.979 32.6424C225.143 29.9602 229.363 27.0668 234.469 24.4337L232.636 20.8785C227.276 23.6426 222.801 26.702 219.392 29.5911L221.979 32.6424ZM274.225 10.5524C257.522 9.96468 243.025 14.3963 232.178 19.9897L234.011 23.5449C244.351 18.213 258.173 13.99 274.085 14.5499L274.225 10.5524ZM328.896 39.6328C324.112 30.7153 307.671 11.7292 274.225 10.5524L274.085 14.5499C305.885 15.6689 321.147 33.6508 325.372 41.524L328.896 39.6328ZM329.919 42.6505C329.66 41.5164 329.333 40.4469 328.896 39.6328L325.372 41.5241C325.553 41.8621 325.786 42.5164 326.019 43.5399L329.919 42.6505ZM330.603 46.8426C330.419 45.2421 330.187 43.8278 329.919 42.6505L326.019 43.5399C326.247 44.5376 326.456 45.8012 326.629 47.2998L330.603 46.8426ZM331.06 58.7003C331.164 54.1028 330.971 50.0464 330.603 46.8426L326.629 47.2998C326.974 50.2955 327.162 54.1668 327.061 58.6101L331.06 58.7003ZM325.82 90.6883C329.459 79.3792 330.853 67.8885 331.06 58.7003L327.061 58.6101C326.861 67.5007 325.509 78.5964 322.012 89.4629L325.82 90.6883ZM306.909 121.779C316.259 113.242 322.182 101.992 325.82 90.6883L322.012 89.4629C318.514 100.333 312.895 110.897 304.212 118.825L306.909 121.779ZM267.863 136.458C284.795 136.068 297.513 130.358 306.909 121.779L304.212 118.825C295.556 126.729 283.773 132.091 267.771 132.459L267.863 136.458ZM227.598 122.857C236.796 131.634 249.834 137.039 267.881 136.457L267.752 132.459C250.644 133.011 238.69 127.912 230.359 119.963L227.598 122.857ZM210.635 90.4095C213.341 102.316 218.463 114.14 227.598 122.857L230.359 119.963C221.989 111.976 217.139 100.978 214.535 89.5229L210.635 90.4095ZM208.184 56.6085C207.592 66.299 207.925 78.4901 210.635 90.4095L214.535 89.5229C211.933 78.0753 211.6 66.2836 212.177 56.8524L208.184 56.6085ZM209.603 44.1802C209.01 47.4996 208.48 51.7567 208.184 56.6085L212.177 56.8524C212.464 52.1408 212.978 48.0375 213.541 44.8829L209.603 44.1802ZM211.552 36.9998C210.851 38.3603 210.174 40.9791 209.603 44.1802L213.541 44.8829C214.116 41.6574 214.715 39.5935 215.108 38.8319L211.552 36.9998ZM218.746 28.8282C215.326 31.7264 212.787 34.6031 211.552 36.9998L215.108 38.8319C215.993 37.1143 218.076 34.639 221.332 31.8796L218.746 28.8282ZM232.178 19.9897C226.754 22.7865 222.215 25.8875 218.746 28.8282L221.332 31.8796C224.558 29.1456 228.841 26.2108 234.011 23.5449L232.178 19.9897ZM493.559 37.4578C492.412 35.2308 489.986 32.4545 486.608 29.5911L484.021 32.6424C487.236 35.3673 489.206 37.7422 490.003 39.29L493.559 37.4578ZM495.413 44.3559C494.841 41.1494 494.183 38.6689 493.559 37.4578L490.003 39.29C490.318 39.9014 490.898 41.8258 491.475 45.0585L495.413 44.3559ZM496.818 56.6695C496.524 51.8527 495.998 47.6341 495.413 44.3559L491.475 45.0585C492.031 48.172 492.54 52.2368 492.825 56.9134L496.818 56.6695ZM494.39 90.1878C497.073 78.3864 497.406 66.2952 496.818 56.6695L492.825 56.9134C493.397 66.2797 493.065 77.9716 490.49 89.3012L494.39 90.1878ZM477.712 122.133C486.656 113.599 491.71 101.981 494.39 90.1878L490.49 89.3012C487.912 100.644 483.129 111.435 474.951 119.239L477.712 122.133ZM438.149 135.458C455.962 136.033 468.73 130.704 477.712 122.133L474.951 119.239C466.836 126.982 455.152 132.004 438.278 131.46L438.149 135.458ZM438.156 135.458L438.161 135.458L438.266 131.459L438.261 131.459L438.156 135.458ZM399.766 121.041C408.976 129.451 421.461 135.074 438.163 135.458L438.255 131.459C422.483 131.097 410.934 125.822 402.463 118.087L399.766 121.041ZM381.132 90.3819C384.735 101.577 390.582 112.655 399.766 121.041L402.463 118.087C393.946 110.311 388.403 99.9181 384.94 89.1566L381.132 90.3819ZM375.939 58.6777C376.145 67.7916 377.528 79.1835 381.132 90.3819L384.94 89.1566C381.478 78.4007 380.137 67.4038 379.938 58.5876L375.939 58.6777ZM376.391 46.9569C376.028 50.1087 375.837 54.1188 375.939 58.6777L379.938 58.5876C379.839 54.1828 380.026 50.3578 380.365 47.4141L376.391 46.9569ZM377.056 42.8728C376.798 44.0052 376.572 45.3818 376.391 46.9569L380.365 47.4141C380.534 45.941 380.739 44.715 380.956 43.7623L377.056 42.8728ZM377.985 40.1056C377.612 40.8009 377.308 41.7668 377.056 42.8728L380.956 43.7623C381.183 42.7658 381.392 42.2156 381.509 41.9968L377.985 40.1056ZM431.81 11.5518C398.776 12.7141 382.63 31.449 377.985 40.1056L381.509 41.9968C385.594 34.385 400.562 16.6538 431.951 15.5493L431.81 11.5518ZM473.364 20.8785C462.643 15.3505 448.315 10.971 431.81 11.5518L431.951 15.5493C447.665 14.9964 461.317 19.1672 471.531 24.4337L473.364 20.8785ZM486.608 29.5911C483.199 26.702 478.724 23.6426 473.364 20.8785L471.531 24.4337C476.637 27.0668 480.857 29.9602 484.021 32.6424L486.608 29.5911ZM431.915 14.5499C447.827 13.99 461.649 18.213 471.989 23.5449L473.822 19.9897C462.975 14.3963 448.478 9.96468 431.775 10.5524L431.915 14.5499ZM380.628 41.524C384.853 33.6508 400.115 15.6689 431.915 14.5499L431.775 10.5524C398.329 11.7292 381.888 30.7153 377.104 39.6328L380.628 41.524ZM379.981 43.5399C380.214 42.5164 380.447 41.8621 380.628 41.5241L377.104 39.6328C376.667 40.4469 376.34 41.5164 376.081 42.6505L379.981 43.5399ZM379.371 47.2998C379.544 45.8012 379.753 44.5376 379.981 43.5399L376.081 42.6505C375.813 43.8278 375.581 45.2421 375.397 46.8426L379.371 47.2998ZM378.939 58.6101C378.838 54.1668 379.026 50.2955 379.371 47.2998L375.397 46.8426C375.029 50.0464 374.836 54.1028 374.94 58.7003L378.939 58.6101ZM383.988 89.4629C380.491 78.5964 379.139 67.5007 378.939 58.6101L374.94 58.7003C375.147 67.8885 376.541 79.3792 380.18 90.6883L383.988 89.4629ZM401.788 118.825C393.105 110.897 387.486 100.333 383.988 89.4629L380.18 90.6883C383.818 101.992 389.741 113.242 399.091 121.779L401.788 118.825ZM438.229 132.459C422.227 132.091 410.444 126.729 401.788 118.825L399.091 121.779C408.487 130.358 421.205 136.068 438.137 136.458L438.229 132.459ZM475.641 119.963C467.31 127.912 455.356 133.011 438.248 132.459L438.119 136.457C456.166 137.039 469.204 131.634 478.402 122.857L475.641 119.963ZM491.465 89.5229C488.861 100.978 484.011 111.976 475.641 119.963L478.402 122.857C487.537 114.14 492.659 102.316 495.365 90.4095L491.465 89.5229ZM493.823 56.8524C494.4 66.2836 494.067 78.0753 491.465 89.5229L495.365 90.4095C498.075 78.4901 498.408 66.299 497.816 56.6085L493.823 56.8524ZM492.459 44.8829C493.022 48.0375 493.536 52.1408 493.823 56.8524L497.816 56.6085C497.52 51.7567 496.99 47.4996 496.397 44.1802L492.459 44.8829ZM490.892 38.8319C491.285 39.5935 491.884 41.6574 492.459 44.8829L496.397 44.1802C495.826 40.9791 495.149 38.3604 494.448 36.9998L490.892 38.8319ZM484.668 31.8796C487.924 34.639 490.007 37.1143 490.892 38.8319L494.448 36.9998C493.213 34.6031 490.674 31.7264 487.254 28.8282L484.668 31.8796ZM471.989 23.5449C477.159 26.2108 481.442 29.1456 484.668 31.8796L487.254 28.8282C483.785 25.8875 479.246 22.7865 473.822 19.9897L471.989 23.5449Z" fill="black"/>

<path d="M586.364 285.584C587.787 285.071 589.352 285.115 590.744 285.707L588.397 291.229C590.744 285.707 590.745 285.707 590.747 285.708L590.75 285.709L590.759 285.713L590.787 285.725L590.876 285.763C590.95 285.796 591.054 285.841 591.185 285.899C591.448 286.015 591.819 286.182 592.28 286.396C593.199 286.822 594.483 287.439 595.966 288.21C598.889 289.731 602.778 291.952 606.204 294.609C609.355 297.053 613.296 300.743 614.573 305.471C615.29 308.125 615.144 311.033 613.712 313.814C612.356 316.446 610.1 318.476 607.469 320.075C601.829 323.501 594.637 324.18 587.944 323.852C581.082 323.515 573.794 322.064 567.258 320.353C560.687 318.634 554.679 316.6 550.325 315.003C548.143 314.202 546.364 313.506 545.122 313.007C544.501 312.758 544.014 312.557 543.677 312.417C543.509 312.347 543.378 312.292 543.287 312.253L543.18 312.208L543.15 312.195L543.14 312.191L543.137 312.19C543.136 312.189 543.135 312.189 545.503 306.676L543.135 312.189C540.871 311.216 539.432 308.958 539.506 306.495C539.58 304.033 541.152 301.866 543.47 301.031L586.364 285.584Z" fill="white" stroke="black" stroke-width="12" stroke-linecap="round" stroke-linejoin="round"/>
<path d="M599.983 290.136C602.506 291.321 603.881 294.088 603.301 296.815C602.721 299.542 600.34 301.51 597.552 301.566L597.551 301.566L597.536 301.566L597.47 301.568C597.409 301.569 597.315 301.571 597.191 301.575C596.941 301.581 596.568 301.592 596.084 301.609C595.116 301.642 593.708 301.697 591.968 301.787C588.482 301.968 583.689 302.285 578.45 302.832C567.639 303.959 556.065 305.961 549.673 309.176C520.246 323.973 488.71 339.226 458.703 350.561C428.825 361.848 399.816 369.509 375.597 368.591C332.287 366.948 283.131 347.141 245.283 328.165C226.255 318.625 209.883 309.19 198.266 302.139C192.454 298.612 187.826 295.678 184.644 293.62C183.052 292.591 181.822 291.781 180.985 291.225C180.566 290.947 180.246 290.733 180.028 290.587L179.908 290.506L179.779 290.419L179.713 290.374L179.695 290.362L179.689 290.358C179.688 290.357 179.686 290.356 183.06 285.395L179.686 290.356C177.683 288.994 176.696 286.561 177.183 284.188C177.67 281.815 179.536 279.968 181.914 279.505L459.566 225.467C460.815 225.223 462.11 225.384 463.262 225.925L599.983 290.136Z" fill="white" stroke="black" stroke-width="12" stroke-linecap="round" stroke-linejoin="round"/>
<path d="M480.712 241.356L486.621 240.312C487.13 243.194 485.486 246.022 482.73 247.006L480.712 241.356ZM480.712 241.356C486.621 240.312 486.62 240.309 486.619 240.304L486.617 240.291L486.61 240.25C486.604 240.217 486.595 240.17 486.584 240.111C486.562 239.993 486.531 239.825 486.489 239.607C486.405 239.173 486.279 238.542 486.108 237.73C485.765 236.106 485.239 233.752 484.495 230.777C483.007 224.828 480.644 216.386 477.126 206.312C470.097 186.184 458.417 159.43 439.806 133.031C402.434 80.0226 337.167 28.6341 226.669 35.0667C116.312 41.4911 60.9378 96.2058 33.4937 149.669C19.8571 176.234 13.1773 202.341 9.8985 221.774C8.25713 231.502 7.46246 239.591 7.07812 245.274C6.88585 248.116 6.79605 250.36 6.75445 251.909C6.73364 252.683 6.72487 253.284 6.7214 253.7C6.71966 253.908 6.71922 254.07 6.71928 254.184C6.71929 254.241 6.71944 254.286 6.7196 254.319L6.71984 254.359L6.71992 254.372C6.71997 254.377 6.72 254.381 12.7198 254.327M480.712 241.356C482.73 247.006 482.729 247.007 482.728 247.007L482.725 247.008L482.714 247.012L482.672 247.027L482.508 247.085C482.364 247.136 482.151 247.212 481.872 247.311C481.314 247.508 480.491 247.798 479.428 248.169C477.303 248.913 474.215 249.984 470.358 251.298C462.646 253.926 451.849 257.531 439.507 261.436C414.883 269.227 383.881 278.29 358.931 283.146C334.034 287.992 295.102 292.549 262.587 295.885C246.288 297.557 231.533 298.929 220.852 299.883C215.511 300.36 211.188 300.733 208.198 300.986C206.703 301.113 205.542 301.21 204.753 301.275C204.359 301.308 204.058 301.333 203.855 301.349L203.625 301.368L203.566 301.373L203.551 301.374L203.548 301.375C203.547 301.375 203.546 301.375 203.061 295.394M12.7198 254.327C8.9921 259.028 8.99321 259.029 8.99446 259.03L8.99753 259.033L9.00588 259.039L9.03127 259.059L9.11649 259.126C9.18851 259.182 9.29089 259.262 9.42283 259.364C9.68676 259.567 10.0691 259.858 10.564 260.228C11.5534 260.966 12.9938 262.017 14.837 263.298C18.5212 265.858 23.8275 269.346 30.3715 273.1C43.4138 280.58 61.5911 289.24 81.7755 293.595C101.727 297.9 132.227 299.822 157.367 300.692C170.015 301.13 181.442 301.306 189.706 301.372C193.839 301.405 197.184 301.41 199.499 301.408C200.656 301.406 201.556 301.403 202.168 301.4C202.475 301.398 202.709 301.397 202.867 301.396L203.048 301.395L203.095 301.394L203.107 301.394L203.11 301.394C203.111 301.394 203.112 301.394 203.061 295.394M12.7198 254.327L8.9921 259.028C7.57144 257.902 6.73628 256.194 6.72 254.381L12.7198 254.327ZM203.061 295.394L203.546 301.375C203.402 301.386 203.257 301.393 203.112 301.394L203.061 295.394Z" fill="white" stroke="black" stroke-width="12" stroke-linecap="round" stroke-linejoin="round"/>
<path d="M205.691 62.8309C197.814 63.7981 190.181 63.033 184.139 60.7269C178.381 58.5292 172.472 54.2035 171.606 47.1496C170.739 40.0958 175.427 34.469 180.482 30.9436C185.787 27.2441 193.008 24.6552 200.885 23.688C208.762 22.7208 216.395 23.4859 222.437 25.7921C228.196 27.9898 234.105 32.3155 234.971 39.3693C235.837 46.4232 231.15 52.05 226.094 55.5754C220.789 59.2748 213.568 61.8637 205.691 62.8309Z" fill="white" stroke="black" stroke-width="12" stroke-linecap="round" stroke-linejoin="round"/>

</svg>