<svg width="564px" height="504px" viewBox="0 0 564 504" version="1.1" xmlns="http://www.w3.org/2000/svg" xmlns:xlink="http://www.w3.org/1999/xlink">

    <title>face-8</title>
    <g id="All-customizable-items" stroke="none" stroke-width="1" fill="none" fill-rule="evenodd" stroke-linecap="round" stroke-linejoin="round">
        <g id="Face/-8" transform="translate(-220.000000, -367.000000)" stroke="#000000" stroke-width="24">
            <path d="M532,379 C664.54834,379 772,486.45166 772,619 C772,751.54834 724.54834,899 592,899 C492.560218,899 373.476049,816.010833 320.189513,718.584987 C317.498129,718.859681 314.765451,719 312,719 C267.81722,719 232,683.18278 232,639 C232,599.134956 261.158843,566.080325 299.312086,560.00055 C325.599297,455.979213 419.809919,379 532,379 Z M295.858895,624.545187 L304.141105,655.454813" id="face-8"></path>
        </g>
    </g>

    <title>eyes-9</title>
    <g id="All-customizable-items" stroke="none" stroke-width="1" fill="none" fill-rule="evenodd">
        <g id="Eyes/-9" transform="translate(-550.000000, -507.000000)" fill="#000000">
            <path d="M570,507 C575.854822,507 581.122051,511.025253 584.779642,517.440484 L578,531 L589.369946,531.000208 C589.781247,533.557105 590,536.237678 590,539 C590,556.673112 581.045695,571 570,571 C558.954305,571 550,556.673112 550,539 C550,521.326888 558.954305,507 570,507 Z M708,507 C713.854822,507 719.122051,511.025253 722.779642,517.440484 L716,531 L727.369946,531.000208 C727.781247,533.557105 728,536.237678 728,539 C728,556.673112 719.045695,571 708,571 C696.954305,571 688,556.673112 688,539 C688,521.326888 696.954305,507 708,507 Z" id="eyes-9"></path>
        </g>
    </g>

    <title>eyebrows-1</title>
    <g id="All-customizable-items" stroke="none" stroke-width="1" fill="none" fill-rule="evenodd" stroke-linecap="square" stroke-linejoin="round">
        <g id="Eyebrows/-1" transform="translate(-506.000000, -480.000000)" stroke="#000000" stroke-width="20">
            <g id="eyebrows-1" transform="translate(521.000000, 490.000000)">
                <path d="M0,16 C12.8888889,5.33333333 27.8888889,0 45,0 C62.1111111,0 77.1111111,5.33333333 90,16" id="Path"></path>
                <path d="M146,16 C158.888889,5.33333333 173.888889,0 191,0 C208.111111,0 223.111111,5.33333333 236,16" id="Path"></path>
            </g>
        </g>
    </g>

    <title>mouth-7</title>
    <g id="All-customizable-items" stroke="none" stroke-width="1" fill="none" fill-rule="evenodd" stroke-linecap="round" stroke-linejoin="round">
        <g id="Mouth/-7" transform="translate(-550.000000, -734.000000)" fill="#000000" stroke="#000000" stroke-width="16">
            <path d="M559.810774,753.60177 C566.691716,738.132743 579.421458,738.132743 598,753.60177 L598.555602,753.14234 C616.832552,738.13429 629.377094,738.287434 636.189226,753.60177 C643.001358,768.916106 630.593059,783.900851 598.96433,798.556005 L598,799 C565.659574,784.20354 552.929833,769.070796 559.810774,753.60177 Z" id="mouth-7"></path>
        </g>
    </g>

<path fill-rule="evenodd" clip-rule="evenodd" d="M3 3C3 3 24.8917 56.5222 32 66C35 70 52.9064 84.2557 51.7742 96.5802C49.0645 126.076 3 127.359 3 127.359C3 127.359 59 132.489 59 96.5802C59 80.2216 46 75 33 63C25.9588 56.5004 3 3 3 3Z" fill="black" stroke="black" stroke-width="6" stroke-linecap="round" stroke-linejoin="round"/>

    <title>hair-11</title>
    <g id="All-customizable-items" stroke="none" stroke-width="1" fill="none" fill-rule="evenodd" stroke-linecap="round" stroke-linejoin="round">
        <g id="Hairstyle/-11" transform="translate(-255.000000, -237.000000)" fill="#000000" stroke="#000000" stroke-width="12">
            <path d="M287.145773,564.824988 L328.116663,564.824988 L366,655 C368,609 370.666667,578.666667 374,564 C377.333333,549.333333 386,536 400,524 C404.686858,511.205454 408.020191,498.538788 410,486 C411.979809,473.461212 412.646475,460.794546 412,448 C431.277968,442.027683 448.944635,435.027683 465,427 C481.055365,418.972317 496.055365,409.638984 510,399 C541.018923,414.567133 564.018923,423.900467 579,427 C598.333333,431 625.666667,431 661,427 C677,435 690.333333,444.666667 701,456 C711.666667,467.333333 719.333333,477 724,485 C739.337022,483.068501 749.003689,474.068501 753,458 C758.994467,433.897248 749.308457,421.45399 753,385 C755.461029,360.69734 761.794362,334.364006 772,306 C756.671455,311.760083 745.671455,315.093417 739,316 C713.953321,319.403591 695.432317,316 684,316 C636.89228,316 645,282 615,272 C595,265.333333 574.900668,265.39119 554.702003,272.17357 C537.058392,259.349997 518.824391,250.958807 500,247 C481.175609,243.041193 457.508942,242.041193 429,244 C432.618992,252.559514 429.952325,263.892847 421,278 C407.571512,299.160729 404,300 392,311 C380,322 362,318 347,335 C337,346.333333 333,359.666667 335,375 C327.529566,375.74088 320.196232,377.74088 313,381 C305.803768,384.25912 299.470434,389.592453 294,397 C316.094259,401.247038 325.477218,404.098045 322.148877,405.553022 C298.10323,416.064523 271.638366,440.518688 265,458 C256.983334,479.110894 264.365258,514.719224 287.145773,564.824988 Z" id="hair-11"></path>
        </g>
    </g>

    <title>glasses-8</title>
    <g id="All-customizable-items" stroke="none" stroke-width="1" fill="none" fill-rule="evenodd" stroke-linecap="round" stroke-linejoin="round">
        <g id="Glasses/-8" transform="translate(-285.000000, -471.000000)" stroke="#000000">
            <g id="glasses-8" transform="translate(293.000000, 475.000000)">
                <path d="M328.31869,48.9411765 C333.965749,25.4117647 327.377514,0 252.083396,0 C176.789279,0 173.024573,30.1176471 170.201043,48.9411765 C167.377514,67.7647059 157.024573,140.235294 227.612808,143.058824 C298.201043,145.882353 322.671631,72.4705882 328.31869,48.9411765 Z" id="Path" stroke-width="8" fill="#0C0C0C"></path>
                <path d="M523.46091,48.9411765 C529.107969,25.4117647 522.519734,3.63797881e-12 447.225616,3.63797881e-12 C371.931498,3.63797881e-12 368.166792,30.1176471 365.343263,48.9411765 C362.519734,67.7647059 352.166792,140.235294 422.755028,143.058824 C493.343263,145.882353 517.813851,72.4705882 523.46091,48.9411765 Z" id="Path" stroke-width="8" fill="#0C0C0C" transform="translate(444.072807, 71.569037) scale(-1, 1) translate(-444.072807, -71.569037) "></path>
                <line x1="301.965749" y1="7.52941176" x2="391.377514" y2="7.52941176" id="Path" stroke-width="8"></line>
                <path d="M301.965749,35.7647059 C317.212807,34.5098039 332.271631,33.8823529 347.14222,33.8823529 C362.012808,33.8823529 376.757907,34.5098039 391.377514,35.7647059" id="Path" stroke-width="8"></path>
                <line x1="217" y1="40" x2="1.3111035" y2="83.3393577" id="Path" stroke-width="16" transform="translate(109.155552, 61.669679) rotate(1.361411) translate(-109.155552, -61.669679) "></line>
            </g>
        </g>
    </g>

<path d="M586.364 285.584C587.787 285.071 589.352 285.115 590.744 285.707L588.397 291.229C590.744 285.707 590.745 285.707 590.747 285.708L590.75 285.709L590.759 285.713L590.787 285.725L590.876 285.763C590.95 285.796 591.054 285.841 591.185 285.899C591.448 286.015 591.819 286.182 592.28 286.396C593.199 286.822 594.483 287.439 595.966 288.21C598.889 289.731 602.778 291.952 606.204 294.609C609.355 297.053 613.296 300.743 614.573 305.471C615.29 308.125 615.144 311.033 613.712 313.814C612.356 316.446 610.1 318.476 607.469 320.075C601.829 323.501 594.637 324.18 587.944 323.852C581.082 323.515 573.794 322.064 567.258 320.353C560.687 318.634 554.679 316.6 550.325 315.003C548.143 314.202 546.364 313.506 545.122 313.007C544.501 312.758 544.014 312.557 543.677 312.417C543.509 312.347 543.378 312.292 543.287 312.253L543.18 312.208L543.15 312.195L543.14 312.191L543.137 312.19C543.136 312.189 543.135 312.189 545.503 306.676L543.135 312.189C540.871 311.216 539.432 308.958 539.506 306.495C539.58 304.033 541.152 301.866 543.47 301.031L586.364 285.584Z" fill="white" stroke="black" stroke-width="12" stroke-linecap="round" stroke-linejoin="round"/>
<path d="M599.983 290.136C602.506 291.321 603.881 294.088 603.301 296.815C602.721 299.542 600.34 301.51 597.552 301.566L597.551 301.566L597.536 301.566L597.47 301.568C597.409 301.569 597.315 301.571 597.191 301.575C596.941 301.581 596.568 301.592 596.084 301.609C595.116 301.642 593.708 301.697 591.968 301.787C588.482 301.968 583.689 302.285 578.45 302.832C567.639 303.959 556.065 305.961 549.673 309.176C520.246 323.973 488.71 339.226 458.703 350.561C428.825 361.848 399.816 369.509 375.597 368.591C332.287 366.948 283.131 347.141 245.283 328.165C226.255 318.625 209.883 309.19 198.266 302.139C192.454 298.612 187.826 295.678 184.644 293.62C183.052 292.591 181.822 291.781 180.985 291.225C180.566 290.947 180.246 290.733 180.028 290.587L179.908 290.506L179.779 290.419L179.713 290.374L179.695 290.362L179.689 290.358C179.688 290.357 179.686 290.356 183.06 285.395L179.686 290.356C177.683 288.994 176.696 286.561 177.183 284.188C177.67 281.815 179.536 279.968 181.914 279.505L459.566 225.467C460.815 225.223 462.11 225.384 463.262 225.925L599.983 290.136Z" fill="white" stroke="black" stroke-width="12" stroke-linecap="round" stroke-linejoin="round"/>
<path d="M480.712 241.356L486.621 240.312C487.13 243.194 485.486 246.022 482.73 247.006L480.712 241.356ZM480.712 241.356C486.621 240.312 486.62 240.309 486.619 240.304L486.617 240.291L486.61 240.25C486.604 240.217 486.595 240.17 486.584 240.111C486.562 239.993 486.531 239.825 486.489 239.607C486.405 239.173 486.279 238.542 486.108 237.73C485.765 236.106 485.239 233.752 484.495 230.777C483.007 224.828 480.644 216.386 477.126 206.312C470.097 186.184 458.417 159.43 439.806 133.031C402.434 80.0226 337.167 28.6341 226.669 35.0667C116.312 41.4911 60.9378 96.2058 33.4937 149.669C19.8571 176.234 13.1773 202.341 9.8985 221.774C8.25713 231.502 7.46246 239.591 7.07812 245.274C6.88585 248.116 6.79605 250.36 6.75445 251.909C6.73364 252.683 6.72487 253.284 6.7214 253.7C6.71966 253.908 6.71922 254.07 6.71928 254.184C6.71929 254.241 6.71944 254.286 6.7196 254.319L6.71984 254.359L6.71992 254.372C6.71997 254.377 6.72 254.381 12.7198 254.327M480.712 241.356C482.73 247.006 482.729 247.007 482.728 247.007L482.725 247.008L482.714 247.012L482.672 247.027L482.508 247.085C482.364 247.136 482.151 247.212 481.872 247.311C481.314 247.508 480.491 247.798 479.428 248.169C477.303 248.913 474.215 249.984 470.358 251.298C462.646 253.926 451.849 257.531 439.507 261.436C414.883 269.227 383.881 278.29 358.931 283.146C334.034 287.992 295.102 292.549 262.587 295.885C246.288 297.557 231.533 298.929 220.852 299.883C215.511 300.36 211.188 300.733 208.198 300.986C206.703 301.113 205.542 301.21 204.753 301.275C204.359 301.308 204.058 301.333 203.855 301.349L203.625 301.368L203.566 301.373L203.551 301.374L203.548 301.375C203.547 301.375 203.546 301.375 203.061 295.394M12.7198 254.327C8.9921 259.028 8.99321 259.029 8.99446 259.03L8.99753 259.033L9.00588 259.039L9.03127 259.059L9.11649 259.126C9.18851 259.182 9.29089 259.262 9.42283 259.364C9.68676 259.567 10.0691 259.858 10.564 260.228C11.5534 260.966 12.9938 262.017 14.837 263.298C18.5212 265.858 23.8275 269.346 30.3715 273.1C43.4138 280.58 61.5911 289.24 81.7755 293.595C101.727 297.9 132.227 299.822 157.367 300.692C170.015 301.13 181.442 301.306 189.706 301.372C193.839 301.405 197.184 301.41 199.499 301.408C200.656 301.406 201.556 301.403 202.168 301.4C202.475 301.398 202.709 301.397 202.867 301.396L203.048 301.395L203.095 301.394L203.107 301.394L203.11 301.394C203.111 301.394 203.112 301.394 203.061 295.394M12.7198 254.327L8.9921 259.028C7.57144 257.902 6.73628 256.194 6.72 254.381L12.7198 254.327ZM203.061 295.394L203.546 301.375C203.402 301.386 203.257 301.393 203.112 301.394L203.061 295.394Z" fill="white" stroke="black" stroke-width="12" stroke-linecap="round" stroke-linejoin="round"/>
<path d="M205.691 62.8309C197.814 63.7981 190.181 63.033 184.139 60.7269C178.381 58.5292 172.472 54.2035 171.606 47.1496C170.739 40.0958 175.427 34.469 180.482 30.9436C185.787 27.2441 193.008 24.6552 200.885 23.688C208.762 22.7208 216.395 23.4859 222.437 25.7921C228.196 27.9898 234.105 32.3155 234.971 39.3693C235.837 46.4232 231.15 52.05 226.094 55.5754C220.789 59.2748 213.568 61.8637 205.691 62.8309Z" fill="white" stroke="black" stroke-width="12" stroke-linecap="round" stroke-linejoin="round"/>

</svg>