<svg width="564px" height="504px" viewBox="0 0 564 504" version="1.1" xmlns="http://www.w3.org/2000/svg" xmlns:xlink="http://www.w3.org/1999/xlink">

<mask id="path-1-inside-1_0_1042" fill="white">
<path fill-rule="evenodd" clip-rule="evenodd" d="M90.9463 195.941C115.92 97.1191 205.436 24 312 24C437.921 24 540 126.079 540 252C540 262.46 542.06 273.268 543.86 282.706C544.292 284.973 544.709 287.16 545.079 289.245C547.13 300.808 548.036 310.319 545.823 319.022C539.49 343.927 514.305 389.885 481.951 432.708C465.937 453.903 448.534 473.835 431.405 489.582C414.066 505.522 397.906 516.332 384.421 520.546C342.641 533.602 288.106 515.567 235.424 479.498C183.318 443.823 136.354 392.698 110.718 345.827C108.401 341.592 103.773 339.157 98.9711 339.647C96.6854 339.88 94.3594 340 92 340C54.4446 340 24 309.555 24 272C24 238.126 48.7801 210.017 81.2005 204.851C85.9382 204.096 89.7709 200.592 90.9463 195.941ZM312 0C196.833 0 99.736 77.2452 69.647 182.737C29.6368 192.728 0 228.893 0 272C0 322.81 41.1898 364 92 364C92.4714 364 92.942 363.996 93.4119 363.989C121.666 412.573 169.407 463.385 221.866 499.301C276.147 536.465 338.873 559.924 391.579 543.454C410.094 537.668 429.382 524.042 447.648 507.25C466.124 490.265 484.484 469.168 501.1 447.175C534.005 403.623 561.547 354.57 569.083 324.937C572.651 310.905 570.831 297.007 568.71 285.053C568.218 282.28 567.717 279.632 567.235 277.08L567.235 277.079C565.499 267.899 564 259.971 564 252C564 112.824 451.176 0 312 0ZM87.45 254.439C85.7347 248.038 79.1547 244.239 72.7531 245.954C66.3515 247.669 62.5525 254.249 64.2678 260.651L72.55 291.561C74.2653 297.962 80.8453 301.761 87.2469 300.046C93.6485 298.331 97.4475 291.751 95.7322 285.349L87.45 254.439Z"/>
</mask>
<path d="M90.9463 195.941L67.6778 190.06L90.9463 195.941ZM543.86 282.706L520.285 287.201L520.285 287.201L543.86 282.706ZM545.079 289.245L521.448 293.437L521.448 293.438L545.079 289.245ZM545.823 319.022L569.083 324.937L569.083 324.937L545.823 319.022ZM481.951 432.708L462.802 418.24V418.24L481.951 432.708ZM431.405 489.582L447.648 507.25L431.405 489.582ZM384.421 520.546L391.579 543.454H391.579L384.421 520.546ZM235.424 479.498L221.866 499.301H221.866L235.424 479.498ZM110.718 345.827L89.6613 357.343L89.6614 357.343L110.718 345.827ZM98.9711 339.647L101.408 363.523H101.408L98.9711 339.647ZM81.2005 204.851L84.9773 228.552L81.2005 204.851ZM69.647 182.737L75.4615 206.022C83.7891 203.943 90.3723 197.574 92.7266 189.32L69.647 182.737ZM93.4119 363.989L114.159 351.924C109.797 344.424 101.726 339.861 93.0504 339.992L93.4119 363.989ZM221.866 499.301L235.424 479.498L221.866 499.301ZM391.579 543.454L384.421 520.546L384.421 520.546L391.579 543.454ZM447.648 507.25L463.891 524.919H463.891L447.648 507.25ZM501.1 447.175L520.249 461.643V461.643L501.1 447.175ZM569.083 324.937L545.823 319.022V319.022L569.083 324.937ZM568.71 285.053L545.079 289.245L545.079 289.245L568.71 285.053ZM567.235 277.08L590.817 272.622C590.77 272.372 590.719 272.122 590.664 271.874L567.235 277.08ZM567.235 277.079L543.653 281.538C543.7 281.788 543.751 282.037 543.806 282.285L567.235 277.079ZM72.7531 245.954L78.9647 269.136H78.9647L72.7531 245.954ZM87.45 254.439L110.632 248.228V248.228L87.45 254.439ZM64.2678 260.651L41.0856 266.863L64.2678 260.651ZM72.55 291.561L49.3678 297.772H49.3678L72.55 291.561ZM87.2469 300.046L93.4586 323.228H93.4586L87.2469 300.046ZM95.7322 285.349L118.914 279.137L118.914 279.137L95.7322 285.349ZM312 0C194.187 0 95.2798 80.8367 67.6778 190.06L114.215 201.821C136.559 113.402 216.684 48 312 48V0ZM564 252C564 112.824 451.176 0 312 0V48C424.666 48 516 139.334 516 252H564ZM567.435 278.211C565.561 268.381 564 259.81 564 252H516C516 265.111 518.56 278.155 520.285 287.201L567.435 278.211ZM568.71 285.053C568.308 282.789 567.861 280.446 567.435 278.211L520.285 287.201C520.723 289.5 521.11 291.532 521.448 293.437L568.71 285.053ZM569.083 324.937C572.655 310.891 570.825 296.976 568.71 285.053L521.448 293.438C523.435 304.64 523.418 309.747 522.563 313.107L569.083 324.937ZM501.1 447.175C517.921 424.912 532.915 401.792 544.604 380.838C556.063 360.296 565.144 340.425 569.083 324.937L522.564 313.107C520.169 322.524 513.49 338.084 502.685 357.453C492.11 376.41 478.335 397.68 462.802 418.24L501.1 447.175ZM447.648 507.25C466.124 490.265 484.484 469.168 501.1 447.175L462.802 418.24C447.39 438.639 430.944 457.405 415.163 471.914L447.648 507.25ZM391.579 543.454C410.097 537.667 429.386 524.039 447.648 507.25L415.163 471.914C398.746 487.006 385.714 494.997 377.262 497.639L391.579 543.454ZM221.866 499.301C276.158 536.473 338.88 559.922 391.579 543.454L377.262 497.639C346.402 507.282 300.054 494.661 248.983 459.695L221.866 499.301ZM89.6614 357.343C117.312 407.897 167.01 461.743 221.866 499.301L248.983 459.695C199.627 425.903 155.396 377.499 131.774 334.31L89.6614 357.343ZM101.408 363.523C96.6059 364.013 91.9776 361.578 89.6613 357.343L131.774 334.31C124.825 321.605 110.94 314.301 96.5342 315.771L101.408 363.523ZM92 364C95.1716 364 98.3109 363.839 101.408 363.523L96.5343 315.771C95.0599 315.922 93.5472 316 92 316V364ZM0 272C0 322.81 41.1898 364 92 364V316C67.6995 316 48 296.301 48 272H0ZM77.4237 181.15C33.53 188.145 0 226.151 0 272H48C48 250.101 64.0302 231.89 84.9773 228.552L77.4237 181.15ZM67.6778 190.06C68.8533 185.409 72.686 181.905 77.4237 181.15L84.9773 228.552C99.1903 226.287 110.689 215.775 114.215 201.821L67.6778 190.06ZM92.7266 189.32C119.954 93.8607 207.837 24 312 24V-24C185.829 -24 79.518 60.6297 46.5675 176.154L92.7266 189.32ZM24 272C24 240.172 45.8801 213.409 75.4615 206.022L63.8326 159.452C13.3934 172.047 -24 217.614 -24 272H24ZM92 340C54.4446 340 24 309.555 24 272H-24C-24 336.065 27.935 388 92 388V340ZM93.0504 339.992C92.7003 339.997 92.3502 340 92 340V388C92.5926 388 93.1837 387.996 93.7735 387.987L93.0504 339.992ZM235.424 479.498C185.647 445.417 140.469 397.166 114.159 351.924L72.6651 376.055C102.863 427.981 153.168 481.353 208.308 519.105L235.424 479.498ZM384.421 520.546C342.647 533.6 288.115 515.573 235.424 479.498L208.308 519.105C264.179 557.357 335.099 586.248 398.738 566.361L384.421 520.546ZM431.405 489.582C414.069 505.52 397.908 516.331 384.421 520.546L398.738 566.361C422.28 559.004 444.696 542.565 463.891 524.919L431.405 489.582ZM481.951 432.708C465.937 453.903 448.534 473.835 431.405 489.582L463.891 524.919C483.714 506.695 503.031 484.432 520.249 461.643L481.951 432.708ZM545.823 319.022C539.489 343.929 514.303 389.887 481.951 432.708L520.249 461.643C553.707 417.359 583.605 365.211 592.342 330.852L545.823 319.022ZM545.079 289.245C547.126 300.785 548.039 310.308 545.823 319.022L592.342 330.852C597.263 311.502 594.535 293.228 592.341 280.861L545.079 289.245ZM543.653 281.539C544.138 284.107 544.614 286.626 545.079 289.245L592.341 280.861C591.822 277.934 591.297 275.156 590.817 272.622L543.653 281.539ZM543.806 282.285L543.807 282.287L590.664 271.874L590.663 271.872L543.806 282.285ZM540 252C540 262.63 542.008 272.839 543.653 281.538L590.817 272.62C588.99 262.958 588 257.313 588 252H540ZM312 24C437.921 24 540 126.079 540 252H588C588 99.5694 464.431 -24 312 -24V24ZM78.9647 269.136C72.5631 270.852 65.9831 267.053 64.2678 260.651L110.632 248.228C105.486 229.023 85.7462 217.626 66.5414 222.772L78.9647 269.136ZM87.45 254.439C89.1653 260.841 85.3663 267.421 78.9647 269.136L66.5414 222.772C47.3366 227.918 35.9397 247.658 41.0856 266.863L87.45 254.439ZM95.7322 285.349L87.45 254.439L41.0856 266.863L49.3678 297.772L95.7322 285.349ZM81.0353 276.864C87.4369 275.148 94.0169 278.947 95.7322 285.349L49.3678 297.772C54.5137 316.977 74.2537 328.374 93.4586 323.228L81.0353 276.864ZM72.55 291.561C70.8347 285.159 74.6337 278.579 81.0353 276.864L93.4586 323.228C112.663 318.082 124.06 298.342 118.914 279.137L72.55 291.561ZM64.2678 260.651L72.55 291.561L118.914 279.137L110.632 248.228L64.2678 260.651Z" fill="black" mask="url(#path-1-inside-1_0_1042)"/>

    <title>eyes-9</title>
    <g id="All-customizable-items" stroke="none" stroke-width="1" fill="none" fill-rule="evenodd">
        <g id="Eyes/-9" transform="translate(-550.000000, -507.000000)" fill="#000000">
            <path d="M570,507 C575.854822,507 581.122051,511.025253 584.779642,517.440484 L578,531 L589.369946,531.000208 C589.781247,533.557105 590,536.237678 590,539 C590,556.673112 581.045695,571 570,571 C558.954305,571 550,556.673112 550,539 C550,521.326888 558.954305,507 570,507 Z M708,507 C713.854822,507 719.122051,511.025253 722.779642,517.440484 L716,531 L727.369946,531.000208 C727.781247,533.557105 728,536.237678 728,539 C728,556.673112 719.045695,571 708,571 C696.954305,571 688,556.673112 688,539 C688,521.326888 696.954305,507 708,507 Z" id="eyes-9"></path>
        </g>
    </g>

<path fill-rule="evenodd" clip-rule="evenodd" d="M122.289 31.1239C122.289 31.1239 122.95 18.5166 119.376 16.6981C115.802 14.8796 58.6832 2.09875 42.1177 3.13368C25.5523 4.16861 2.75229 19.1499 2.75229 19.1499C2.75229 19.1499 26.2598 10.0692 47.1786 12.1669C68.0975 14.2646 122.289 31.1239 122.289 31.1239Z" fill="black" stroke="black" stroke-width="4" stroke-linecap="round" stroke-linejoin="round"/>
<path fill-rule="evenodd" clip-rule="evenodd" d="M154.711 31.1239C154.711 31.1239 154.05 18.5166 157.624 16.6981C161.198 14.8796 218.317 2.09875 234.882 3.13368C251.448 4.16861 274.248 19.1499 274.248 19.1499C274.248 19.1499 250.74 10.0692 229.821 12.1669C208.902 14.2646 154.711 31.1239 154.711 31.1239Z" fill="black" stroke="black" stroke-width="4" stroke-linecap="round" stroke-linejoin="round"/>

<path fill-rule="evenodd" clip-rule="evenodd" d="M4 13.2745C4 13.2745 32.2388 13.788 46.6667 12.1451C61.0945 10.5022 76.872 4.90539 83.345 4.23951C89.818 3.57362 95.3216 7.06295 96.8187 7.06295C98.3158 7.06295 102.058 3.67482 109.544 4.23951C117.029 4.80419 132 13.2745 132 13.2745C132 13.2745 114.784 17.792 87.8363 17.792C37.6842 19.4861 4 13.2745 4 13.2745Z" stroke="black" stroke-width="8" stroke-linecap="round" stroke-linejoin="round"/>
<path d="M129 14C129 14 122.538 19.6073 119 22C113.765 25.5402 108.978 28.8944 98 29C89.5042 29.0817 71.0273 23.9841 60 22C47.1477 19.6876 10 14 10 14" stroke="black" stroke-width="8" stroke-linecap="round" stroke-linejoin="round"/>

    <title>nose-3</title>
    <g id="All-customizable-items" stroke="none" stroke-width="1" fill="none" fill-rule="evenodd" stroke-linecap="round" stroke-linejoin="round">
        <g id="Nose/-3" transform="translate(-618.000000, -587.000000)" stroke="#000000" stroke-width="16">
            <path d="M636.843465,595.910607 C654.994141,637.483681 663.279537,666.31686 661.699654,682.410144 C660.11977,698.503428 648.515798,703.474491 626.887739,697.323331" id="nose-3" transform="translate(644.388576, 647.892684) rotate(1.032339) translate(-644.388576, -647.892684) "></path>
        </g>
    </g>

<path fill-rule="evenodd" clip-rule="evenodd" d="M396.002 7.00013C459.002 11.0001 490.359 33.2202 533.002 68.0001C546.098 62.6802 574.002 64.0001 606.002 95.0001C638.002 126 609.533 176.003 599.002 243C533.977 195.473 468.977 195.473 404.002 243C306.539 314.29 314.668 388 268.002 420L265.719 415.336L263.832 411.519C255.738 395.231 250.128 385.058 247.002 381C241.545 373.918 222.322 358.08 189.002 362C166.335 364.667 118.002 403 131.002 448C136.838 468.204 150.234 484.023 171.189 495.459C181.349 501.003 207.002 509 207.002 509C207.002 509 196.002 511 188.002 511C180.002 511 170.002 508 170.002 508C170.002 508 121.002 566 65.0017 561C9.00173 556 -3.99827 498 15.0017 461C34.0017 424 109.424 440.247 108.002 435C61.1223 441.624 51.8186 417.4 15.0017 412C56.9927 404.839 70.2653 422.383 108.002 412C107.549 409.903 65.9495 384.737 37.0017 381C69.091 375.029 73.3908 391.95 102.002 384C92.2156 322.783 86.7159 224.137 131.002 155C203.946 41.1235 333.002 3.00013 396.002 7.00013Z" fill="black" stroke="black" stroke-width="12" stroke-linecap="round" stroke-linejoin="round"/>

<path fill-rule="evenodd" clip-rule="evenodd" d="M18.7842 6H8.78421C8.78421 6 -9.52925 161.286 60.7842 219C131.098 276.714 218.784 287 264 287C309.216 287 339.216 267 356 249C372.784 231 405.082 170.293 392 166C389.172 165.072 378.363 163.658 362.81 162.202C359.947 174.016 354.396 186.233 346.53 197C345.321 198.654 344.156 200.263 343.023 201.826C324.301 227.663 314.637 241 270.229 241C223.135 241 213.884 240 174.238 202C163.752 191.95 156.447 181.544 151.766 171.407C149.067 173.055 146.593 174.617 144.291 176.07C124.74 188.412 117.584 192.929 90 176C55.7842 155 18.7842 6 18.7842 6Z" fill="black"/>
<path d="M8.78421 6V0C5.74234 0 3.18178 2.27633 2.82551 5.29727L8.78421 6ZM18.7842 6L24.6074 4.55398C23.943 1.8785 21.541 0 18.7842 0V6ZM60.7842 219L64.5909 214.362H64.5909L60.7842 219ZM392 166L390.129 171.701L392 166ZM362.81 162.202L363.369 156.228C360.402 155.95 357.681 157.893 356.979 160.789L362.81 162.202ZM346.53 197L351.375 200.539L351.375 200.539L346.53 197ZM343.023 201.826L347.881 205.347H347.881L343.023 201.826ZM174.238 202L170.086 206.332H170.086L174.238 202ZM151.766 171.407L157.214 168.892C156.496 167.338 155.149 166.165 153.511 165.667C151.873 165.169 150.101 165.394 148.64 166.286L151.766 171.407ZM144.291 176.07L141.088 170.997L141.088 170.997L144.291 176.07ZM90 176L93.1385 170.886L90 176ZM8.78421 12H18.7842V0H8.78421V12ZM64.5909 214.362C31.4603 187.168 18.5865 136.171 14.3917 90.3107C12.3167 67.6246 12.4056 46.6843 13.0166 31.4049C13.3218 23.7717 13.7567 17.5673 14.1139 13.2837C14.2924 11.1423 14.4515 9.48199 14.565 8.36439C14.6217 7.80563 14.6671 7.38263 14.6979 7.1031C14.7132 6.96333 14.7249 6.85944 14.7326 6.79239C14.7364 6.75887 14.7392 6.73455 14.741 6.71957C14.7418 6.71208 14.7424 6.70692 14.7428 6.70411C14.7429 6.7027 14.743 6.70236 14.743 6.70165C14.743 6.7019 14.7429 6.70273 8.78421 6C2.82551 5.29727 2.82527 5.29929 2.82496 5.3019C2.82477 5.30356 2.82439 5.30676 2.824 5.31008C2.82323 5.31672 2.82218 5.32571 2.82086 5.33706C2.81823 5.35974 2.81453 5.39182 2.80982 5.43315C2.8004 5.51581 2.78691 5.63554 2.76978 5.79135C2.73551 6.10296 2.68663 6.55898 2.62643 7.15165C2.50602 8.33694 2.34026 10.0692 2.15538 12.2866C1.78568 16.7207 1.33916 23.0989 1.02617 30.9254C0.400714 46.5658 0.305845 68.054 2.44161 91.4037C6.66843 137.614 19.7947 193.118 56.9775 223.638L64.5909 214.362ZM264 281C219.41 281 133.361 270.81 64.5909 214.362L56.9775 223.638C128.834 282.619 218.159 293 264 293V281ZM351.612 244.908C335.755 261.914 307.27 281 264 281V293C311.162 293 342.677 272.086 360.388 253.092L351.612 244.908ZM390.129 171.701C388.838 171.277 388.837 170.156 388.972 171.006C389.132 172.007 389.062 173.932 388.395 176.956C387.09 182.872 383.981 190.945 379.781 199.784C371.358 217.506 359.4 236.556 351.612 244.908L360.388 253.092C369.385 243.444 381.967 223.14 390.619 204.935C394.955 195.811 398.517 186.777 400.113 179.541C400.897 175.989 401.335 172.326 400.822 169.115C400.286 165.754 398.433 161.796 393.871 160.299L390.129 171.701ZM362.251 168.176C369.985 168.9 376.498 169.61 381.402 170.249C386.561 170.921 389.36 171.448 390.129 171.701L393.871 160.299C391.813 159.624 387.793 158.98 382.952 158.349C377.856 157.685 371.188 156.96 363.369 156.228L362.251 168.176ZM351.375 200.539C359.705 189.138 365.592 176.199 368.641 163.615L356.979 160.789C354.303 171.834 349.088 183.328 341.685 193.461L351.375 200.539ZM347.881 205.347C349.015 203.783 350.174 202.183 351.375 200.539L341.685 193.461C340.469 195.126 339.296 196.744 338.164 198.306L347.881 205.347ZM270.229 247C292.975 247 307.806 243.598 319.481 236.163C330.936 228.868 338.689 218.033 347.881 205.347L338.164 198.306C328.635 211.456 322.195 220.208 313.035 226.041C304.096 231.734 291.892 235 270.229 235V247ZM170.086 206.332C189.889 225.312 202.891 235.878 217.309 241.358C231.687 246.823 246.95 247 270.229 247V235C246.414 235 233.505 234.677 221.572 230.141C209.68 225.621 198.233 216.688 178.39 197.668L170.086 206.332ZM146.319 173.923C151.343 184.802 159.11 195.812 170.086 206.332L178.39 197.668C168.394 188.088 161.551 178.286 157.214 168.892L146.319 173.923ZM147.494 181.144C149.799 179.689 152.237 178.15 154.893 176.529L148.64 166.286C145.897 167.961 143.387 169.545 141.088 170.997L147.494 181.144ZM86.8615 181.114C100.808 189.673 110.898 193.698 120.591 192.996C130.08 192.309 138.124 187.059 147.494 181.144L141.088 170.997C130.907 177.424 125.597 180.603 119.725 181.028C114.056 181.438 106.776 179.256 93.1385 170.886L86.8615 181.114ZM18.7842 6C12.9611 7.44602 12.9613 7.44711 12.9617 7.44876C12.9621 7.45007 12.9626 7.4523 12.9633 7.45491C12.9646 7.46014 12.9664 7.46763 12.9689 7.47737C12.9737 7.49683 12.9808 7.52527 12.9901 7.56255C13.0087 7.63711 13.0363 7.74702 13.0725 7.89125C13.1451 8.17969 13.2526 8.60537 13.3938 9.15982C13.6764 10.2687 14.0939 11.8928 14.6369 13.9645C15.7227 18.1075 17.3104 24.0424 19.3223 31.2272C23.3441 45.5897 29.0702 64.9808 35.8792 85.0525C42.678 105.094 50.6056 125.961 59.0484 143.215C63.2689 151.841 67.6783 159.687 72.2113 166.122C76.6857 172.473 81.5672 177.864 86.8615 181.114L93.1385 170.886C89.8789 168.886 86.1194 165.027 82.0212 159.21C77.9817 153.477 73.8869 146.238 69.8271 137.941C61.7092 121.351 53.9713 101.031 47.2431 81.1975C40.5252 61.3942 34.8628 42.2228 30.8778 27.9915C28.8863 20.8795 27.3161 15.0097 26.2449 10.9222C25.7093 8.87866 25.2985 7.28111 25.0223 6.19711C24.8843 5.65513 24.7798 5.24157 24.7103 4.96489C24.6755 4.82655 24.6494 4.72244 24.6322 4.6536C24.6236 4.61918 24.6172 4.59358 24.6131 4.57693C24.611 4.56861 24.6095 4.56253 24.6085 4.5587C24.6081 4.55678 24.6078 4.5556 24.6075 4.55464C24.6074 4.55403 24.6074 4.55398 18.7842 6Z" fill="black"/>
<path fill-rule="evenodd" clip-rule="evenodd" d="M347.059 91.7206C347.059 91.7206 350.033 99.7189 348.086 100.906C346.74 101.726 318 84.8323 265 85.0003C212 85.1683 183.188 101.683 181.914 100.906C179.905 99.6812 182 94.0003 183.94 91.7206C190.033 86.9445 220.31 76.7108 251.246 74.4494C255.205 74.16 259 78.002 265 78.0011C271 78.0003 275.18 74.1009 278.327 74.2867C310.138 76.1646 340.805 86.8183 347.059 91.7206Z" fill="black" stroke="black" stroke-width="12" stroke-linecap="round" stroke-linejoin="round"/>
<path fill-rule="evenodd" clip-rule="evenodd" d="M240 229C240 229 253.444 232 265 232C276.556 232 288 229 288 229L297 252H232L240 229Z" fill="black" stroke="black" stroke-width="12" stroke-linecap="round" stroke-linejoin="round"/>

    <title>details-4</title>
    <g id="All-customizable-items" stroke="none" stroke-width="1" fill="none" fill-rule="evenodd" stroke-linecap="round" stroke-linejoin="round">
        <g id="Details/-4" transform="translate(-432.000000, -613.000000)" stroke="#000000" stroke-width="12">
            <path d="M438.627052,619 C436.62301,638.948361 439.422618,653.748361 447.025876,663.4 C454.629134,673.051639 462.287175,678.251639 470,679 C472.666667,693.666667 476.666667,705.666667 482,715 C487.333333,724.333333 494,732.333333 502,739" id="details-4"></path>
        </g>
    </g>

    <title>glasses-8</title>
    <g id="All-customizable-items" stroke="none" stroke-width="1" fill="none" fill-rule="evenodd" stroke-linecap="round" stroke-linejoin="round">
        <g id="Glasses/-8" transform="translate(-285.000000, -471.000000)" stroke="#000000">
            <g id="glasses-8" transform="translate(293.000000, 475.000000)">
                <path d="M328.31869,48.9411765 C333.965749,25.4117647 327.377514,0 252.083396,0 C176.789279,0 173.024573,30.1176471 170.201043,48.9411765 C167.377514,67.7647059 157.024573,140.235294 227.612808,143.058824 C298.201043,145.882353 322.671631,72.4705882 328.31869,48.9411765 Z" id="Path" stroke-width="8" fill="#0C0C0C"></path>
                <path d="M523.46091,48.9411765 C529.107969,25.4117647 522.519734,3.63797881e-12 447.225616,3.63797881e-12 C371.931498,3.63797881e-12 368.166792,30.1176471 365.343263,48.9411765 C362.519734,67.7647059 352.166792,140.235294 422.755028,143.058824 C493.343263,145.882353 517.813851,72.4705882 523.46091,48.9411765 Z" id="Path" stroke-width="8" fill="#0C0C0C" transform="translate(444.072807, 71.569037) scale(-1, 1) translate(-444.072807, -71.569037) "></path>
                <line x1="301.965749" y1="7.52941176" x2="391.377514" y2="7.52941176" id="Path" stroke-width="8"></line>
                <path d="M301.965749,35.7647059 C317.212807,34.5098039 332.271631,33.8823529 347.14222,33.8823529 C362.012808,33.8823529 376.757907,34.5098039 391.377514,35.7647059" id="Path" stroke-width="8"></path>
                <line x1="217" y1="40" x2="1.3111035" y2="83.3393577" id="Path" stroke-width="16" transform="translate(109.155552, 61.669679) rotate(1.361411) translate(-109.155552, -61.669679) "></line>
            </g>
        </g>
    </g>

</svg>