<svg width="564px" height="504px" viewBox="0 0 564 504" version="1.1" xmlns="http://www.w3.org/2000/svg" xmlns:xlink="http://www.w3.org/1999/xlink">

    <title>face-4</title>
    <g id="All-customizable-items" stroke="none" stroke-width="1" fill="none" fill-rule="evenodd" stroke-linecap="round" stroke-linejoin="round">
        <g id="Face/-4" transform="translate(-220.000000, -367.000000)" stroke="#000000" stroke-width="24">
            <path d="M532,379 C664.54834,379 772,486.45166 772,619 C772,751.54834 764.54834,899 592,899 C462.715227,899 358.747776,816.220491 314.739381,718.954345 C313.831676,718.98455 312.917642,719 312,719 C267.81722,719 232,683.18278 232,639 C232,599.134956 261.158843,566.080325 299.312086,560.00055 C325.599297,455.979213 419.809919,379 532,379 Z M295.858895,624.545187 L304.141105,655.454813" id="face-4"></path>
        </g>
    </g>

    <title>eyes-1</title>
    <g id="All-customizable-items" stroke="none" stroke-width="1" fill="none" fill-rule="evenodd">
        <g id="Eyes/-1" transform="translate(-544.000000, -507.000000)">
            <g id="eyes-1" transform="translate(546.000000, 509.000000)">
                <path d="M24,7 C37.254834,7 48,17.745166 48,31 C48,44.254834 37.254834,55 24,55 C10.745166,55 0,44.254834 0,31 C0,17.745166 10.745166,7 24,7 Z M162,7 C175.254834,7 186,17.745166 186,31 C186,44.254834 175.254834,55 162,55 C148.745166,55 138,44.254834 138,31 C138,17.745166 148.745166,7 162,7 Z" id="Combined-Shape" fill="#000000"></path>
                <g id="Group" stroke="#000000" stroke-linecap="round" stroke-linejoin="round" stroke-width="4">
                    <path d="M0,7 C8,2.33333333 16,0 24,0 C32,0 40,2.33333333 48,7" id="Path"></path>
                    <path d="M138,7 C146,2.33333333 154,0 162,0 C170,0 178,2.33333333 186,7" id="Path"></path>
                </g>
            </g>
        </g>
    </g>

    <title>eyebrows-8</title>
    <g id="All-customizable-items" stroke="none" stroke-width="1" fill="none" fill-rule="evenodd" stroke-linecap="round" stroke-linejoin="round">
        <g id="Eyebrows/-8" transform="translate(-522.000000, -482.000000)" stroke="#000000" stroke-width="16">
            <g id="eyebrows-8" transform="translate(530.000000, 490.000000)">
                <path d="M64,10 C59.1947065,3.33333333 51.1947065,0 40,0 C28.8052935,0 15.4719602,3.33333333 0,10" id="Path"></path>
                <path d="M218,10 C213.194706,3.33333333 205.194706,0 194,0 C182.805294,0 169.47196,3.33333333 154,10" id="Path" transform="translate(186.000000, 5.000000) scale(-1, 1) translate(-186.000000, -5.000000) "></path>
            </g>
        </g>
    </g>

<path d="M9.34763 45.3856C9.34763 45.3856 3.05252 35.5217 7.44585 22.3999C11.8392 9.27823 23.4387 3.2993 23.4387 3.2993" stroke="black" stroke-width="6" stroke-linecap="round" stroke-linejoin="round"/>
<path fill-rule="evenodd" clip-rule="evenodd" d="M49.6132 29.3948L119.22 15.181L147.717 14.8304L168.424 9.1395L192.54 11.8457C192.54 11.8457 175.891 18.2978 143.869 22.2296C111.847 26.1614 49.6132 29.3948 49.6132 29.3948Z" stroke="black" stroke-width="12" stroke-linecap="round" stroke-linejoin="round"/>
<path d="M115 66C115 66 130.338 67.0353 138 66C145.662 64.9647 152 61 152 61" stroke="black" stroke-width="6" stroke-linecap="round" stroke-linejoin="round"/>

    <title>nose-5</title>
    <g id="All-customizable-items" stroke="none" stroke-width="1" fill="none" fill-rule="evenodd" stroke-linecap="round" stroke-linejoin="round">
        <g id="Nose/-5" transform="translate(-617.000000, -560.000000)" stroke="#000000" stroke-width="16">
            <path d="M673,568 C662.55102,590.836147 657.326531,613.414126 657.326531,635.733939 C657.326531,669.213657 673,686.992054 670.061224,702.552554 C668.102041,712.92622 653.081633,714.756867 625,708.044495" id="nose-5"></path>
        </g>
    </g>

    <title>hair-13</title>
    <g id="All-customizable-items" stroke="none" stroke-width="1" fill="none" fill-rule="evenodd" stroke-linecap="round" stroke-linejoin="round">
        <g id="Hairstyle/-13" transform="translate(-260.000000, -334.000000)" stroke="#000000" stroke-width="12">
            <g id="hair-13" transform="translate(266.170240, 340.000000)">
                <path d="M20.9755327,224.824988 L61.9464226,224.824988 L99.82976,315 C117.406103,234.554316 126.194275,188.467337 126.194275,176.739062 C126.194275,159.14665 89.4212949,136.044745 113.125527,105.522372 C124.789561,90.5033682 139.00015,81.8765075 155.047131,77.8362154 C171.611628,73.6656236 192.82976,42 154.82976,25 C116.82976,8 8.82976,56 0.829760002,115 C-2.50467269,139.591441 4.21058488,176.19977 20.9755327,224.824988 Z" id="Path" fill="#000000"></path>
                <path d="M156.82976,10 C170.163093,11.3333333 180.163093,18.3333333 186.82976,31 C193.496427,43.6666667 193.496427,57 186.82976,71" id="Path"></path>
                <path d="M179.82976,4 C193.163093,5.33333333 203.163093,12.3333333 209.82976,25 C216.496427,37.6666667 216.496427,51 209.82976,65" id="Path"></path>
                <path d="M202.82976,0 C216.163093,1.33333333 226.163093,8.33333333 232.82976,21 C239.496427,33.6666667 239.496427,47 232.82976,61" id="Path"></path>
                <path d="M225.82976,0 C239.163093,1.33333333 249.163093,8.33333333 255.82976,21 C262.496427,33.6666667 262.496427,47 255.82976,61" id="Path"></path>
                <path d="M248.82976,0 C262.163093,1.33333333 272.163093,8.33333333 278.82976,21 C285.496427,33.6666667 285.496427,47 278.82976,61" id="Path"></path>
                <path d="M271.82976,0 C285.163093,1.33333333 295.163093,8.33333333 301.82976,21 C308.496427,33.6666667 308.496427,47 301.82976,61" id="Path"></path>
                <path d="M294.82976,4 C308.163093,5.33333333 318.163093,12.3333333 324.82976,25 C331.496427,37.6666667 331.496427,51 324.82976,65" id="Path"></path>
                <path d="M317.82976,6 C331.163093,7.33333333 341.163093,14.3333333 347.82976,27 C354.496427,39.6666667 354.496427,53 347.82976,67" id="Path"></path>
                <path d="M355.82976,51 L352.82976,22 C366.163093,23.3333333 376.163093,30.3333333 382.82976,43 C387.885083,52.6051144 389.106963,62.5935731 386.495398,72.9653763 L355.82976,51 Z" id="Path" fill="#000000"></path>
            </g>
        </g>
    </g>

    <title>details-4</title>
    <g id="All-customizable-items" stroke="none" stroke-width="1" fill="none" fill-rule="evenodd" stroke-linecap="round" stroke-linejoin="round">
        <g id="Details/-4" transform="translate(-432.000000, -613.000000)" stroke="#000000" stroke-width="12">
            <path d="M438.627052,619 C436.62301,638.948361 439.422618,653.748361 447.025876,663.4 C454.629134,673.051639 462.287175,678.251639 470,679 C472.666667,693.666667 476.666667,705.666667 482,715 C487.333333,724.333333 494,732.333333 502,739" id="details-4"></path>
        </g>
    </g>

    <title>glasses-7</title>
    <g id="All-customizable-items" stroke="none" stroke-width="1" fill="none" fill-rule="evenodd" stroke-linecap="round" stroke-linejoin="round">
        <g id="Glasses/-7" transform="translate(-287.000000, -500.000000)" fill="#000000" stroke="#000000" stroke-width="4">
            <g id="glasses-7" transform="translate(289.000000, 502.000000)">
                <path d="M339.740368,39.6303745 C323.440763,83.0959855 305.148598,104 266.642657,104 C226.661085,104 208.819095,87.634841 206.637074,34.1753215 C206.548706,32.0103005 204.003015,29.8282793 199,27.6292579 L199,6.90005646 C238.696939,1.25810378 267.426885,-0.923917428 285.189838,0.353992852 C297.612079,1.2476793 312.018598,4.36213391 328.409394,9.69735669 C333.107339,11.2265431 340.521032,12.1124607 350.650474,12.3551095 L351.336909,12.3375684 C361.115498,12.0718595 368.30038,11.1917889 372.891553,9.69735669 C389.282349,4.36213391 403.688868,1.2476793 416.11111,0.353992852 C433.874063,-0.923917428 462.604008,1.25810378 502.300947,6.90005646 L502.300947,6.90005646 L502.300947,27.6292579 C497.297933,29.8282793 494.752241,32.0103005 494.663873,34.1753215 C492.481852,87.634841 474.639862,104 434.65829,104 C396.15235,104 377.860184,83.0959855 361.56058,39.6303745 C359.378558,33.8116513 355.741856,30.9022897 350.650474,30.9022897 L350.650474,30.9022897 C345.559091,30.9022897 341.922389,33.8116513 339.740368,39.6303745 Z" id="Combined-Shape"></path>
                <polygon id="Path" points="199 7 4 39 0 48 199 28"></polygon>
            </g>
        </g>
    </g>

<path d="M586.364 285.584C587.787 285.071 589.352 285.115 590.744 285.707L588.397 291.229C590.744 285.707 590.745 285.707 590.747 285.708L590.75 285.709L590.759 285.713L590.787 285.725L590.876 285.763C590.95 285.796 591.054 285.841 591.185 285.899C591.448 286.015 591.819 286.182 592.28 286.396C593.199 286.822 594.483 287.439 595.966 288.21C598.889 289.731 602.778 291.952 606.204 294.609C609.355 297.053 613.296 300.743 614.573 305.471C615.29 308.125 615.144 311.033 613.712 313.814C612.356 316.446 610.1 318.476 607.469 320.075C601.829 323.501 594.637 324.18 587.944 323.852C581.082 323.515 573.794 322.064 567.258 320.353C560.687 318.634 554.679 316.6 550.325 315.003C548.143 314.202 546.364 313.506 545.122 313.007C544.501 312.758 544.014 312.557 543.677 312.417C543.509 312.347 543.378 312.292 543.287 312.253L543.18 312.208L543.15 312.195L543.14 312.191L543.137 312.19C543.136 312.189 543.135 312.189 545.503 306.676L543.135 312.189C540.871 311.216 539.432 308.958 539.506 306.495C539.58 304.033 541.152 301.866 543.47 301.031L586.364 285.584Z" fill="white" stroke="black" stroke-width="12" stroke-linecap="round" stroke-linejoin="round"/>
<path d="M599.983 290.136C602.506 291.321 603.881 294.088 603.301 296.815C602.721 299.542 600.34 301.51 597.552 301.566L597.551 301.566L597.536 301.566L597.47 301.568C597.409 301.569 597.315 301.571 597.191 301.575C596.941 301.581 596.568 301.592 596.084 301.609C595.116 301.642 593.708 301.697 591.968 301.787C588.482 301.968 583.689 302.285 578.45 302.832C567.639 303.959 556.065 305.961 549.673 309.176C520.246 323.973 488.71 339.226 458.703 350.561C428.825 361.848 399.816 369.509 375.597 368.591C332.287 366.948 283.131 347.141 245.283 328.165C226.255 318.625 209.883 309.19 198.266 302.139C192.454 298.612 187.826 295.678 184.644 293.62C183.052 292.591 181.822 291.781 180.985 291.225C180.566 290.947 180.246 290.733 180.028 290.587L179.908 290.506L179.779 290.419L179.713 290.374L179.695 290.362L179.689 290.358C179.688 290.357 179.686 290.356 183.06 285.395L179.686 290.356C177.683 288.994 176.696 286.561 177.183 284.188C177.67 281.815 179.536 279.968 181.914 279.505L459.566 225.467C460.815 225.223 462.11 225.384 463.262 225.925L599.983 290.136Z" fill="white" stroke="black" stroke-width="12" stroke-linecap="round" stroke-linejoin="round"/>
<path d="M480.712 241.356L486.621 240.312C487.13 243.194 485.486 246.022 482.73 247.006L480.712 241.356ZM480.712 241.356C486.621 240.312 486.62 240.309 486.619 240.304L486.617 240.291L486.61 240.25C486.604 240.217 486.595 240.17 486.584 240.111C486.562 239.993 486.531 239.825 486.489 239.607C486.405 239.173 486.279 238.542 486.108 237.73C485.765 236.106 485.239 233.752 484.495 230.777C483.007 224.828 480.644 216.386 477.126 206.312C470.097 186.184 458.417 159.43 439.806 133.031C402.434 80.0226 337.167 28.6341 226.669 35.0667C116.312 41.4911 60.9378 96.2058 33.4937 149.669C19.8571 176.234 13.1773 202.341 9.8985 221.774C8.25713 231.502 7.46246 239.591 7.07812 245.274C6.88585 248.116 6.79605 250.36 6.75445 251.909C6.73364 252.683 6.72487 253.284 6.7214 253.7C6.71966 253.908 6.71922 254.07 6.71928 254.184C6.71929 254.241 6.71944 254.286 6.7196 254.319L6.71984 254.359L6.71992 254.372C6.71997 254.377 6.72 254.381 12.7198 254.327M480.712 241.356C482.73 247.006 482.729 247.007 482.728 247.007L482.725 247.008L482.714 247.012L482.672 247.027L482.508 247.085C482.364 247.136 482.151 247.212 481.872 247.311C481.314 247.508 480.491 247.798 479.428 248.169C477.303 248.913 474.215 249.984 470.358 251.298C462.646 253.926 451.849 257.531 439.507 261.436C414.883 269.227 383.881 278.29 358.931 283.146C334.034 287.992 295.102 292.549 262.587 295.885C246.288 297.557 231.533 298.929 220.852 299.883C215.511 300.36 211.188 300.733 208.198 300.986C206.703 301.113 205.542 301.21 204.753 301.275C204.359 301.308 204.058 301.333 203.855 301.349L203.625 301.368L203.566 301.373L203.551 301.374L203.548 301.375C203.547 301.375 203.546 301.375 203.061 295.394M12.7198 254.327C8.9921 259.028 8.99321 259.029 8.99446 259.03L8.99753 259.033L9.00588 259.039L9.03127 259.059L9.11649 259.126C9.18851 259.182 9.29089 259.262 9.42283 259.364C9.68676 259.567 10.0691 259.858 10.564 260.228C11.5534 260.966 12.9938 262.017 14.837 263.298C18.5212 265.858 23.8275 269.346 30.3715 273.1C43.4138 280.58 61.5911 289.24 81.7755 293.595C101.727 297.9 132.227 299.822 157.367 300.692C170.015 301.13 181.442 301.306 189.706 301.372C193.839 301.405 197.184 301.41 199.499 301.408C200.656 301.406 201.556 301.403 202.168 301.4C202.475 301.398 202.709 301.397 202.867 301.396L203.048 301.395L203.095 301.394L203.107 301.394L203.11 301.394C203.111 301.394 203.112 301.394 203.061 295.394M12.7198 254.327L8.9921 259.028C7.57144 257.902 6.73628 256.194 6.72 254.381L12.7198 254.327ZM203.061 295.394L203.546 301.375C203.402 301.386 203.257 301.393 203.112 301.394L203.061 295.394Z" fill="white" stroke="black" stroke-width="12" stroke-linecap="round" stroke-linejoin="round"/>
<path d="M205.691 62.8309C197.814 63.7981 190.181 63.033 184.139 60.7269C178.381 58.5292 172.472 54.2035 171.606 47.1496C170.739 40.0958 175.427 34.469 180.482 30.9436C185.787 27.2441 193.008 24.6552 200.885 23.688C208.762 22.7208 216.395 23.4859 222.437 25.7921C228.196 27.9898 234.105 32.3155 234.971 39.3693C235.837 46.4232 231.15 52.05 226.094 55.5754C220.789 59.2748 213.568 61.8637 205.691 62.8309Z" fill="white" stroke="black" stroke-width="12" stroke-linecap="round" stroke-linejoin="round"/>

</svg>