<svg width="564px" height="504px" viewBox="0 0 564 504" version="1.1" xmlns="http://www.w3.org/2000/svg" xmlns:xlink="http://www.w3.org/1999/xlink">

<mask id="path-1-inside-1_0_1042" fill="white">
<path fill-rule="evenodd" clip-rule="evenodd" d="M90.9463 195.941C115.92 97.1191 205.436 24 312 24C437.921 24 540 126.079 540 252C540 262.46 542.06 273.268 543.86 282.706C544.292 284.973 544.709 287.16 545.079 289.245C547.13 300.808 548.036 310.319 545.823 319.022C539.49 343.927 514.305 389.885 481.951 432.708C465.937 453.903 448.534 473.835 431.405 489.582C414.066 505.522 397.906 516.332 384.421 520.546C342.641 533.602 288.106 515.567 235.424 479.498C183.318 443.823 136.354 392.698 110.718 345.827C108.401 341.592 103.773 339.157 98.9711 339.647C96.6854 339.88 94.3594 340 92 340C54.4446 340 24 309.555 24 272C24 238.126 48.7801 210.017 81.2005 204.851C85.9382 204.096 89.7709 200.592 90.9463 195.941ZM312 0C196.833 0 99.736 77.2452 69.647 182.737C29.6368 192.728 0 228.893 0 272C0 322.81 41.1898 364 92 364C92.4714 364 92.942 363.996 93.4119 363.989C121.666 412.573 169.407 463.385 221.866 499.301C276.147 536.465 338.873 559.924 391.579 543.454C410.094 537.668 429.382 524.042 447.648 507.25C466.124 490.265 484.484 469.168 501.1 447.175C534.005 403.623 561.547 354.57 569.083 324.937C572.651 310.905 570.831 297.007 568.71 285.053C568.218 282.28 567.717 279.632 567.235 277.08L567.235 277.079C565.499 267.899 564 259.971 564 252C564 112.824 451.176 0 312 0ZM87.45 254.439C85.7347 248.038 79.1547 244.239 72.7531 245.954C66.3515 247.669 62.5525 254.249 64.2678 260.651L72.55 291.561C74.2653 297.962 80.8453 301.761 87.2469 300.046C93.6485 298.331 97.4475 291.751 95.7322 285.349L87.45 254.439Z"/>
</mask>
<path d="M90.9463 195.941L67.6778 190.06L90.9463 195.941ZM543.86 282.706L520.285 287.201L520.285 287.201L543.86 282.706ZM545.079 289.245L521.448 293.437L521.448 293.438L545.079 289.245ZM545.823 319.022L569.083 324.937L569.083 324.937L545.823 319.022ZM481.951 432.708L462.802 418.24V418.24L481.951 432.708ZM431.405 489.582L447.648 507.25L431.405 489.582ZM384.421 520.546L391.579 543.454H391.579L384.421 520.546ZM235.424 479.498L221.866 499.301H221.866L235.424 479.498ZM110.718 345.827L89.6613 357.343L89.6614 357.343L110.718 345.827ZM98.9711 339.647L101.408 363.523H101.408L98.9711 339.647ZM81.2005 204.851L84.9773 228.552L81.2005 204.851ZM69.647 182.737L75.4615 206.022C83.7891 203.943 90.3723 197.574 92.7266 189.32L69.647 182.737ZM93.4119 363.989L114.159 351.924C109.797 344.424 101.726 339.861 93.0504 339.992L93.4119 363.989ZM221.866 499.301L235.424 479.498L221.866 499.301ZM391.579 543.454L384.421 520.546L384.421 520.546L391.579 543.454ZM447.648 507.25L463.891 524.919H463.891L447.648 507.25ZM501.1 447.175L520.249 461.643V461.643L501.1 447.175ZM569.083 324.937L545.823 319.022V319.022L569.083 324.937ZM568.71 285.053L545.079 289.245L545.079 289.245L568.71 285.053ZM567.235 277.08L590.817 272.622C590.77 272.372 590.719 272.122 590.664 271.874L567.235 277.08ZM567.235 277.079L543.653 281.538C543.7 281.788 543.751 282.037 543.806 282.285L567.235 277.079ZM72.7531 245.954L78.9647 269.136H78.9647L72.7531 245.954ZM87.45 254.439L110.632 248.228V248.228L87.45 254.439ZM64.2678 260.651L41.0856 266.863L64.2678 260.651ZM72.55 291.561L49.3678 297.772H49.3678L72.55 291.561ZM87.2469 300.046L93.4586 323.228H93.4586L87.2469 300.046ZM95.7322 285.349L118.914 279.137L118.914 279.137L95.7322 285.349ZM312 0C194.187 0 95.2798 80.8367 67.6778 190.06L114.215 201.821C136.559 113.402 216.684 48 312 48V0ZM564 252C564 112.824 451.176 0 312 0V48C424.666 48 516 139.334 516 252H564ZM567.435 278.211C565.561 268.381 564 259.81 564 252H516C516 265.111 518.56 278.155 520.285 287.201L567.435 278.211ZM568.71 285.053C568.308 282.789 567.861 280.446 567.435 278.211L520.285 287.201C520.723 289.5 521.11 291.532 521.448 293.437L568.71 285.053ZM569.083 324.937C572.655 310.891 570.825 296.976 568.71 285.053L521.448 293.438C523.435 304.64 523.418 309.747 522.563 313.107L569.083 324.937ZM501.1 447.175C517.921 424.912 532.915 401.792 544.604 380.838C556.063 360.296 565.144 340.425 569.083 324.937L522.564 313.107C520.169 322.524 513.49 338.084 502.685 357.453C492.11 376.41 478.335 397.68 462.802 418.24L501.1 447.175ZM447.648 507.25C466.124 490.265 484.484 469.168 501.1 447.175L462.802 418.24C447.39 438.639 430.944 457.405 415.163 471.914L447.648 507.25ZM391.579 543.454C410.097 537.667 429.386 524.039 447.648 507.25L415.163 471.914C398.746 487.006 385.714 494.997 377.262 497.639L391.579 543.454ZM221.866 499.301C276.158 536.473 338.88 559.922 391.579 543.454L377.262 497.639C346.402 507.282 300.054 494.661 248.983 459.695L221.866 499.301ZM89.6614 357.343C117.312 407.897 167.01 461.743 221.866 499.301L248.983 459.695C199.627 425.903 155.396 377.499 131.774 334.31L89.6614 357.343ZM101.408 363.523C96.6059 364.013 91.9776 361.578 89.6613 357.343L131.774 334.31C124.825 321.605 110.94 314.301 96.5342 315.771L101.408 363.523ZM92 364C95.1716 364 98.3109 363.839 101.408 363.523L96.5343 315.771C95.0599 315.922 93.5472 316 92 316V364ZM0 272C0 322.81 41.1898 364 92 364V316C67.6995 316 48 296.301 48 272H0ZM77.4237 181.15C33.53 188.145 0 226.151 0 272H48C48 250.101 64.0302 231.89 84.9773 228.552L77.4237 181.15ZM67.6778 190.06C68.8533 185.409 72.686 181.905 77.4237 181.15L84.9773 228.552C99.1903 226.287 110.689 215.775 114.215 201.821L67.6778 190.06ZM92.7266 189.32C119.954 93.8607 207.837 24 312 24V-24C185.829 -24 79.518 60.6297 46.5675 176.154L92.7266 189.32ZM24 272C24 240.172 45.8801 213.409 75.4615 206.022L63.8326 159.452C13.3934 172.047 -24 217.614 -24 272H24ZM92 340C54.4446 340 24 309.555 24 272H-24C-24 336.065 27.935 388 92 388V340ZM93.0504 339.992C92.7003 339.997 92.3502 340 92 340V388C92.5926 388 93.1837 387.996 93.7735 387.987L93.0504 339.992ZM235.424 479.498C185.647 445.417 140.469 397.166 114.159 351.924L72.6651 376.055C102.863 427.981 153.168 481.353 208.308 519.105L235.424 479.498ZM384.421 520.546C342.647 533.6 288.115 515.573 235.424 479.498L208.308 519.105C264.179 557.357 335.099 586.248 398.738 566.361L384.421 520.546ZM431.405 489.582C414.069 505.52 397.908 516.331 384.421 520.546L398.738 566.361C422.28 559.004 444.696 542.565 463.891 524.919L431.405 489.582ZM481.951 432.708C465.937 453.903 448.534 473.835 431.405 489.582L463.891 524.919C483.714 506.695 503.031 484.432 520.249 461.643L481.951 432.708ZM545.823 319.022C539.489 343.929 514.303 389.887 481.951 432.708L520.249 461.643C553.707 417.359 583.605 365.211 592.342 330.852L545.823 319.022ZM545.079 289.245C547.126 300.785 548.039 310.308 545.823 319.022L592.342 330.852C597.263 311.502 594.535 293.228 592.341 280.861L545.079 289.245ZM543.653 281.539C544.138 284.107 544.614 286.626 545.079 289.245L592.341 280.861C591.822 277.934 591.297 275.156 590.817 272.622L543.653 281.539ZM543.806 282.285L543.807 282.287L590.664 271.874L590.663 271.872L543.806 282.285ZM540 252C540 262.63 542.008 272.839 543.653 281.538L590.817 272.62C588.99 262.958 588 257.313 588 252H540ZM312 24C437.921 24 540 126.079 540 252H588C588 99.5694 464.431 -24 312 -24V24ZM78.9647 269.136C72.5631 270.852 65.9831 267.053 64.2678 260.651L110.632 248.228C105.486 229.023 85.7462 217.626 66.5414 222.772L78.9647 269.136ZM87.45 254.439C89.1653 260.841 85.3663 267.421 78.9647 269.136L66.5414 222.772C47.3366 227.918 35.9397 247.658 41.0856 266.863L87.45 254.439ZM95.7322 285.349L87.45 254.439L41.0856 266.863L49.3678 297.772L95.7322 285.349ZM81.0353 276.864C87.4369 275.148 94.0169 278.947 95.7322 285.349L49.3678 297.772C54.5137 316.977 74.2537 328.374 93.4586 323.228L81.0353 276.864ZM72.55 291.561C70.8347 285.159 74.6337 278.579 81.0353 276.864L93.4586 323.228C112.663 318.082 124.06 298.342 118.914 279.137L72.55 291.561ZM64.2678 260.651L72.55 291.561L118.914 279.137L110.632 248.228L64.2678 260.651Z" fill="black" mask="url(#path-1-inside-1_0_1042)"/>

    <title>eyes-9</title>
    <g id="All-customizable-items" stroke="none" stroke-width="1" fill="none" fill-rule="evenodd">
        <g id="Eyes/-9" transform="translate(-550.000000, -507.000000)" fill="#000000">
            <path d="M570,507 C575.854822,507 581.122051,511.025253 584.779642,517.440484 L578,531 L589.369946,531.000208 C589.781247,533.557105 590,536.237678 590,539 C590,556.673112 581.045695,571 570,571 C558.954305,571 550,556.673112 550,539 C550,521.326888 558.954305,507 570,507 Z M708,507 C713.854822,507 719.122051,511.025253 722.779642,517.440484 L716,531 L727.369946,531.000208 C727.781247,533.557105 728,536.237678 728,539 C728,556.673112 719.045695,571 708,571 C696.954305,571 688,556.673112 688,539 C688,521.326888 696.954305,507 708,507 Z" id="eyes-9"></path>
        </g>
    </g>

    <title>eyebrows-3</title>
    <g id="All-customizable-items" stroke="none" stroke-width="1" fill="none" fill-rule="evenodd" stroke-linecap="round" stroke-linejoin="round">
        <g id="Eyebrows/-3" transform="translate(-500.000000, -472.000000)" stroke="#000000" stroke-width="24">
            <g id="eyebrows-3" transform="translate(512.000000, 484.000000)">
                <path d="M152,14.0251712 C167.712271,3.95186377 182.349308,-0.695225271 195.911111,0.0839040908 C206.159229,0.672661315 219.876442,6.74452014 237.511111,14.0251712 C241.312508,15.5946162 247.475471,17.5862258 256,20" id="Path" transform="translate(204.000000, 10.000000) scale(-1, 1) translate(-204.000000, -10.000000) "></path>
                <path d="M0,14.0251712 C15.7122706,3.95186377 30.3493076,-0.695225271 43.9111111,0.0839040908 C54.1592293,0.672661315 67.8764421,6.74452014 85.5111111,14.0251712 C89.3125078,15.5946162 95.4754707,17.5862258 104,20" id="Path"></path>
            </g>
        </g>
    </g>

    <title>mouth-10</title>
    <g id="All-customizable-items" stroke="none" stroke-width="1" fill="none" fill-rule="evenodd" stroke-linecap="round" stroke-linejoin="round">
        <g id="Mouth/-10" transform="translate(-541.000000, -751.000000)" stroke="#000000" stroke-width="16">
            <path d="M549,759 C576.33038,765.666667 599.663714,769 619,769 C638.336286,769 655.002953,765.666667 669,759 C656.33038,792.333333 632.997047,809 599,809 C565.002953,809 548.336286,792.333333 549,759 Z" id="mouth-10"></path>
        </g>
    </g>

    <title>nose-10</title>
    <g id="All-customizable-items" stroke="none" stroke-width="1" fill="none" fill-rule="evenodd" stroke-linecap="round" stroke-linejoin="round">
        <g id="Nose/-10" transform="translate(-623.000000, -571.000000)" stroke="#000000" stroke-width="16">
            <path d="M631,694.380659 C660.333333,687.46022 678,677.333333 684,664 C693,644 637.033407,606.392531 660.161467,579" id="nose-10"></path>
        </g>
    </g>

    <title>hair-8</title>
    <g id="All-customizable-items" stroke="none" stroke-width="1" fill="none" fill-rule="evenodd" stroke-linecap="round" stroke-linejoin="round">
        <g id="Hairstyle/-8" transform="translate(-191.000000, -143.000000)" fill="#000000" stroke="#000000" stroke-width="12">
            <path d="M589.5,149 C631.429764,149 667.646435,173.46066 684.658775,208.890741 C721.09813,214.498985 749,245.991077 749,284 C749,286.479516 748.88126,288.931299 748.649157,291.349973 C776.884031,307.885612 799.44561,330.956745 794,360 C786,402.666667 760.666667,438 718,466 L715.0861,463.567 C683.962033,437.635667 661.933333,421.113333 649,414 C615.112376,395.361807 560.361457,389 532,389 C494.328727,389 459.328727,395.666667 427,409 C427.442658,419.124205 429.109325,429.457538 432,440 C434.890675,450.542462 438.890675,460.875795 444,471 C418.42303,487.163731 403.86212,499.704664 400.317272,508.622798 C395.053173,521.866228 390.816933,592.760589 386.449154,651.362106 L386.17725,655 L366.146153,655 L328.203914,564.824988 L287.169322,564.824988 C281.896276,545.26754 277.997962,527.821458 275.474381,512.486743 C230.854476,504.457464 197,465.4323 197,418.5 C197,388.97181 210.401273,362.573655 231.453484,345.055871 C227.349851,337.983222 225,329.766029 225,321 C225,294.490332 246.490332,273 273,273 L273.516848,273.002725 L273.516848,273.002725 C278.783823,219.66548 323.776164,178 378.5,178 C395.981022,178 412.469019,182.251645 426.986338,189.77728 C440.350453,178.084255 457.847918,171 477,171 C490.487831,171 503.155028,174.513552 514.136247,180.675313 C533.28305,161.128247 559.975173,149 589.5,149 Z" id="hair-8"></path>
        </g>
    </g>

    <title>accessories-7</title>
    <g id="All-customizable-items" stroke="none" stroke-width="1" fill="none" fill-rule="evenodd" stroke-linecap="round" stroke-linejoin="round">
        <g id="Accessories/-7" transform="translate(-271.000000, -682.000000)" stroke="#000000" stroke-width="8">
            <g id="accessories-7" transform="translate(276.000000, 687.000000)">
                <rect id="Rectangle" fill="#FFFFFF" transform="translate(28.000000, 28.000000) rotate(-330.000000) translate(-28.000000, -28.000000) " x="8" y="8" width="40" height="40"></rect>
                <rect id="Rectangle" x="16" y="16" width="24" height="24"></rect>
            </g>
        </g>
    </g>

</svg>