<svg width="564px" height="504px" viewBox="0 0 564 504" version="1.1" xmlns="http://www.w3.org/2000/svg" xmlns:xlink="http://www.w3.org/1999/xlink">

    <title>face-2</title>
    <g id="All-customizable-items" stroke="none" stroke-width="1" fill="none" fill-rule="evenodd" stroke-linecap="round" stroke-linejoin="round">
        <g id="Face/-2" transform="translate(-220.000000, -367.000000)" stroke="#000000" stroke-width="24">
            <path d="M532,379 C664.54834,379 772,486.45166 772,619 C772,751.54834 664.54834,899 532,899 C432.699202,899 347.483933,816.242653 310.982017,718.993409 C267.268677,718.448846 232,682.843144 232,639 C232,599.134956 261.158843,566.080325 299.312086,560.00055 C325.599297,455.979213 419.809919,379 532,379 Z M295.858895,624.545187 L304.141105,655.454813" id="face-2"></path>
        </g>
    </g>

    <title>eyes-4</title>
    <g id="All-customizable-items" stroke="none" stroke-width="1" fill="none" fill-rule="evenodd">
        <g id="Eyes/-4" transform="translate(-546.000000, -516.000000)" fill="#000000">
            <path d="M570,516 C583.254834,516 594,526.745166 594,540 C594,553.254834 583.254834,564 570,564 C556.745166,564 546,553.254834 546,540 C546,526.745166 556.745166,516 570,516 Z M708,516 C721.254834,516 732,526.745166 732,540 C732,553.254834 721.254834,564 708,564 C694.745166,564 684,553.254834 684,540 C684,526.745166 694.745166,516 708,516 Z M562,526 C558.686292,526 556,528.686292 556,532 C556,535.313708 558.686292,538 562,538 C565.313708,538 568,535.313708 568,532 C568,528.686292 565.313708,526 562,526 Z M700,526 C696.686292,526 694,528.686292 694,532 C694,535.313708 696.686292,538 700,538 C703.313708,538 706,535.313708 706,532 C706,528.686292 703.313708,526 700,526 Z" id="eyes-4"></path>
        </g>
    </g>

<path fill-rule="evenodd" clip-rule="evenodd" d="M162 20.3162C162 20.3162 179.641 7.86317 187.392 5.57835C195.144 3.29353 219 4.31622 219 4.31622L236 9.91302C236 9.91302 211.25 9.89746 197.549 12.0803C183.848 14.2632 162 20.3162 162 20.3162Z" fill="black" stroke="black" stroke-width="8" stroke-linecap="round" stroke-linejoin="round"/>
<path fill-rule="evenodd" clip-rule="evenodd" d="M78 20.3162C78 20.3162 60.3594 7.86317 52.6078 5.57835C44.8563 3.29353 21 4.31622 21 4.31622L4 9.91302C4 9.91302 28.7504 9.89746 42.451 12.0803C56.1516 14.2632 78 20.3162 78 20.3162Z" fill="black" stroke="black" stroke-width="8" stroke-linecap="round" stroke-linejoin="round"/>

    <title>mouth-4</title>
    <g id="All-customizable-items" stroke="none" stroke-width="1" fill="none" fill-rule="evenodd" stroke-linecap="round" stroke-linejoin="round">
        <g id="Mouth/-4" transform="translate(-541.000000, -740.000000)" stroke="#000000" stroke-width="16">
            <path d="M549,778 C580.121822,764.84962 604.121822,756.516287 621,753 C637.878178,749.483713 661.878178,747.817046 693,748" id="mouth-4"></path>
        </g>
    </g>

    <title>nose-5</title>
    <g id="All-customizable-items" stroke="none" stroke-width="1" fill="none" fill-rule="evenodd" stroke-linecap="round" stroke-linejoin="round">
        <g id="Nose/-5" transform="translate(-617.000000, -560.000000)" stroke="#000000" stroke-width="16">
            <path d="M673,568 C662.55102,590.836147 657.326531,613.414126 657.326531,635.733939 C657.326531,669.213657 673,686.992054 670.061224,702.552554 C668.102041,712.92622 653.081633,714.756867 625,708.044495" id="nose-5"></path>
        </g>
    </g>

    <title>hair-26</title>
    <g id="All-customizable-items" stroke="none" stroke-width="1" fill="none" fill-rule="evenodd" stroke-linecap="round" stroke-linejoin="round">
        <g id="Hairstyle/-26" transform="translate(-91.000000, -145.000000)" fill="#000000" stroke="#000000" stroke-width="12">
            <path d="M487,151 C427,151 384.333333,172 359,214 C296.333333,203.333333 247.333333,240.333333 212,325 C195.310801,364.9911 183.123542,443.781562 177.139241,514.209636 C176.032219,527.237964 143.671718,580.842552 143,593 C142.125246,608.832205 166,573 162,601 C158,629 101.886181,702.105283 98,719 C89.1502686,757.47317 141.202125,724.54595 126.463139,765.684225 C100.36018,838.54071 79.9331748,911.175609 118,968 C187,1071 218,959 292,1006 C316.905043,1021.81807 332.783103,1042.82454 353,1053 C371.603237,1062.36328 397.269904,1068.36328 430,1071 C432.920062,1039.21323 430.253395,1011.87989 422,989 C418.708727,979.876001 410.708727,968.876001 398,956 C407.333333,928 413,900 415,872 C419.08731,814.777664 371.10908,800.583946 359,788 C341.351402,769.6593 325.684735,746.6593 312,719 C258.666667,709.666667 232,683 232,639 C232,573 286,566 311,566 C327.666667,566 343.666667,570 359,578 C374.333333,558 383.333333,533.333333 386,504 C388.666667,474.666667 426.666667,435 500,385 C536,409.666667 567.333333,427.333333 594,438 C637.34805,455.33922 687.324701,439.86525 708,461 C738,491.666667 759.333333,536.666667 772,596 C789.333333,459.333333 776,357.666667 732,291 C666,191 577,151 487,151 Z" id="hair-26"></path>
        </g>
    </g>

    <title>beard-9</title>
    <g id="All-customizable-items" stroke="none" stroke-width="1" fill="none" fill-rule="evenodd" stroke-linecap="round" stroke-linejoin="round">
        <g id="Beard/-9" transform="translate(-463.000000, -766.000000)" fill="#000000" stroke="#000000" stroke-width="12">
            <path d="M591,787 L635,787 C630.333333,808.333333 633.666667,819 645,819 C656.333333,819 677.333333,803.333333 708,772 C706.096725,787.252619 703.763392,797.919286 701,804 C681.384138,847.163789 649,872 588,872 C571.270609,872 532,872 513,859 C503.782362,852.693195 484,841 474,812 C472.318666,807.124131 470.651999,796.457464 469,780 C500.392573,797.855208 521.392573,808.521874 532,812 C553.420148,819.023566 571.9567,819 580,819 C594.017959,819 597.684625,808.333333 591,787 Z" id="beard-9"></path>
        </g>
    </g>

</svg>