<svg width="564px" height="504px" viewBox="0 0 564 504" version="1.1" xmlns="http://www.w3.org/2000/svg" xmlns:xlink="http://www.w3.org/1999/xlink">

    <title>face-8</title>
    <g id="All-customizable-items" stroke="none" stroke-width="1" fill="none" fill-rule="evenodd" stroke-linecap="round" stroke-linejoin="round">
        <g id="Face/-8" transform="translate(-220.000000, -367.000000)" stroke="#000000" stroke-width="24">
            <path d="M532,379 C664.54834,379 772,486.45166 772,619 C772,751.54834 724.54834,899 592,899 C492.560218,899 373.476049,816.010833 320.189513,718.584987 C317.498129,718.859681 314.765451,719 312,719 C267.81722,719 232,683.18278 232,639 C232,599.134956 261.158843,566.080325 299.312086,560.00055 C325.599297,455.979213 419.809919,379 532,379 Z M295.858895,624.545187 L304.141105,655.454813" id="face-8"></path>
        </g>
    </g>

<path d="M145 10.5001C145 10.5001 153.471 7 164.765 7C176.059 7 187.811 12 208.059 12C228.306 12 241 7 241 7" stroke="black" stroke-width="12" stroke-linecap="round" stroke-linejoin="round"/>
<path d="M103 10.5001C103 10.5001 94.5294 7 83.2353 7C71.9412 7 60.1888 12 39.9412 12C19.6935 12 7 7 7 7" stroke="black" stroke-width="12" stroke-linecap="round" stroke-linejoin="round"/>

    <title>eyebrows-3</title>
    <g id="All-customizable-items" stroke="none" stroke-width="1" fill="none" fill-rule="evenodd" stroke-linecap="round" stroke-linejoin="round">
        <g id="Eyebrows/-3" transform="translate(-500.000000, -472.000000)" stroke="#000000" stroke-width="24">
            <g id="eyebrows-3" transform="translate(512.000000, 484.000000)">
                <path d="M152,14.0251712 C167.712271,3.95186377 182.349308,-0.695225271 195.911111,0.0839040908 C206.159229,0.672661315 219.876442,6.74452014 237.511111,14.0251712 C241.312508,15.5946162 247.475471,17.5862258 256,20" id="Path" transform="translate(204.000000, 10.000000) scale(-1, 1) translate(-204.000000, -10.000000) "></path>
                <path d="M0,14.0251712 C15.7122706,3.95186377 30.3493076,-0.695225271 43.9111111,0.0839040908 C54.1592293,0.672661315 67.8764421,6.74452014 85.5111111,14.0251712 C89.3125078,15.5946162 95.4754707,17.5862258 104,20" id="Path"></path>
            </g>
        </g>
    </g>

    <title>mouth-6</title>
    <g id="All-customizable-items" stroke="none" stroke-width="1" fill="none" fill-rule="evenodd" stroke-linecap="round" stroke-linejoin="round">
        <g id="Mouth/-6" transform="translate(-527.000000, -750.000000)" stroke="#000000" stroke-width="16">
            <path d="M595.535093,787 C583.017242,784.777583 569.106424,779.94425 553.80264,772.5 C538.498856,765.05575 532.537077,760.222417 535.917303,758 C559.764419,764.666667 583.611535,768 607.458651,768 C631.305768,768 655.152884,764.666667 679,758 C677.01274,762.833333 671.050961,767.666667 661.114663,772.5 C651.178364,777.333333 637.267547,782.166667 619.382209,787" id="mouth-6"></path>
        </g>
    </g>

    <title>nose-7</title>
    <g id="All-customizable-items" stroke="none" stroke-width="1" fill="none" fill-rule="evenodd" stroke-linecap="round" stroke-linejoin="round">
        <g id="Nose/-7" transform="translate(-641.000000, -592.000000)" stroke="#000000" stroke-width="16">
            <path d="M649,600 C669,606.666667 679,620 679,640 C679,660 669,673.333333 649,680" id="nose-7"></path>
        </g>
    </g>

<path fill-rule="evenodd" clip-rule="evenodd" d="M223.001 30.9999C270.761 1.34638 335.39 -1.59318 416.889 22.1813L418.14 21.6503C438.829 12.9486 471.441 3.05908 518.001 28.9999C588.001 67.9999 595.98 140.101 622.001 144C640.46 146.766 646.56 192.498 663.001 234C669.104 249.404 708.001 259 708.001 259L663.001 278C663.001 278 672.927 288.092 686.001 296C697.33 302.852 717.001 327 717.001 327C717.001 327 674.793 334.748 669.001 347C665.892 353.577 702.405 361.103 713.001 405C727.001 463 680.99 543.03 709.953 560.495C723.072 568.406 757.953 590.495 757.953 590.495C757.953 590.495 705.775 642.051 681.953 635.495C645.135 625.363 597.953 590.495 597.953 590.495C597.953 590.495 609.409 457.557 605.001 382C601.916 329.103 587.184 271.788 573.001 250C538.561 197.091 468.001 144 381.001 144C314.08 144 309.925 182.463 309.925 182.463C306.119 203.727 306.116 226.946 291.001 259C264.775 314.618 172.05 352.505 172.05 381.505C172.05 410.505 181.05 411.505 181.05 427.505C181.05 443.505 169.02 451.862 172.05 473.505C174.07 487.933 185.021 561.095 201.001 582C173.475 609.867 147.808 627.534 124.001 635C100.195 642.466 69.5279 642.466 32.0013 635C41.3071 626.655 47.9738 618.989 52.0013 612L52.393 611.308C56.3305 604.232 60.8666 592.462 66.0013 576C59.6984 582.705 53.365 587.371 47.0013 590C40.6375 592.628 31.6375 594.295 20.0013 595L22.0031 592.564C27.3626 586.017 31.5205 580.735 34.477 576.717L35.4337 575.408C40.2515 568.846 44.6276 563.7 42.0013 553C39.2966 541.981 4.57252 443.372 6.04971 410.505C7.03451 388.593 17.7012 356.259 38.0497 313.505C34.5862 317.378 30.5862 320.378 26.0497 322.505C21.5132 324.631 14.8465 326.631 6.04971 328.505L7.28974 327.4C18.1209 317.712 25.7075 309.746 30.0497 303.505C34.5558 297.027 37.2224 290.027 38.0497 282.505C31.855 284.314 26.855 284.98 23.0497 284.505C19.2445 284.029 13.5778 282.029 6.04971 278.505L7.34467 277.889C15.8635 273.82 22.0986 270.358 26.0497 267.505C30.1984 264.508 35.5318 259.508 42.0497 252.505L43.221 249.969C62.2757 208.815 77.5519 180.661 89.0497 165.505C121.199 123.126 155.722 97.4076 185.05 75.5045C201.26 63.3984 209.717 39.2479 223.001 30.9999Z" fill="black" stroke="black" stroke-width="12" stroke-linecap="round" stroke-linejoin="round"/>

    <title>glasses-3</title>
    <g id="All-customizable-items" stroke="none" stroke-width="1" fill="none" fill-rule="evenodd" stroke-linecap="round" stroke-linejoin="round">
        <g id="Glasses/-3" transform="translate(-289.000000, -483.000000)" stroke="#000000" stroke-width="8">
            <g id="glasses-3" transform="translate(293.000000, 488.000000)">
                <path d="M197.493245,10.4280671 C174.636102,27.3582996 188.604356,103.544346 244.477372,103.544346 C300.350388,103.544346 337.149222,42.6997481 325.747213,20.1024857 C314.345204,-2.49477675 220.350388,-6.50216547 197.493245,10.4280671 Z" id="Path"></path>
                <path d="M376.540864,10.4280671 C353.683721,27.3582996 367.651975,103.544346 423.524991,103.544346 C479.398007,103.544346 516.196841,42.6997481 504.794832,20.1024857 C493.392823,-2.49477675 399.398007,-6.50216547 376.540864,10.4280671 Z" id="Path" transform="translate(436.458153, 51.772173) scale(-1, 1) translate(-436.458153, -51.772173) "></path>
                <line x1="301.285714" y1="5.44186047" x2="392.714286" y2="5.44186047" id="Path"></line>
                <line x1="326.68254" y1="21.1627907" x2="367.31746" y2="21.1627907" id="Path"></line>
                <line x1="186.554557" y1="30.8015819" x2="1.25992802" y2="69.9860126" id="Path" transform="translate(94.259928, 50.646655) rotate(1.361411) translate(-94.259928, -50.646655) "></line>
            </g>
        </g>
    </g>

</svg>