<svg width="564px" height="504px" viewBox="0 0 564 504" version="1.1" xmlns="http://www.w3.org/2000/svg" xmlns:xlink="http://www.w3.org/1999/xlink">

<mask id="path-1-inside-1_0_1042" fill="white">
<path fill-rule="evenodd" clip-rule="evenodd" d="M90.9463 195.941C115.92 97.1191 205.436 24 312 24C437.921 24 540 126.079 540 252C540 262.46 542.06 273.268 543.86 282.706C544.292 284.973 544.709 287.16 545.079 289.245C547.13 300.808 548.036 310.319 545.823 319.022C539.49 343.927 514.305 389.885 481.951 432.708C465.937 453.903 448.534 473.835 431.405 489.582C414.066 505.522 397.906 516.332 384.421 520.546C342.641 533.602 288.106 515.567 235.424 479.498C183.318 443.823 136.354 392.698 110.718 345.827C108.401 341.592 103.773 339.157 98.9711 339.647C96.6854 339.88 94.3594 340 92 340C54.4446 340 24 309.555 24 272C24 238.126 48.7801 210.017 81.2005 204.851C85.9382 204.096 89.7709 200.592 90.9463 195.941ZM312 0C196.833 0 99.736 77.2452 69.647 182.737C29.6368 192.728 0 228.893 0 272C0 322.81 41.1898 364 92 364C92.4714 364 92.942 363.996 93.4119 363.989C121.666 412.573 169.407 463.385 221.866 499.301C276.147 536.465 338.873 559.924 391.579 543.454C410.094 537.668 429.382 524.042 447.648 507.25C466.124 490.265 484.484 469.168 501.1 447.175C534.005 403.623 561.547 354.57 569.083 324.937C572.651 310.905 570.831 297.007 568.71 285.053C568.218 282.28 567.717 279.632 567.235 277.08L567.235 277.079C565.499 267.899 564 259.971 564 252C564 112.824 451.176 0 312 0ZM87.45 254.439C85.7347 248.038 79.1547 244.239 72.7531 245.954C66.3515 247.669 62.5525 254.249 64.2678 260.651L72.55 291.561C74.2653 297.962 80.8453 301.761 87.2469 300.046C93.6485 298.331 97.4475 291.751 95.7322 285.349L87.45 254.439Z"/>
</mask>
<path d="M90.9463 195.941L67.6778 190.06L90.9463 195.941ZM543.86 282.706L520.285 287.201L520.285 287.201L543.86 282.706ZM545.079 289.245L521.448 293.437L521.448 293.438L545.079 289.245ZM545.823 319.022L569.083 324.937L569.083 324.937L545.823 319.022ZM481.951 432.708L462.802 418.24V418.24L481.951 432.708ZM431.405 489.582L447.648 507.25L431.405 489.582ZM384.421 520.546L391.579 543.454H391.579L384.421 520.546ZM235.424 479.498L221.866 499.301H221.866L235.424 479.498ZM110.718 345.827L89.6613 357.343L89.6614 357.343L110.718 345.827ZM98.9711 339.647L101.408 363.523H101.408L98.9711 339.647ZM81.2005 204.851L84.9773 228.552L81.2005 204.851ZM69.647 182.737L75.4615 206.022C83.7891 203.943 90.3723 197.574 92.7266 189.32L69.647 182.737ZM93.4119 363.989L114.159 351.924C109.797 344.424 101.726 339.861 93.0504 339.992L93.4119 363.989ZM221.866 499.301L235.424 479.498L221.866 499.301ZM391.579 543.454L384.421 520.546L384.421 520.546L391.579 543.454ZM447.648 507.25L463.891 524.919H463.891L447.648 507.25ZM501.1 447.175L520.249 461.643V461.643L501.1 447.175ZM569.083 324.937L545.823 319.022V319.022L569.083 324.937ZM568.71 285.053L545.079 289.245L545.079 289.245L568.71 285.053ZM567.235 277.08L590.817 272.622C590.77 272.372 590.719 272.122 590.664 271.874L567.235 277.08ZM567.235 277.079L543.653 281.538C543.7 281.788 543.751 282.037 543.806 282.285L567.235 277.079ZM72.7531 245.954L78.9647 269.136H78.9647L72.7531 245.954ZM87.45 254.439L110.632 248.228V248.228L87.45 254.439ZM64.2678 260.651L41.0856 266.863L64.2678 260.651ZM72.55 291.561L49.3678 297.772H49.3678L72.55 291.561ZM87.2469 300.046L93.4586 323.228H93.4586L87.2469 300.046ZM95.7322 285.349L118.914 279.137L118.914 279.137L95.7322 285.349ZM312 0C194.187 0 95.2798 80.8367 67.6778 190.06L114.215 201.821C136.559 113.402 216.684 48 312 48V0ZM564 252C564 112.824 451.176 0 312 0V48C424.666 48 516 139.334 516 252H564ZM567.435 278.211C565.561 268.381 564 259.81 564 252H516C516 265.111 518.56 278.155 520.285 287.201L567.435 278.211ZM568.71 285.053C568.308 282.789 567.861 280.446 567.435 278.211L520.285 287.201C520.723 289.5 521.11 291.532 521.448 293.437L568.71 285.053ZM569.083 324.937C572.655 310.891 570.825 296.976 568.71 285.053L521.448 293.438C523.435 304.64 523.418 309.747 522.563 313.107L569.083 324.937ZM501.1 447.175C517.921 424.912 532.915 401.792 544.604 380.838C556.063 360.296 565.144 340.425 569.083 324.937L522.564 313.107C520.169 322.524 513.49 338.084 502.685 357.453C492.11 376.41 478.335 397.68 462.802 418.24L501.1 447.175ZM447.648 507.25C466.124 490.265 484.484 469.168 501.1 447.175L462.802 418.24C447.39 438.639 430.944 457.405 415.163 471.914L447.648 507.25ZM391.579 543.454C410.097 537.667 429.386 524.039 447.648 507.25L415.163 471.914C398.746 487.006 385.714 494.997 377.262 497.639L391.579 543.454ZM221.866 499.301C276.158 536.473 338.88 559.922 391.579 543.454L377.262 497.639C346.402 507.282 300.054 494.661 248.983 459.695L221.866 499.301ZM89.6614 357.343C117.312 407.897 167.01 461.743 221.866 499.301L248.983 459.695C199.627 425.903 155.396 377.499 131.774 334.31L89.6614 357.343ZM101.408 363.523C96.6059 364.013 91.9776 361.578 89.6613 357.343L131.774 334.31C124.825 321.605 110.94 314.301 96.5342 315.771L101.408 363.523ZM92 364C95.1716 364 98.3109 363.839 101.408 363.523L96.5343 315.771C95.0599 315.922 93.5472 316 92 316V364ZM0 272C0 322.81 41.1898 364 92 364V316C67.6995 316 48 296.301 48 272H0ZM77.4237 181.15C33.53 188.145 0 226.151 0 272H48C48 250.101 64.0302 231.89 84.9773 228.552L77.4237 181.15ZM67.6778 190.06C68.8533 185.409 72.686 181.905 77.4237 181.15L84.9773 228.552C99.1903 226.287 110.689 215.775 114.215 201.821L67.6778 190.06ZM92.7266 189.32C119.954 93.8607 207.837 24 312 24V-24C185.829 -24 79.518 60.6297 46.5675 176.154L92.7266 189.32ZM24 272C24 240.172 45.8801 213.409 75.4615 206.022L63.8326 159.452C13.3934 172.047 -24 217.614 -24 272H24ZM92 340C54.4446 340 24 309.555 24 272H-24C-24 336.065 27.935 388 92 388V340ZM93.0504 339.992C92.7003 339.997 92.3502 340 92 340V388C92.5926 388 93.1837 387.996 93.7735 387.987L93.0504 339.992ZM235.424 479.498C185.647 445.417 140.469 397.166 114.159 351.924L72.6651 376.055C102.863 427.981 153.168 481.353 208.308 519.105L235.424 479.498ZM384.421 520.546C342.647 533.6 288.115 515.573 235.424 479.498L208.308 519.105C264.179 557.357 335.099 586.248 398.738 566.361L384.421 520.546ZM431.405 489.582C414.069 505.52 397.908 516.331 384.421 520.546L398.738 566.361C422.28 559.004 444.696 542.565 463.891 524.919L431.405 489.582ZM481.951 432.708C465.937 453.903 448.534 473.835 431.405 489.582L463.891 524.919C483.714 506.695 503.031 484.432 520.249 461.643L481.951 432.708ZM545.823 319.022C539.489 343.929 514.303 389.887 481.951 432.708L520.249 461.643C553.707 417.359 583.605 365.211 592.342 330.852L545.823 319.022ZM545.079 289.245C547.126 300.785 548.039 310.308 545.823 319.022L592.342 330.852C597.263 311.502 594.535 293.228 592.341 280.861L545.079 289.245ZM543.653 281.539C544.138 284.107 544.614 286.626 545.079 289.245L592.341 280.861C591.822 277.934 591.297 275.156 590.817 272.622L543.653 281.539ZM543.806 282.285L543.807 282.287L590.664 271.874L590.663 271.872L543.806 282.285ZM540 252C540 262.63 542.008 272.839 543.653 281.538L590.817 272.62C588.99 262.958 588 257.313 588 252H540ZM312 24C437.921 24 540 126.079 540 252H588C588 99.5694 464.431 -24 312 -24V24ZM78.9647 269.136C72.5631 270.852 65.9831 267.053 64.2678 260.651L110.632 248.228C105.486 229.023 85.7462 217.626 66.5414 222.772L78.9647 269.136ZM87.45 254.439C89.1653 260.841 85.3663 267.421 78.9647 269.136L66.5414 222.772C47.3366 227.918 35.9397 247.658 41.0856 266.863L87.45 254.439ZM95.7322 285.349L87.45 254.439L41.0856 266.863L49.3678 297.772L95.7322 285.349ZM81.0353 276.864C87.4369 275.148 94.0169 278.947 95.7322 285.349L49.3678 297.772C54.5137 316.977 74.2537 328.374 93.4586 323.228L81.0353 276.864ZM72.55 291.561C70.8347 285.159 74.6337 278.579 81.0353 276.864L93.4586 323.228C112.663 318.082 124.06 298.342 118.914 279.137L72.55 291.561ZM64.2678 260.651L72.55 291.561L118.914 279.137L110.632 248.228L64.2678 260.651Z" fill="black" mask="url(#path-1-inside-1_0_1042)"/>

    <title>eyes-0</title>
    <g id="All-customizable-items" stroke="none" stroke-width="1" fill="none" fill-rule="evenodd">
        <g id="Eyes/-0" transform="translate(-546.000000, -516.000000)" fill="#000000">
            <path d="M570,516 C583.254834,516 594,526.745166 594,540 C594,553.254834 583.254834,564 570,564 C556.745166,564 546,553.254834 546,540 C546,526.745166 556.745166,516 570,516 Z M708,516 C721.254834,516 732,526.745166 732,540 C732,553.254834 721.254834,564 708,564 C694.745166,564 684,553.254834 684,540 C684,526.745166 694.745166,516 708,516 Z" id="eyes-0"></path>
        </g>
    </g>

<path fill-rule="evenodd" clip-rule="evenodd" d="M162 20.3162C162 20.3162 179.641 7.86317 187.392 5.57835C195.144 3.29353 219 4.31622 219 4.31622L236 9.91302C236 9.91302 211.25 9.89746 197.549 12.0803C183.848 14.2632 162 20.3162 162 20.3162Z" fill="black" stroke="black" stroke-width="8" stroke-linecap="round" stroke-linejoin="round"/>
<path fill-rule="evenodd" clip-rule="evenodd" d="M78 20.3162C78 20.3162 60.3594 7.86317 52.6078 5.57835C44.8563 3.29353 21 4.31622 21 4.31622L4 9.91302C4 9.91302 28.7504 9.89746 42.451 12.0803C56.1516 14.2632 78 20.3162 78 20.3162Z" fill="black" stroke="black" stroke-width="8" stroke-linecap="round" stroke-linejoin="round"/>

<path fill-rule="evenodd" clip-rule="evenodd" d="M42.8699 52.5553C23.1475 40.2091 8.39551 19.0189 8.39551 19.0189C8.39551 19.0189 55.9996 8.63705 95.9996 8.31852C136 7.99999 183.604 19.0189 183.604 19.0189C183.604 19.0189 168.852 40.2091 149.129 52.5553C140.101 58.2072 112 61 96.443 60.9998C80.8863 60.9996 51.8065 58.1496 42.8699 52.5553Z" stroke="black" stroke-width="16" stroke-linecap="round" stroke-linejoin="round"/>
<path d="M56.3223 52C56.3223 52 76.161 44 95.9997 44C115.838 44 135.677 52 135.677 52" stroke="black" stroke-width="8" stroke-linecap="round" stroke-linejoin="round"/>

    <title>nose-0</title>
    <g id="All-customizable-items" stroke="none" stroke-width="1" fill="none" fill-rule="evenodd" stroke-linecap="round" stroke-linejoin="round">
        <g id="Nose/-0" transform="translate(-629.000000, -587.000000)" stroke="#000000" stroke-width="16">
            <line x1="637" y1="596" x2="661.856189" y2="682.499537" id="nose-0" transform="translate(649.428094, 639.249768) rotate(1.032339) translate(-649.428094, -639.249768) "></line>
        </g>
    </g>

    <title>hair-4</title>
    <g id="All-customizable-items" stroke="none" stroke-width="1" fill="none" fill-rule="evenodd" stroke-linecap="round" stroke-linejoin="round">
        <g id="Hairstyle/-4" transform="translate(-252.000000, -223.000000)" fill="#000000" stroke="#000000" stroke-width="12">
            <path d="M611.547059,230.462612 C698.094118,236.925225 725,287 724.588542,333.554902 C748.638568,343.002989 766,370.025589 766,401.886689 C766,419.541793 748.333333,441.912896 713,469 C658.648092,471.689594 614.775916,470.090396 581.383471,464.202407 C514.014286,452.323402 462.038862,412.237022 441,412 C419.961138,411.762978 402.482014,416.588965 384,454 C365.517986,491.411035 385.822655,520.524164 384,551 C376.5907,588.904446 370.755044,622.451207 366.493029,651.640282 L366,655 L328.116663,564.824988 L287.145773,564.824988 C265.130495,517.303157 245,413 269,379 C293,345 310,351 346,360 C354.615309,315.384317 393.523749,291.762537 430.724791,270.310819 L433,269 C466,250 525,224 611.547059,230.462612 Z" id="hair-4"></path>
        </g>
    </g>

<path fill-rule="evenodd" clip-rule="evenodd" d="M214.921 15.7546C230.162 21.5377 239.262 32.7546 245.667 45.7546C252.073 58.7546 263.88 102.755 260.677 121.755C257.474 140.755 227.162 173 206 183C189.946 190.586 119.895 208.877 93.6771 202.755C53.8989 193.465 11.6771 177.755 6.67714 158.755C1.67714 139.755 25.6771 58.7546 35.6771 45.7546C45.5684 32.8959 59.5752 21.7818 82.9046 15.9451L83.6771 15.7546C99.0669 12.014 140.035 6.25998 160.356 6.00727C180.677 5.75455 205.428 12.1522 214.921 15.7546ZM160 22C134.859 22.3134 86.4506 33.7835 75.6771 40.7546C58.6771 51.7546 53.6771 91.7546 58.6771 106.755C63.6771 121.755 89.6771 132.755 100.677 132.755C111.677 132.755 136.677 113.755 141.677 110.755C144.95 108.791 152.078 107.47 163.063 106.792L163.677 106.755C170.937 107.421 175.769 109.755 179 113C182.231 116.245 192 133 205 133C218 133 227.732 121.755 230.935 106.755C234.138 91.7546 230.935 51.7546 220.045 40.7546C212.859 33.4946 185.141 21.6866 160 22Z" fill="black"/>
<path d="M214.921 15.7546L212.792 21.3643L214.921 15.7546ZM206 183L203.436 177.575L206 183ZM93.6771 202.755L92.3127 208.597L93.6771 202.755ZM35.6771 45.7546L40.4329 49.4128L35.6771 45.7546ZM82.9046 15.9451L81.468 10.1196C81.4615 10.1212 81.4549 10.1228 81.4484 10.1245L82.9046 15.9451ZM83.6771 15.7546L82.2601 9.9243C82.2535 9.92588 82.247 9.92748 82.2405 9.92908L83.6771 15.7546ZM75.6771 40.7546L72.4176 35.7171L75.6771 40.7546ZM141.677 110.755L144.764 115.9L141.677 110.755ZM163.063 106.792L162.702 100.802L162.693 100.803L163.063 106.792ZM163.677 106.755L164.226 100.78C163.923 100.752 163.619 100.747 163.316 100.765L163.677 106.755ZM205 133V127V133ZM220.045 40.7546L215.781 44.9757L220.045 40.7546ZM212.792 21.3643C226.138 26.4283 234.286 36.2309 240.285 48.4065L251.05 43.1026C244.238 29.2782 234.186 16.6472 217.05 10.1448L212.792 21.3643ZM240.285 48.4065C243.17 54.2617 247.6 67.9597 250.92 82.8131C252.562 90.1616 253.893 97.6195 254.619 104.337C255.355 111.148 255.425 116.817 254.761 120.757L266.594 122.752C267.531 117.192 267.326 110.236 266.549 103.047C265.762 95.7646 264.341 87.8475 262.631 80.196C259.246 65.0494 254.57 50.2474 251.05 43.1026L240.285 48.4065ZM254.761 120.757C254.146 124.404 252.1 129.214 248.657 134.775C245.268 140.249 240.756 146.082 235.633 151.716C225.291 163.093 213.037 173.038 203.436 177.575L208.564 188.425C220.125 182.962 233.608 171.784 244.513 159.788C250.014 153.737 255.003 147.32 258.86 141.092C262.663 134.951 265.607 128.605 266.594 122.752L254.761 120.757ZM203.436 177.575C196.081 181.051 175.133 187.407 152.425 192.145C141.167 194.493 129.687 196.398 119.478 197.343C109.121 198.302 100.62 198.215 95.0416 196.912L92.3127 208.597C99.8428 210.356 109.93 210.278 120.583 209.292C131.384 208.293 143.336 206.299 154.875 203.892C177.76 199.118 199.865 192.535 208.564 188.425L203.436 177.575ZM95.0416 196.912C75.3586 192.315 55.2921 186.176 39.6521 178.949C31.8238 175.332 25.3213 171.54 20.5687 167.681C15.7398 163.76 13.2658 160.215 12.4796 157.228L0.874692 160.282C2.58852 166.794 7.26722 172.338 13.0042 176.997C18.8175 181.717 26.2941 185.996 34.6185 189.843C51.284 197.543 72.2175 203.904 92.3127 208.597L95.0416 196.912ZM12.4796 157.228C12.0907 155.75 11.8824 153.138 12.0705 149.268C12.2531 145.51 12.785 140.976 13.6149 135.874C15.2737 125.678 18.0627 113.582 21.34 101.586C24.6149 89.5984 28.3453 77.8279 31.8545 68.2963C33.6103 63.5275 35.2899 59.3758 36.8086 56.0645C38.3758 52.6477 39.6158 50.475 40.4329 49.4128L30.9214 42.0963C29.2385 44.2841 27.541 47.4864 25.9012 51.0618C24.2129 54.7427 22.4159 59.2004 20.5935 64.1503C16.9465 74.0562 13.1143 86.1607 9.76425 98.4233C6.4166 110.677 3.51812 123.206 1.77062 133.947C0.897417 139.315 0.296478 144.327 0.0846043 148.686C-0.121832 152.933 0.0136108 157.009 0.874692 160.282L12.4796 157.228ZM40.4329 49.4128C49.5467 37.5649 62.4166 27.2558 84.3609 21.7657L81.4484 10.1245C56.7337 16.3078 41.5902 28.2268 30.9214 42.0963L40.4329 49.4128ZM84.3413 21.7705L85.1138 21.58L82.2405 9.92908L81.468 10.1196L84.3413 21.7705ZM85.0942 21.5848C100.089 17.9403 140.606 12.2533 160.431 12.0068L160.281 0.00773239C139.464 0.266617 98.0448 6.08773 82.2601 9.9243L85.0942 21.5848ZM160.431 12.0068C179.804 11.7659 203.794 17.9497 212.792 21.3643L217.05 10.1448C207.062 6.35483 181.55 -0.256763 160.281 0.00773239L160.431 12.0068ZM159.925 16.0005C146.726 16.165 127.856 19.2189 111.118 23.0304C102.699 24.9476 94.6815 27.0877 88.0353 29.2122C81.5853 31.2739 75.849 33.4968 72.4176 35.7171L78.9366 45.792C80.892 44.5267 85.2468 42.7017 91.689 40.6424C97.9351 38.6458 105.611 36.5917 113.783 34.7309C130.228 30.9862 148.133 28.1484 160.075 27.9995L159.925 16.0005ZM72.4176 35.7171C66.9401 39.2614 62.8308 44.8464 59.7854 50.9029C56.7106 57.0179 54.5035 64.0432 53.0523 71.0353C50.2071 84.7442 50.003 99.706 52.985 108.652L64.3692 104.857C62.3512 98.8032 62.1472 86.2649 64.8019 73.4739C66.1007 67.2159 68.0186 61.2412 70.5064 56.2937C73.0235 51.2877 75.9142 47.7477 78.9366 45.792L72.4176 35.7171ZM52.985 108.652C56.2318 118.392 65.7173 125.839 74.5595 130.65C83.5166 135.524 93.7845 138.755 100.677 138.755V126.755C96.5697 126.755 88.3377 124.485 80.2948 120.109C72.137 115.67 66.1225 110.117 64.3692 104.857L52.985 108.652ZM100.677 138.755C104.81 138.755 109.442 137.072 113.531 135.189C117.823 133.212 122.373 130.598 126.593 127.976C130.833 125.342 134.858 122.626 138.097 120.409C141.487 118.089 143.719 116.527 144.764 115.9L138.59 105.61C137.135 106.482 134.367 108.421 131.319 110.506C128.121 112.695 124.271 115.292 120.261 117.783C116.231 120.286 112.157 122.61 108.511 124.289C104.662 126.062 102.044 126.755 100.677 126.755V138.755ZM144.764 115.9C145.457 115.484 147.195 114.816 150.571 114.191C153.808 113.591 158.073 113.111 163.433 112.78L162.693 100.803C157.069 101.15 152.277 101.67 148.385 102.392C144.633 103.087 141.17 104.062 138.59 105.61L144.764 115.9ZM163.424 112.781L164.038 112.744L163.316 100.765L162.702 100.802L163.424 112.781ZM163.128 112.729C169.319 113.298 172.721 115.197 174.748 117.233L183.252 108.767C178.817 104.312 172.554 101.545 164.226 100.78L163.128 112.729ZM174.748 117.233C175.208 117.696 176.021 118.807 177.857 121.173C179.473 123.255 181.565 125.862 184.037 128.402C188.76 133.256 195.951 139 205 139V127C201.049 127 196.855 124.367 192.636 120.032C190.637 117.977 188.868 115.788 187.337 113.815C186.027 112.127 184.407 109.927 183.252 108.767L174.748 117.233ZM205 139C222.058 139 233.31 124.365 236.803 108.007L225.067 105.502C222.154 119.144 213.942 127 205 127V139ZM236.803 108.007C238.61 99.5405 238.523 85.0115 236.722 71.4638C235.81 64.6036 234.426 57.731 232.502 51.7589C230.632 45.9522 228.037 40.2988 224.31 36.5334L215.781 44.9757C217.499 46.7103 219.387 50.1819 221.08 55.4378C222.72 60.5281 223.978 66.6555 224.827 73.0453C226.549 85.9976 226.462 98.9687 225.067 105.502L236.803 108.007ZM224.31 36.5334C221.881 34.0806 218.178 31.6447 213.979 29.4169C209.674 27.1334 204.465 24.8686 198.729 22.871C187.304 18.8925 173.38 15.8328 159.925 16.0005L160.075 27.9995C171.761 27.8539 184.266 30.5414 194.782 34.2035C200.016 36.0262 204.656 38.0551 208.355 40.0176C212.16 42.0359 214.616 43.7985 215.781 44.9757L224.31 36.5334Z" fill="black"/>

    <title>glasses-3</title>
    <g id="All-customizable-items" stroke="none" stroke-width="1" fill="none" fill-rule="evenodd" stroke-linecap="round" stroke-linejoin="round">
        <g id="Glasses/-3" transform="translate(-289.000000, -483.000000)" stroke="#000000" stroke-width="8">
            <g id="glasses-3" transform="translate(293.000000, 488.000000)">
                <path d="M197.493245,10.4280671 C174.636102,27.3582996 188.604356,103.544346 244.477372,103.544346 C300.350388,103.544346 337.149222,42.6997481 325.747213,20.1024857 C314.345204,-2.49477675 220.350388,-6.50216547 197.493245,10.4280671 Z" id="Path"></path>
                <path d="M376.540864,10.4280671 C353.683721,27.3582996 367.651975,103.544346 423.524991,103.544346 C479.398007,103.544346 516.196841,42.6997481 504.794832,20.1024857 C493.392823,-2.49477675 399.398007,-6.50216547 376.540864,10.4280671 Z" id="Path" transform="translate(436.458153, 51.772173) scale(-1, 1) translate(-436.458153, -51.772173) "></path>
                <line x1="301.285714" y1="5.44186047" x2="392.714286" y2="5.44186047" id="Path"></line>
                <line x1="326.68254" y1="21.1627907" x2="367.31746" y2="21.1627907" id="Path"></line>
                <line x1="186.554557" y1="30.8015819" x2="1.25992802" y2="69.9860126" id="Path" transform="translate(94.259928, 50.646655) rotate(1.361411) translate(-94.259928, -50.646655) "></line>
            </g>
        </g>
    </g>

</svg>