<svg width="564px" height="504px" viewBox="0 0 564 504" version="1.1" xmlns="http://www.w3.org/2000/svg" xmlns:xlink="http://www.w3.org/1999/xlink">

<mask id="path-1-inside-1_0_1058" fill="white">
<path fill-rule="evenodd" clip-rule="evenodd" d="M90.9463 195.941C115.92 97.1191 205.436 24 312 24C437.921 24 540 126.079 540 252C540 264.704 545.103 277.455 549.138 287.538L549.144 287.552C549.693 288.923 550.221 290.244 550.715 291.51C555.415 303.56 557.649 311.842 555.823 319.022C553.948 326.393 552.332 335.585 550.654 345.524C550.382 347.136 550.107 348.775 549.828 350.438L549.817 350.506C548.35 359.253 546.768 368.691 544.843 378.652C540.25 402.416 533.836 428.431 523.068 452.55C512.317 476.63 497.433 498.355 476.147 514.076C455.001 529.694 426.718 540 388 540C311.219 540 255.292 515.301 212.009 479.12C168.399 442.666 137.158 394.169 110.718 345.827C108.401 341.592 103.773 339.157 98.9711 339.647C96.6854 339.88 94.3594 340 92 340C54.4446 340 24 309.555 24 272C24 238.126 48.7801 210.017 81.2005 204.851C85.9382 204.096 89.7709 200.592 90.9463 195.941ZM312 0C196.833 0 99.736 77.2452 69.647 182.737C29.6368 192.728 0 228.893 0 272C0 322.81 41.1898 364 92 364C92.443 364 92.8854 363.997 93.3271 363.991C119.507 411.06 151.609 459.912 196.617 497.534C244.075 537.205 305.41 564 388 564C431.282 564 464.697 552.37 490.406 533.381C515.976 514.495 533.104 488.941 544.983 462.334C556.845 435.765 563.677 407.683 568.407 383.205C570.393 372.927 572.031 363.156 573.498 354.409C573.777 352.741 574.051 351.109 574.319 349.519C576.023 339.423 577.49 331.2 579.083 324.937C583.038 309.382 577.546 294.254 573.074 282.789C572.513 281.35 571.965 279.959 571.433 278.61C567.181 267.823 564 259.753 564 252C564 112.824 451.176 0 312 0ZM87.45 254.439C85.7347 248.038 79.1547 244.239 72.7531 245.954C66.3515 247.669 62.5525 254.249 64.2678 260.651L72.55 291.561C74.2653 297.962 80.8453 301.761 87.2469 300.046C93.6485 298.331 97.4475 291.751 95.7322 285.349L87.45 254.439Z"/>
</mask>
<path d="M90.9463 195.941L67.6778 190.06L90.9463 195.941ZM549.138 287.538L526.856 296.455C526.862 296.47 526.868 296.484 526.874 296.499L549.138 287.538ZM549.144 287.552L571.426 278.635C571.42 278.62 571.414 278.605 571.408 278.59L549.144 287.552ZM550.715 291.51L528.355 300.23L550.715 291.51ZM555.823 319.022L579.083 324.937V324.937L555.823 319.022ZM550.654 345.524L526.989 341.53L526.989 341.53L550.654 345.524ZM549.828 350.438L526.159 346.467C526.157 346.477 526.156 346.488 526.154 346.498L549.828 350.438ZM549.817 350.506L573.486 354.475C573.488 354.466 573.49 354.456 573.491 354.447L549.817 350.506ZM544.843 378.652L568.407 383.205V383.205L544.843 378.652ZM523.068 452.55L501.153 442.766L523.068 452.55ZM476.147 514.076L461.889 494.771L476.147 514.076ZM212.009 479.12L196.617 497.534L212.009 479.12ZM110.718 345.827L89.6613 357.343L89.6614 357.343L110.718 345.827ZM98.9711 339.647L101.408 363.523H101.408L98.9711 339.647ZM81.2005 204.851L84.9773 228.552L81.2005 204.851ZM69.647 182.737L75.4615 206.022C83.7891 203.943 90.3723 197.574 92.7266 189.32L69.647 182.737ZM93.3271 363.991L114.301 352.325C110.007 344.605 101.82 339.868 92.9873 339.993L93.3271 363.991ZM196.617 497.534L181.224 515.948H181.224L196.617 497.534ZM490.406 533.381L504.665 552.686L490.406 533.381ZM544.983 462.334L566.898 472.118L544.983 462.334ZM568.407 383.205L591.971 387.759V387.759L568.407 383.205ZM573.498 354.409L597.167 358.378L597.167 358.377L573.498 354.409ZM574.319 349.519L597.984 353.514L597.984 353.513L574.319 349.519ZM579.083 324.937L602.342 330.852L579.083 324.937ZM573.074 282.789L550.715 291.509L550.715 291.51L573.074 282.789ZM571.433 278.61L593.761 269.809L593.761 269.809L571.433 278.61ZM72.7531 245.954L78.9647 269.136H78.9647L72.7531 245.954ZM87.45 254.439L110.632 248.228V248.228L87.45 254.439ZM64.2678 260.651L41.0856 266.863L64.2678 260.651ZM72.55 291.561L49.3678 297.772H49.3678L72.55 291.561ZM87.2469 300.046L93.4586 323.228H93.4586L87.2469 300.046ZM95.7322 285.349L118.914 279.137L118.914 279.137L95.7322 285.349ZM312 0C194.187 0 95.2798 80.8367 67.6778 190.06L114.215 201.821C136.559 113.402 216.684 48 312 48V0ZM564 252C564 112.824 451.176 0 312 0V48C424.666 48 516 139.334 516 252H564ZM571.42 278.62C567.062 267.73 564 259.297 564 252H516C516 270.111 523.144 287.18 526.856 296.455L571.42 278.62ZM571.408 278.59L571.402 278.576L526.874 296.499L526.88 296.514L571.408 278.59ZM573.074 282.789C572.536 281.408 571.966 279.985 571.426 278.635L526.862 296.469C527.419 297.861 527.907 299.081 528.355 300.23L573.074 282.789ZM579.083 324.937C583.05 309.336 577.502 294.14 573.074 282.789L528.355 300.23C530.592 305.965 531.711 309.505 532.206 311.915C532.655 314.107 532.31 314.102 532.564 313.107L579.083 324.937ZM574.319 349.519C576.023 339.427 577.49 331.201 579.083 324.937L532.564 313.107C530.407 321.586 528.641 331.742 526.989 341.53L574.319 349.519ZM573.497 354.409C573.777 352.741 574.05 351.116 574.319 349.518L526.989 341.53C526.714 343.157 526.437 344.809 526.159 346.467L573.497 354.409ZM573.491 354.447L573.503 354.379L526.154 346.498L526.143 346.566L573.491 354.447ZM568.407 383.205C570.396 372.911 572.025 363.192 573.486 354.475L526.147 346.537C524.676 355.315 523.139 364.471 521.279 374.098L568.407 383.205ZM544.983 462.334C556.845 435.764 563.677 407.682 568.407 383.205L521.279 374.098C516.824 397.15 510.827 421.097 501.153 442.766L544.983 462.334ZM490.406 533.381C515.975 514.496 533.104 488.942 544.983 462.334L501.153 442.766C491.53 464.319 478.89 482.214 461.889 494.771L490.406 533.381ZM388 564C431.284 564 464.698 552.369 490.406 533.381L461.889 494.771C445.305 507.02 422.152 516 388 516V564ZM196.617 497.534C244.075 537.205 305.41 564 388 564V516C317.027 516 266.508 493.396 227.402 460.706L196.617 497.534ZM89.6614 357.343C116.506 406.425 149.485 458.136 196.617 497.534L227.402 460.706C187.313 427.196 157.81 381.914 131.774 334.31L89.6614 357.343ZM101.408 363.523C96.6059 364.013 91.9776 361.578 89.6613 357.343L131.774 334.31C124.825 321.605 110.94 314.301 96.5342 315.771L101.408 363.523ZM92 364C95.1716 364 98.3109 363.839 101.408 363.523L96.5343 315.771C95.0599 315.922 93.5472 316 92 316V364ZM0 272C0 322.81 41.1898 364 92 364V316C67.6995 316 48 296.301 48 272H0ZM77.4237 181.15C33.53 188.145 0 226.151 0 272H48C48 250.101 64.0302 231.89 84.9773 228.552L77.4237 181.15ZM67.6778 190.06C68.8533 185.409 72.686 181.905 77.4237 181.15L84.9773 228.552C99.1903 226.287 110.689 215.775 114.215 201.821L67.6778 190.06ZM92.7266 189.32C119.954 93.8607 207.837 24 312 24V-24C185.829 -24 79.518 60.6297 46.5675 176.154L92.7266 189.32ZM24 272C24 240.172 45.8801 213.409 75.4615 206.022L63.8326 159.452C13.3934 172.047 -24 217.614 -24 272H24ZM92 340C54.4446 340 24 309.555 24 272H-24C-24 336.065 27.935 388 92 388V340ZM92.9873 339.993C92.6586 339.998 92.3295 340 92 340V388C92.5565 388 93.1122 387.996 93.667 387.988L92.9873 339.993ZM212.009 479.12C170.385 444.326 139.998 398.526 114.301 352.325L72.3531 375.656C99.016 423.594 132.833 475.497 181.224 515.948L212.009 479.12ZM388 540C311.219 540 255.292 515.301 212.009 479.12L181.224 515.948C232.858 559.109 299.6 588 388 588V540ZM476.147 514.076C455.003 529.694 426.72 540 388 540V588C435.845 588 474.391 575.047 504.665 552.686L476.147 514.076ZM523.068 452.55C512.316 476.632 497.432 498.355 476.147 514.076L504.665 552.686C534.52 530.635 553.892 501.25 566.898 472.118L523.068 452.55ZM544.843 378.652C540.251 402.415 533.836 428.43 523.068 452.55L566.898 472.118C579.853 443.099 587.102 412.952 591.971 387.759L544.843 378.652ZM549.828 350.441C548.357 359.216 546.765 368.707 544.843 378.652L591.971 387.759C594.022 377.147 595.706 367.095 597.167 358.378L549.828 350.441ZM550.654 345.524C550.383 347.13 550.107 348.775 549.828 350.442L597.167 358.377C597.447 356.706 597.719 355.088 597.984 353.514L550.654 345.524ZM555.823 319.022C553.948 326.395 552.331 335.589 550.654 345.524L597.984 353.513C599.716 343.256 601.032 336.004 602.342 330.852L555.823 319.022ZM550.715 291.51C555.387 303.489 557.657 311.812 555.823 319.022L602.342 330.852C608.42 306.952 599.706 285.02 595.434 274.068L550.715 291.51ZM549.105 287.411C549.639 288.766 550.172 290.118 550.715 291.509L595.434 274.068C594.855 272.583 594.291 271.152 593.761 269.809L549.105 287.411ZM540 252C540 265.295 545.426 278.077 549.105 287.411L593.761 269.809C588.936 257.569 588 254.211 588 252H540ZM312 24C437.921 24 540 126.079 540 252H588C588 99.5694 464.431 -24 312 -24V24ZM78.9647 269.136C72.5631 270.852 65.9831 267.053 64.2678 260.651L110.632 248.228C105.486 229.023 85.7462 217.626 66.5414 222.772L78.9647 269.136ZM87.45 254.439C89.1653 260.841 85.3663 267.421 78.9647 269.136L66.5414 222.772C47.3366 227.918 35.9397 247.658 41.0856 266.863L87.45 254.439ZM95.7322 285.349L87.45 254.439L41.0856 266.863L49.3678 297.772L95.7322 285.349ZM81.0353 276.864C87.4369 275.148 94.0169 278.947 95.7322 285.349L49.3678 297.772C54.5137 316.977 74.2537 328.374 93.4586 323.228L81.0353 276.864ZM72.55 291.561C70.8347 285.159 74.6337 278.579 81.0353 276.864L93.4586 323.228C112.663 318.082 124.06 298.342 118.914 279.137L72.55 291.561ZM64.2678 260.651L72.55 291.561L118.914 279.137L110.632 248.228L64.2678 260.651Z" fill="black" mask="url(#path-1-inside-1_0_1058)"/>

    <title>eyes-2</title>
    <g id="All-customizable-items" stroke="none" stroke-width="1" fill="none" fill-rule="evenodd">
        <g id="Eyes/-2" transform="translate(-538.000000, -516.000000)" fill="#000000">
            <path d="M570,516 C587.673112,516 602,530.326888 602,548 C602,565.673112 587.673112,580 570,580 C552.326888,580 538,565.673112 538,548 C538,530.326888 552.326888,516 570,516 Z M708,516 C725.673112,516 740,530.326888 740,548 C740,565.673112 725.673112,580 708,580 C690.326888,580 676,565.673112 676,548 C676,530.326888 690.326888,516 708,516 Z" id="eyes-2"></path>
        </g>
    </g>

    <title>eyebrows-9</title>
    <g id="All-customizable-items" stroke="none" stroke-width="1" fill="none" fill-rule="evenodd" stroke-linecap="round" stroke-linejoin="round">
        <g id="Eyebrows/-9" transform="translate(-490.000000, -450.000000)" stroke="#000000" stroke-width="24">
            <g id="eyebrows-9" transform="translate(502.000000, 462.000000)">
                <path d="M0,0 C0,0 23.2233275,2.61265093 76,22 C79.9624314,23.4555871 87.2957648,28.1222537 98,36" id="Path"></path>
                <path d="M176,0 C176,0 199.223328,2.61265093 252,22 C255.962431,23.4555871 263.295765,28.1222537 274,36" id="Path" transform="translate(225.000000, 18.000000) scale(-1, 1) translate(-225.000000, -18.000000) "></path>
            </g>
        </g>
    </g>

<path fill-rule="evenodd" clip-rule="evenodd" d="M42.8699 52.5553C23.1475 40.2091 8.39551 19.0189 8.39551 19.0189C8.39551 19.0189 55.9996 8.63705 95.9996 8.31852C136 7.99999 183.604 19.0189 183.604 19.0189C183.604 19.0189 168.852 40.2091 149.129 52.5553C140.101 58.2072 112 61 96.443 60.9998C80.8863 60.9996 51.8065 58.1496 42.8699 52.5553Z" stroke="black" stroke-width="16" stroke-linecap="round" stroke-linejoin="round"/>
<path d="M56.3223 52C56.3223 52 76.161 44 95.9997 44C115.838 44 135.677 52 135.677 52" stroke="black" stroke-width="8" stroke-linecap="round" stroke-linejoin="round"/>

<path fill-rule="evenodd" clip-rule="evenodd" d="M3 3C3 3 24.8917 56.5222 32 66C35 70 52.9064 84.2557 51.7742 96.5802C49.0645 126.076 3 127.359 3 127.359C3 127.359 59 132.489 59 96.5802C59 80.2216 46 75 33 63C25.9588 56.5004 3 3 3 3Z" fill="black" stroke="black" stroke-width="6" stroke-linecap="round" stroke-linejoin="round"/>

    <title>hair-1</title>
    <g id="All-customizable-items" stroke="none" stroke-width="1" fill="none" fill-rule="evenodd" stroke-linecap="round" stroke-linejoin="round">
        <g id="Hairstyle/-1" transform="translate(-266.000000, -255.000000)" fill="#000000" stroke="#000000" stroke-width="12">
            <path d="M287.145773,564.824988 L328.116663,564.824988 L366,655 C383.576343,574.554316 392.364515,528.467337 392.364515,516.739062 C392.364515,505.010788 388.008266,481.271891 379.295767,445.522372 C393.491567,432.443591 404.392978,426.6028 412,428 C428.104379,430.95793 511.120052,457.788685 550.69367,460.998791 C604.369062,465.352796 671.588059,451.214009 697.999909,444.579207 C752.614423,430.859736 776.998449,384.728522 771.151988,306.185566 C744.360446,317.004973 718.309783,320.518315 693,316.725594 C655.035325,311.036511 598.649235,281.115006 554.702003,272.17357 C493.291099,259.679002 449.510289,258.16557 427.437429,265.136605 C385.349932,278.42865 355.621462,323.201887 338.252019,399.456316 C304.849244,410.402706 284.139523,426.431348 276.122857,447.542242 C268.106191,468.653136 271.780496,507.747385 287.145773,564.824988 Z" id="hair-1"></path>
        </g>
    </g>

<path fill-rule="evenodd" clip-rule="evenodd" d="M425.472 4.15757C460.209 -0.810331 502.963 3.53659 509.198 9.74647C515.433 15.9564 515.214 53.3527 496.712 73.8453C485.077 86.7315 421.381 87.5384 394.986 79.9181C386.397 77.4383 379.052 66.3962 372.199 56.0935C365.566 46.1216 359.394 36.8425 353 36.6902C346.575 36.537 340.416 45.8902 333.768 55.9856C326.965 66.3167 319.65 77.425 311.014 79.9181C284.62 87.5384 222.918 88.7248 211.289 75.8453C192.787 55.3527 190.568 15.9564 196.803 9.74647C203.038 3.53659 245.791 -0.810331 280.528 4.15757C315.266 9.12548 330.492 12.9339 337.533 15.0292C341.93 16.3376 352.435 16.8922 352.435 16.8922L353 16.9045L353.566 16.9123C359.104 16.9653 364.071 16.3376 368.468 15.0292C375.509 12.9339 390.735 9.12548 425.472 4.15757ZM211.054 15.7102C191.459 25.4039 207.273 59.0467 215.977 68.7404C224.682 78.4341 301.217 76.1532 311.905 71.0212C322.594 65.8893 337.642 40.6508 329.626 26.3954C321.61 12.14 239.556 5.44632 211.054 15.7102ZM490.023 68.7404C498.728 59.0467 514.542 25.4039 494.947 15.7102C466.444 5.44632 384.391 12.14 376.375 26.3954C368.358 40.6508 383.407 65.8893 394.095 71.0212C404.784 76.1532 481.319 78.4341 490.023 68.7404Z" fill="black"/>
<path d="M425.472 4.15757L425.755 6.13743L425.472 4.15757ZM496.712 73.8453L498.196 75.1856L496.712 73.8453ZM394.986 79.9181L394.431 81.8397L394.986 79.9181ZM372.199 56.0935L370.534 57.2011L372.199 56.0935ZM353 36.6902L353.048 34.6907L353 36.6902ZM333.768 55.9856L332.098 54.8857L333.768 55.9856ZM311.014 79.9181L311.569 81.8397L311.014 79.9181ZM211.289 75.8453L212.773 74.505L211.289 75.8453ZM196.803 9.74647L195.392 8.32942L196.803 9.74647ZM280.528 4.15757L280.245 6.13743L280.528 4.15757ZM337.533 15.0292L338.103 13.1123V13.1123L337.533 15.0292ZM352.435 16.8922L352.33 18.8894C352.35 18.8905 352.371 18.8912 352.391 18.8917L352.435 16.8922ZM353 16.9045L352.957 18.904C352.962 18.9041 352.967 18.9042 352.973 18.9043L353 16.9045ZM353.566 16.9123L353.539 18.9121L353.547 18.9122L353.566 16.9123ZM368.468 15.0292L369.038 16.9461L368.468 15.0292ZM215.977 68.7404L214.489 70.0766H214.489L215.977 68.7404ZM211.054 15.7102L210.376 13.8285C210.305 13.8542 210.235 13.8839 210.167 13.9176L211.054 15.7102ZM329.626 26.3954L327.883 27.3757V27.3757L329.626 26.3954ZM494.947 15.7102L495.833 13.9176C495.765 13.8839 495.696 13.8542 495.624 13.8285L494.947 15.7102ZM490.023 68.7404L491.511 70.0766L490.023 68.7404ZM376.375 26.3954L374.631 25.4151L376.375 26.3954ZM510.609 8.32942C509.526 7.25111 507.856 6.38318 505.951 5.65235C503.994 4.90149 501.574 4.21643 498.803 3.6022C493.257 2.37274 486.145 1.39217 478.18 0.766494C462.252 -0.484751 442.729 -0.330772 425.189 2.17772L425.755 6.13743C442.952 3.67802 462.175 3.5215 477.867 4.75421C485.712 5.37051 492.628 6.33053 497.937 7.5074C500.594 8.09633 502.808 8.73088 504.518 9.38694C506.281 10.063 507.31 10.6894 507.786 11.1635L510.609 8.32942ZM498.196 75.1856C507.821 64.5257 512.599 49.6056 514.216 36.6883C515.027 30.2093 515.054 24.1463 514.465 19.2603C514.17 16.8188 513.716 14.6287 513.107 12.8083C512.51 11.026 511.708 9.42364 510.609 8.32942L507.786 11.1635C508.246 11.6218 508.801 12.5465 509.314 14.0779C509.813 15.5713 510.221 17.4817 510.493 19.7396C511.038 24.2523 511.024 29.9835 510.247 36.1914C508.687 48.6479 504.105 62.6723 495.227 72.505L498.196 75.1856ZM394.431 81.8397C407.926 85.7355 430.693 87.4339 451.467 86.5699C461.876 86.137 471.879 85.0575 480.051 83.2552C484.137 82.3542 487.81 81.2628 490.868 79.9581C493.9 78.6641 496.466 77.1019 498.196 75.1856L495.227 72.505C494.049 73.8102 492.079 75.0921 489.298 76.279C486.542 77.4552 483.124 78.4814 479.19 79.3491C471.322 81.0842 461.569 82.1463 451.301 82.5734C430.719 83.4294 408.441 81.721 395.541 77.9966L394.431 81.8397ZM370.534 57.2011C373.944 62.3274 377.564 67.7755 381.428 72.2471C385.266 76.6881 389.566 80.4349 394.431 81.8397L395.541 77.9966C391.817 76.9215 388.15 73.9073 384.455 69.6316C380.786 65.3866 377.307 60.1622 373.864 54.9858L370.534 57.2011ZM352.953 38.6896C355.234 38.744 357.872 40.4853 361.012 44.0346C364.073 47.4952 367.193 52.1791 370.534 57.2011L373.864 54.9858C370.572 50.036 367.29 45.0944 364.008 41.3844C360.805 37.7632 357.16 34.7887 353.048 34.6907L352.953 38.6896ZM335.438 57.0856C338.788 51.9995 341.906 47.2725 344.964 43.8213C348.107 40.276 350.712 38.6362 352.953 38.6896L353.048 34.6907C348.863 34.591 345.177 37.5512 341.971 41.1681C338.682 44.8791 335.396 49.8764 332.098 54.8857L335.438 57.0856ZM311.569 81.8397C316.461 80.4274 320.765 76.6579 324.596 72.1936C328.453 67.6988 332.053 62.2259 335.438 57.0856L332.098 54.8857C328.679 60.0765 325.221 65.3232 321.561 69.5887C317.874 73.8846 314.204 76.9157 310.46 77.9966L311.569 81.8397ZM209.804 77.1856C211.537 79.1043 214.075 80.6358 217.062 81.8775C220.072 83.1284 223.674 84.1408 227.669 84.9473C235.661 86.5604 245.419 87.3872 255.579 87.5688C275.866 87.9316 298.109 85.7257 311.569 81.8397L310.46 77.9966C297.525 81.7309 275.72 83.9283 255.65 83.5695C245.631 83.3903 236.134 82.5751 228.461 81.0264C224.624 80.252 221.291 79.3035 218.598 78.1839C215.882 77.055 213.948 75.8062 212.773 74.505L209.804 77.1856ZM195.392 8.32942C194.26 9.45624 193.493 11.1318 192.957 12.9683C192.407 14.8514 192.037 17.1243 191.84 19.6575C191.446 24.7284 191.73 31.0349 192.794 37.7527C194.914 51.1423 200.194 66.5409 209.804 77.1856L212.773 74.505C203.882 64.657 198.801 50.1112 196.745 37.1271C195.721 30.6579 195.463 24.6702 195.828 19.9674C196.011 17.6137 196.346 15.6298 196.796 14.0898C197.26 12.5032 197.787 11.5892 198.214 11.1635L195.392 8.32942ZM280.812 2.17772C263.271 -0.330772 243.749 -0.484751 227.821 0.766494C219.856 1.39217 212.744 2.37274 207.198 3.6022C204.427 4.21643 202.007 4.90149 200.049 5.65235C198.145 6.38318 196.474 7.25111 195.392 8.32942L198.214 11.1635C198.69 10.6894 199.72 10.063 201.482 9.38694C203.192 8.73088 205.407 8.09633 208.063 7.5074C213.372 6.33053 220.289 5.37051 228.134 4.75421C243.826 3.5215 263.048 3.67802 280.245 6.13743L280.812 2.17772ZM338.103 13.1123C330.933 10.9786 315.602 7.1532 280.812 2.17772L280.245 6.13743C314.929 11.0978 330.05 14.8891 336.963 16.9461L338.103 13.1123ZM352.435 16.8922C352.54 14.8949 352.541 14.8949 352.541 14.8949C352.541 14.8949 352.54 14.8949 352.54 14.8949C352.54 14.8949 352.54 14.8949 352.539 14.8949C352.538 14.8948 352.537 14.8947 352.534 14.8946C352.53 14.8944 352.523 14.894 352.513 14.8935C352.495 14.8925 352.466 14.8909 352.428 14.8888C352.352 14.8845 352.24 14.8781 352.095 14.8694C351.804 14.8519 351.382 14.8255 350.862 14.7898C349.821 14.7182 348.388 14.6093 346.822 14.4603C343.624 14.156 340.087 13.7027 338.103 13.1123L336.963 16.9461C339.375 17.6641 343.29 18.1422 346.443 18.4423C348.053 18.5955 349.522 18.7071 350.588 18.7804C351.121 18.817 351.554 18.8442 351.855 18.8622C352.006 18.8712 352.123 18.878 352.204 18.8825C352.244 18.8847 352.275 18.8864 352.296 18.8876C352.307 18.8881 352.315 18.8886 352.32 18.8889C352.323 18.889 352.325 18.8892 352.327 18.8892C352.328 18.8893 352.328 18.8893 352.329 18.8893C352.329 18.8893 352.329 18.8894 352.329 18.8894C352.329 18.8894 352.33 18.8894 352.435 16.8922ZM353.044 14.905L352.479 14.8926L352.391 18.8917L352.957 18.904L353.044 14.905ZM353.594 14.9125L353.028 14.9047L352.973 18.9043L353.539 18.9121L353.594 14.9125ZM367.897 13.1123C363.726 14.3534 358.963 14.9638 353.586 14.9124L353.547 18.9122C359.244 18.9667 364.415 18.3218 369.038 16.9461L367.897 13.1123ZM425.189 2.17772C390.399 7.1532 375.067 10.9786 367.897 13.1123L369.038 16.9461C375.95 14.8891 391.071 11.0978 425.755 6.13743L425.189 2.17772ZM217.465 67.4041C213.351 62.8218 207.368 52.2929 204.848 41.7599C203.592 36.5077 203.242 31.4389 204.276 27.1958C205.289 23.0347 207.63 19.6352 211.941 17.5029L210.167 13.9176C204.68 16.6321 201.65 21.0731 200.389 26.2493C199.149 31.3434 199.623 37.1088 200.958 42.6907C203.622 53.8259 209.899 64.9653 214.489 70.0766L217.465 67.4041ZM311.039 69.2183C309.98 69.7269 307.863 70.289 304.735 70.8228C301.673 71.3453 297.83 71.8117 293.454 72.2009C284.706 72.9791 273.925 73.4404 263.197 73.4404C252.462 73.4404 241.836 72.9784 233.383 71.9234C229.152 71.3953 225.522 70.7254 222.718 69.9113C219.81 69.0674 218.149 68.1655 217.465 67.4041L214.489 70.0766C215.982 71.7386 218.616 72.886 221.602 73.7527C224.691 74.6493 228.552 75.3515 232.888 75.8926C241.567 76.9759 252.375 77.4404 263.197 77.4404C274.027 77.4404 284.928 76.9752 293.809 76.1852C298.247 75.7904 302.205 75.3124 305.408 74.7658C308.545 74.2304 311.158 73.5985 312.771 72.8242L311.039 69.2183ZM327.883 27.3757C331.399 33.6294 329.989 42.7095 325.969 51.2803C323.993 55.4927 321.454 59.4258 318.781 62.5996C316.084 65.8013 313.354 68.1069 311.039 69.2183L312.771 72.8242C315.8 71.3696 318.96 68.596 321.84 65.1766C324.744 61.7293 327.47 57.4996 329.591 52.9789C333.763 44.0837 335.869 33.4168 331.369 25.4151L327.883 27.3757ZM211.732 17.5919C218.576 15.1273 228.812 13.6326 240.578 13.0425C252.302 12.4545 265.39 12.7713 277.85 13.8506C290.318 14.9307 302.094 16.7689 311.21 19.2009C315.772 20.4181 319.606 21.7677 322.507 23.2127C325.475 24.6909 327.183 26.131 327.883 27.3757L331.369 25.4151C330.065 23.096 327.455 21.2085 324.29 19.6322C321.059 18.0227 316.944 16.5907 312.241 15.3361C302.827 12.8245 290.804 10.9578 278.195 9.86554C265.577 8.7725 252.306 8.44935 240.378 9.04754C228.492 9.64363 217.784 11.1612 210.376 13.8285L211.732 17.5919ZM494.06 17.5029C498.37 19.6352 500.712 23.0347 501.725 27.1958C502.758 31.4389 502.409 36.5077 501.152 41.7599C498.632 52.2929 492.65 62.8218 488.535 67.4041L491.511 70.0766C496.101 64.9653 502.378 53.8259 505.043 42.6907C506.378 37.1088 506.852 31.3434 505.611 26.2493C504.351 21.0731 501.321 16.6321 495.833 13.9176L494.06 17.5029ZM378.118 27.3757C378.818 26.131 380.526 24.6909 383.494 23.2127C386.395 21.7677 390.228 20.4181 394.791 19.2009C403.907 16.7689 415.682 14.9307 428.151 13.8506C440.611 12.7713 453.698 12.4545 465.422 13.0425C477.189 13.6326 487.425 15.1273 494.269 17.5919L495.624 13.8285C488.217 11.1612 477.508 9.64363 465.623 9.04754C453.695 8.44935 440.424 8.7725 427.806 9.86554C415.196 10.9578 403.174 12.8245 393.76 15.3361C389.057 16.5907 384.942 18.0227 381.71 19.6322C378.545 21.2085 375.935 23.096 374.631 25.4151L378.118 27.3757ZM394.961 69.2183C392.646 68.1069 389.917 65.8013 387.22 62.5996C384.546 59.4258 382.007 55.4927 380.031 51.2803C376.011 42.7095 374.601 33.6294 378.118 27.3757L374.631 25.4151C370.132 33.4168 372.238 44.0837 376.41 52.9789C378.53 57.4996 381.257 61.7293 384.16 65.1766C387.041 68.596 390.2 71.3696 393.23 72.8242L394.961 69.2183ZM488.535 67.4041C487.852 68.1655 486.19 69.0674 483.283 69.9113C480.479 70.7254 476.849 71.3953 472.618 71.9234C464.165 72.9784 453.538 73.4404 442.803 73.4404C432.075 73.4404 421.294 72.9791 412.546 72.2009C408.171 71.8117 404.327 71.3453 401.265 70.8228C398.137 70.289 396.02 69.7269 394.961 69.2183L393.23 72.8242C394.843 73.5985 397.455 74.2304 400.593 74.7658C403.796 75.3124 407.753 75.7904 412.192 76.1852C421.073 76.9752 431.973 77.4404 442.803 77.4404C453.626 77.4404 464.433 76.9759 473.113 75.8926C477.448 75.3515 481.309 74.6493 484.398 73.7527C487.384 72.886 490.019 71.7386 491.511 70.0766L488.535 67.4041Z" fill="black"/>
<path fill-rule="evenodd" clip-rule="evenodd" d="M201 22L6 54L2 63L201 43V22Z" fill="black" stroke="black" stroke-width="4" stroke-linecap="round" stroke-linejoin="round"/>

</svg>