<svg width="564px" height="504px" viewBox="0 0 564 504" version="1.1" xmlns="http://www.w3.org/2000/svg" xmlns:xlink="http://www.w3.org/1999/xlink">

    <title>face-7</title>
    <g id="All-customizable-items" stroke="none" stroke-width="1" fill="none" fill-rule="evenodd" stroke-linecap="round" stroke-linejoin="round">
        <g id="Face/-7" transform="translate(-220.000000, -367.000000)" stroke="#000000" stroke-width="24">
            <path d="M532,379 C664.54834,379 772,486.45166 772,619 C772,751.54834 764.54834,919 572,919 C415.13263,919 351.668898,801.612202 313.752775,718.980575 L313.322946,718.989282 L312,719 C267.81722,719 232,683.18278 232,639 C232,599.134956 261.158843,566.080325 299.312086,560.00055 C325.599297,455.979213 419.809919,379 532,379 Z M295.858895,624.545187 L304.141105,655.454813" id="face-7"></path>
        </g>
    </g>

    <title>eyes-2</title>
    <g id="All-customizable-items" stroke="none" stroke-width="1" fill="none" fill-rule="evenodd">
        <g id="Eyes/-2" transform="translate(-538.000000, -516.000000)" fill="#000000">
            <path d="M570,516 C587.673112,516 602,530.326888 602,548 C602,565.673112 587.673112,580 570,580 C552.326888,580 538,565.673112 538,548 C538,530.326888 552.326888,516 570,516 Z M708,516 C725.673112,516 740,530.326888 740,548 C740,565.673112 725.673112,580 708,580 C690.326888,580 676,565.673112 676,548 C676,530.326888 690.326888,516 708,516 Z" id="eyes-2"></path>
        </g>
    </g>

    <title>eyebrows-2</title>
    <g id="All-customizable-items" stroke="none" stroke-width="1" fill="none" fill-rule="evenodd" stroke-linecap="round" stroke-linejoin="round">
        <g id="Eyebrows/-2" transform="translate(-506.000000, -476.000000)" fill="#000000" stroke="#000000" stroke-width="16">
            <path d="M570,485.718496 C590.574398,488.795594 605.574398,494.964927 615,504.226493 C600,498.618009 585,495.813767 570,495.813767 C555,495.813767 536.666667,498.618009 515,504.226493 L525,490.766132 C534.425602,484.323943 549.425602,482.641398 570,485.718496 Z M708,485.718496 C728.574398,482.641398 743.574398,484.323943 753,490.766132 L753,490.766132 L763,504.226493 C741.333333,498.618009 723,495.813767 708,495.813767 C693,495.813767 678,498.618009 663,504.226493 C672.425602,494.964927 687.425602,488.795594 708,485.718496 Z" id="eyebrows-2"></path>
        </g>
    </g>

    <title>mouth-8</title>
    <g id="All-customizable-items" stroke="none" stroke-width="1" fill="none" fill-rule="evenodd" stroke-linecap="round" stroke-linejoin="round">
        <g id="Mouth/-8" transform="translate(-510.000000, -720.000000)" stroke="#000000" stroke-width="16">
            <g id="mouth-8" transform="translate(518.000000, 729.000000)">
                <path d="M-3.69482223e-13,40.2906038 C11.1513858,37.2521964 19.1513858,34.588032 24,32.2981106 C28.8486142,30.0081891 35.9892516,25.8365332 45.4219123,19.7831427 C62.4309568,8.98264352 73.6236526,2.98203532 79,1.78131814 C84.3763474,0.580600965 91.3763474,2.51817509 100,7.59404051 C112,-1.12504304 123,-2.33602686 133,3.96108903 C143,10.2582049 145.333333,20.4304691 140,34.4778814 C145.333333,41.2593909 144.666667,48.0409003 138,54.8224097 C128,64.9946738 107,72.2605768 79,69.3542156 C66.6893996,68.0763924 52.3996983,62.8419921 34,54.8224097 C27.6667209,52.0620246 16.3333876,47.2180893 -3.69482223e-13,40.2906038 Z" id="Path"></path>
                <path d="M12,43 C54.2826578,36.3890991 82.9493244,32.7224324 98,32 C113.050676,31.2775676 126.050676,32.9442342 137,37" id="Path"></path>
            </g>
        </g>
    </g>

    <title>nose-9</title>
    <g id="All-customizable-items" stroke="none" stroke-width="1" fill="none" fill-rule="evenodd" stroke-linecap="round" stroke-linejoin="round">
        <g id="Nose/-9" transform="translate(-623.000000, -571.000000)" stroke="#000000" stroke-width="16">
            <path d="M631,694.380659 C663.848549,704.811956 684.630284,697.576454 693.345205,672.674154 C706.417587,635.320703 637.033407,606.392531 660.161467,579" id="nose-9"></path>
        </g>
    </g>

<path fill-rule="evenodd" clip-rule="evenodd" d="M313.545 7.01249C313.545 7.01249 251.5 38.6394 242.545 45.0125C279.545 20.0125 365.545 33.0125 365.545 33.0125C365.545 33.0125 287.932 51.6298 279.205 59.5121C279.205 59.5121 291.545 45.0125 329.545 45.0125C367.545 45.0125 412.545 64.0125 412.545 64.0125C412.545 64.0125 302.892 88.6133 287.762 108.11C286.123 110.221 320 89.0004 366 89.0004C412 89.0004 464 64.0004 464 64.0004C464 64.0004 435.829 100.943 421 108C386.422 124.455 377.358 116.795 366 127C374.504 121.686 413.545 119.012 430 121C446.455 122.988 471 114 471 114C471 114 454.315 141.83 436 145C478.964 163.258 482 167 497 191C512 215 520.805 292 520.805 292C520.805 292 504.365 274.07 496.687 266.187C500.667 303.004 495.59 336.942 481.458 368C481.998 340.779 478.555 311.785 471.13 281.019C466.583 262.181 461 235 446.248 220.855C431.496 206.71 366 185 287 185C208 185 162.104 205.958 146 203C138.393 201.603 127.492 207.444 113.296 220.523L114.068 223.708C122.266 257.686 126.365 280.363 126.365 291.739C126.365 303.233 117.924 347.725 101.044 425.215L100 430L62.1167 339.825H21.1458C5.7805 282.748 2.10619 243.653 10.1229 222.543C18.1395 201.432 56.047 172.666 40 185C34 115 62 88.0004 126 45.0004C190 2.00035 313.545 7.01249 313.545 7.01249Z" fill="black" stroke="black" stroke-width="12" stroke-linecap="round" stroke-linejoin="round"/>

</svg>