<svg width="564px" height="504px" viewBox="0 0 564 504" version="1.1" xmlns="http://www.w3.org/2000/svg" xmlns:xlink="http://www.w3.org/1999/xlink">

    <title>face-0</title>
    <g id="All-customizable-items" stroke="none" stroke-width="1" fill="none" fill-rule="evenodd" stroke-linecap="round" stroke-linejoin="round">
        <g id="Face/-0" transform="translate(-220.000000, -367.000000)" stroke="#000000" stroke-width="24">
            <path d="M532,379 C664.54834,379 772,486.45166 772,619 C772,751.54834 664.54834,859 532,859 C435.13263,859 351.668898,801.612202 313.752775,718.980575 L313.322946,718.989282 L312,719 C267.81722,719 232,683.18278 232,639 C232,599.134956 261.158843,566.080325 299.312086,560.00055 C325.599297,455.979213 419.809919,379 532,379 Z M295.858895,624.545187 L304.141105,655.454813" id="face-0"></path>
        </g>
    </g>

<path d="M145 10.5001C145 10.5001 153.471 7 164.765 7C176.059 7 187.811 12 208.059 12C228.306 12 241 7 241 7" stroke="black" stroke-width="12" stroke-linecap="round" stroke-linejoin="round"/>
<path d="M103 10.5001C103 10.5001 94.5294 7 83.2353 7C71.9412 7 60.1888 12 39.9412 12C19.6935 12 7 7 7 7" stroke="black" stroke-width="12" stroke-linecap="round" stroke-linejoin="round"/>

    <title>eyebrows-7</title>
    <g id="All-customizable-items" stroke="none" stroke-width="1" fill="none" fill-rule="evenodd" stroke-linecap="round" stroke-linejoin="round">
        <g id="Eyebrows/-7" transform="translate(-518.000000, -476.000000)" stroke="#000000" stroke-width="16">
            <g id="eyebrows-7" transform="translate(528.000000, 485.000000)">
                <path d="M2,31 C13.6420073,23.1142473 23.8820073,17.5142473 32.72,14.2 C41.5579927,10.8857527 52.651326,8.48575274 66,7" id="Path" transform="translate(34.000000, 19.000000) rotate(12.000000) translate(-34.000000, -19.000000) "></path>
                <path d="M156,31 C167.642007,23.1142473 177.882007,17.5142473 186.72,14.2 C195.557993,10.8857527 206.651326,8.48575274 220,7" id="Path" transform="translate(188.000000, 19.000000) scale(-1, 1) rotate(12.000000) translate(-188.000000, -19.000000) "></path>
            </g>
        </g>
    </g>

    <title>mouth-8</title>
    <g id="All-customizable-items" stroke="none" stroke-width="1" fill="none" fill-rule="evenodd" stroke-linecap="round" stroke-linejoin="round">
        <g id="Mouth/-8" transform="translate(-510.000000, -720.000000)" stroke="#000000" stroke-width="16">
            <g id="mouth-8" transform="translate(518.000000, 729.000000)">
                <path d="M-3.69482223e-13,40.2906038 C11.1513858,37.2521964 19.1513858,34.588032 24,32.2981106 C28.8486142,30.0081891 35.9892516,25.8365332 45.4219123,19.7831427 C62.4309568,8.98264352 73.6236526,2.98203532 79,1.78131814 C84.3763474,0.580600965 91.3763474,2.51817509 100,7.59404051 C112,-1.12504304 123,-2.33602686 133,3.96108903 C143,10.2582049 145.333333,20.4304691 140,34.4778814 C145.333333,41.2593909 144.666667,48.0409003 138,54.8224097 C128,64.9946738 107,72.2605768 79,69.3542156 C66.6893996,68.0763924 52.3996983,62.8419921 34,54.8224097 C27.6667209,52.0620246 16.3333876,47.2180893 -3.69482223e-13,40.2906038 Z" id="Path"></path>
                <path d="M12,43 C54.2826578,36.3890991 82.9493244,32.7224324 98,32 C113.050676,31.2775676 126.050676,32.9442342 137,37" id="Path"></path>
            </g>
        </g>
    </g>

    <title>nose-7</title>
    <g id="All-customizable-items" stroke="none" stroke-width="1" fill="none" fill-rule="evenodd" stroke-linecap="round" stroke-linejoin="round">
        <g id="Nose/-7" transform="translate(-641.000000, -592.000000)" stroke="#000000" stroke-width="16">
            <path d="M649,600 C669,606.666667 679,620 679,640 C679,660 669,673.333333 649,680" id="nose-7"></path>
        </g>
    </g>

    <title>hair-8</title>
    <g id="All-customizable-items" stroke="none" stroke-width="1" fill="none" fill-rule="evenodd" stroke-linecap="round" stroke-linejoin="round">
        <g id="Hairstyle/-8" transform="translate(-191.000000, -143.000000)" fill="#000000" stroke="#000000" stroke-width="12">
            <path d="M589.5,149 C631.429764,149 667.646435,173.46066 684.658775,208.890741 C721.09813,214.498985 749,245.991077 749,284 C749,286.479516 748.88126,288.931299 748.649157,291.349973 C776.884031,307.885612 799.44561,330.956745 794,360 C786,402.666667 760.666667,438 718,466 L715.0861,463.567 C683.962033,437.635667 661.933333,421.113333 649,414 C615.112376,395.361807 560.361457,389 532,389 C494.328727,389 459.328727,395.666667 427,409 C427.442658,419.124205 429.109325,429.457538 432,440 C434.890675,450.542462 438.890675,460.875795 444,471 C418.42303,487.163731 403.86212,499.704664 400.317272,508.622798 C395.053173,521.866228 390.816933,592.760589 386.449154,651.362106 L386.17725,655 L366.146153,655 L328.203914,564.824988 L287.169322,564.824988 C281.896276,545.26754 277.997962,527.821458 275.474381,512.486743 C230.854476,504.457464 197,465.4323 197,418.5 C197,388.97181 210.401273,362.573655 231.453484,345.055871 C227.349851,337.983222 225,329.766029 225,321 C225,294.490332 246.490332,273 273,273 L273.516848,273.002725 L273.516848,273.002725 C278.783823,219.66548 323.776164,178 378.5,178 C395.981022,178 412.469019,182.251645 426.986338,189.77728 C440.350453,178.084255 457.847918,171 477,171 C490.487831,171 503.155028,174.513552 514.136247,180.675313 C533.28305,161.128247 559.975173,149 589.5,149 Z" id="hair-8"></path>
        </g>
    </g>

    <title>beard-9</title>
    <g id="All-customizable-items" stroke="none" stroke-width="1" fill="none" fill-rule="evenodd" stroke-linecap="round" stroke-linejoin="round">
        <g id="Beard/-9" transform="translate(-463.000000, -766.000000)" fill="#000000" stroke="#000000" stroke-width="12">
            <path d="M591,787 L635,787 C630.333333,808.333333 633.666667,819 645,819 C656.333333,819 677.333333,803.333333 708,772 C706.096725,787.252619 703.763392,797.919286 701,804 C681.384138,847.163789 649,872 588,872 C571.270609,872 532,872 513,859 C503.782362,852.693195 484,841 474,812 C472.318666,807.124131 470.651999,796.457464 469,780 C500.392573,797.855208 521.392573,808.521874 532,812 C553.420148,819.023566 571.9567,819 580,819 C594.017959,819 597.684625,808.333333 591,787 Z" id="beard-9"></path>
        </g>
    </g>

</svg>