<svg width="564px" height="504px" viewBox="0 0 564 504" version="1.1" xmlns="http://www.w3.org/2000/svg" xmlns:xlink="http://www.w3.org/1999/xlink">

    <title>face-1</title>
    <g id="All-customizable-items" stroke="none" stroke-width="1" fill="none" fill-rule="evenodd" stroke-linecap="round" stroke-linejoin="round">
        <g id="Face/-1" transform="translate(-220.000000, -367.000000)" stroke="#000000" stroke-width="24">
            <path d="M532,379 C664.54834,379 772,486.45166 772,619 C772,751.54834 664.54834,879 532,879 C435.13263,879 351.668898,801.612202 313.752775,718.980575 L313.322946,718.989282 L312,719 C267.81722,719 232,683.18278 232,639 C232,599.134956 261.158843,566.080325 299.312086,560.00055 C325.599297,455.979213 419.809919,379 532,379 Z M295.858895,624.545187 L304.141105,655.454813" id="face-1"></path>
        </g>
    </g>

    <title>eyes-2</title>
    <g id="All-customizable-items" stroke="none" stroke-width="1" fill="none" fill-rule="evenodd">
        <g id="Eyes/-2" transform="translate(-538.000000, -516.000000)" fill="#000000">
            <path d="M570,516 C587.673112,516 602,530.326888 602,548 C602,565.673112 587.673112,580 570,580 C552.326888,580 538,565.673112 538,548 C538,530.326888 552.326888,516 570,516 Z M708,516 C725.673112,516 740,530.326888 740,548 C740,565.673112 725.673112,580 708,580 C690.326888,580 676,565.673112 676,548 C676,530.326888 690.326888,516 708,516 Z" id="eyes-2"></path>
        </g>
    </g>

    <title>eyebrows-4</title>
    <g id="All-customizable-items" stroke="none" stroke-width="1" fill="none" fill-rule="evenodd" stroke-linecap="round" stroke-linejoin="round">
        <g id="Eyebrows/-4" transform="translate(-519.000000, -498.000000)" stroke="#000000" stroke-width="12">
            <g id="eyebrows-4" transform="translate(525.000000, 504.000000)">
                <path d="M0,12 C12.8888889,4 27.8888889,0 45,0 C62.1111111,0 77.1111111,4 90,12" id="Path"></path>
                <path d="M138,12 C150.888889,4 165.888889,0 183,0 C200.111111,0 215.111111,4 228,12" id="Path"></path>
            </g>
        </g>
    </g>

    <title>mouth-9</title>
    <g id="All-customizable-items" stroke="none" stroke-width="1" fill="none" fill-rule="evenodd" stroke-linecap="round" stroke-linejoin="round">
        <g id="Mouth/-9" transform="translate(-524.000000, -723.000000)" stroke="#000000" stroke-width="16">
            <path d="M532,760 C569.387146,756.771376 597.387146,753.438043 616,750 C634.612854,746.561957 658.946187,740.228624 689,731 L667,780 C644.19345,787.762145 627.19345,792.095479 616,793 C604.80655,793.904521 588.80655,792.237855 568,788 L532,760 Z" id="mouth-9"></path>
        </g>
    </g>

    <title>nose-9</title>
    <g id="All-customizable-items" stroke="none" stroke-width="1" fill="none" fill-rule="evenodd" stroke-linecap="round" stroke-linejoin="round">
        <g id="Nose/-9" transform="translate(-623.000000, -571.000000)" stroke="#000000" stroke-width="16">
            <path d="M631,694.380659 C663.848549,704.811956 684.630284,697.576454 693.345205,672.674154 C706.417587,635.320703 637.033407,606.392531 660.161467,579" id="nose-9"></path>
        </g>
    </g>

<path fill-rule="evenodd" clip-rule="evenodd" d="M278 6L262.944 24.1672C302.315 9.38905 335 16 377 44C440 86 435 114 454 139C466.667 155.667 480.667 168.333 496 177C496 177 442.001 171.452 428.769 168.145L428.288 168.024C414.115 164.421 397.105 154.882 377.257 139.407L381.113 143.676C392.226 155.896 401.201 165.043 408.038 171.118C415.648 177.88 447.55 191.841 461 199C461 199 405 195 379.285 180.18C353.571 165.36 328.198 145.866 308 141C304.218 140.089 299.105 139.179 293.065 138.407L294.454 140.861C304.848 159.356 317.419 184.126 339 198C357.667 210 376.667 217.333 396 220C354.448 214.431 323.115 196.765 302 167C294.977 157.101 287.193 147.101 278.647 137.002C251.805 135.135 216.078 136.605 192.704 148.632L189.959 150.071C156.61 167.405 122.806 177.43 113.296 198.522C98.0323 232.374 113 251.408 113 269L112.995 269.737L112.98 270.53L112.957 271.382C112.513 285.298 108.679 326.294 101.453 394.371L100 408L62.1167 317.825H21.1458C5.7805 260.747 2.10619 221.653 10.1229 200.542C14.0741 190.137 24.4847 173.339 41.2597 155.225C38.179 142.659 37.2817 131.973 38.5688 123.165C40.7974 107.915 51.5976 84.4549 70.9696 52.7838V79.0802C99.1503 51.5827 127.771 33.2783 156.832 24.1672C185.892 15.056 226.282 9.00026 278 6Z" fill="black" stroke="black" stroke-width="12" stroke-linecap="round" stroke-linejoin="round"/>

    <title>details-2</title>
    <g id="All-customizable-items" stroke="none" stroke-width="1" fill="none" fill-rule="evenodd" stroke-linecap="round" stroke-linejoin="round">
        <g id="Details/-2" transform="translate(-439.000000, -613.000000)" stroke="#000000" stroke-width="12">
            <path d="M485,619 C507.09139,619 525,627.954305 525,639 C525,650.045695 507.09139,659 485,659 C462.90861,659 445,650.045695 445,639 C445,627.954305 462.90861,619 485,619 Z M768.257551,619.086322 C769.489678,619.029221 768.023293,658.926198 766.096923,658.783728 C746.80451,657.35691 732,649.0429 732,639 C732,628.585298 747.920969,620.029867 768.257551,619.086322 Z" id="details-2"></path>
        </g>
    </g>

    <title>glasses-7</title>
    <g id="All-customizable-items" stroke="none" stroke-width="1" fill="none" fill-rule="evenodd" stroke-linecap="round" stroke-linejoin="round">
        <g id="Glasses/-7" transform="translate(-287.000000, -500.000000)" fill="#000000" stroke="#000000" stroke-width="4">
            <g id="glasses-7" transform="translate(289.000000, 502.000000)">
                <path d="M339.740368,39.6303745 C323.440763,83.0959855 305.148598,104 266.642657,104 C226.661085,104 208.819095,87.634841 206.637074,34.1753215 C206.548706,32.0103005 204.003015,29.8282793 199,27.6292579 L199,6.90005646 C238.696939,1.25810378 267.426885,-0.923917428 285.189838,0.353992852 C297.612079,1.2476793 312.018598,4.36213391 328.409394,9.69735669 C333.107339,11.2265431 340.521032,12.1124607 350.650474,12.3551095 L351.336909,12.3375684 C361.115498,12.0718595 368.30038,11.1917889 372.891553,9.69735669 C389.282349,4.36213391 403.688868,1.2476793 416.11111,0.353992852 C433.874063,-0.923917428 462.604008,1.25810378 502.300947,6.90005646 L502.300947,6.90005646 L502.300947,27.6292579 C497.297933,29.8282793 494.752241,32.0103005 494.663873,34.1753215 C492.481852,87.634841 474.639862,104 434.65829,104 C396.15235,104 377.860184,83.0959855 361.56058,39.6303745 C359.378558,33.8116513 355.741856,30.9022897 350.650474,30.9022897 L350.650474,30.9022897 C345.559091,30.9022897 341.922389,33.8116513 339.740368,39.6303745 Z" id="Combined-Shape"></path>
                <polygon id="Path" points="199 7 4 39 0 48 199 28"></polygon>
            </g>
        </g>
    </g>

</svg>