<svg width="564px" height="504px" viewBox="0 0 564 504" version="1.1" xmlns="http://www.w3.org/2000/svg" xmlns:xlink="http://www.w3.org/1999/xlink">

<mask id="path-1-inside-1_0_1046" fill="white">
<path fill-rule="evenodd" clip-rule="evenodd" d="M90.9463 195.941C115.92 97.1191 205.436 24 312 24C437.921 24 540 126.079 540 252C540 264.704 545.103 277.455 549.138 287.538L549.144 287.552C549.693 288.923 550.221 290.244 550.715 291.51C555.415 303.56 557.649 311.842 555.823 319.022C553.939 326.432 552.268 336.168 550.509 346.909C550.176 348.942 549.839 351.021 549.494 353.143L549.493 353.149C547.984 362.446 546.339 372.58 544.36 383.298C539.495 409.658 532.748 438.74 521.729 464.914C510.685 491.145 495.763 513.459 475.149 527.443C454.918 541.167 427.861 547.782 390.368 540.236C342.538 530.609 285.354 505.607 233.493 470.858C181.582 436.076 136.124 392.279 110.718 345.827C108.401 341.592 103.773 339.157 98.9711 339.647C96.6854 339.88 94.3594 340 92 340C54.4446 340 24 309.555 24 272C24 238.126 48.7801 210.017 81.2005 204.851C85.9382 204.096 89.7709 200.592 90.9463 195.941ZM312 0C196.833 0 99.736 77.2452 69.647 182.737C29.6368 192.728 0 228.893 0 272C0 322.81 41.1898 364 92 364C92.477 364 92.9532 363.996 93.4287 363.989C121.806 412.348 168.651 456.301 220.133 490.796C274.013 526.898 334.09 553.391 385.632 563.764C428.49 572.39 462.307 565.155 488.622 547.304C514.554 529.713 531.85 502.727 543.848 474.227C555.871 445.67 562.989 414.591 567.962 387.655C569.992 376.656 571.687 366.212 573.198 356.904L573.199 356.901C573.539 354.803 573.87 352.763 574.194 350.787C575.984 339.85 577.5 331.161 579.083 324.937C583.038 309.382 577.546 294.254 573.074 282.789C572.513 281.35 571.965 279.959 571.433 278.61C567.181 267.823 564 259.753 564 252C564 112.824 451.176 0 312 0ZM87.45 254.439C85.7347 248.038 79.1547 244.239 72.7531 245.954C66.3515 247.669 62.5525 254.249 64.2678 260.651L72.55 291.561C74.2653 297.962 80.8453 301.761 87.2469 300.046C93.6485 298.331 97.4475 291.751 95.7322 285.349L87.45 254.439Z"/>
</mask>
<path d="M90.9463 195.941L67.6778 190.06L90.9463 195.941ZM549.138 287.538L526.856 296.455C526.862 296.47 526.868 296.484 526.874 296.499L549.138 287.538ZM549.144 287.552L571.426 278.635C571.42 278.62 571.414 278.605 571.408 278.59L549.144 287.552ZM550.715 291.51L528.355 300.23L550.715 291.51ZM555.823 319.022L532.564 313.107V313.107L555.823 319.022ZM550.509 346.909L526.824 343.031V343.031L550.509 346.909ZM549.494 353.143L573.145 357.221C573.159 357.144 573.171 357.067 573.184 356.989L549.494 353.143ZM549.493 353.149L525.842 349.071C525.829 349.148 525.816 349.226 525.803 349.303L549.493 353.149ZM544.36 383.298L520.759 378.942V378.942L544.36 383.298ZM521.729 464.914L499.609 455.602V455.602L521.729 464.914ZM475.149 527.443L461.676 507.582L461.675 507.582L475.149 527.443ZM390.368 540.236L385.632 563.764L390.368 540.236ZM233.493 470.858L246.852 450.92L233.493 470.858ZM110.718 345.827L89.6613 357.343L89.6614 357.343L110.718 345.827ZM98.9711 339.647L101.408 363.523H101.408L98.9711 339.647ZM81.2005 204.851L84.9773 228.552L81.2005 204.851ZM69.647 182.737L75.4615 206.022C83.7891 203.943 90.3723 197.574 92.7266 189.32L69.647 182.737ZM93.4287 363.989L114.128 351.842C109.753 344.387 101.706 339.86 93.0622 339.992L93.4287 363.989ZM220.133 490.796L206.774 510.734V510.734L220.133 490.796ZM385.632 563.764L380.897 587.292L385.632 563.764ZM488.622 547.304L502.095 567.166L488.622 547.304ZM543.848 474.227L521.729 464.914L521.729 464.914L543.848 474.227ZM567.962 387.655L544.36 383.298L567.962 387.655ZM573.198 356.904L596.888 360.749C596.912 360.599 596.935 360.448 596.957 360.298L573.198 356.904ZM573.199 356.901L549.509 353.056C549.484 353.206 549.461 353.356 549.44 353.507L573.199 356.901ZM574.194 350.787L550.509 346.909L550.509 346.909L574.194 350.787ZM579.083 324.937L555.823 319.022L555.823 319.022L579.083 324.937ZM573.074 282.789L550.715 291.509L550.715 291.51L573.074 282.789ZM571.433 278.61L593.761 269.809L593.761 269.809L571.433 278.61ZM72.7531 245.954L78.9647 269.136H78.9647L72.7531 245.954ZM87.45 254.439L110.632 248.228V248.228L87.45 254.439ZM64.2678 260.651L41.0856 266.863L64.2678 260.651ZM72.55 291.561L49.3678 297.772H49.3678L72.55 291.561ZM87.2469 300.046L93.4586 323.228H93.4586L87.2469 300.046ZM95.7322 285.349L118.914 279.137L118.914 279.137L95.7322 285.349ZM312 0C194.187 0 95.2798 80.8367 67.6778 190.06L114.215 201.821C136.559 113.402 216.684 48 312 48V0ZM564 252C564 112.824 451.176 0 312 0V48C424.666 48 516 139.334 516 252H564ZM571.42 278.62C567.062 267.73 564 259.297 564 252H516C516 270.111 523.144 287.18 526.856 296.455L571.42 278.62ZM571.408 278.59L571.402 278.576L526.874 296.499L526.88 296.514L571.408 278.59ZM573.074 282.789C572.536 281.408 571.966 279.985 571.426 278.635L526.862 296.469C527.419 297.861 527.907 299.081 528.355 300.23L573.074 282.789ZM579.083 324.937C583.05 309.336 577.502 294.14 573.074 282.789L528.355 300.23C530.592 305.965 531.711 309.505 532.206 311.915C532.655 314.107 532.31 314.102 532.564 313.107L579.083 324.937ZM574.194 350.787C575.984 339.855 577.499 331.163 579.083 324.937L532.564 313.107C530.378 321.7 528.552 332.481 526.824 343.031L574.194 350.787ZM573.184 356.989C573.529 354.863 573.864 352.801 574.194 350.787L526.824 343.031C526.489 345.083 526.148 347.178 525.804 349.298L573.184 356.989ZM573.144 357.227L573.145 357.221L525.843 349.066L525.842 349.071L573.144 357.227ZM567.962 387.655C569.994 376.645 571.678 366.266 573.183 356.994L525.803 349.303C524.29 358.626 522.684 368.515 520.759 378.942L567.962 387.655ZM543.848 474.227C555.871 445.669 562.99 414.59 567.962 387.655L520.759 378.942C515.999 404.726 509.625 431.812 499.609 455.602L543.848 474.227ZM488.622 547.304C514.553 529.714 531.849 502.728 543.848 474.227L499.609 455.602C489.522 479.562 476.974 497.204 461.676 507.582L488.622 547.304ZM385.632 563.764C428.497 572.391 462.312 565.152 488.622 547.304L461.675 507.582C447.523 517.182 427.225 523.173 395.103 516.708L385.632 563.764ZM220.133 490.796C274.013 526.898 334.091 553.391 385.632 563.764L395.103 516.708C350.986 507.828 296.694 484.317 246.852 450.92L220.133 490.796ZM89.6614 357.343C117.541 408.317 166.303 454.727 220.133 490.796L246.852 450.92C196.862 417.425 154.707 376.24 131.774 334.31L89.6614 357.343ZM101.408 363.523C96.6059 364.013 91.9776 361.578 89.6613 357.343L131.774 334.31C124.825 321.605 110.94 314.301 96.5342 315.771L101.408 363.523ZM92 364C95.1716 364 98.3109 363.839 101.408 363.523L96.5343 315.771C95.0599 315.922 93.5472 316 92 316V364ZM0 272C0 322.81 41.1898 364 92 364V316C67.6995 316 48 296.301 48 272H0ZM77.4237 181.15C33.53 188.145 0 226.151 0 272H48C48 250.101 64.0302 231.89 84.9773 228.552L77.4237 181.15ZM67.6778 190.06C68.8533 185.409 72.686 181.905 77.4237 181.15L84.9773 228.552C99.1903 226.287 110.689 215.775 114.215 201.821L67.6778 190.06ZM92.7266 189.32C119.954 93.8607 207.837 24 312 24V-24C185.829 -24 79.518 60.6297 46.5675 176.154L92.7266 189.32ZM24 272C24 240.172 45.8801 213.409 75.4615 206.022L63.8326 159.452C13.3934 172.047 -24 217.614 -24 272H24ZM92 340C54.4446 340 24 309.555 24 272H-24C-24 336.065 27.935 388 92 388V340ZM93.0622 339.992C92.7092 339.997 92.3552 340 92 340V388C92.5988 388 93.1972 387.995 93.7953 387.986L93.0622 339.992ZM233.493 470.858C183.893 437.624 140.099 396.1 114.128 351.842L72.7295 376.136C103.514 428.596 153.41 474.978 206.774 510.734L233.493 470.858ZM390.368 540.236C342.538 530.609 285.354 505.607 233.493 470.858L206.774 510.734C262.672 548.189 325.643 576.172 380.897 587.292L390.368 540.236ZM475.149 527.443C454.922 541.164 427.866 547.783 390.368 540.236L380.897 587.292C429.114 596.997 469.692 589.147 502.095 567.166L475.149 527.443ZM521.729 464.914C510.685 491.147 495.762 513.46 475.149 527.443L502.095 567.166C533.345 545.967 553.015 514.306 565.968 483.539L521.729 464.914ZM544.36 383.298C539.495 409.657 532.748 438.74 521.729 464.914L565.968 483.539C578.994 452.6 586.484 419.526 591.563 392.012L544.36 383.298ZM549.508 353.058C547.993 362.391 546.337 372.59 544.36 383.298L591.563 392.012C593.647 380.721 595.381 370.032 596.888 360.749L549.508 353.058ZM549.44 353.507L549.439 353.509L596.957 360.298L596.957 360.295L549.44 353.507ZM550.509 346.909C550.182 348.904 549.849 350.961 549.509 353.056L596.888 360.746C597.23 358.645 597.558 356.621 597.878 354.665L550.509 346.909ZM555.823 319.022C553.938 326.433 552.267 336.174 550.509 346.909L597.878 354.665C599.702 343.526 601.061 335.889 602.343 330.852L555.823 319.022ZM550.715 291.51C555.387 303.489 557.657 311.812 555.823 319.022L602.342 330.852C608.42 306.952 599.706 285.02 595.434 274.068L550.715 291.51ZM549.105 287.411C549.639 288.766 550.172 290.118 550.715 291.509L595.434 274.068C594.855 272.583 594.291 271.152 593.761 269.809L549.105 287.411ZM540 252C540 265.295 545.426 278.077 549.105 287.411L593.761 269.809C588.936 257.569 588 254.211 588 252H540ZM312 24C437.921 24 540 126.079 540 252H588C588 99.5694 464.431 -24 312 -24V24ZM78.9647 269.136C72.5631 270.852 65.9831 267.053 64.2678 260.651L110.632 248.228C105.486 229.023 85.7462 217.626 66.5414 222.772L78.9647 269.136ZM87.45 254.439C89.1653 260.841 85.3663 267.421 78.9647 269.136L66.5414 222.772C47.3366 227.918 35.9397 247.658 41.0856 266.863L87.45 254.439ZM95.7322 285.349L87.45 254.439L41.0856 266.863L49.3678 297.772L95.7322 285.349ZM81.0353 276.864C87.4369 275.148 94.0169 278.947 95.7322 285.349L49.3678 297.772C54.5137 316.977 74.2537 328.374 93.4586 323.228L81.0353 276.864ZM72.55 291.561C70.8347 285.159 74.6337 278.579 81.0353 276.864L93.4586 323.228C112.663 318.082 124.06 298.342 118.914 279.137L72.55 291.561ZM64.2678 260.651L72.55 291.561L118.914 279.137L110.632 248.228L64.2678 260.651Z" fill="black" mask="url(#path-1-inside-1_0_1046)"/>

<path d="M145 10.5001C145 10.5001 153.471 7 164.765 7C176.059 7 187.811 12 208.059 12C228.306 12 241 7 241 7" stroke="black" stroke-width="12" stroke-linecap="round" stroke-linejoin="round"/>
<path d="M103 10.5001C103 10.5001 94.5294 7 83.2353 7C71.9412 7 60.1888 12 39.9412 12C19.6935 12 7 7 7 7" stroke="black" stroke-width="12" stroke-linecap="round" stroke-linejoin="round"/>

    <title>eyebrows-4</title>
    <g id="All-customizable-items" stroke="none" stroke-width="1" fill="none" fill-rule="evenodd" stroke-linecap="round" stroke-linejoin="round">
        <g id="Eyebrows/-4" transform="translate(-519.000000, -498.000000)" stroke="#000000" stroke-width="12">
            <g id="eyebrows-4" transform="translate(525.000000, 504.000000)">
                <path d="M0,12 C12.8888889,4 27.8888889,0 45,0 C62.1111111,0 77.1111111,4 90,12" id="Path"></path>
                <path d="M138,12 C150.888889,4 165.888889,0 183,0 C200.111111,0 215.111111,4 228,12" id="Path"></path>
            </g>
        </g>
    </g>

<path d="M9.34763 45.3856C9.34763 45.3856 3.05252 35.5217 7.44585 22.3999C11.8392 9.27823 23.4387 3.2993 23.4387 3.2993" stroke="black" stroke-width="6" stroke-linecap="round" stroke-linejoin="round"/>
<path fill-rule="evenodd" clip-rule="evenodd" d="M49.6132 29.3948L119.22 15.181L147.717 14.8304L168.424 9.1395L192.54 11.8457C192.54 11.8457 175.891 18.2978 143.869 22.2296C111.847 26.1614 49.6132 29.3948 49.6132 29.3948Z" stroke="black" stroke-width="12" stroke-linecap="round" stroke-linejoin="round"/>
<path d="M115 66C115 66 130.338 67.0353 138 66C145.662 64.9647 152 61 152 61" stroke="black" stroke-width="6" stroke-linecap="round" stroke-linejoin="round"/>

<path fill-rule="evenodd" clip-rule="evenodd" d="M7.51613 3C7.51613 3 23.2224 5.63746 31 11.9771C44.0598 22.6223 52.9064 43.2557 51.7742 55.5802C49.0645 85.0763 3 86.3588 3 86.3588C3 86.3588 59 91.4886 59 55.5802C59 39.2216 48.4333 21.0647 31 10.6947C22.9217 5.88933 7.51613 3 7.51613 3Z" fill="black" stroke="black" stroke-width="6" stroke-linecap="round" stroke-linejoin="round"/>

<path fill-rule="evenodd" clip-rule="evenodd" d="M396.002 7.00013C459.002 11.0001 490.359 33.2202 533.002 68.0001C546.098 62.6802 574.002 64.0001 606.002 95.0001C638.002 126 609.533 176.003 599.002 243C533.977 195.473 468.977 195.473 404.002 243C306.539 314.29 314.668 388 268.002 420L265.719 415.336L263.832 411.519C255.738 395.231 250.128 385.058 247.002 381C241.545 373.918 222.322 358.08 189.002 362C166.335 364.667 118.002 403 131.002 448C136.838 468.204 150.234 484.023 171.189 495.459C181.349 501.003 207.002 509 207.002 509C207.002 509 196.002 511 188.002 511C180.002 511 170.002 508 170.002 508C170.002 508 121.002 566 65.0017 561C9.00173 556 -3.99827 498 15.0017 461C34.0017 424 109.424 440.247 108.002 435C61.1223 441.624 51.8186 417.4 15.0017 412C56.9927 404.839 70.2653 422.383 108.002 412C107.549 409.903 65.9495 384.737 37.0017 381C69.091 375.029 73.3908 391.95 102.002 384C92.2156 322.783 86.7159 224.137 131.002 155C203.946 41.1235 333.002 3.00013 396.002 7.00013Z" fill="black" stroke="black" stroke-width="12" stroke-linecap="round" stroke-linejoin="round"/>

    <title>beard-3</title>
    <g id="All-customizable-items" stroke="none" stroke-width="1" fill="none" fill-rule="evenodd" stroke-linecap="round" stroke-linejoin="round">
        <g id="Beard/-3" transform="translate(-360.000000, -649.000000)" fill="#000000" stroke="#000000" stroke-width="12">
            <path d="M711,764 L707,764 L706.345455,762.706777 C700.563636,751.423471 694.781818,743.854545 689,740 C680,734 658,735 618,735 L615.604952,734.995328 C576.5692,734.8448 541.74,731.16 529,739 C520.333333,744.333333 514.333333,752.666667 511,764 L462,764 L366,655 L383,655 C388.047581,663.07807 393.047581,668.411404 398,671 C406.445576,675.414446 431.388408,682.267492 438,687 C450.42707,695.895166 463.760404,707.895166 478,723 L506,723 L532,713 C566.333333,708.333333 598.666667,706 629,706 C659.333333,706 688,709.333333 715,716 L734,739 L747,739 C762.333333,758.333333 758,790 734,834 C698,900 652.613614,901.016753 640,905 C621,911 543.350864,912.626406 512,903 L510.10195,902.41143 C478.827156,892.616328 434.373138,873.798208 408,829 C390.238499,798.829779 376.339484,741.682276 366.302955,657.557493 L366,655 L461,769 L512,769 C527.554629,792.760871 543.887962,808.760871 561,817 C577.940917,825.156738 592.158427,817.724205 603.652528,794.702402 L604,794 L629,794 C631.666667,809.333333 638.333333,817 649,817 C659.56,817 679.921,799.6849 710.083,765.0547 L711,764 Z" id="beard-3"></path>
        </g>
    </g>

<path d="M586.363 276.583C587.786 276.07 589.351 276.114 590.743 276.706L588.396 282.228C590.743 276.706 590.744 276.706 590.746 276.707L590.749 276.708L590.758 276.712L590.786 276.724L590.875 276.763C590.949 276.795 591.053 276.84 591.184 276.898C591.447 277.014 591.818 277.181 592.279 277.395C593.198 277.821 594.482 278.438 595.965 279.209C598.888 280.73 602.777 282.951 606.203 285.608C609.354 288.052 613.295 291.742 614.572 296.47C615.289 299.124 615.143 302.032 613.711 304.813C612.355 307.445 610.099 309.475 607.468 311.074C601.828 314.5 594.636 315.179 587.943 314.851C581.081 314.514 573.793 313.063 567.257 311.352C560.686 309.633 554.678 307.599 550.324 306.002C548.142 305.201 546.363 304.505 545.121 304.006C544.5 303.757 544.013 303.556 543.676 303.416C543.508 303.346 543.377 303.291 543.286 303.252L543.179 303.207L543.149 303.194L543.139 303.19L543.136 303.189C543.135 303.188 543.134 303.188 545.502 297.675L543.134 303.188C540.87 302.215 539.431 299.957 539.505 297.495C539.579 295.032 541.151 292.865 543.469 292.03L586.363 276.583Z" fill="black" stroke="white" stroke-width="12" stroke-linecap="round" stroke-linejoin="round"/>
<path d="M599.982 281.135C602.505 282.32 603.88 285.087 603.3 287.814C602.72 290.541 600.339 292.509 597.551 292.565L597.55 292.565L597.535 292.565L597.469 292.567C597.408 292.568 597.314 292.57 597.19 292.574C596.94 292.58 596.567 292.591 596.083 292.608C595.115 292.641 593.707 292.696 591.967 292.787C588.481 292.967 583.688 293.284 578.449 293.831C567.638 294.958 556.064 296.96 549.672 300.175C520.245 314.972 488.709 330.225 458.702 341.56C428.824 352.847 399.815 360.508 375.596 359.59C332.286 357.947 283.13 338.14 245.282 319.164C226.254 309.624 209.882 300.189 198.265 293.138C192.453 289.611 187.825 286.677 184.643 284.619C183.051 283.59 181.821 282.78 180.984 282.224C180.565 281.946 180.245 281.732 180.027 281.586L179.907 281.505L179.778 281.418L179.712 281.373L179.694 281.361L179.688 281.357C179.687 281.356 179.686 281.355 183.059 276.394L179.686 281.355C177.682 279.993 176.695 277.56 177.182 275.187C177.669 272.814 179.535 270.967 181.913 270.504L459.565 216.466C460.814 216.222 462.109 216.383 463.261 216.924L599.982 281.135Z" fill="black" stroke="white" stroke-width="12" stroke-linecap="round" stroke-linejoin="round"/>
<path d="M480.711 232.355L486.62 231.311C487.129 234.193 485.485 237.021 482.729 238.005L480.711 232.355ZM480.711 232.355C486.62 231.311 486.619 231.307 486.619 231.303L486.616 231.29L486.609 231.249C486.603 231.216 486.594 231.169 486.584 231.11C486.562 230.992 486.53 230.824 486.488 230.606C486.404 230.172 486.279 229.541 486.107 228.729C485.765 227.105 485.239 224.751 484.495 221.776C483.006 215.827 480.643 207.385 477.125 197.311C470.096 177.183 458.416 150.429 439.805 124.03C402.434 71.0215 337.166 19.6331 226.668 26.0656C116.311 32.49 60.9372 87.2047 33.4931 140.668C19.8565 167.233 13.1767 193.34 9.89787 212.773C8.2565 222.501 7.46183 230.59 7.07748 236.273C6.88522 239.115 6.79542 241.359 6.75382 242.908C6.73301 243.682 6.72423 244.283 6.72076 244.699C6.71903 244.907 6.71859 245.069 6.71864 245.183C6.71865 245.24 6.7188 245.285 6.71896 245.318L6.7192 245.358L6.71929 245.371C6.71934 245.376 6.71937 245.38 12.7191 245.326M480.711 232.355C482.729 238.005 482.728 238.005 482.728 238.006L482.725 238.007L482.713 238.011L482.671 238.026L482.507 238.084C482.363 238.135 482.15 238.211 481.871 238.31C481.313 238.507 480.49 238.797 479.428 239.168C477.302 239.912 474.215 240.983 470.358 242.297C462.645 244.925 451.848 248.53 439.506 252.435C414.883 260.226 383.881 269.289 358.93 274.145C334.034 278.991 295.101 283.548 262.586 286.884C246.288 288.556 231.532 289.928 220.852 290.882C215.511 291.359 211.187 291.732 208.198 291.985C206.703 292.112 205.541 292.209 204.753 292.274C204.359 292.307 204.058 292.332 203.855 292.348L203.625 292.367L203.566 292.372L203.551 292.373L203.547 292.374C203.546 292.374 203.545 292.374 203.06 286.393M12.7191 245.326C8.99147 250.027 8.99258 250.028 8.99382 250.029L8.9969 250.032L9.00525 250.038L9.03064 250.058L9.11585 250.125C9.18788 250.181 9.29025 250.261 9.4222 250.363C9.68612 250.566 10.0685 250.857 10.5633 251.227C11.5528 251.965 12.9932 253.016 14.8364 254.297C18.5205 256.857 23.8269 260.345 30.3709 264.099C43.4132 271.579 61.5904 280.239 81.7749 284.594C101.726 288.899 132.226 290.821 157.366 291.691C170.015 292.129 181.441 292.305 189.706 292.371C193.839 292.404 197.184 292.409 199.498 292.407C200.656 292.405 201.556 292.402 202.168 292.399C202.474 292.397 202.708 292.396 202.867 292.395L203.047 292.394L203.094 292.393L203.106 292.393L203.11 292.393C203.111 292.393 203.111 292.393 203.06 286.393M12.7191 245.326L8.99147 250.027C7.57081 248.901 6.73565 247.193 6.71937 245.38L12.7191 245.326ZM203.06 286.393L203.545 292.374C203.401 292.385 203.256 292.392 203.111 292.393L203.06 286.393Z" fill="black" stroke="white" stroke-width="12" stroke-linecap="round" stroke-linejoin="round"/>
<path d="M205.691 53.83C197.814 54.7972 190.181 54.0321 184.139 51.7259C178.381 49.5282 172.472 45.2025 171.606 38.1487C170.739 31.0948 175.427 25.468 180.482 21.9426C185.787 18.2432 193.008 15.6542 200.885 14.687C208.762 13.7199 216.395 14.485 222.437 16.7911C228.196 18.9888 234.105 23.3145 234.971 30.3684C235.837 37.4222 231.15 43.049 226.094 46.5744C220.789 50.2739 213.568 52.8628 205.691 53.83Z" fill="black" stroke="white" stroke-width="12" stroke-linecap="round" stroke-linejoin="round"/>

</svg>