<svg width="564px" height="504px" viewBox="0 0 564 504" version="1.1" xmlns="http://www.w3.org/2000/svg" xmlns:xlink="http://www.w3.org/1999/xlink">

<mask id="path-1-inside-1_0_1058" fill="white">
<path fill-rule="evenodd" clip-rule="evenodd" d="M90.9463 195.941C115.92 97.1191 205.436 24 312 24C437.921 24 540 126.079 540 252C540 264.704 545.103 277.455 549.138 287.538L549.144 287.552C549.693 288.923 550.221 290.244 550.715 291.51C555.415 303.56 557.649 311.842 555.823 319.022C553.948 326.393 552.332 335.585 550.654 345.524C550.382 347.136 550.107 348.775 549.828 350.438L549.817 350.506C548.35 359.253 546.768 368.691 544.843 378.652C540.25 402.416 533.836 428.431 523.068 452.55C512.317 476.63 497.433 498.355 476.147 514.076C455.001 529.694 426.718 540 388 540C311.219 540 255.292 515.301 212.009 479.12C168.399 442.666 137.158 394.169 110.718 345.827C108.401 341.592 103.773 339.157 98.9711 339.647C96.6854 339.88 94.3594 340 92 340C54.4446 340 24 309.555 24 272C24 238.126 48.7801 210.017 81.2005 204.851C85.9382 204.096 89.7709 200.592 90.9463 195.941ZM312 0C196.833 0 99.736 77.2452 69.647 182.737C29.6368 192.728 0 228.893 0 272C0 322.81 41.1898 364 92 364C92.443 364 92.8854 363.997 93.3271 363.991C119.507 411.06 151.609 459.912 196.617 497.534C244.075 537.205 305.41 564 388 564C431.282 564 464.697 552.37 490.406 533.381C515.976 514.495 533.104 488.941 544.983 462.334C556.845 435.765 563.677 407.683 568.407 383.205C570.393 372.927 572.031 363.156 573.498 354.409C573.777 352.741 574.051 351.109 574.319 349.519C576.023 339.423 577.49 331.2 579.083 324.937C583.038 309.382 577.546 294.254 573.074 282.789C572.513 281.35 571.965 279.959 571.433 278.61C567.181 267.823 564 259.753 564 252C564 112.824 451.176 0 312 0ZM87.45 254.439C85.7347 248.038 79.1547 244.239 72.7531 245.954C66.3515 247.669 62.5525 254.249 64.2678 260.651L72.55 291.561C74.2653 297.962 80.8453 301.761 87.2469 300.046C93.6485 298.331 97.4475 291.751 95.7322 285.349L87.45 254.439Z"/>
</mask>
<path d="M90.9463 195.941L67.6778 190.06L90.9463 195.941ZM549.138 287.538L526.856 296.455C526.862 296.47 526.868 296.484 526.874 296.499L549.138 287.538ZM549.144 287.552L571.426 278.635C571.42 278.62 571.414 278.605 571.408 278.59L549.144 287.552ZM550.715 291.51L528.355 300.23L550.715 291.51ZM555.823 319.022L579.083 324.937V324.937L555.823 319.022ZM550.654 345.524L526.989 341.53L526.989 341.53L550.654 345.524ZM549.828 350.438L526.159 346.467C526.157 346.477 526.156 346.488 526.154 346.498L549.828 350.438ZM549.817 350.506L573.486 354.475C573.488 354.466 573.49 354.456 573.491 354.447L549.817 350.506ZM544.843 378.652L568.407 383.205V383.205L544.843 378.652ZM523.068 452.55L501.153 442.766L523.068 452.55ZM476.147 514.076L461.889 494.771L476.147 514.076ZM212.009 479.12L196.617 497.534L212.009 479.12ZM110.718 345.827L89.6613 357.343L89.6614 357.343L110.718 345.827ZM98.9711 339.647L101.408 363.523H101.408L98.9711 339.647ZM81.2005 204.851L84.9773 228.552L81.2005 204.851ZM69.647 182.737L75.4615 206.022C83.7891 203.943 90.3723 197.574 92.7266 189.32L69.647 182.737ZM93.3271 363.991L114.301 352.325C110.007 344.605 101.82 339.868 92.9873 339.993L93.3271 363.991ZM196.617 497.534L181.224 515.948H181.224L196.617 497.534ZM490.406 533.381L504.665 552.686L490.406 533.381ZM544.983 462.334L566.898 472.118L544.983 462.334ZM568.407 383.205L591.971 387.759V387.759L568.407 383.205ZM573.498 354.409L597.167 358.378L597.167 358.377L573.498 354.409ZM574.319 349.519L597.984 353.514L597.984 353.513L574.319 349.519ZM579.083 324.937L602.342 330.852L579.083 324.937ZM573.074 282.789L550.715 291.509L550.715 291.51L573.074 282.789ZM571.433 278.61L593.761 269.809L593.761 269.809L571.433 278.61ZM72.7531 245.954L78.9647 269.136H78.9647L72.7531 245.954ZM87.45 254.439L110.632 248.228V248.228L87.45 254.439ZM64.2678 260.651L41.0856 266.863L64.2678 260.651ZM72.55 291.561L49.3678 297.772H49.3678L72.55 291.561ZM87.2469 300.046L93.4586 323.228H93.4586L87.2469 300.046ZM95.7322 285.349L118.914 279.137L118.914 279.137L95.7322 285.349ZM312 0C194.187 0 95.2798 80.8367 67.6778 190.06L114.215 201.821C136.559 113.402 216.684 48 312 48V0ZM564 252C564 112.824 451.176 0 312 0V48C424.666 48 516 139.334 516 252H564ZM571.42 278.62C567.062 267.73 564 259.297 564 252H516C516 270.111 523.144 287.18 526.856 296.455L571.42 278.62ZM571.408 278.59L571.402 278.576L526.874 296.499L526.88 296.514L571.408 278.59ZM573.074 282.789C572.536 281.408 571.966 279.985 571.426 278.635L526.862 296.469C527.419 297.861 527.907 299.081 528.355 300.23L573.074 282.789ZM579.083 324.937C583.05 309.336 577.502 294.14 573.074 282.789L528.355 300.23C530.592 305.965 531.711 309.505 532.206 311.915C532.655 314.107 532.31 314.102 532.564 313.107L579.083 324.937ZM574.319 349.519C576.023 339.427 577.49 331.201 579.083 324.937L532.564 313.107C530.407 321.586 528.641 331.742 526.989 341.53L574.319 349.519ZM573.497 354.409C573.777 352.741 574.05 351.116 574.319 349.518L526.989 341.53C526.714 343.157 526.437 344.809 526.159 346.467L573.497 354.409ZM573.491 354.447L573.503 354.379L526.154 346.498L526.143 346.566L573.491 354.447ZM568.407 383.205C570.396 372.911 572.025 363.192 573.486 354.475L526.147 346.537C524.676 355.315 523.139 364.471 521.279 374.098L568.407 383.205ZM544.983 462.334C556.845 435.764 563.677 407.682 568.407 383.205L521.279 374.098C516.824 397.15 510.827 421.097 501.153 442.766L544.983 462.334ZM490.406 533.381C515.975 514.496 533.104 488.942 544.983 462.334L501.153 442.766C491.53 464.319 478.89 482.214 461.889 494.771L490.406 533.381ZM388 564C431.284 564 464.698 552.369 490.406 533.381L461.889 494.771C445.305 507.02 422.152 516 388 516V564ZM196.617 497.534C244.075 537.205 305.41 564 388 564V516C317.027 516 266.508 493.396 227.402 460.706L196.617 497.534ZM89.6614 357.343C116.506 406.425 149.485 458.136 196.617 497.534L227.402 460.706C187.313 427.196 157.81 381.914 131.774 334.31L89.6614 357.343ZM101.408 363.523C96.6059 364.013 91.9776 361.578 89.6613 357.343L131.774 334.31C124.825 321.605 110.94 314.301 96.5342 315.771L101.408 363.523ZM92 364C95.1716 364 98.3109 363.839 101.408 363.523L96.5343 315.771C95.0599 315.922 93.5472 316 92 316V364ZM0 272C0 322.81 41.1898 364 92 364V316C67.6995 316 48 296.301 48 272H0ZM77.4237 181.15C33.53 188.145 0 226.151 0 272H48C48 250.101 64.0302 231.89 84.9773 228.552L77.4237 181.15ZM67.6778 190.06C68.8533 185.409 72.686 181.905 77.4237 181.15L84.9773 228.552C99.1903 226.287 110.689 215.775 114.215 201.821L67.6778 190.06ZM92.7266 189.32C119.954 93.8607 207.837 24 312 24V-24C185.829 -24 79.518 60.6297 46.5675 176.154L92.7266 189.32ZM24 272C24 240.172 45.8801 213.409 75.4615 206.022L63.8326 159.452C13.3934 172.047 -24 217.614 -24 272H24ZM92 340C54.4446 340 24 309.555 24 272H-24C-24 336.065 27.935 388 92 388V340ZM92.9873 339.993C92.6586 339.998 92.3295 340 92 340V388C92.5565 388 93.1122 387.996 93.667 387.988L92.9873 339.993ZM212.009 479.12C170.385 444.326 139.998 398.526 114.301 352.325L72.3531 375.656C99.016 423.594 132.833 475.497 181.224 515.948L212.009 479.12ZM388 540C311.219 540 255.292 515.301 212.009 479.12L181.224 515.948C232.858 559.109 299.6 588 388 588V540ZM476.147 514.076C455.003 529.694 426.72 540 388 540V588C435.845 588 474.391 575.047 504.665 552.686L476.147 514.076ZM523.068 452.55C512.316 476.632 497.432 498.355 476.147 514.076L504.665 552.686C534.52 530.635 553.892 501.25 566.898 472.118L523.068 452.55ZM544.843 378.652C540.251 402.415 533.836 428.43 523.068 452.55L566.898 472.118C579.853 443.099 587.102 412.952 591.971 387.759L544.843 378.652ZM549.828 350.441C548.357 359.216 546.765 368.707 544.843 378.652L591.971 387.759C594.022 377.147 595.706 367.095 597.167 358.378L549.828 350.441ZM550.654 345.524C550.383 347.13 550.107 348.775 549.828 350.442L597.167 358.377C597.447 356.706 597.719 355.088 597.984 353.514L550.654 345.524ZM555.823 319.022C553.948 326.395 552.331 335.589 550.654 345.524L597.984 353.513C599.716 343.256 601.032 336.004 602.342 330.852L555.823 319.022ZM550.715 291.51C555.387 303.489 557.657 311.812 555.823 319.022L602.342 330.852C608.42 306.952 599.706 285.02 595.434 274.068L550.715 291.51ZM549.105 287.411C549.639 288.766 550.172 290.118 550.715 291.509L595.434 274.068C594.855 272.583 594.291 271.152 593.761 269.809L549.105 287.411ZM540 252C540 265.295 545.426 278.077 549.105 287.411L593.761 269.809C588.936 257.569 588 254.211 588 252H540ZM312 24C437.921 24 540 126.079 540 252H588C588 99.5694 464.431 -24 312 -24V24ZM78.9647 269.136C72.5631 270.852 65.9831 267.053 64.2678 260.651L110.632 248.228C105.486 229.023 85.7462 217.626 66.5414 222.772L78.9647 269.136ZM87.45 254.439C89.1653 260.841 85.3663 267.421 78.9647 269.136L66.5414 222.772C47.3366 227.918 35.9397 247.658 41.0856 266.863L87.45 254.439ZM95.7322 285.349L87.45 254.439L41.0856 266.863L49.3678 297.772L95.7322 285.349ZM81.0353 276.864C87.4369 275.148 94.0169 278.947 95.7322 285.349L49.3678 297.772C54.5137 316.977 74.2537 328.374 93.4586 323.228L81.0353 276.864ZM72.55 291.561C70.8347 285.159 74.6337 278.579 81.0353 276.864L93.4586 323.228C112.663 318.082 124.06 298.342 118.914 279.137L72.55 291.561ZM64.2678 260.651L72.55 291.561L118.914 279.137L110.632 248.228L64.2678 260.651Z" fill="black" mask="url(#path-1-inside-1_0_1058)"/>

    <title>eyes-6</title>
    <g id="All-customizable-items" stroke="none" stroke-width="1" fill="none" fill-rule="evenodd">
        <g id="Eyes/-6" transform="translate(-512.000000, -514.000000)">
            <g id="eyes-6" transform="translate(518.000000, 518.575690)">
                <circle id="Oval" fill="#000000" cx="48.2285714" cy="20" r="20"></circle>
                <path d="M0,22.4243101 C16,9.09097677 32,2.42431011 48,2.42431011 C64,2.42431011 80,9.09097677 96,22.4243101" id="Path" stroke="#000000" stroke-width="12" stroke-linecap="round" stroke-linejoin="round"></path>
                <circle id="Oval" fill="#000000" transform="translate(193.771429, 20.000000) scale(-1, 1) translate(-193.771429, -20.000000) " cx="193.771429" cy="20" r="20"></circle>
                <path d="M146,22.4243101 C162,9.09097677 178,2.42431011 194,2.42431011 C210,2.42431011 226,9.09097677 242,22.4243101" id="Path" stroke="#000000" stroke-width="12" stroke-linecap="round" stroke-linejoin="round" transform="translate(194.000000, 12.424310) scale(-1, 1) translate(-194.000000, -12.424310) "></path>
            </g>
        </g>
    </g>

    <title>eyebrows-0</title>
    <g id="All-customizable-items" stroke="none" stroke-width="1" fill="none" fill-rule="evenodd" stroke-linecap="round" stroke-linejoin="round">
        <g id="Eyebrows/-0" transform="translate(-517.000000, -484.000000)" stroke="#000000" stroke-width="16">
            <g id="eyebrows-0" transform="translate(525.000000, 492.000000)">
                <path d="M0,16 C12.8888889,5.33333333 27.8888889,0 45,0 C62.1111111,0 77.1111111,5.33333333 90,16" id="Path"></path>
                <path d="M138,16 C150.888889,5.33333333 165.888889,0 183,0 C200.111111,0 215.111111,5.33333333 228,16" id="Path"></path>
            </g>
        </g>
    </g>

    <title>mouth-4</title>
    <g id="All-customizable-items" stroke="none" stroke-width="1" fill="none" fill-rule="evenodd" stroke-linecap="round" stroke-linejoin="round">
        <g id="Mouth/-4" transform="translate(-541.000000, -740.000000)" stroke="#000000" stroke-width="16">
            <path d="M549,778 C580.121822,764.84962 604.121822,756.516287 621,753 C637.878178,749.483713 661.878178,747.817046 693,748" id="mouth-4"></path>
        </g>
    </g>

<path fill-rule="evenodd" clip-rule="evenodd" d="M3 3C3 3 24.8917 56.5222 32 66C35 70 52.9064 84.2557 51.7742 96.5802C49.0645 126.076 3 127.359 3 127.359C3 127.359 59 132.489 59 96.5802C59 80.2216 46 75 33 63C25.9588 56.5004 3 3 3 3Z" fill="black" stroke="black" stroke-width="6" stroke-linecap="round" stroke-linejoin="round"/>

<path fill-rule="evenodd" clip-rule="evenodd" d="M84.0009 485L117.001 493L168.001 570L167.012 570.138C159.394 571.17 154.724 571.124 153.001 570C140.11 561.586 132.667 547.235 121.001 535C106.896 520.207 94.5626 503.54 84.0009 485ZM360.001 10.9998C400.484 15.4649 435.917 34.7276 465.824 60.4267L468.31 60.9013C508.949 68.7916 553.312 77.5028 573.001 106C598.334 142.666 608.668 185.666 604.001 235C587.061 195.032 561.001 163 545.033 159.568C565.909 196.158 573.001 227.184 573.001 239C573.001 278 556.334 318.666 549.001 344C549.001 309.333 541.334 251.333 496.001 208C442.019 156.399 346.818 184 307.001 184C276.276 184 292.967 230.879 265.621 265.411C269.677 279 278.001 299 299.001 318C266.561 317.983 253.728 298.541 243.816 277.856L240.487 278.41C237.89 278.847 235.302 279.31 232.911 279.879C236.102 292.945 243.217 308.546 254.256 326.682C239.736 314.356 229.268 300.345 222.851 284.648C222.503 285.067 222.217 285.517 222.001 286C198.365 338.739 198.001 359 186.001 421H171.001L169.629 417.851C154.93 384.257 143.054 361.64 134.001 350L133.16 348.929C119.41 331.583 104.959 321.5 93.0009 325L92.2464 325.23L91.7115 325.403C82.9243 328.306 63.2409 337.727 49.0009 355C43.7503 361.369 38.0836 373.369 32.0009 391L31.0664 389.594L29.7007 387.517C17.0073 368.071 10.1073 353.565 9.00087 344C5.11899 310.442 1.00087 200 37.0009 149C73.0009 97.9998 84.9075 104.533 113.001 97.9998C137.001 17.3331 222.202 -4.19862 360.001 10.9998Z" fill="black"/>
<path d="M84.0009 485L85.4145 479.169C83.0875 478.605 80.648 479.478 79.2077 481.391C77.7675 483.303 77.6023 485.889 78.7874 487.97L84.0009 485ZM117.001 493L122.003 489.687C121.167 488.425 119.885 487.525 118.414 487.169L117.001 493ZM168.001 570L168.829 575.942C170.87 575.658 172.623 574.346 173.47 572.467C174.318 570.588 174.141 568.405 173.003 566.687L168.001 570ZM167.012 570.138L167.818 576.083C167.826 576.082 167.833 576.081 167.84 576.08L167.012 570.138ZM153.001 570L156.28 564.975L153.001 570ZM121.001 535L116.658 539.14L121.001 535ZM360.001 10.9998L359.343 16.9636L360.001 10.9998ZM465.824 60.4267L461.914 64.9774C462.709 65.6606 463.669 66.1236 464.699 66.3202L465.824 60.4267ZM468.31 60.9013L469.453 55.0113C469.447 55.0101 469.441 55.0089 469.435 55.0078L468.31 60.9013ZM573.001 106L568.064 109.41L573.001 106ZM604.001 235L598.477 237.341C599.549 239.871 602.202 241.349 604.917 240.929C607.632 240.51 609.715 238.3 609.974 235.565L604.001 235ZM545.033 159.568L546.294 153.702C543.98 153.205 541.59 154.114 540.192 156.024C538.794 157.933 538.649 160.486 539.821 162.542L545.033 159.568ZM549.001 344H543.001C543.001 346.988 545.2 349.521 548.158 349.94C551.117 350.36 553.933 348.539 554.764 345.668L549.001 344ZM496.001 208L491.855 212.337L496.001 208ZM265.621 265.411L260.918 261.686C259.702 263.22 259.312 265.251 259.872 267.127L265.621 265.411ZM299.001 318L298.998 324C301.48 324.001 303.706 322.474 304.599 320.158C305.492 317.842 304.867 315.216 303.026 313.551L299.001 318ZM243.816 277.856L249.227 275.263C248.073 272.854 245.465 271.499 242.83 271.937L243.816 277.856ZM240.487 278.41L239.501 272.492L239.491 272.493L240.487 278.41ZM232.911 279.879L231.521 274.042C229.967 274.412 228.625 275.386 227.792 276.749C226.959 278.112 226.703 279.751 227.082 281.302L232.911 279.879ZM254.256 326.682L250.373 331.256C252.617 333.162 255.913 333.157 258.152 331.245C260.391 329.333 260.912 326.078 259.381 323.563L254.256 326.682ZM222.851 284.648L228.405 282.377C227.607 280.427 225.845 279.038 223.763 278.718C221.68 278.397 219.582 279.193 218.235 280.814L222.851 284.648ZM222.001 286L216.526 283.546L222.001 286ZM186.001 421V427C188.875 427 191.345 424.962 191.892 422.14L186.001 421ZM171.001 421L165.5 423.397C166.454 425.585 168.614 427 171.001 427V421ZM169.629 417.851L175.129 415.455L175.126 415.446L169.629 417.851ZM134.001 350L138.737 346.316C138.731 346.309 138.726 346.302 138.72 346.295L134.001 350ZM133.16 348.929L137.879 345.223C137.873 345.216 137.868 345.209 137.862 345.202L133.16 348.929ZM93.0009 325L91.3158 319.241C91.2943 319.248 91.2729 319.254 91.2515 319.26L93.0009 325ZM92.2464 325.23L90.497 319.49C90.4646 319.5 90.4323 319.51 90.4001 319.521L92.2464 325.23ZM91.7115 325.403L89.8653 319.694C89.8532 319.698 89.8411 319.702 89.8291 319.706L91.7115 325.403ZM49.0009 355L44.3713 351.183L49.0009 355ZM32.0009 391L27.0044 394.322C28.2677 396.222 30.4993 397.241 32.7625 396.951C35.0256 396.662 36.9287 395.113 37.6728 392.957L32.0009 391ZM31.0664 389.594L26.0526 392.89C26.0584 392.899 26.0642 392.908 26.0699 392.916L31.0664 389.594ZM29.7007 387.517L24.6764 390.796C24.6799 390.802 24.6834 390.807 24.687 390.813L29.7007 387.517ZM9.00087 344L14.9611 343.31L9.00087 344ZM113.001 97.9998L114.36 103.844C116.46 103.355 118.137 101.778 118.752 99.7108L113.001 97.9998ZM82.5873 490.831L115.587 498.831L118.414 487.169L85.4145 479.169L82.5873 490.831ZM111.999 496.313L162.999 573.313L173.003 566.687L122.003 489.687L111.999 496.313ZM167.173 564.057L166.185 564.195L167.84 576.08L168.829 575.942L167.173 564.057ZM166.206 564.192C162.526 564.691 159.776 564.897 157.855 564.878C156.895 564.869 156.278 564.803 155.926 564.739C155.508 564.662 155.77 564.642 156.28 564.975L149.721 575.024C151.094 575.92 152.585 576.327 153.765 576.543C155.012 576.771 156.361 576.864 157.737 576.877C160.486 576.904 163.88 576.617 167.818 576.083L166.206 564.192ZM156.28 564.975C150.669 561.313 146.073 556.248 141.229 550.187C136.547 544.33 131.417 537.23 125.343 530.859L116.658 539.14C122.251 545.006 126.676 551.199 131.855 557.679C136.871 563.956 142.442 570.273 149.721 575.024L156.28 564.975ZM125.343 530.859C111.59 516.435 99.545 500.165 89.2143 482.03L78.7874 487.97C89.5802 506.916 102.202 523.979 116.658 539.14L125.343 530.859ZM359.343 16.9636C398.293 21.2596 432.633 39.8169 461.914 64.9774L469.735 55.876C439.201 29.6383 402.675 9.67013 360.659 5.03597L359.343 16.9636ZM464.699 66.3202L467.185 66.7948L469.435 55.0078L466.949 54.5331L464.699 66.3202ZM467.166 66.7913C487.581 70.7551 508.359 74.8266 526.474 81.3666C544.612 87.9144 559.253 96.6577 568.064 109.41L577.937 102.589C567.059 86.8449 549.675 76.9841 530.549 70.0795C511.401 63.1671 489.677 58.9379 469.453 55.0113L467.166 66.7913ZM568.064 109.41C592.504 144.784 602.577 186.339 598.028 234.435L609.974 235.565C614.758 184.994 604.164 140.549 577.937 102.589L568.064 109.41ZM609.525 232.658C600.865 212.224 589.849 193.751 578.858 179.86C573.364 172.917 567.794 167.013 562.432 162.564C557.172 158.2 551.662 154.856 546.294 153.702L543.772 165.435C546.387 165.996 550.123 167.944 554.77 171.799C559.315 175.571 564.312 180.816 569.447 187.306C579.713 200.28 590.198 217.807 598.477 237.341L609.525 232.658ZM539.821 162.542C560.396 198.603 567.001 228.589 567.001 239H579.001C579.001 225.78 571.422 193.714 550.244 156.595L539.821 162.542ZM567.001 239C567.001 257.707 562.995 277.019 557.972 295.011C555.466 303.988 552.728 312.565 550.138 320.537C547.566 328.455 545.106 335.878 543.237 342.331L554.764 345.668C556.563 339.455 558.936 332.294 561.551 324.244C564.149 316.247 566.953 307.47 569.53 298.238C574.674 279.814 579.001 259.293 579.001 239H567.001ZM555.001 344C555.001 308.675 547.223 248.662 500.147 203.663L491.855 212.337C535.445 254.004 543.001 309.992 543.001 344H555.001ZM500.147 203.663C471.431 176.214 432.142 170.194 396.113 170.65C378.018 170.879 360.434 172.75 345.048 174.533C329.45 176.341 316.51 178 307.001 178V190C317.401 190 331.292 188.208 346.43 186.454C361.779 184.674 378.835 182.87 396.265 182.649C431.286 182.205 466.589 188.185 491.855 212.337L500.147 203.663ZM307.001 178C302.387 178 298.279 178.884 294.706 180.784C291.116 182.693 288.424 185.437 286.377 188.612C282.47 194.667 280.667 202.747 279.152 210.622C275.968 227.163 273.483 245.818 260.918 261.686L270.325 269.136C285.105 250.471 287.947 228.421 290.935 212.89C292.506 204.728 294 198.93 296.46 195.117C297.596 193.357 298.855 192.169 300.34 191.379C301.842 190.58 303.933 190 307.001 190V178ZM259.872 267.127C264.137 281.415 272.926 302.5 294.975 322.449L303.026 313.551C283.075 295.5 275.218 276.585 271.371 263.695L259.872 267.127ZM299.004 312C284.135 311.992 274.248 307.59 266.914 301.166C259.373 294.559 254.115 285.463 249.227 275.263L238.405 280.449C243.43 290.935 249.544 301.902 259.007 310.192C268.678 318.664 281.427 323.991 298.998 324L299.004 312ZM242.83 271.937L239.501 272.492L241.473 284.329L244.802 283.774L242.83 271.937ZM239.491 272.493C236.879 272.933 234.122 273.423 231.521 274.042L234.301 285.716C236.483 285.196 238.901 284.762 241.483 284.327L239.491 272.493ZM227.082 281.302C230.479 295.209 237.934 311.407 249.13 329.802L259.381 323.563C248.5 305.686 241.725 290.681 238.74 278.455L227.082 281.302ZM258.139 322.108C244.261 310.327 234.414 297.079 228.405 282.377L217.297 286.918C224.121 303.611 235.211 318.385 250.373 331.256L258.139 322.108ZM218.235 280.814C217.565 281.621 216.981 282.531 216.526 283.546L227.476 288.454C227.466 288.477 227.457 288.492 227.453 288.498C227.449 288.505 227.452 288.499 227.466 288.482L218.235 280.814ZM216.526 283.546C192.534 337.08 192.043 358.207 180.11 419.86L191.892 422.14C203.959 359.792 204.197 340.397 227.476 288.454L216.526 283.546ZM186.001 415H171.001V427H186.001V415ZM176.501 418.603L175.129 415.455L164.128 420.248L165.5 423.397L176.501 418.603ZM175.126 415.446C160.436 381.872 148.303 358.616 138.737 346.316L129.265 353.683C137.805 364.664 149.424 386.642 164.132 420.256L175.126 415.446ZM138.72 346.295L137.879 345.223L128.441 352.634L129.282 353.705L138.72 346.295ZM137.862 345.202C130.755 336.236 123.21 328.806 115.58 324.054C107.978 319.319 99.5674 316.827 91.3158 319.241L94.686 330.758C98.3926 329.674 103.187 330.473 109.237 334.24C115.26 337.992 121.815 344.275 128.458 352.656L137.862 345.202ZM91.2515 319.26L90.497 319.49L93.9958 330.969L94.7503 330.739L91.2515 319.26ZM90.4001 319.521L89.8653 319.694L93.5577 331.112L94.0926 330.939L90.4001 319.521ZM89.8291 319.706C80.3177 322.848 59.5348 332.79 44.3713 351.183L53.6305 358.816C66.947 342.664 85.5308 333.764 93.5939 331.1L89.8291 319.706ZM44.3713 351.183C38.3745 358.457 32.4252 371.373 26.3289 389.043L37.6728 392.957C43.742 375.365 49.126 364.28 53.6305 358.816L44.3713 351.183ZM36.9973 387.678L36.0628 386.272L26.0699 392.916L27.0044 394.322L36.9973 387.678ZM36.0801 386.298L34.7144 384.221L24.687 390.813L26.0526 392.89L36.0801 386.298ZM34.7251 384.237C28.4666 374.649 23.7201 366.405 20.4239 359.476C17.0944 352.476 15.4048 347.146 14.9611 343.31L3.04061 344.689C3.70342 350.419 6.01701 357.124 9.58741 364.63C13.1912 372.206 18.2414 380.938 24.6764 390.796L34.7251 384.237ZM14.9611 343.31C13.0602 326.877 11.0747 291.266 14.0269 253.508C17.0008 215.473 24.9038 176.542 41.9027 152.46L32.0991 145.54C13.0979 172.458 5.06001 214.247 2.06342 252.573C-0.954836 291.175 1.05969 327.565 3.04061 344.689L14.9611 343.31ZM41.9027 152.46C59.7563 127.167 71.0364 117.054 80.6741 112.179C85.4733 109.751 90.1183 108.494 95.4903 107.441C100.621 106.435 107.274 105.492 114.36 103.844L111.642 92.1558C104.681 93.7746 99.3103 94.4641 93.1827 95.6649C87.296 96.8185 81.4468 98.3401 75.2576 101.471C62.9187 107.712 50.2455 119.832 32.0991 145.54L41.9027 152.46ZM118.752 99.7108C130.12 61.5014 155.791 37.2889 195.69 24.2537C235.99 11.0872 290.718 9.39473 359.343 16.9636L360.659 5.03597C291.484 -2.59354 234.712 -1.11934 191.963 12.8471C148.812 26.9448 119.882 53.8315 107.25 96.2888L118.752 99.7108Z" fill="black"/>

    <title>beard-10</title>
    <g id="All-customizable-items" stroke="none" stroke-width="1" fill="none" fill-rule="evenodd" stroke-linecap="round" stroke-linejoin="round">
        <g id="Beard/-10" transform="translate(-359.000000, -645.000000)" fill="#000000" stroke="#000000" stroke-width="12">
            <path d="M385,651 C400.949347,693.922506 417.682633,729.624512 435.19986,758.106018 L435.257961,757.93037 L435.257961,757.93037 L435.382991,757.590097 C436.332315,755.121854 438.453635,752.057725 441.746952,748.397709 C445.047182,758.655798 447.875609,766.669675 450.232233,772.43934 C452.097947,777.007122 454.998032,783.424708 458.932488,791.692099 C462.241449,795.708652 465.576333,799.483371 468.937098,803.019711 C468.747704,801.751066 468.712602,800.556378 468.831416,799.433013 C469.109564,796.803169 470.365547,793.29441 472.599365,788.906733 C478.442132,797.961124 483.248326,804.969884 487.017949,809.933013 C490.647638,814.711903 496.463455,821.737819 504.465401,831.01076 C508.572484,833.217447 512.714195,835.101048 516.89077,836.663537 C516.545049,836.110965 516.247867,835.5577 516,835 C514.925962,832.583415 514.259295,828.916748 514,824 C523.58718,828.919949 531.253846,832.586615 537,835 C541.622781,836.941568 548.351518,839.478546 557.186211,842.610933 C564.771431,840.895593 570.683251,839.438661 574.924158,838.240012 C580.921598,836.544896 588.977973,833.839892 599.093282,830.124999 C598.568821,833.09366 597.949892,835.578556 597.236495,837.579687 C601.020483,836.642061 604.801869,835.576414 608.580373,834.382534 C617.277979,828.42916 623.771313,823.79084 628.061261,820.465325 C632.986989,816.64696 639.443418,811.120953 647.430546,803.887303 C648.452634,808.703627 648.757686,812.417901 648.345704,815.030125 C648.225732,815.790817 648.028088,816.565012 647.752769,817.352712 C669.261883,805.436827 690.678134,789.318484 712,769 C710.645087,779.947888 705.645087,789.947888 697,799 C655.842569,842.095192 585,869 525,865 C455.659793,860.37732 402.32646,789.043986 365,651 L385,651 Z M500.454782,828.750915 C500.081029,828.529966 499.707569,828.306327 499.3344,828.08 Z" id="beard-10"></path>
        </g>
    </g>

    <title>details-8</title>
    <g id="All-customizable-items" stroke="none" stroke-width="1" fill="none" fill-rule="evenodd" stroke-linecap="round" stroke-linejoin="round">
        <g id="Details/-8" transform="translate(-519.000000, -617.000000)" stroke="#000000" stroke-width="4">
            <g id="Path" transform="translate(521.813827, 619.000000)">
                <path d="M10.1861726,0 C5.29024008,26.7511905 2.29024008,46.7511905 1.18617262,60 C0.0821051592,73.2488095 -0.251228174,93.2488095 0.186172617,120"></path>
                <path d="M232.372345,1.42108547e-14 C227.476413,26.7511905 224.476413,46.7511905 223.372345,60 C222.55548,69.8023858 222.160519,83.3004165 222.187463,100.494092" transform="translate(227.279259, 50.247046) scale(-1, 1) translate(-227.279259, -50.247046) "></path>
            </g>
        </g>
    </g>

    <title>accessories-6</title>
    <g id="All-customizable-items" stroke="none" stroke-width="1" fill="none" fill-rule="evenodd" stroke-linecap="round" stroke-linejoin="round">
        <g id="Accessories/-6" transform="translate(-259.000000, -685.000000)" fill="#FFFFFF" stroke="#000000" stroke-width="8">
            <path d="M281,720 C288.333333,736.666667 295.666667,742.666667 303,738 C314,731 300.685557,703.463464 300.685557,697.308048 C300.685557,691.152631 308.938123,687.771131 312.938123,691.142601 C316.938123,694.514071 320.748656,704.392476 323,717 C328,745 315,757 300,758 C284.006216,759.066252 271.672883,743.732919 263,712 L281,720 Z" id="accessories-6"></path>
        </g>
    </g>

</svg>